<?xml version="1.0" encoding="UTF-8" standalone="no"?>
<svg
   xmlns:dc="http://purl.org/dc/elements/1.1/"
   xmlns:cc="http://creativecommons.org/ns#"
   xmlns:rdf="http://www.w3.org/1999/02/22-rdf-syntax-ns#"
   xmlns:svg="http://www.w3.org/2000/svg"
   xmlns="http://www.w3.org/2000/svg"
   xmlns:sodipodi="http://sodipodi.sourceforge.net/DTD/sodipodi-0.dtd"
   xmlns:inkscape="http://www.inkscape.org/namespaces/inkscape"
   width="500"
   height="433"
   id="svg2"
   version="1.1"
   inkscape:version="0.48.4 r9939"
   sodipodi:docname="Fwd-2016-Newest-Popular-handbag-designs-from-Ceso-46-2016022459 (1).svg">
  <metadata
     id="metadata758">
    <rdf:RDF>
      <cc:Work
         rdf:about="">
        <dc:format>image/svg+xml</dc:format>
        <dc:type
           rdf:resource="http://purl.org/dc/dcmitype/StillImage" />
        <dc:title></dc:title>
      </cc:Work>
    </rdf:RDF>
  </metadata>
  <defs
     id="defs756" />
  <sodipodi:namedview
     pagecolor="#ffffff"
     bordercolor="#666666"
     borderopacity="1"
     objecttolerance="10"
     gridtolerance="10"
     guidetolerance="10"
     inkscape:pageopacity="0"
     inkscape:pageshadow="2"
     inkscape:window-width="640"
     inkscape:window-height="480"
     id="namedview754"
     showgrid="false"
     inkscape:zoom="0.54503464"
     inkscape:cx="250"
     inkscape:cy="216.5"
     inkscape:window-x="762"
     inkscape:window-y="327"
     inkscape:window-maximized="0"
     inkscape:current-layer="svg2" />
  <path
     style="fill:#f6dcd2;stroke:none"
     d="m 188,44 c -4.58829,19.766229 -14.66426,38.911805 -17.16449,59.64545 -4.38926,20.98095 -3.95269,42.5234 -6.23451,63.68705 -1.9184,7.01933 -3.13843,15.86826 -3.601,2.25746 -0.0157,-7.8699 -4.97861,15.58111 3.80573,10.41004 -3.90894,-5.57618 19.19086,-1.32226 8.58997,-1 -13.68553,-0.0947 2.16449,2.181 7.6043,2 10.63645,3.28443 6.52367,-9.07347 7.91716,-15.59169 5.68275,7.91649 4.13264,44.65721 -20.99464,34.86655 -23.88433,-3.98906 -3.79395,-33.13456 -10.16695,-49.22483 1.53919,-13.68462 3.12251,-24.22137 -13.07381,-18.36368 -24.74168,3.4891 -50.068154,3.93867 -73.93946,11.95165 C 69.8282,153.75867 68.9141,162.87933 68,172 c 3.531495,-7.84703 1.108881,9.39217 1.45266,13.81116 C 67.301773,251.87411 65.150887,317.93705 63,384 c 4.202128,-2.45194 4.217797,-13.51359 3.333565,-18.99965 0.983882,-7.89678 0.673507,-0.53563 0.526655,-7.38028 -6.517666,-3.91015 10.946608,-7.98015 1.584519,-8.02753 C 66.400822,349.9163 67.301878,339.2648 68,338 c 0.09611,-8.2939 1.662443,-13.58009 -0.0746,-19.5373 1.081621,-2.58819 0.544312,-12.21584 0.08333,-21.61525 C 66.029138,287.65088 72.501136,289.52442 82,288 c 2,8 4,16 6,24 7.745656,-3.91933 5.140455,16.91042 8,3.19427 7.8763,5.32437 20.18783,2.51053 19.20143,12.80573 5.43923,1.62792 10.89537,3.23892 15.20144,6 9.58592,-1.77595 2.41557,10.16816 11.03885,7.92229 5.38444,4.96733 7.60394,16.26452 16.56545,14.07771 1.64072,-6.15149 10.37044,-2.06768 17.34395,-1.12166 8.79062,-7.27818 10.29523,6.32358 14.12141,-1.99922 3.31947,9.42355 -0.0344,-6.97395 11.03147,-0.91812 12.00119,-4.06943 15.25214,-0.60347 17.89887,7.039 4.29797,-2.22108 14.99975,-0.81731 12.07742,-7.55912 1.6607,-3.27709 14.31707,-11.55826 15.5001,-2.2252 2.54874,-4.79626 2.00753,4.76044 2.01961,12.20152 -0.46767,4.98255 0.44359,22.17485 1,8.57563 0.35423,-39.01085 -0.91326,-78.07553 1.07573,-117.03234 C 247.89745,242.49116 244.65475,235.61926 248,232 c -3.01678,-4.18197 -1.26091,-7.85745 0,-12 -3.89717,-1.51081 1.6401,-14.95316 -2,-22 4.59515,-10.43436 -2.26101,-20.87422 1.91343,-31.93732 C 250.1153,152.51581 248.51145,138.6779 249,125 c -18.83848,3.98084 -38.32059,3.19774 -57.43437,2.652 -11.51161,-5.7126 2.01943,-4.61995 -7.27275,-14.087 -0.23474,-23.88812 5.18144,-47.63941 17.95185,-68.06343 10.00838,-19.081575 32.02389,-30.799159 53.01177,-31.284472 35.09926,4.188678 55.90823,40.190249 61.82197,72.047546 C 316.84602,98.405419 325.35515,122.18538 310,124 c 7.8481,3.46575 -9.39812,1.47448 -13.82007,2 -15.05998,0 -30.11995,0 -45.17993,0 0.33333,90.33333 0.66667,180.66667 1,271 4.82405,-6.22672 22.04599,2.21049 35.54843,-0.80332 20.84641,1.68462 42.40504,2.43322 62.45439,6.44836 17.22129,5.24489 39.09136,2.23324 58.12385,3.1971 9.69166,-3.92483 20.08081,-3.41773 26.87282,-1.04357 -0.0696,-47.15225 0.73404,-94.325 -2.44178,-141.40429 C 431.3718,237.92952 430.1859,212.46476 429,187 c -0.0116,10.29398 12.51542,4.35806 9,1 4.75421,-2.81724 -11.17544,-3.27792 1,-4 -2.85819,-13.65286 -8.62221,2.50417 -14.99896,-2.99931 8.00427,-16.8894 6.79826,-46.9276 -19.25995,-42.28408 -22.75375,-2.47716 -49.67513,-3.60974 -69.36116,-10.85639 C 330.78594,122.08484 330.19131,86.728266 330,109.61147 326.99756,106.10667 324.1586,81.50662 321.32207,69.880691 314.95116,30.680014 274.87785,-2.4958691 234.62527,7.5365937 215.10656,12.341703 197.36369,26.248119 188,44 z M 66,10 c 6.907943,2.399253 16.787546,0.421964 2.421731,0.201811 C 67.614487,10.134541 66.807244,10.06727 66,10 z"
     id="path6"
     inkscape:connector-curvature="0" />
  <path
     style="fill:#d3b09d;stroke:none"
     d="m 239,16 c 5.20916,2.536979 14.73517,0.926325 21.60853,1.864341 C 271.29586,17.058064 240.72086,11.16136 239,16 z"
     id="path20"
     inkscape:connector-curvature="0" />
  <path
     style="fill:#af8d72;stroke:none"
     d="m 219,26 c 4.96788,0.747816 14.05266,-4.134689 20.60766,-5.557431 10.40009,-5.020177 21.35749,1.988821 32.03897,3.042332 C 267.45815,10.597229 232.03779,15.675605 219,26 z"
     id="path30"
     inkscape:connector-curvature="0" />
  <path
     style="fill:#e0bfb0;stroke:none"
     d="m 261,16 c 4.84681,4.510026 13.63439,6.472007 20,10 -4.2969,-6.61857 -12.62578,-8.979669 -20,-10 z"
     id="path32"
     inkscape:connector-curvature="0" />
  <path
     style="fill:#e0bfb0;stroke:none"
     d="m 243,18 c 5.10132,2.327347 19.55774,0.525528 4.61474,0.35498 C 246.07649,18.236653 244.53825,18.118327 243,18 z"
     id="path42"
     inkscape:connector-curvature="0" />
  <path
     style="fill:#e0bfb0;stroke:none"
     d="m 262,20 c 0.33156,2.705593 5.56972,0.131093 0,0 z m 3.667,1.3333 0.666,0.3334 -0.666,-0.3334 z"
     id="path46"
     inkscape:connector-curvature="0" />
  <path
     style="fill:#bc9e8b;stroke:none"
     d="m 272,22 c 9.67284,10.402277 24.98382,19.158191 31,34 0.0473,-13.824866 -16.83522,-29.335075 -31,-34 z"
     id="path48"
     inkscape:connector-curvature="0" />
  <path
     style="fill:#d3b09d;stroke:none"
     d="M 218,26 C 207.90337,32.818393 192.54914,57.144548 209.57004,38.885676 210.90565,35.571539 226.65477,27.363153 218,26 z m 63,0 c 14.23595,13.654885 27.14873,29.479883 30.36387,49.58637 7.8381,13.533365 0.82968,43.75747 4.91569,47.17348 4.55825,-17.54618 -0.6067,-40.303523 -5.33583,-58.908757 C 304.84652,49.737937 296.97742,30.680716 281,26 z"
     id="path50"
     inkscape:connector-curvature="0" />
  <path
     style="fill:#e0bfb0;stroke:none"
     d="m 189,43 c -18.38723,24.85036 -14.24072,57.83284 -26.18779,85.25638 3.03859,10.77675 -1.92281,18.67868 0.49093,28.60774 0.23367,11.61783 0.66872,10.60023 1.66782,-0.63334 1.44597,-20.09962 3.39325,-40.12183 8.72547,-59.621373 C 176.89405,78.146618 183.07286,60.714506 189,43 z"
     id="path88"
     inkscape:connector-curvature="0" />
  <path
     style="fill:#e0bfb0;stroke:none"
     d="m 191,64 c -9.22207,13.571589 -0.70726,40.44841 -8,48 4.93694,11.6592 5.73363,7.20453 5.04932,-3.01424 C 187.87027,93.838431 187.86237,78.905509 191,64 z"
     id="path128"
     inkscape:connector-curvature="0" />
  <path
     style="fill:#dccfc6;stroke:none"
     d="m 323,75 c 2,12.333333 4,24.666667 6,37 1.97678,-10.48564 0.38593,-26.501088 -6,-37 z"
     id="path136"
     inkscape:connector-curvature="0" />
  <path
     style="fill:#bc9e8b;stroke:none"
     d="m 185,96 c -1.00561,8.07193 -1.17025,27.02718 1.36907,6.36557 L 186.0648,99.950281 185,96 z"
     id="path212"
     inkscape:connector-curvature="0" />
  <path
     style="fill:#dccfc6;stroke:none"
     d="m 229,121 c 7.23311,2.43255 15.19546,0.37277 1.428,0.12982 L 229.2315,121.02105 229,121 z"
     id="path242"
     inkscape:connector-curvature="0" />
  <path
     style="fill:#bc9e8b;stroke:none"
     d="m 240,121 c 5.21332,2.32861 14.74695,0.33692 21.62581,1 14.51287,0.11523 1.26599,-0.23207 -6.03501,-0.48031 C 250.39387,121.34646 245.19693,121.17323 240,121 z"
     id="path244"
     inkscape:connector-curvature="0" />
  <path
     style="fill:#dccfc6;stroke:none"
     d="m 270,121 c 5.95823,2.20483 17.55525,0.85378 0,0 z"
     id="path246"
     inkscape:connector-curvature="0" />
  <path
     style="fill:#0c0909;stroke:none"
     d="m 185,122 c -1.34696,3.29634 4.92255,2.73133 0,0 z"
     id="path248"
     inkscape:connector-curvature="0" />
  <path
     style="fill:#b8b3b2;stroke:none"
     d="m 213,122 c 2.0217,2.29427 11.31928,0.75181 0,0 z"
     id="path250"
     inkscape:connector-curvature="0" />
  <path
     style="fill:#a76540;stroke:none"
     d="m 219,122 c 2.78403,2.46126 21.17248,1.34767 18.80453,1.88045 C 231.53635,123.25364 225.26818,122.62682 219,122 z"
     id="path252"
     inkscape:connector-curvature="0" />
  <path
     style="fill:#49271b;stroke:none"
     d="m 235,122 c 5.21332,2.32861 14.74695,0.33692 21.62581,1 7.48094,0.003 19.21596,0.067 4.96758,-0.24019 C 252.72893,122.50654 243.86446,122.25327 235,122 z"
     id="path254"
     inkscape:connector-curvature="0" />
  <path
     style="fill:#6b4224;stroke:none"
     d="m 267,123 c 1.72301,2.23121 22.48855,0.55333 14.40125,0.80007 C 276.60083,123.53338 271.80042,123.26669 267,123 z"
     id="path256"
     inkscape:connector-curvature="0" />
  <path
     style="fill:#867269;stroke:none"
     d="m 280,122 c 4.10857,2.41269 13.32756,0.52661 0,0 z"
     id="path258"
     inkscape:connector-curvature="0" />
  <path
     style="fill:#dccfc6;stroke:none"
     d="m 288,122 c 4.10857,2.41269 13.32756,0.52661 0,0 z"
     id="path260"
     inkscape:connector-curvature="0" />
  <path
     style="fill:#6b5146;stroke:none"
     d="m 185,124 c 1.66286,1.98927 6.29599,-1.14471 0,0 z"
     id="path262"
     inkscape:connector-curvature="0" />
  <path
     style="fill:#9f9997;stroke:none"
     d="m 200,123 c 4.6261,2.40362 9.41441,0.39502 0,0 z"
     id="path264"
     inkscape:connector-curvature="0" />
  <path
     style="fill:#6b4224;stroke:none"
     d="m 207,123 c 5.21332,2.32861 14.74695,0.33692 21.62581,1 6.77774,-0.0151 -11.77317,-0.53654 -15.83339,-0.7683 C 210.86161,123.15446 208.93081,123.07723 207,123 z"
     id="path266"
     inkscape:connector-curvature="0" />
  <path
     style="fill:#af8d72;stroke:none"
     d="m 239,123 c 2.18639,2.37207 22.71679,2.14714 9.04553,1.20607 C 245.03035,123.80405 242.01518,123.40202 239,123 z"
     id="path268"
     inkscape:connector-curvature="0" />
  <path
     style="fill:#d3b09d;stroke:none"
     d="m 254,123 c -4.28075,0.91001 -21.70625,1.14323 -16.59713,3 10.19904,0 20.39809,0 30.59713,0 -2.40014,-2.66421 -9.91665,-1.75609 -14,-3 z"
     id="path270"
     inkscape:connector-curvature="0" />
  <path
     style="fill:#af8d72;stroke:none"
     d="m 255,123 c 2.90413,4.65327 14.2048,1.14884 20.41587,2.58922 11.53951,0.69316 23.06381,0.20647 34.58413,-0.58922 -18.33333,-0.66667 -36.66667,-1.33333 -55,-2 z"
     id="path272"
     inkscape:connector-curvature="0" />
  <path
     style="fill:#0c0909;stroke:none"
     d="m 285,123 c 4.10857,2.41269 13.32756,0.52661 0,0 z"
     id="path274"
     inkscape:connector-curvature="0" />
  <path
     style="fill:#514b48;stroke:none"
     d="m 293,123 c -0.15551,4.62127 13.86185,-0.67696 0,0 z"
     id="path276"
     inkscape:connector-curvature="0" />
  <path
     style="fill:#b8b3b2;stroke:none"
     d="m 300,123 c 2.10721,2.36615 8.51448,0.5121 0,0 z"
     id="path278"
     inkscape:connector-curvature="0" />
  <path
     style="fill:#6b5146;stroke:none"
     d="m 333,123 c 3.31181,3.31181 4.47789,4.47789 0,0 z"
     id="path280"
     inkscape:connector-curvature="0" />
  <path
     style="fill:#ebbd98;stroke:none"
     d="m 186,125 c 13.065,8.40106 44.70599,0.56041 51.59715,-0.009 C 220.39792,124.87055 203.19932,124.94417 186,125 z"
     id="path282"
     inkscape:connector-curvature="0" />
  <path
     style="fill:#6b4224;stroke:none"
     d="m 192,124 c 3.77485,2.95996 8.76433,1.9877 0,0 z"
     id="path284"
     inkscape:connector-curvature="0" />
  <path
     style="fill:#49271b;stroke:none"
     d="m 198,124 c 7.23311,2.43255 15.19546,0.37277 1.428,0.12982 L 198.2315,124.02105 198,124 z"
     id="path286"
     inkscape:connector-curvature="0" />
  <path
     style="fill:#df9575;stroke:none"
     d="m 213,124 c 4.10857,2.41269 13.32756,0.52661 0,0 z"
     id="path288"
     inkscape:connector-curvature="0" />
  <path
     style="fill:#49271b;stroke:none"
     d="m 298,124 c 5.95823,2.20483 17.55525,0.85378 0,0 z m -108,1 c 2.10721,2.36615 8.51448,0.5121 0,0 z"
     id="path290"
     inkscape:connector-curvature="0" />
  <path
     style="fill:#866143;stroke:none"
     d="m 249,125 c -0.76841,6.06614 5.37595,-1.28048 0,0 z"
     id="path292"
     inkscape:connector-curvature="0" />
  <path
     style="fill:#34261d;stroke:none"
     d="m 309,125 c 1.92833,2.42426 6.11141,0.38264 0,0 z"
     id="path294"
     inkscape:connector-curvature="0" />
  <path
     style="fill:#6b4224;stroke:none"
     d="m 186,126 c 0.33156,2.70559 5.56972,0.13109 0,0 z"
     id="path296"
     inkscape:connector-curvature="0" />
  <path
     style="fill:#e0bfb0;stroke:none"
     d="m 289,126 c 4.6261,2.40362 9.41441,0.39502 0,0 z"
     id="path298"
     inkscape:connector-curvature="0" />
  <path
     style="fill:#9f9997;stroke:none"
     d="m 153,127 c 4.10857,2.41269 13.32756,0.52661 0,0 z"
     id="path300"
     inkscape:connector-curvature="0" />
  <path
     style="fill:#49271b;stroke:none"
     d="m 157,128 c 3.17649,1.22559 9.18916,-2.45292 0,0 z"
     id="path302"
     inkscape:connector-curvature="0" />
  <path
     style="fill:#bc9e8b;stroke:none"
     d="m 249,127 c -0.76841,6.06614 5.37595,-1.28048 0,0 z"
     id="path304"
     inkscape:connector-curvature="0" />
  <path
     style="fill:#af8d72;stroke:none"
     d="m 308,127 c 1.92833,2.42426 6.11141,0.38264 0,0 z"
     id="path306"
     inkscape:connector-curvature="0" />
  <path
     style="fill:#9f9997;stroke:none"
     d="m 335,129 c 7.22182,-1.03169 9.17994,-1.31142 0,0 z"
     id="path308"
     inkscape:connector-curvature="0" />
  <path
     style="fill:#6b5146;stroke:none"
     d="m 145,128 c 6.70671,3.20191 13.86583,2.05449 0,0 z"
     id="path310"
     inkscape:connector-curvature="0" />
  <path
     style="fill:#0c0909;stroke:none"
     d="m 153,128 c 1.92833,2.42426 6.11141,0.38264 0,0 z"
     id="path312"
     inkscape:connector-curvature="0" />
  <path
     style="fill:#d3b09d;stroke:none"
     d="m 237,128 c -0.76841,6.06614 5.37595,-1.28048 0,0 z"
     id="path314"
     inkscape:connector-curvature="0" />
  <path
     style="fill:#e0bfb0;stroke:none"
     d="m 282,128 c -0.76841,6.06614 5.37595,-1.28048 0,0 z"
     id="path316"
     inkscape:connector-curvature="0" />
  <path
     style="fill:#34261d;stroke:none"
     d="m 336,128 c 4.10857,2.41269 13.32756,0.52661 0,0 z"
     id="path318"
     inkscape:connector-curvature="0" />
  <path
     style="fill:#514b48;stroke:none"
     d="m 342,129 c 6.23986,4.01446 22.7452,0.22523 3.62652,-0.68116 L 342,129 z m -203,0 c 2.0217,2.29427 11.31928,0.75181 0,0 z"
     id="path320"
     inkscape:connector-curvature="0" />
  <path
     style="fill:#0c0909;stroke:none"
     d="m 145,129 c 1.92833,2.42426 6.11141,0.38264 0,0 z"
     id="path322"
     inkscape:connector-curvature="0" />
  <path
     style="fill:#d3b09d;stroke:none"
     d="m 100,136 c 15.42202,5.85718 34.52846,-3.93193 51.42413,-4.43462 14.55467,6.30494 11.66004,-6.49922 -0.16877,-1.35228 C 134.17024,132.14207 117.08512,134.07103 100,136 z"
     id="path324"
     inkscape:connector-curvature="0" />
  <path
     style="fill:#ffffff;stroke:none"
     d="m 162,129 c -3.92397,13.05615 -3.6768,42.76241 1.33287,47.00069 -1.74103,-4.95303 0.24866,-12.01876 0.66713,-18.40356 -0.4138,-9.57321 1.30757,-19.38151 -2,-28.59713 z"
     id="path326"
     inkscape:connector-curvature="0" />
  <path
     style="fill:#bc9e8b;stroke:none"
     d="m 233.667,129.333 c 0.222,0.11133 0.222,0.11133 0,0 z"
     id="path328"
     inkscape:connector-curvature="0" />
  <path
     style="fill:#6b5146;stroke:none"
     d="m 249,129 c 0.19527,11.11898 2.84191,11.09848 2,0 l -1.20143,0 L 249,129 z"
     id="path330"
     inkscape:connector-curvature="0" />
  <path
     style="fill:#ebbd98;stroke:none"
     d="m 337,129 c 5.16672,3.02413 14.61512,2.30434 21.43249,3.88514 10.18917,1.37162 20.37834,2.74324 30.56751,4.11486 -16.95168,-4.91179 -34.59937,-5.60329 -52,-8 z"
     id="path332"
     inkscape:connector-curvature="0" />
  <path
     style="fill:#bc9e8b;stroke:none"
     d="m 356.667,129.333 c 0.222,0.11133 0.222,0.11133 0,0 z"
     id="path334"
     inkscape:connector-curvature="0" />
  <path
     style="fill:#34261d;stroke:none"
     d="m 113,133 c 5.18565,1.79217 14.66867,-1.18053 21.51101,-1.22528 15.97717,-0.61348 -4.78847,-3.60288 -10.70081,-0.61963 C 120.22263,131.8503 116.65038,132.69001 113,133 z"
     id="path336"
     inkscape:connector-curvature="0" />
  <path
     style="fill:#af8d72;stroke:none"
     d="m 189,130 c -0.76841,6.06614 5.37595,-1.28048 0,0 z"
     id="path338"
     inkscape:connector-curvature="0" />
  <path
     style="fill:#d3b09d;stroke:none"
     d="m 193,130 c -0.76841,6.06614 5.37595,-1.28048 0,0 z"
     id="path340"
     inkscape:connector-curvature="0" />
  <path
     style="fill:#867269;stroke:none"
     d="m 352.667,130.333 c 0.222,0.11133 0.222,0.11133 0,0 z"
     id="path342"
     inkscape:connector-curvature="0" />
  <path
     style="fill:#34261d;stroke:none"
     d="m 356,130 c 5.17619,2.94976 14.64191,2.09395 21.47176,3.57661 7.20221,0.85757 -11.41899,-1.89873 -15.45327,-2.61365 C 360.01233,130.64197 358.00616,130.32099 356,130 z"
     id="path344"
     inkscape:connector-curvature="0" />
  <path
     style="fill:#dccfc6;stroke:none"
     d="m 119,131 c 2.0217,2.29427 11.31928,0.75181 0,0 z"
     id="path346"
     inkscape:connector-curvature="0" />
  <path
     style="fill:#b8b3b2;stroke:none"
     d="m 369,131 c 1.92833,2.42426 6.11141,0.38264 0,0 z"
     id="path348"
     inkscape:connector-curvature="0" />
  <path
     style="fill:#9f9997;stroke:none"
     d="m 113,132 c 2.10721,2.36615 8.51448,0.5121 0,0 z m 263,0 c 1.92833,2.42426 6.11141,0.38264 0,0 z"
     id="path350"
     inkscape:connector-curvature="0" />
  <path
     style="fill:#6b5146;stroke:none"
     d="m 108,133 c 2.10721,2.36615 8.51448,0.5121 0,0 z"
     id="path352"
     inkscape:connector-curvature="0" />
  <path
     style="fill:#867269;stroke:none"
     d="m 158,133 c -0.56246,11.22881 1.70948,10.77479 0,0 z"
     id="path354"
     inkscape:connector-curvature="0" />
  <path
     style="fill:#49271b;stroke:none"
     d="m 159,133 c 0,9.33333 0,18.66667 0,28 2.14254,-5.21 -0.18942,-14.73756 0.22814,-21.61203 C 159.15209,137.25865 159.07605,135.12932 159,133 z"
     id="path356"
     inkscape:connector-curvature="0" />
  <path
     style="fill:#bc9e8b;stroke:none"
     d="m 308,133 c -0.97363,5.23942 2.04966,8.17398 0,0 z m 32,0 c -0.76841,6.06614 5.37595,-1.28048 0,0 z"
     id="path358"
     inkscape:connector-curvature="0" />
  <path
     style="fill:#866143;stroke:none"
     d="m 381,135 c 2.56194,-0.85398 5.18937,-1.72979 0,0 z"
     id="path360"
     inkscape:connector-curvature="0" />
  <path
     style="fill:#49271b;stroke:none"
     d="m 90,140 c 9.699677,-1.98515 24.73225,-8.14123 5.323491,-3.98206 L 93.140127,137.12386 90,140 z"
     id="path362"
     inkscape:connector-curvature="0" />
  <path
     style="fill:#0c0909;stroke:none"
     d="m 107,134 c 0.33156,2.70559 5.56972,0.13109 0,0 z"
     id="path364"
     inkscape:connector-curvature="0" />
  <path
     style="fill:#34261d;stroke:none"
     d="m 382,134 c 1.79439,2.51734 20.06084,3.88898 15.65435,3.47874 C 392.43623,136.31916 387.21812,135.15958 382,134 z"
     id="path366"
     inkscape:connector-curvature="0" />
  <path
     style="fill:#9f9997;stroke:none"
     d="m 98,135 c 1.530439,1.53044 0.90156,0.90156 0,0 z"
     id="path368"
     inkscape:connector-curvature="0" />
  <path
     style="fill:#bc9e8b;stroke:none"
     d="m 145.667,135.333 c 0.222,0.11133 0.222,0.11133 0,0 z"
     id="path370"
     inkscape:connector-curvature="0" />
  <path
     style="fill:#dccfc6;stroke:none"
     d="m 338,135 c 0.66667,11 1.33333,22 2,33 1.73728,-2.6888 1.45712,-17.09101 0,-17.79857 0.81588,10.1112 -1.48241,15.30112 -1.35574,2.19369 C 338.42951,146.59674 338.21475,140.79837 338,135 z"
     id="path372"
     inkscape:connector-curvature="0" />
  <path
     style="fill:#49271b;stroke:none"
     d="m 249,136 c 0,35.33333 0,70.66667 0,106 2.32861,-5.21332 0.33692,-14.74695 1,-21.62581 0.006,-28.13446 0.27478,-56.25884 -1,-84.37419 z"
     id="path374"
     inkscape:connector-curvature="0" />
  <path
     style="fill:#866143;stroke:none"
     d="m 307,136 c -0.97363,5.23942 2.04966,8.17398 0,0 z"
     id="path376"
     inkscape:connector-curvature="0" />
  <path
     style="fill:#bc9e8b;stroke:none"
     d="m 389,136 c 0.33156,2.70559 5.56972,0.13109 0,0 z"
     id="path378"
     inkscape:connector-curvature="0" />
  <path
     style="fill:#af8d72;stroke:none"
     d="m 87,137 c 1.928326,2.42426 6.111406,0.38264 0,0 z"
     id="path380"
     inkscape:connector-curvature="0" />
  <path
     style="fill:#d3b09d;stroke:none"
     d="m 124,137 c -0.76841,6.06614 5.37595,-1.28048 0,0 z"
     id="path382"
     inkscape:connector-curvature="0" />
  <path
     style="fill:#af8d72;stroke:none"
     d="m 128,137 c 0.33156,2.70559 5.56972,0.13109 0,0 z"
     id="path384"
     inkscape:connector-curvature="0" />
  <path
     style="fill:#e0bfb0;stroke:none"
     d="m 306,137 c -0.68893,10.44939 1.58445,13.78815 0.12982,1.428 L 306.02105,137.2315 306,137 z"
     id="path386"
     inkscape:connector-curvature="0" />
  <path
     style="fill:#bc9e8b;stroke:none"
     d="m 339,137 c 0,8.33333 0,16.66667 0,25 2.12025,-5.20916 -0.25249,-14.73517 0.13566,-21.60853 C 339.09044,139.26098 339.04522,138.13049 339,137 z"
     id="path388"
     inkscape:connector-curvature="0" />
  <path
     style="fill:#d3b09d;stroke:none"
     d="m 393.667,137.333 c 0.222,0.11133 0.222,0.11133 0,0 z"
     id="path390"
     inkscape:connector-curvature="0" />
  <path
     style="fill:#867269;stroke:none"
     d="m 84,138 c 1.654195,3.55082 6.976591,0.72082 0.503314,0.12583 L 84,138 z"
     id="path392"
     inkscape:connector-curvature="0" />
  <path
     style="fill:#0c0909;stroke:none"
     d="m 86,138 c 0.331556,2.70559 5.569716,0.13109 0,0 z"
     id="path394"
     inkscape:connector-curvature="0" />
  <path
     style="fill:#af8d72;stroke:none"
     d="m 92,138 c 0.331556,2.70559 5.569716,0.13109 0,0 z"
     id="path396"
     inkscape:connector-curvature="0" />
  <path
     style="fill:#bc9e8b;stroke:none"
     d="m 120.667,138.333 0.666,0.334 -0.666,-0.334 z M 398,138 c 1.92833,2.42426 6.11141,0.38264 0,0 z"
     id="path398"
     inkscape:connector-curvature="0" />
  <path
     style="fill:#514b48;stroke:none"
     d="m 78,142 c 7.389309,-0.45308 8.411838,-5.54501 0,0 z"
     id="path400"
     inkscape:connector-curvature="0" />
  <path
     style="fill:#9f9997;stroke:none"
     d="m 250,139 c -0.70415,10.02507 1.59731,15.67902 0.20181,2.42173 C 250.13454,140.61449 250.06727,139.80724 250,139 z"
     id="path402"
     inkscape:connector-curvature="0" />
  <path
     style="fill:#34261d;stroke:none"
     d="m 308,139 c -0.75988,8.12742 1.88893,12.24849 0,0 z"
     id="path404"
     inkscape:connector-curvature="0" />
  <path
     style="fill:#e0bfb0;stroke:none"
     d="m 99,140 c 3.0687,2.0458 5.25121,3.50081 0,0 z"
     id="path406"
     inkscape:connector-curvature="0" />
  <path
     style="fill:#ffffff;stroke:none"
     d="m 336,140 c -2.1278,13.70817 2.2446,25.30234 1.07817,39.42145 1.70645,5.19573 0.62054,-13.10306 0.92183,-17.84582 0.46458,-7.32209 -0.62765,-14.40708 -2,-21.57563 z"
     id="path408"
     inkscape:connector-curvature="0" />
  <path
     style="fill:#bc9e8b;stroke:none"
     d="m 388.667,140.333 c 0.222,0.11133 0.222,0.11133 0,0 z"
     id="path410"
     inkscape:connector-curvature="0" />
  <path
     style="fill:#af8d72;stroke:none"
     d="m 190,141 c -0.56246,11.22881 1.70948,10.77479 0,0 z m 117,0 c -0.75988,8.12742 1.88893,12.24849 0,0 z"
     id="path412"
     inkscape:connector-curvature="0" />
  <path
     style="fill:#9f9997;stroke:none"
     d="m 309,141 c -0.77858,5.59758 1.94332,4.83757 0,0 z"
     id="path414"
     inkscape:connector-curvature="0" />
  <path
     style="fill:#bc9e8b;stroke:none"
     d="m 158,142 c 0,8.66667 0,17.33333 0,26 3.04405,-4.50134 3.41643,-19.36982 1,-7 -0.33333,-6.33333 -0.66667,-12.66667 -1,-19 z"
     id="path416"
     inkscape:connector-curvature="0" />
  <path
     style="fill:#867269;stroke:none"
     d="m 160,142 c -0.76717,8.2021 1.42964,18.68431 0.35498,4.61474 C 160.23665,145.07649 160.11833,143.53825 160,142 z"
     id="path418"
     inkscape:connector-curvature="0" />
  <path
     style="fill:#6b4224;stroke:none"
     d="m 309,145 c -1.79585,7.96532 0.50002,9.40003 0,0 z"
     id="path420"
     inkscape:connector-curvature="0" />
  <path
     style="fill:#e0bfb0;stroke:none"
     d="m 419,145 c 5.22304,3.13382 6.20328,3.72197 0,0 z"
     id="path422"
     inkscape:connector-curvature="0" />
  <path
     style="fill:#d3b09d;stroke:none"
     d="m 189,148 c -1.36891,5.7332 1.99494,21.56777 1.15046,8.05321 C 189.76697,153.3688 189.38349,150.6844 189,148 z"
     id="path424"
     inkscape:connector-curvature="0" />
  <path
     style="fill:#0c0909;stroke:none"
     d="m 309,148 c -0.76717,8.2021 1.42964,18.68431 0.35498,4.61474 C 309.23665,151.07649 309.11833,149.53825 309,148 z"
     id="path426"
     inkscape:connector-curvature="0" />
  <path
     style="fill:#e0bfb0;stroke:none"
     d="m 307,149 c -0.97363,5.23942 2.04966,8.17398 0,0 z"
     id="path428"
     inkscape:connector-curvature="0" />
  <path
     style="fill:#d3b09d;stroke:none"
     d="m 422,150 c -1.71598,5.23548 4.57806,-1.99702 0,0 z"
     id="path430"
     inkscape:connector-curvature="0" />
  <path
     style="fill:#867269;stroke:none"
     d="m 250,151 c 0,9.66667 0,19.33333 0,29 2.14895,-5.21023 -0.1713,-14.73819 0.25473,-21.61296 C 250.16982,155.92469 250.08491,153.46235 250,151 z"
     id="path432"
     inkscape:connector-curvature="0" />
  <path
     style="fill:#af8d72;stroke:none"
     d="m 308,152 c -0.56246,11.22881 1.70948,10.77479 0,0 z"
     id="path434"
     inkscape:connector-curvature="0" />
  <path
     style="fill:#d3b09d;stroke:none"
     d="m 310,152 c -0.56246,11.22881 1.70948,10.77479 0,0 z m 112,2 c -0.76841,6.06614 5.37595,-1.28048 0,0 z"
     id="path436"
     inkscape:connector-curvature="0" />
  <path
     style="fill:#af8d72;stroke:none"
     d="m 308,162 c -0.37804,5.02344 0.17865,22.56699 1.39959,9.00614 C 308.58973,168.66999 312.23191,160.87791 308,162 z"
     id="path438"
     inkscape:connector-curvature="0" />
  <path
     style="fill:#dccfc6;stroke:none"
     d="m 310,162 c -0.15105,3.93679 0.59161,22.22003 -1,15 -14.36411,21.22008 32.0493,26.52909 33,10.99283 -0.16984,-15.85277 -3.62013,10.11094 -3,-5 -5.22388,-2.4989 -14.7355,-0.86046 -21.61203,-1.76469 -10.33349,2.79052 -5.61363,-9.72865 -7.20887,-15.82519 C 310.1194,164.26863 310.0597,163.13432 310,162 z"
     id="path440"
     inkscape:connector-curvature="0" />
  <path
     style="fill:#0c0909;stroke:none"
     d="m 159,163 c -0.77858,5.59758 1.94332,4.83757 0,0 z"
     id="path442"
     inkscape:connector-curvature="0" />
  <path
     style="fill:#9f9997;stroke:none"
     d="m 160,163 c -0.77858,5.59758 1.94332,4.83757 0,0 z"
     id="path444"
     inkscape:connector-curvature="0" />
  <path
     style="fill:#0c0909;stroke:none"
     d="m 309,163 c -0.0445,3.55178 -0.22519,22.81315 0.78835,13.40192 C 309.52557,171.93461 309.26278,167.46731 309,163 z"
     id="path446"
     inkscape:connector-curvature="0" />
  <path
     style="fill:#34261d;stroke:none"
     d="m 189,164 c -0.64401,8.18612 1.83529,9.18678 0,0 z"
     id="path448"
     inkscape:connector-curvature="0" />
  <path
     style="fill:#af8d72;stroke:none"
     d="m 338,164 c -0.70415,10.02507 1.59731,15.67902 0.20181,2.42173 C 338.13454,165.61449 338.06727,164.80724 338,164 z"
     id="path450"
     inkscape:connector-curvature="0" />
  <path
     style="fill:#6b5146;stroke:none"
     d="m 339,164 c -0.89237,5.49572 2.12546,10.4849 0,0 z"
     id="path452"
     inkscape:connector-curvature="0" />
  <path
     style="fill:#bc9e8b;stroke:none"
     d="m 335,165 c -1.71598,5.23548 4.57806,-1.99702 0,0 z"
     id="path454"
     inkscape:connector-curvature="0" />
  <path
     style="fill:#9f9997;stroke:none"
     d="m 188,166 c 0.55442,4.43537 2.89207,23.13653 1.2549,10.03922 C 188.8366,172.69281 188.4183,169.34641 188,166 z"
     id="path456"
     inkscape:connector-curvature="0" />
  <path
     style="fill:#34261d;stroke:none"
     d="m 159,167 c -0.76717,8.2021 1.42964,18.68431 0.35498,4.61474 C 159.23665,170.07649 159.11833,168.53825 159,167 z"
     id="path458"
     inkscape:connector-curvature="0" />
  <path
     style="fill:#867269;stroke:none"
     d="m 158,168 c -0.70415,10.02507 1.59731,15.67902 0.20181,2.42173 C 158.13454,169.61449 158.06727,168.80724 158,168 z"
     id="path460"
     inkscape:connector-curvature="0" />
  <path
     style="fill:#e0bfb0;stroke:none"
     d="m 69,169 c 0.785113,4.77973 -6.497592,18.21931 0,12.59713 0,-4.19904 0,-8.39809 0,-12.59713 z"
     id="path462"
     inkscape:connector-curvature="0" />
  <path
     style="fill:#514b48;stroke:none"
     d="m 189,171 c -0.55798,11.79482 1.74424,13.47691 0,0 z"
     id="path464"
     inkscape:connector-curvature="0" />
  <path
     style="fill:#dccfc6;stroke:none"
     d="m 247,172 c -1.24933,10.99879 0.65034,20.86266 -1,32 1.30764,9.42422 1.86942,15.50975 0,18 2.49334,4.50235 -1.02037,6.70249 2,11 -2.11739,-1.32894 -1.55392,13.96305 -0.32037,4.24257 2.37452,-17.4393 1.32637,-35.27814 0.87331,-52.81904 C 248.03529,180.28235 247.51765,176.14118 247,172 z"
     id="path466"
     inkscape:connector-curvature="0" />
  <path
     style="fill:#867269;stroke:none"
     d="m 339,173 c -2.68705,9.21181 2.53536,12.02212 0,0 z"
     id="path468"
     inkscape:connector-curvature="0" />
  <path
     style="fill:#514b48;stroke:none"
     d="m 68,174 c 1.530439,1.53044 0.90156,0.90156 0,0 z"
     id="path470"
     inkscape:connector-curvature="0" />
  <path
     style="fill:#867269;stroke:none"
     d="m 67.3333,177.667 c 0.111133,0.222 0.111133,0.222 0,0 z"
     id="path472"
     inkscape:connector-curvature="0" />
  <path
     style="fill:#e0bfb0;stroke:none"
     d="m 165,177 c 0.66873,5.36794 -13.18492,0.76503 -8.5644,12.59488 -0.35773,14.08138 -1.63795,-1.57728 7.64953,3.73358 8.30496,1.55718 16.60991,3.11436 24.91487,4.67154 4.64752,-12.96805 -1.64522,-21.02447 -13.9919,-17.42799 -15.73635,-1.10276 1.04576,-0.94833 0.79462,-2.67178 C 172.20181,177.60015 168.60091,177.30008 165,177 z m 262,0 c 3.2496,3.30254 5.20552,1.3738 0,0 z"
     id="path474"
     inkscape:connector-curvature="0" />
  <path
     style="fill:#34261d;stroke:none"
     d="m 428,177 c 2.65336,2.91326 7.89821,2.04879 0,0 z"
     id="path476"
     inkscape:connector-curvature="0" />
  <path
     style="fill:#867269;stroke:none"
     d="m 433.333,177.667 0.334,0.666 -0.334,-0.666 z M 428,179 c 1.92833,2.42426 6.11141,0.38264 0,0 z"
     id="path478"
     inkscape:connector-curvature="0" />
  <path
     style="fill:#ffffff;stroke:none"
     d="m 317,179 c 9.09658,1.39947 17.23808,2.65201 3.5003,0.53851 C 319.33353,179.359 318.16677,179.1795 317,179 z"
     id="path480"
     inkscape:connector-curvature="0" />
  <path
     style="fill:#d3b09d;stroke:none"
     d="m 424,179 c -0.76841,6.06614 5.37595,-1.28048 0,0 z"
     id="path482"
     inkscape:connector-curvature="0" />
  <path
     style="fill:#f6dcd2;stroke:none"
     d="m 64,180 c -10.227658,0.85241 -13.912137,3.96353 -1.388531,3 4.827542,-0.0159 5.37567,0.788 1.388531,-3 z"
     id="path484"
     inkscape:connector-curvature="0" />
  <path
     style="fill:#bc9e8b;stroke:none"
     d="m 250,180 c 0,11 0,22 0,33 2.17071,-5.21093 -0.10975,-14.74019 0.34497,-21.61588 C 250.22998,187.58941 250.11499,183.79471 250,180 z"
     id="path486"
     inkscape:connector-curvature="0" />
  <path
     style="fill:#49271b;stroke:none"
     d="m 428.667,180.333 c 0.222,0.11133 0.222,0.11133 0,0 z"
     id="path488"
     inkscape:connector-curvature="0" />
  <path
     style="fill:#af8d72;stroke:none"
     d="m 434,180 c -3.01673,0.80391 -2.83072,3.7188 0,0 z m -367,2 c -0.666667,14 -1.333333,28 -2,42 1.96506,-11.9588 6.00374,-28.71276 2,-42 z"
     id="path490"
     inkscape:connector-curvature="0" />
  <path
     style="fill:#bc9e8b;stroke:none"
     d="m 70,182 c -0.768411,6.06614 5.375955,-1.28048 0,0 z"
     id="path492"
     inkscape:connector-curvature="0" />
  <path
     style="fill:#af8d72;stroke:none"
     d="m 307,182 c -0.71687,6.46754 1.13322,21.03991 0.48641,6.80972 C 307.32427,186.53981 307.16214,184.26991 307,182 z"
     id="path494"
     inkscape:connector-curvature="0" />
  <path
     style="fill:#bc9e8b;stroke:none"
     d="m 47,211 c 1.832952,14.62069 -3.570862,46.4376 2,51.59713 -0.04452,-13.99219 2.115242,2.14815 1.89932,7.792 2.059829,0.33889 2.634109,4.35883 1.061827,7.33173 7.88653,7.62222 -3.133755,19.49558 4.270008,29.52234 2.858212,6.51361 5.733934,35.03298 7.854637,28.15352 C 65.057195,294.59781 66.028597,253.79891 67,213 c -1.537728,6.15928 -1.59196,16.74396 -2,2.58996 -0.382312,-4.29732 0.925295,-22.4944 -0.972033,-17.14301 1.754327,11.48612 -0.58594,43.2385 -11.568424,38.02325 -2.8769,-16.44161 4.177956,-41.54229 2.054554,-51.88053 C 48.663576,192.05636 52.496442,203.29985 47,211 z"
     id="path496"
     inkscape:connector-curvature="0" />
  <path
     style="fill:#e0bfb0;stroke:none"
     d="m 56,183 c 4.441052,4.72227 18.711756,1.36831 3.219191,-0.17545 L 56,183 z"
     id="path498"
     inkscape:connector-curvature="0" />
  <path
     style="fill:#f6dcd2;stroke:none"
     d="m 57,184 c 2.286711,4.39391 0.02981,24.02376 6.289059,15.55806 C 66.818523,190.78345 69.20234,182.59327 57,184 z"
     id="path500"
     inkscape:connector-curvature="0" />
  <path
     style="fill:#d3b09d;stroke:none"
     d="m 306,184 c -0.68893,10.44939 1.58445,13.78815 0.12982,1.428 L 306.02105,184.2315 306,184 z"
     id="path502"
     inkscape:connector-curvature="0" />
  <path
     style="fill:#e0bfb0;stroke:none"
     d="m 434,184 c 7.48113,3.39483 3.89053,5.17939 2.84479,8.33006 -8.72552,6.50441 -7.2576,-13.53239 -7.67321,1.8765 0.27614,11.59781 0.55228,23.19563 0.82842,34.79344 2.23504,-11.87347 2.49526,1.55386 3.02718,8.38057 -0.42321,5.34488 1.27968,20.9362 5.63419,9.11 4.29299,-9.18765 6.43527,-18.75888 5.33863,-28.90777 1.82783,-10.22889 -5.22837,-7.8905 -1.32967,-18.04802 C 444.97147,192.74799 444.15269,182.33719 434,184 z M 57,218 c 9.692679,-4.2286 7.959293,-20.17964 2.604971,-17.37017 C 59.174719,192.47881 55.30904,175.8704 53.166193,194.8579 53.545835,202.70785 56.268834,210.20586 57,218 z m -6,-32 c -0.557982,11.79482 1.744244,13.47691 0,0 z"
     id="path504"
     inkscape:connector-curvature="0" />
  <path
     style="fill:#d3b09d;stroke:none"
     d="m 67,189 c -0.71687,6.46754 1.133217,21.03991 0.486408,6.80972 C 67.324272,193.53981 67.162136,191.26991 67,189 z"
     id="path506"
     inkscape:connector-curvature="0" />
  <path
     style="fill:#af8d72;stroke:none"
     d="m 157,192 c -2.70291,10.15528 10.689,5.13467 16.79105,6.98771 -1.83647,-2.01803 -20.87675,-2.25948 -6.78388,-2.98771 4.09704,-1.33524 -9.15546,-3.26914 -10.00717,-4 z"
     id="path508"
     inkscape:connector-curvature="0" />
  <path
     style="fill:#d3b09d;stroke:none"
     d="m 442,192 c -0.64125,7.40869 -1.53394,17.21883 1.21271,18.71966 -1.93298,12.0246 2.76227,23.7873 -4.19681,34.80862 -3.88139,12.70167 -6.74582,-1.34491 -5.95748,-7.71047 0.0816,-4.99414 -1.9556,-22.38332 -1.76809,-8.81766 1.90322,39.33328 3.80645,78.66657 5.70967,117.99985 3.15463,-5.14747 2.67349,-14.56067 4.42648,-21.35263 3.23989,-22.68751 8.07131,-45.31825 10.32383,-68.04098 C 449.7265,235.66443 448.61832,213.60277 444,192 l -1.20143,0 L 442,192 z"
     id="path510"
     inkscape:connector-curvature="0" />
  <path
     style="fill:#bc9e8b;stroke:none"
     d="m 340,193 c -7.79268,4.94808 -43.04301,0.55199 -16.56745,3.96899 C 328.17092,196.62145 339.11065,199.60218 340,193 z"
     id="path512"
     inkscape:connector-curvature="0" />
  <path
     style="fill:#866143;stroke:none"
     d="m 308,194 c 8.15636,9.48723 43.90654,3.19659 16.90016,2.25335 C 319.26677,195.50224 313.63339,194.75112 308,194 z m -147,2 c 8.05889,7.27664 40.97558,0.6646 13.86187,-0.5855 -4.62824,0.015 -9.23447,0.55355 -13.86187,0.5855 z"
     id="path514"
     inkscape:connector-curvature="0" />
  <path
     style="fill:#d3b09d;stroke:none"
     d="m 312,198 c 5.10132,2.32735 19.55774,0.52553 4.61474,0.35498 C 315.07649,198.23665 313.53825,198.11833 312,198 z"
     id="path516"
     inkscape:connector-curvature="0" />
  <path
     style="fill:#af8d72;stroke:none"
     d="m 325,198 c 5.10132,2.32735 19.55774,0.52553 4.61474,0.35498 C 328.07649,198.23665 326.53825,198.11833 325,198 z"
     id="path518"
     inkscape:connector-curvature="0" />
  <path
     style="fill:#e0bfb0;stroke:none"
     d="m 168,199 c 1.72301,2.23121 22.48855,0.55333 14.40125,0.80007 C 177.60083,199.53338 172.80042,199.26669 168,199 z"
     id="path520"
     inkscape:connector-curvature="0" />
  <path
     style="fill:#d3b09d;stroke:none"
     d="m 426,206 c -0.76841,6.06614 5.37595,-1.28048 0,0 z m -372,2 c -5.720732,9.18638 -3.504558,47.4837 8.025127,20.63748 2.179386,-7.35685 3.813463,-31.01501 -2.190483,-12.2177 C 55.314203,221.6345 55.747085,210.20569 54,208 z"
     id="path522"
     inkscape:connector-curvature="0" />
  <path
     style="fill:#bc9e8b;stroke:none"
     d="m 69.6667,211.333 c 0.2222,0.11133 0.2222,0.11133 0,0 z"
     id="path524"
     inkscape:connector-curvature="0" />
  <path
     style="fill:#9f9997;stroke:none"
     d="m 43.6667,212.333 c 0.2222,0.11133 0.2222,0.11133 0,0 z"
     id="path526"
     inkscape:connector-curvature="0" />
  <path
     style="fill:#6b5146;stroke:none"
     d="m 45.6667,212.333 c 0.2222,0.11133 0.2222,0.11133 0,0 z"
     id="path528"
     inkscape:connector-curvature="0" />
  <path
     style="fill:#0c0909;stroke:none"
     d="m 41,220 c 13.355113,-4.82333 -8.581562,25.23206 -4.557356,35.97174 0.290335,9.33921 -5.371393,34.13427 1.696123,33.83487 C 39.759178,275.87107 41.379589,261.93554 43,248 c 0.05278,4.34893 0.599674,34.58516 5.31251,23.91312 C 43.061861,253.7763 52.23224,225.62016 44.895088,213.56317 42.084214,214.26842 41.046538,217.47311 41,220 z"
     id="path530"
     inkscape:connector-curvature="0" />
  <path
     style="fill:#867269;stroke:none"
     d="m 48,213 c -0.892366,5.49572 2.125461,10.4849 0,0 z m 202,0 c 0,37.66667 0,75.33333 0,113 2.32861,-5.21332 0.33692,-14.74695 1,-21.62581 -0.007,-30.46602 0.29984,-60.92663 -1,-91.37419 z"
     id="path532"
     inkscape:connector-curvature="0" />
  <path
     style="fill:#d3b09d;stroke:none"
     d="m 426,213 c -0.76841,6.06614 5.37595,-1.28048 0,0 z"
     id="path534"
     inkscape:connector-curvature="0" />
  <path
     style="fill:#34261d;stroke:none"
     d="m 448,215 c 1.92833,2.42426 6.11141,0.38264 0,0 z"
     id="path536"
     inkscape:connector-curvature="0" />
  <path
     style="fill:#dccfc6;stroke:none"
     d="m 40,216 c -0.778581,5.59758 1.943323,4.83757 0,0 z"
     id="path538"
     inkscape:connector-curvature="0" />
  <path
     style="fill:#866143;stroke:none"
     d="m 447,216 c -0.92044,3.85713 2.22726,4.33794 0,0 z"
     id="path540"
     inkscape:connector-curvature="0" />
  <path
     style="fill:#0c0909;stroke:none"
     d="m 448,216 c 2.29463,15.88147 6.50477,31.67136 3.87563,47.78824 -1.62447,5.54563 -0.74547,20.45497 4.02833,10.81081 C 455.60264,267.06604 455.30132,259.53302 455,252 c 2.66833,9.19305 1.44534,37.25484 8.30354,36.98808 -2.92432,-18.94248 -3.5967,-38.34785 -7.6811,-57.12253 C 448.70351,225.34993 457.76102,213.87691 448,216 z"
     id="path542"
     inkscape:connector-curvature="0" />
  <path
     style="fill:#6b4224;stroke:none"
     d="m 45,218 c -1.30286,4.27253 -9.433554,18.4866 -6.300916,16.30092 C 43.12997,231.73873 49.270064,219.68491 45,218 z"
     id="path544"
     inkscape:connector-curvature="0" />
  <path
     style="fill:#d3b09d;stroke:none"
     d="m 69,218 c -0.768411,6.06614 5.375955,-1.28048 0,0 z"
     id="path546"
     inkscape:connector-curvature="0" />
  <path
     style="fill:#bc9e8b;stroke:none"
     d="m 454.333,218.667 c 0.11133,0.222 0.11133,0.222 0,0 z"
     id="path548"
     inkscape:connector-curvature="0" />
  <path
     style="fill:#9f9997;stroke:none"
     d="m 41,220 c 0.331556,2.70559 5.569716,0.13109 0,0 z"
     id="path550"
     inkscape:connector-curvature="0" />
  <path
     style="fill:#514b48;stroke:none"
     d="m 47,220 c -0.97363,5.23942 2.049656,8.17398 0,0 z"
     id="path552"
     inkscape:connector-curvature="0" />
  <path
     style="fill:#7d79a1;stroke:none"
     d="m 454,220 c 1.78447,3.56894 3.39378,6.78756 0,0 z"
     id="path554"
     inkscape:connector-curvature="0" />
  <path
     style="fill:#34261d;stroke:none"
     d="m 41,221 c -5.048022,7.99245 -7.909681,18.76621 0.503064,3.13458 L 41,221 z"
     id="path556"
     inkscape:connector-curvature="0" />
  <path
     style="fill:#ffffff;stroke:none"
     d="m 42,221 c 1.530439,1.53044 0.90156,0.90156 0,0 z"
     id="path558"
     inkscape:connector-curvature="0" />
  <path
     style="fill:#866143;stroke:none"
     d="m 448,221 c -0.92044,3.85713 2.22726,4.33794 0,0 z m 3,0 c -0.87827,6.1496 13.61606,13.84031 11.23436,10.37018 C 458.48958,227.91346 454.74479,224.45673 451,221 z"
     id="path560"
     inkscape:connector-curvature="0" />
  <path
     style="fill:#ffffff;stroke:none"
     d="m 453,221 c -1.34696,3.29634 4.92255,2.73133 0,0 z"
     id="path562"
     inkscape:connector-curvature="0" />
  <path
     style="fill:#0c0909;stroke:none"
     d="m 455,224 c 7.18042,5.77143 18.85177,11.32856 3.69455,0.5532 L 455,224 z"
     id="path564"
     inkscape:connector-curvature="0" />
  <path
     style="fill:#9f9997;stroke:none"
     d="m 459,224 c 1.53044,1.53044 0.90156,0.90156 0,0 z"
     id="path566"
     inkscape:connector-curvature="0" />
  <path
     style="fill:#dccfc6;stroke:none"
     d="m 41,225 c -5.154154,1.12016 -11.926771,17.62395 -5.291202,9.82652 C 37.472532,231.55101 39.236266,228.27551 41,225 z"
     id="path568"
     inkscape:connector-curvature="0" />
  <path
     style="fill:#bc9e8b;stroke:none"
     d="m 455,225 c 4.674,3.65657 8.28837,2.9954 0,0 z"
     id="path570"
     inkscape:connector-curvature="0" />
  <path
     style="fill:#867269;stroke:none"
     d="m 460,225 c 1.53044,1.53044 0.90156,0.90156 0,0 z"
     id="path572"
     inkscape:connector-curvature="0" />
  <path
     style="fill:#bc9e8b;stroke:none"
     d="m 453,226 c 2.4896,10.51206 7.61848,2.26366 0,0 z"
     id="path574"
     inkscape:connector-curvature="0" />
  <path
     style="fill:#6b5146;stroke:none"
     d="m 37,227 c 1.530439,1.53044 0.90156,0.90156 0,0 z"
     id="path576"
     inkscape:connector-curvature="0" />
  <path
     style="fill:#d3b09d;stroke:none"
     d="m 427,227 c -0.76841,6.06614 5.37595,-1.28048 0,0 z"
     id="path578"
     inkscape:connector-curvature="0" />
  <path
     style="fill:#867269;stroke:none"
     d="m 449,227 c -0.77858,5.59758 1.94332,4.83757 0,0 z"
     id="path580"
     inkscape:connector-curvature="0" />
  <path
     style="fill:#9f9997;stroke:none"
     d="m 463,227 c 1.53044,1.53044 0.90156,0.90156 0,0 z"
     id="path582"
     inkscape:connector-curvature="0" />
  <path
     style="fill:#514b48;stroke:none"
     d="m 42,228 c -0.778581,5.59758 1.943323,4.83757 0,0 z"
     id="path584"
     inkscape:connector-curvature="0" />
  <path
     style="fill:#f6dcd2;stroke:none"
     d="m 459,228 c 3.79374,4.25969 10.07154,5.74228 0,0 z"
     id="path586"
     inkscape:connector-curvature="0" />
  <path
     style="fill:#9f9997;stroke:none"
     d="m 464,228 c 1.53044,1.53044 0.90156,0.90156 0,0 z"
     id="path588"
     inkscape:connector-curvature="0" />
  <path
     style="fill:#d3b09d;stroke:none"
     d="m 66,229 c 0,11.33333 0,22.66667 0,34 2.175346,-5.21107 -0.09663,-14.74058 0.364222,-21.61646 C 66.242815,237.25569 66.121407,233.12785 66,229 z"
     id="path590"
     inkscape:connector-curvature="0" />
  <path
     style="fill:#9f9997;stroke:none"
     d="m 35,230 c 1.530439,1.53044 0.90156,0.90156 0,0 z"
     id="path592"
     inkscape:connector-curvature="0" />
  <path
     style="fill:#d3b09d;stroke:none"
     d="m 41,230 c -0.920438,3.85713 2.227264,4.33794 0,0 z"
     id="path594"
     inkscape:connector-curvature="0" />
  <path
     style="fill:#bc9e8b;stroke:none"
     d="m 465,231 c -9.59625,3.50867 10.58272,6.18819 0.60183,0.60183 L 465,231 z"
     id="path596"
     inkscape:connector-curvature="0" />
  <path
     style="fill:#34261d;stroke:none"
     d="m 467,231 c 2.0458,3.0687 3.50081,5.25121 0,0 z"
     id="path598"
     inkscape:connector-curvature="0" />
  <path
     style="fill:#af8d72;stroke:none"
     d="m 34.3333,232.667 0.3334,0.666 -0.3334,-0.666 z M 450,232 c -0.97363,5.23942 2.04966,8.17398 0,0 z"
     id="path600"
     inkscape:connector-curvature="0" />
  <path
     style="fill:#b8b3b2;stroke:none"
     d="m 40,233 c -0.97363,5.23942 2.049656,8.17398 0,0 z"
     id="path602"
     inkscape:connector-curvature="0" />
  <path
     style="fill:#9f9997;stroke:none"
     d="m 469,233 c 1.53044,1.53044 0.90156,0.90156 0,0 z"
     id="path604"
     inkscape:connector-curvature="0" />
  <path
     style="fill:#af8d72;stroke:none"
     d="m 36,234 c -5.959234,6.56968 5.721072,4.04326 0,0 z"
     id="path606"
     inkscape:connector-curvature="0" />
  <path
     style="fill:#514b48;stroke:none"
     d="m 456,235 c -0.92044,3.85713 2.22726,4.33794 0,0 z"
     id="path608"
     inkscape:connector-curvature="0" />
  <path
     style="fill:#867269;stroke:none"
     d="m 45,236 c -0.557982,11.79482 1.744244,13.47691 0,0 z m 406,1 c -0.97363,5.23942 2.04966,8.17398 0,0 z"
     id="path610"
     inkscape:connector-curvature="0" />
  <path
     style="fill:#e0bfb0;stroke:none"
     d="m 34.6667,238.333 c 0.2222,0.11133 0.2222,0.11133 0,0 z"
     id="path612"
     inkscape:connector-curvature="0" />
  <path
     style="fill:#867269;stroke:none"
     d="m 457,239 c -0.92044,3.85713 2.22726,4.33794 0,0 z"
     id="path614"
     inkscape:connector-curvature="0" />
  <path
     style="fill:#514b48;stroke:none"
     d="m 249,242 c 0,14 0,28 0,42 1.97107,-11.9242 4.26732,-28.90232 0,-42 z"
     id="path616"
     inkscape:connector-curvature="0" />
  <path
     style="fill:#e0bfb0;stroke:none"
     d="m 428,242 c -0.76841,6.06614 5.37595,-1.28048 0,0 z"
     id="path618"
     inkscape:connector-curvature="0" />
  <path
     style="fill:#514b48;stroke:none"
     d="m 452,243 c -0.33022,4.02175 0.27095,23.16782 0.70023,11.20362 C 452.46682,250.46908 452.23341,246.73454 452,243 z"
     id="path620"
     inkscape:connector-curvature="0" />
  <path
     style="fill:#9f9997;stroke:none"
     d="m 458,243 c -0.92044,3.85713 2.22726,4.33794 0,0 z"
     id="path622"
     inkscape:connector-curvature="0" />
  <path
     style="fill:#514b48;stroke:none"
     d="m 38,246 c -0.892366,5.49572 2.125461,10.4849 0,0 z"
     id="path624"
     inkscape:connector-curvature="0" />
  <path
     style="fill:#dccfc6;stroke:none"
     d="m 459,246 c -0.97363,5.23942 2.04966,8.17398 0,0 z"
     id="path626"
     inkscape:connector-curvature="0" />
  <path
     style="fill:#49271b;stroke:none"
     d="m 43,248 c -1.174026,5.87013 -1.254225,6.27113 0,0 z"
     id="path628"
     inkscape:connector-curvature="0" />
  <path
     style="fill:#34261d;stroke:none"
     d="m 46,251 c -0.644008,8.18612 1.835295,9.18678 0,0 z"
     id="path630"
     inkscape:connector-curvature="0" />
  <path
     style="fill:#514b48;stroke:none"
     d="m 459.333,251.667 c 0.11133,0.222 0.11133,0.222 0,0 z"
     id="path632"
     inkscape:connector-curvature="0" />
  <path
     style="fill:#6b4224;stroke:none"
     d="m 455,252 c -0.33022,4.02175 0.27095,23.16782 0.70023,11.20362 C 455.46682,259.46908 455.23341,255.73454 455,252 z"
     id="path634"
     inkscape:connector-curvature="0" />
  <path
     style="fill:#6b5146;stroke:none"
     d="m 37,253 c -0.892366,5.49572 2.125461,10.4849 0,0 z"
     id="path636"
     inkscape:connector-curvature="0" />
  <path
     style="fill:#6b4224;stroke:none"
     d="m 42,253 c 0.276246,4.32991 -2.739358,20.88279 1,13 0.408946,8.11088 3.161331,-15.63643 -1,-13 z"
     id="path638"
     inkscape:connector-curvature="0" />
  <path
     style="fill:#af8d72;stroke:none"
     d="m 49,256 c -1.467663,5.99996 3.026377,17.96162 -2.402867,20 -1.750962,2.12672 11.535766,21.25538 8.402867,4 -6.46524,-2.63225 0.188478,-10.40048 -3,-8 -2.679527,-2.93318 -1.76668,-11.39157 -3,-16 z"
     id="path640"
     inkscape:connector-curvature="0" />
  <path
     style="fill:#514b48;stroke:none"
     d="m 47,258 c -0.562458,11.22881 1.709484,10.77479 0,0 z"
     id="path642"
     inkscape:connector-curvature="0" />
  <path
     style="fill:#867269;stroke:none"
     d="m 36,259 c -0.97363,5.23942 2.049656,8.17398 0,0 z"
     id="path644"
     inkscape:connector-curvature="0" />
  <path
     style="fill:#34261d;stroke:none"
     d="m 460,259 c -0.55798,11.79482 1.74424,13.47691 0,0 z"
     id="path646"
     inkscape:connector-curvature="0" />
  <path
     style="fill:#866143;stroke:none"
     d="m 456,263 c -2.05405,8.63626 0.75408,19.01554 1.33803,3.33273 L 456,263 z"
     id="path648"
     inkscape:connector-curvature="0" />
  <path
     style="fill:#867269;stroke:none"
     d="m 451,264 c -0.75988,8.12742 1.88893,12.24849 0,0 z"
     id="path650"
     inkscape:connector-curvature="0" />
  <path
     style="fill:#b8b3b2;stroke:none"
     d="m 35,265 c -0.562458,11.22881 1.709484,10.77479 0,0 z"
     id="path652"
     inkscape:connector-curvature="0" />
  <path
     style="fill:#866143;stroke:none"
     d="m 42,266 c -3.084052,1.74141 -3.605585,6.76856 -3,15.4172 -1.928003,26.9241 8.890203,-8.70435 3,-15.4172 z"
     id="path654"
     inkscape:connector-curvature="0" />
  <path
     style="fill:#514b48;stroke:none"
     d="m 48,267 c -0.644008,8.18612 1.835295,9.18678 0,0 z"
     id="path656"
     inkscape:connector-curvature="0" />
  <path
     style="fill:#d3b09d;stroke:none"
     d="m 68,267 c -0.768411,6.06614 5.375955,-1.28048 0,0 z"
     id="path658"
     inkscape:connector-curvature="0" />
  <path
     style="fill:#514b48;stroke:none"
     d="m 461,269 c -0.64401,8.18612 1.83529,9.18678 0,0 z"
     id="path660"
     inkscape:connector-curvature="0" />
  <path
     style="fill:#d3b09d;stroke:none"
     d="m 429,272 c -0.76841,6.06614 5.37595,-1.28048 0,0 z"
     id="path662"
     inkscape:connector-curvature="0" />
  <path
     style="fill:#af8d72;stroke:none"
     d="m 457,273 c 0.37624,3.59143 2.44574,22.6837 2.37363,13.45054 C 458.58242,281.96703 457.79121,277.48351 457,273 z"
     id="path664"
     inkscape:connector-curvature="0" />
  <path
     style="fill:#dccfc6;stroke:none"
     d="m 34,274 c -0.0445,3.55178 -0.225195,22.81315 0.788348,13.40192 C 34.525565,282.93461 34.262783,278.46731 34,274 z"
     id="path666"
     inkscape:connector-curvature="0" />
  <path
     style="fill:#b8b3b2;stroke:none"
     d="m 42,275 c -0.644008,8.18612 1.835295,9.18678 0,0 z"
     id="path668"
     inkscape:connector-curvature="0" />
  <path
     style="fill:#867269;stroke:none"
     d="m 44,275 c 1.530439,1.53044 0.90156,0.90156 0,0 z"
     id="path670"
     inkscape:connector-curvature="0" />
  <path
     style="fill:#6b5146;stroke:none"
     d="m 462,276 c -0.64401,8.18612 1.83529,9.18678 0,0 z"
     id="path672"
     inkscape:connector-curvature="0" />
  <path
     style="fill:#bc9e8b;stroke:none"
     d="m 39,277 c -0.767169,8.2021 1.429639,18.68431 0.35498,4.61474 C 39.236653,280.07649 39.118327,278.53825 39,277 z"
     id="path674"
     inkscape:connector-curvature="0" />
  <path
     style="fill:#e0bfb0;stroke:none"
     d="m 455,277 c 0.73856,5.72019 3.05963,4.5717 0,0 z"
     id="path676"
     inkscape:connector-curvature="0" />
  <path
     style="fill:#49271b;stroke:none"
     d="m 38,278 c -3.176987,9.09087 -0.184156,21.54769 1.153881,3.47436 L 38,278 z"
     id="path678"
     inkscape:connector-curvature="0" />
  <path
     style="fill:#b8b3b2;stroke:none"
     d="m 450,281 c 8.53179,-0.33072 2.1351,-6.35325 0,0 z"
     id="path680"
     inkscape:connector-curvature="0" />
  <path
     style="fill:#9f9997;stroke:none"
     d="m 463,283 c -0.89237,5.49572 2.12546,10.4849 0,0 z"
     id="path682"
     inkscape:connector-curvature="0" />
  <path
     style="fill:#34261d;stroke:none"
     d="m 249,284 c 0,13.66667 0,27.33333 0,41 1.97129,-11.59057 4.16466,-28.22949 0,-41 z m 211,0 c 2.09388,7.32859 2.82532,9.88862 0,0 z"
     id="path684"
     inkscape:connector-curvature="0" />
  <path
     style="fill:#dccfc6;stroke:none"
     d="m 67,290 c 4.574175,3.80449 -2.194187,8.76988 1.868992,17.08295 -2.085589,8.18942 0.8296,7.76841 -1.373417,14.41705 0.825005,3.16256 0.973156,11.01511 0.504425,17.5 -3.741634,6.28237 3.96512,14.6606 3.47e-4,11.66644 -3.626537,3.6874 -0.914949,11.39688 -0.851157,10.25897 -1.592085,-1.85099 0.746025,8.45452 -1.530108,13.67765 -2.461475,7.06041 3.496424,4.03418 9.079818,9.29657 -2.890054,22.40475 18.487104,14.84064 33.64121,15.69628 16.89197,4.52958 35.07548,-1.2556 53.60283,0.0289 22.12373,1.84339 41.26799,-10.99454 62.71419,-10.91005 10.40173,3.48645 16.24655,-4.50169 17.19241,-6.86521 7.85228,3.48724 -2.33175,17.51752 7.86287,17.09294 C 249.73949,382.32968 248.47106,364.19715 248,347 c -1.1749,8.6785 -4.9736,-9.26374 -12.63597,0.52429 -7.8148,3.23136 -1.38412,10.4675 -11.36403,9.67714 -6.81237,8.02516 -7.70727,-4.94491 -10.20143,-7.20143 -7.2818,-0.1667 -14.53336,0.63532 -21.79857,1 0.0657,11.94101 -1.34188,-4.05061 -6,6 -1.47532,-11.76778 -13.7192,2.17657 -21.80856,-4.2141 -5.68033,1.9205 -12.58277,7.40173 -16.80244,-5.4924 -8.91531,-6.28056 -10.63648,-6.45038 -13.79187,-13.2935 -5.62209,-1.31076 -11.37643,-2.48928 -14.79856,-6 -8.21274,0.95574 -2.10341,-12.61324 -14.05939,-10.57245 C 96.157034,309.31234 94.876617,325.93569 93,316.3957 92.146557,310.73228 84.225913,310.09575 85.086095,300.34438 83.98908,292.07796 82.1731,284.87008 72.472843,289.27029 70.648562,289.51353 68.824281,289.75676 67,290 z"
     id="path686"
     inkscape:connector-curvature="0" />
  <path
     style="fill:#f6dcd2;stroke:none"
     d="m 447,289 c -0.77858,5.59758 1.94332,4.83757 0,0 z"
     id="path688"
     inkscape:connector-curvature="0" />
  <path
     style="fill:#bc9e8b;stroke:none"
     d="m 431.333,307.667 c 0.11133,0.222 0.11133,0.222 0,0 z"
     id="path690"
     inkscape:connector-curvature="0" />
  <path
     style="fill:#d3b09d;stroke:none"
     d="m 64,311 c 0,9.33333 0,18.66667 0,28 2.142541,-5.21 -0.189423,-14.73756 0.228142,-21.61203 C 64.152095,315.25865 64.076047,313.12932 64,311 z"
     id="path692"
     inkscape:connector-curvature="0" />
  <path
     style="fill:#bc9e8b;stroke:none"
     d="m 435,320 c 0,13 0,26 0,39 4.26933,-8.20449 3.62146,-28.21764 0,-39 z"
     id="path694"
     inkscape:connector-curvature="0" />
  <path
     style="fill:#dccfc6;stroke:none"
     d="m 59,321 c -0.644008,8.18612 1.835295,9.18678 0,0 z"
     id="path696"
     inkscape:connector-curvature="0" />
  <path
     style="fill:#6b5146;stroke:none"
     d="m 249,325 c 0.33333,11.66667 0.66667,23.33333 1,35 1.85597,-9.35798 4.2706,-24.96526 -1,-35 z"
     id="path698"
     inkscape:connector-curvature="0" />
  <path
     style="fill:#bc9e8b;stroke:none"
     d="m 431,334 c -0.76841,6.06614 5.37595,-1.28048 0,0 z"
     id="path700"
     inkscape:connector-curvature="0" />
  <path
     style="fill:#867269;stroke:none"
     d="m 249,340 c 0,14 0,28 0,42 1.97107,-11.9242 4.26732,-28.90232 0,-42 z"
     id="path702"
     inkscape:connector-curvature="0" />
  <path
     style="fill:#34261d;stroke:none"
     d="m 250,360 c 0,13.66667 0,27.33333 0,41 1.97129,-11.59057 4.16466,-28.22949 0,-41 z"
     id="path704"
     inkscape:connector-curvature="0" />
  <path
     style="fill:#9f9997;stroke:none"
     d="m 251,376 c -0.56336,5.02344 0.73486,22.56699 0.60041,9.00614 C 251.40027,382.00409 251.20014,379.00205 251,376 z"
     id="path706"
     inkscape:connector-curvature="0" />
  <path
     style="fill:#e0bfb0;stroke:none"
     d="m 64,415 c 31.178898,-5.45206 63.03553,-0.27877 94.50375,-2.58867 30.49683,-0.4166 60.9972,-0.41138 91.49625,-0.41133 -2.25318,-10.48072 -4.26023,-19.53841 -7.54863,-29.54863 -1.12857,8.03496 -27.73628,3.52411 -39.94012,9.37813 -24.21518,9.89082 -52.03132,10.69881 -77.58584,8.7078 -11.12648,1.67066 -29.488513,-2.14642 -39.685263,-1.81686 C 72.392757,401.32178 76.891062,383.11412 69,379.59713 58.719301,380.82446 60.795164,405.41125 64,415 z"
     id="path708"
     inkscape:connector-curvature="0" />
  <path
     style="fill:#6b5146;stroke:none"
     d="m 251,391 c -0.33333,7.33333 -0.66667,14.66667 -1,22 -22,0 -44,0 -66,0 5.21332,2.32861 14.74695,0.33692 21.62581,1 43.45806,0 86.91613,0 130.37419,0 -5.21295,-2.39067 -14.74591,-0.51246 -21.62427,-1.25743 C 293.58382,412.49505 272.79191,412.24752 252,412 c -0.33333,-7 -0.66667,-14 -1,-21 z"
     id="path710"
     inkscape:connector-curvature="0" />
  <path
     style="fill:#e0bfb0;stroke:none"
     d="m 254,393 c 1.15653,5.80034 -5.90761,18.8886 1.60388,19.05502 54.25232,0.42402 108.55442,2.55995 162.77791,1.62741 9.62443,-5.84533 17.40277,8.35035 15.80394,-5.92789 -12.13132,-13.30268 -35.19373,4.37858 -52.83039,-2.07095 -20.97907,3.01036 -36.29286,-8.00236 -56.80429,-5.81765 C 301.72578,394.86493 278.21177,396.26846 255,396 c 0.12111,-1.81027 2.63346,-3.81146 -1,-3 z"
     id="path712"
     inkscape:connector-curvature="0" />
  <path
     style="fill:#bc9e8b;stroke:none"
     d="m 219,411 c 2.2835,2.24674 20.53432,0.50293 16.60045,0.87371 C 230.06697,411.58247 224.53348,411.29124 219,411 z m -86,1 c 5.21332,2.32861 14.74695,0.33692 21.62581,1 7.48094,0.003 19.21596,0.067 4.96758,-0.24019 C 150.72893,412.50654 141.86446,412.25327 133,412 z"
     id="path714"
     inkscape:connector-curvature="0" />
  <path
     style="fill:#a76540;stroke:none"
     d="m 168,412 c 5.21332,2.32861 14.74695,0.33692 21.62581,1 10.12473,0 20.24946,0 30.37419,0 -17.30786,-1.48449 -34.65184,-0.89334 -52,-1 z"
     id="path716"
     inkscape:connector-curvature="0" />
  <path
     style="fill:#bc9e8b;stroke:none"
     d="m 240,412 c 5.95823,2.20483 17.55525,0.85378 0,0 z"
     id="path718"
     inkscape:connector-curvature="0" />
  <path
     style="fill:#af8d72;stroke:none"
     d="m 280,412 c 5.21332,2.32861 14.74695,0.33692 21.62581,1 12.18462,0.0886 -7.40333,-0.41096 -11.43436,-0.62254 C 286.7943,412.25164 283.39715,412.12582 280,412 z"
     id="path720"
     inkscape:connector-curvature="0" />
  <path
     style="fill:#bc9e8b;stroke:none"
     d="m 307,412 c 5.21332,2.32861 14.74695,0.33692 21.62581,1 2.96378,-0.0965 -13.22613,-0.59193 -18.03248,-0.85028 C 309.39556,412.09981 308.19778,412.04991 307,412 z"
     id="path722"
     inkscape:connector-curvature="0" />
  <path
     style="fill:#9f9997;stroke:none"
     d="m 430,412 c -16.83233,3.19285 -33.97882,1.65248 -51,2 5.21332,2.32861 14.74695,0.33692 21.62581,1 10.45806,0 20.91613,0 31.37419,0 -0.66667,-1 -1.33333,-2 -2,-3 z m -326,1 c 1.38654,2.19617 22.96065,0.64694 11.20362,0.70023 C 111.46908,413.46682 107.73454,413.23341 104,413 z"
     id="path724"
     inkscape:connector-curvature="0" />
  <path
     style="fill:#867269;stroke:none"
     d="m 120,413 c 5.10132,2.32735 19.55774,0.52553 4.61474,0.35498 C 123.07649,413.23665 121.53825,413.11833 120,413 z"
     id="path726"
     inkscape:connector-curvature="0" />
  <path
     style="fill:#34261d;stroke:none"
     d="m 133,413 c 5.21332,2.32861 14.74695,0.33692 21.62581,1 9.79139,0 19.58279,0 29.37419,0 -16.37787,-5.68962 -34.16455,-0.93993 -51,-1 z"
     id="path728"
     inkscape:connector-curvature="0" />
  <path
     style="fill:#bc9e8b;stroke:none"
     d="m 336,413 c 5.21332,2.32861 14.74695,0.33692 21.62581,1 2.96378,-0.0965 -13.22613,-0.59193 -18.03248,-0.85028 C 338.39556,413.09981 337.19778,413.04991 336,413 z"
     id="path730"
     inkscape:connector-curvature="0" />
  <path
     style="fill:#867269;stroke:none"
     d="m 65,416 c 2.561939,-0.85398 5.189371,-1.72979 0,0 z"
     id="path732"
     inkscape:connector-curvature="0" />
  <path
     style="fill:#9f9997;stroke:none"
     d="m 68,414 c 5.213323,2.32861 14.746953,0.33692 21.625806,1 -0.652297,-0.17206 -13.743643,-0.61441 -19.030901,-0.88718 C 69.729937,414.07521 68.864968,414.03761 68,414 z"
     id="path734"
     inkscape:connector-curvature="0" />
  <path
     style="fill:#0c0909;stroke:none"
     d="m 88,415 c 22.08456,2.33572 48.5149,0.40733 72.26684,1.19281 84.64931,0.83295 169.33351,0.40787 253.96855,1.10557 6.86243,2.53891 25.57211,-3.9955 8.2344,-1.11549 -34.09907,1.4022 -68.21088,-2.5142 -102.36261,-1.01414 -62.17668,0.70858 -124.40007,1.06489 -186.47916,-2.99038 C 118.38387,411.8425 103.03191,412.22973 88,415 z"
     id="path736"
     inkscape:connector-curvature="0" />
  <path
     style="fill:#34261d;stroke:none"
     d="m 187,414 c 5.21332,2.32861 14.74695,0.33692 21.62581,1 11.45806,0 22.91613,0 34.37419,0 -18.64668,-1.50809 -37.31492,-0.88006 -56,-1 z"
     id="path738"
     inkscape:connector-curvature="0" />
  <path
     style="fill:#514b48;stroke:none"
     d="m 328,414 c 5.21332,2.32861 14.74695,0.33692 21.62581,1 7.48094,0.003 19.21596,0.067 4.96758,-0.24019 C 345.72893,414.50654 336.86446,414.25327 328,414 z"
     id="path740"
     inkscape:connector-curvature="0" />
  <path
     style="fill:#6b5146;stroke:none"
     d="m 363,414 c 1.38654,2.19617 22.96065,0.64694 11.20362,0.70023 C 370.46908,414.46682 366.73454,414.23341 363,414 z"
     id="path742"
     inkscape:connector-curvature="0" />
  <path
     style="fill:#34261d;stroke:none"
     d="m 66,415 c 5.213323,2.32861 14.746953,0.33692 21.625806,1 C 81.976436,415.70448 72.867437,415.32285 66,415 z"
     id="path744"
     inkscape:connector-curvature="0" />
  <path
     style="fill:#514b48;stroke:none"
     d="m 419,415 c 5.95823,2.20483 17.55525,0.85378 0,0 z m 12.333,0.667 0.334,0.666 -0.334,-0.666 z M 66,416 c 5.213323,2.32861 14.746953,0.33692 21.625806,1 23.458064,0 46.916134,0 70.374194,0 -30.64986,-1.56305 -61.325352,-0.84612 -92,-1 z"
     id="path746"
     inkscape:connector-curvature="0" />
  <path
     style="fill:#dccfc6;stroke:none"
     d="m 115,417 c 6.22172,2.41613 14.45454,0.56829 0,0 z"
     id="path748"
     inkscape:connector-curvature="0" />
  <path
     style="fill:#9f9997;stroke:none"
     d="m 157,417 c 5.21332,2.32861 14.74695,0.33692 21.62581,1 73.79139,0 147.58279,0 221.37419,0 -51.9948,-2.11222 -104.07072,-0.4911 -156.10036,-1 -28.96655,0 -57.93309,0 -86.89964,0 z"
     id="path750"
     inkscape:connector-curvature="0" />
  <path
     style="fill:#867269;stroke:none"
     d="m 400,417 c 5.21332,2.32861 14.74695,0.33692 21.62581,1 12.90444,0.085 8.86457,-0.0947 -1.63428,-0.37526 C 413.32768,417.41649 406.66384,417.20825 400,417 z"
     id="path752"
     inkscape:connector-curvature="0" />
</svg>
