<?xml version="1.0" encoding="UTF-8" standalone="no"?>
<svg
   xmlns:dc="http://purl.org/dc/elements/1.1/"
   xmlns:cc="http://creativecommons.org/ns#"
   xmlns:rdf="http://www.w3.org/1999/02/22-rdf-syntax-ns#"
   xmlns:svg="http://www.w3.org/2000/svg"
   xmlns="http://www.w3.org/2000/svg"
   xmlns:sodipodi="http://sodipodi.sourceforge.net/DTD/sodipodi-0.dtd"
   xmlns:inkscape="http://www.inkscape.org/namespaces/inkscape"
   width="500"
   height="504"
   id="svg3885"
   version="1.1"
   inkscape:version="0.48.4 r9939"
   sodipodi:docname="Fwd-2016-Newest-Popular-handbag-designs-from-Ceso-17-2016022459.svg">
  <metadata
     id="metadata4943">
    <rdf:RDF>
      <cc:Work
         rdf:about="">
        <dc:format>image/svg+xml</dc:format>
        <dc:type
           rdf:resource="http://purl.org/dc/dcmitype/StillImage" />
        <dc:title></dc:title>
      </cc:Work>
    </rdf:RDF>
  </metadata>
  <defs
     id="defs4941" />
  <sodipodi:namedview
     pagecolor="#ffffff"
     bordercolor="#666666"
     borderopacity="1"
     objecttolerance="10"
     gridtolerance="10"
     guidetolerance="10"
     inkscape:pageopacity="0"
     inkscape:pageshadow="2"
     inkscape:window-width="640"
     inkscape:window-height="480"
     id="namedview4939"
     showgrid="false"
     inkscape:zoom="0.16555278"
     inkscape:cx="-697.3708"
     inkscape:cy="763.25988"
     inkscape:window-x="552"
     inkscape:window-y="331"
     inkscape:window-maximized="0"
     inkscape:current-layer="svg3885" />
  <path
     style="fill:#c8c8c7;stroke:none"
     d="m 230,11 c 6.57428,2.203859 19.19054,0.858171 0,0 z"
     id="path3891"
     inkscape:connector-curvature="0" />
  <path
     style="fill:#b7b7b1;stroke:none"
     d="m 226.667,12.3333 c 0.222,0.111133 0.222,0.111133 0,0 z"
     id="path3899"
     inkscape:connector-curvature="0" />
  <path
     style="fill:#222122;stroke:none"
     d="m 134,175 c 3.22625,-2.54478 14.65228,-19.48009 11.76555,-11.29666 -3.001,9.50683 -4.71772,11.17448 -0.0478,7.56689 -5.2814,9.23429 4.54816,15.81312 4.78458,2.97169 C 153.6682,163.16128 156.8341,152.08064 160,141 c 11.2721,2.20729 -4.97114,-4.77991 -7,3 5.88454,-30.60225 16.15778,-60.838279 30.45063,-88.577307 12.65188,-19.506195 32.70602,-44.531309 59.0794,-39.370458 10.96682,0.38961 41.74609,32.678015 21.8733,9.007773 C 246.93023,8.1516067 223.939,9.2917781 203.98864,24.7502 168.18155,54.247172 162.72619,103.11592 148.59472,144.32967 143.78057,154.57274 135.95763,163.5597 134,175 z"
     id="path3901"
     inkscape:connector-curvature="0" />
  <path
     style="fill:#b4af95;stroke:none"
     d="m 243,12 c 0.39316,2.724398 5.51447,0.116199 0,0 z"
     id="path3903"
     inkscape:connector-curvature="0" />
  <path
     style="fill:#7e7e82;stroke:none"
     d="m 224.667,13.3333 c 0.222,0.111133 0.222,0.111133 0,0 z"
     id="path3907"
     inkscape:connector-curvature="0" />
  <path
     style="fill:#3a3833;stroke:none"
     d="m 243,13 c 25.43418,10.072198 40.86994,34.878669 47.37705,60.701183 C 297.63157,94.611865 302.30984,132.10218 307,144 c -1.26422,12.35609 18.45055,45.88489 7.862,18 C 301.86154,129.10245 303.97024,92.107213 289.50346,59.500563 281.31676,38.848323 266.66708,16.696926 243,13 z"
     id="path3909"
     inkscape:connector-curvature="0" />
  <path
     style="fill:#898673;stroke:none"
     d="m 246.667,13.3333 c 0.222,0.111133 0.222,0.111133 0,0 z"
     id="path3911"
     inkscape:connector-curvature="0" />
  <path
     style="fill:#b4af95;stroke:none"
     d="m 220.667,14.3333 c 0.222,0.111133 0.222,0.111133 0,0 z"
     id="path3915"
     inkscape:connector-curvature="0" />
  <path
     style="fill:#77776a;stroke:none"
     d="m 218.667,15.3333 0.666,0.3334 -0.666,-0.3334 z M 232,15 c 4.21874,2.425389 13.57392,0.486904 0,0 z"
     id="path3921"
     inkscape:connector-curvature="0" />
  <path
     style="fill:#666559;stroke:none"
     d="m 225,16 c 0.39316,2.724398 5.51447,0.116199 0,0 z"
     id="path3925"
     inkscape:connector-curvature="0" />
  <path
     style="fill:#9e9b7d;stroke:none"
     d="m 207,27 c 9.42627,-0.579208 16.748,-5.961056 27.75536,-6.232484 12.73355,0.114974 19.82842,-4.225128 1.89024,-5.563458 C 225.89629,15.312194 214.45355,18.964962 207,27 z"
     id="path3927"
     inkscape:connector-curvature="0" />
  <path
     style="fill:#c6c2ae;stroke:none"
     d="m 221,24 c -14.5575,-3.911668 -37.74016,24.853324 -32.03348,28.583696 3.7369,-0.101695 5.04041,-2.234584 11.46704,-8.006766 12.61712,-7.312811 20.51095,-21.900208 36.39127,-23.284127 11.69938,-0.715125 19.69407,-2.730226 3.21154,-2.968366 C 234.26082,20.102468 224.69611,18.971192 221,24 z"
     id="path3929"
     inkscape:connector-curvature="0" />
  <path
     style="fill:#9e9b7d;stroke:none"
     d="m 207,21 c 1.42117,1.42117 1.14311,1.143108 0,0 z"
     id="path3933"
     inkscape:connector-curvature="0" />
  <path
     style="fill:#77776a;stroke:none"
     d="m 231,21 c 2.85778,2.459058 7.02817,0.33613 0,0 z"
     id="path3935"
     inkscape:connector-curvature="0" />
  <path
     style="fill:#95948e;stroke:none"
     d="m 262,21 c 1.42117,1.42117 1.14311,1.143108 0,0 z"
     id="path3937"
     inkscape:connector-curvature="0" />
  <path
     style="fill:#121310;stroke:none"
     d="M 170,170 C 187.14103,149.52005 182.23772,119.22146 189.08473,94.387557 195.0372,66.766246 207.56245,37.824551 233,23 210.77795,22.889551 202.73969,50.272351 194.11748,66.92674 183.0062,94.084076 184.97518,124.37279 176.08134,151.94449 173.59876,157.78033 170.63839,163.59098 170,170 z"
     id="path3939"
     inkscape:connector-curvature="0" />
  <path
     style="fill:#95948e;stroke:none"
     d="m 257,22 c 1.42117,1.42117 1.14311,1.143108 0,0 z m 3,2 c 1.42117,1.42117 1.14311,1.143108 0,0 z"
     id="path3941"
     inkscape:connector-curvature="0" />
  <path
     style="fill:#b4af95;stroke:none"
     d="m 183,138 c 17.66273,-2.69518 11.94641,-23.33872 15.69976,-36.31551 C 202.72872,74.757503 207.46177,44.153759 230,26 208.45089,32.23521 201.43528,59.056672 193.45202,77.986764 187.12757,97.359522 183.8994,117.66766 183,138 z"
     id="path3943"
     inkscape:connector-curvature="0" />
  <path
     style="fill:#7e7e82;stroke:none"
     d="m 273,26 c 3.51924,5.572454 13.68371,9.264116 0,0 z"
     id="path3947"
     inkscape:connector-curvature="0" />
  <path
     style="fill:#9e9b7d;stroke:none"
     d="m 198,29 c 1.42117,1.42117 1.14311,1.143108 0,0 z"
     id="path3957"
     inkscape:connector-curvature="0" />
  <path
     style="fill:#b4af95;stroke:none"
     d="m 197,30 c 1.42117,1.42117 1.14311,1.143108 0,0 z m -1,1 c 1.42117,1.42117 1.14311,1.143108 0,0 z"
     id="path3963"
     inkscape:connector-curvature="0" />
  <path
     style="fill:#222122;stroke:none"
     d="m 279,31 c 16.20342,23.205747 31.61662,47.417854 36.7184,75.93819 6.698,20.12204 8.36607,42.53006 12.84306,62.14376 7.03488,15.13677 2.4401,-12.75348 8.08092,2.8634 C 337.64148,175.8417 339.15271,168.42167 345,176 335.64557,156.41225 324.64744,137.37574 321.02926,115.41943 312.95633,86.463174 305.78264,54.406079 282.89107,33.271968 L 279,31 z"
     id="path3965"
     inkscape:connector-curvature="0" />
  <path
     style="fill:#7e7e82;stroke:none"
     d="m 281,35 c 1.42117,1.42117 1.14311,1.143108 0,0 z"
     id="path3971"
     inkscape:connector-curvature="0" />
  <path
     style="fill:#95948e;stroke:none"
     d="m 272,36 c 1.42117,1.42117 1.14311,1.143108 0,0 z"
     id="path3973"
     inkscape:connector-curvature="0" />
  <path
     style="fill:#95948e;stroke:none"
     d="m 191,37 c 1.42117,1.42117 1.14311,1.143108 0,0 z"
     id="path3977"
     inkscape:connector-curvature="0" />
  <path
     style="fill:#95948e;stroke:none"
     d="m 208,39 c 1.42117,1.42117 1.14311,1.143108 0,0 z"
     id="path3983"
     inkscape:connector-curvature="0" />
  <path
     style="fill:#898673;stroke:none"
     d="m 284,39 c 1.42117,1.42117 1.14311,1.143108 0,0 z"
     id="path3985"
     inkscape:connector-curvature="0" />
  <path
     style="fill:#77776a;stroke:none"
     d="m 285,40 c 1.42117,1.42117 1.14311,1.143108 0,0 z"
     id="path3989"
     inkscape:connector-curvature="0" />
  <path
     style="fill:#898673;stroke:none"
     d="m 286,41 c 1.42117,1.42117 1.14311,1.143108 0,0 z"
     id="path3993"
     inkscape:connector-curvature="0" />
  <path
     style="fill:#9e9b7d;stroke:none"
     d="m 290,41 c 1.42117,1.42117 1.14311,1.143108 0,0 z m -14,1 c 1.42117,1.42117 1.14311,1.143108 0,0 z"
     id="path3995"
     inkscape:connector-curvature="0" />
  <path
     style="fill:#7e7e82;stroke:none"
     d="m 205,44 c 1.42117,1.42117 1.14311,1.143108 0,0 z"
     id="path4001"
     inkscape:connector-curvature="0" />
  <path
     style="fill:#9e9b7d;stroke:none"
     d="m 278,45 c 1.42117,1.42117 1.14311,1.143108 0,0 z"
     id="path4003"
     inkscape:connector-curvature="0" />
  <path
     style="fill:#77776a;stroke:none"
     d="m 290,46 c 1.42117,1.42117 1.14311,1.143108 0,0 z"
     id="path4007"
     inkscape:connector-curvature="0" />
  <path
     style="fill:#d9d7c9;stroke:none"
     d="m 194,49 c 0.8223,5.627191 -6.87054,1.865649 -6.74481,4.724049 -4.93382,-5.644585 -15.48652,26.383942 -19.35469,35.763173 -4.75354,15.051198 -16.92746,41.756368 -11.21552,51.366108 18.93687,-8.12158 11.92642,-34.58878 21.86555,-50.195036 C 181.18637,76.269122 195.70177,62.975218 194,49 z"
     id="path4009"
     inkscape:connector-curvature="0" />
  <path
     style="fill:#9e9b7d;stroke:none"
     d="m 202,49 c 1.42117,1.42117 1.14311,1.143108 0,0 z"
     id="path4011"
     inkscape:connector-curvature="0" />
  <path
     style="fill:#898673;stroke:none"
     d="m 182,50 c 1.42117,1.42117 1.14311,1.143108 0,0 z"
     id="path4015"
     inkscape:connector-curvature="0" />
  <path
     style="fill:#95948e;stroke:none"
     d="m 201,51 c 1.42117,1.42117 1.14311,1.143108 0,0 z"
     id="path4021"
     inkscape:connector-curvature="0" />
  <path
     style="fill:#7e7e82;stroke:none"
     d="m 294,52 c 1.42117,1.42117 1.14311,1.143108 0,0 z"
     id="path4027"
     inkscape:connector-curvature="0" />
  <path
     style="fill:#9e9b7d;stroke:none"
     d="m 180,53 c 1.42117,1.42117 1.14311,1.143108 0,0 z"
     id="path4029"
     inkscape:connector-curvature="0" />
  <path
     style="fill:#95948e;stroke:none"
     d="m 196,61 c 1.42117,1.42117 1.14311,1.143108 0,0 z"
     id="path4039"
     inkscape:connector-curvature="0" />
  <path
     style="fill:#b4af95;stroke:none"
     d="m 175.333,62.6667 0.334,0.6666 -0.334,-0.6666 z M 174,65 c 1.42117,1.42117 1.14311,1.143108 0,0 z"
     id="path4041"
     inkscape:connector-curvature="0" />
  <path
     style="fill:#95948e;stroke:none"
     d="m 292.333,66.6667 c 0.11133,0.2222 0.11133,0.2222 0,0 z"
     id="path4043"
     inkscape:connector-curvature="0" />
  <path
     style="fill:#4c4a47;stroke:none"
     d="m 193.333,68.6667 c 0.11133,0.2222 0.11133,0.2222 0,0 z"
     id="path4045"
     inkscape:connector-curvature="0" />
  <path
     style="fill:#77776a;stroke:none"
     d="m 192,70 c -1.07833,3.753373 2.35844,4.572787 0,0 z"
     id="path4053"
     inkscape:connector-curvature="0" />
  <path
     style="fill:#9e9b7d;stroke:none"
     d="m 191.333,73.6667 c 0.11133,0.2222 0.11133,0.2222 0,0 z"
     id="path4085"
     inkscape:connector-curvature="0" />
  <path
     style="fill:#77776a;stroke:none"
     d="m 170.333,74.6667 c 0.11133,0.2222 0.11133,0.2222 0,0 z"
     id="path4089"
     inkscape:connector-curvature="0" />
  <path
     style="fill:#b7b7b1;stroke:none"
     d="m 291.333,74.6667 c 0.11133,0.2222 0.11133,0.2222 0,0 z"
     id="path4091"
     inkscape:connector-curvature="0" />
  <path
     style="fill:#b4af95;stroke:none"
     d="m 190.333,76.6667 c 0.11133,0.2222 0.11133,0.2222 0,0 z"
     id="path4099"
     inkscape:connector-curvature="0" />
  <path
     style="fill:#b7b7b1;stroke:none"
     d="m 306.333,76.6667 c 0.11133,0.2222 0.11133,0.2222 0,0 z"
     id="path4101"
     inkscape:connector-curvature="0" />
  <path
     style="fill:#95948e;stroke:none"
     d="m 292,77 c -1.07833,3.753373 2.35844,4.572787 0,0 z"
     id="path4111"
     inkscape:connector-curvature="0" />
  <path
     style="fill:#9e9b7d;stroke:none"
     d="m 296.333,78.6667 c 0.11133,0.2222 0.11133,0.2222 0,0 z"
     id="path4117"
     inkscape:connector-curvature="0" />
  <path
     style="fill:#666559;stroke:none"
     d="m 310.333,78.6667 c 0.11133,0.2222 0.11133,0.2222 0,0 z"
     id="path4119"
     inkscape:connector-curvature="0" />
  <path
     style="fill:#b7b7b1;stroke:none"
     d="m 307.333,79.6667 c 0.11133,0.2222 0.11133,0.2222 0,0 z"
     id="path4125"
     inkscape:connector-curvature="0" />
  <path
     style="fill:#666559;stroke:none"
     d="m 308,80 c -1.07833,3.753373 2.35844,4.572787 0,0 z"
     id="path4133"
     inkscape:connector-curvature="0" />
  <path
     style="fill:#666559;stroke:none"
     d="m 167.333,82.6667 c 0.11133,0.2222 0.11133,0.2222 0,0 z"
     id="path4139"
     inkscape:connector-curvature="0" />
  <path
     style="fill:#95948e;stroke:none"
     d="m 297.333,82.6667 c 0.11133,0.2222 0.11133,0.2222 0,0 z"
     id="path4141"
     inkscape:connector-curvature="0" />
  <path
     style="fill:#95948e;stroke:none"
     d="m 170.333,83.6667 c 0.11133,0.2222 0.11133,0.2222 0,0 z"
     id="path4149"
     inkscape:connector-curvature="0" />
  <path
     style="fill:#4c4a47;stroke:none"
     d="m 188,84 c -1.07833,3.753373 2.35844,4.572787 0,0 z"
     id="path4153"
     inkscape:connector-curvature="0" />
  <path
     style="fill:#666559;stroke:none"
     d="m 191,84 c -1.07833,3.753373 2.35844,4.572787 0,0 z"
     id="path4155"
     inkscape:connector-curvature="0" />
  <path
     style="fill:#b4af95;stroke:none"
     d="m 309.333,84.6667 c 0.11133,0.2222 0.11133,0.2222 0,0 z"
     id="path4157"
     inkscape:connector-curvature="0" />
  <path
     style="fill:#666559;stroke:none"
     d="m 312,84 c -1.07833,3.753373 2.35844,4.572787 0,0 z"
     id="path4159"
     inkscape:connector-curvature="0" />
  <path
     style="fill:#666559;stroke:none"
     d="m 166.333,85.6667 c 0.11133,0.2222 0.11133,0.2222 0,0 z"
     id="path4167"
     inkscape:connector-curvature="0" />
  <path
     style="fill:#b7b7b1;stroke:none"
     d="m 298,86 c -1.07833,3.753373 2.35844,4.572787 0,0 z"
     id="path4169"
     inkscape:connector-curvature="0" />
  <path
     style="fill:#95948e;stroke:none"
     d="m 165.333,87.6667 c 0.11133,0.2222 0.11133,0.2222 0,0 z"
     id="path4173"
     inkscape:connector-curvature="0" />
  <path
     style="fill:#77776a;stroke:none"
     d="m 187,87 c -0.82337,5.816208 1.9345,4.881764 0,0 z"
     id="path4175"
     inkscape:connector-curvature="0" />
  <path
     style="fill:#4c4a47;stroke:none"
     d="m 313.333,88.6667 c 0.11133,0.2222 0.11133,0.2222 0,0 z"
     id="path4179"
     inkscape:connector-curvature="0" />
  <path
     style="fill:#95948e;stroke:none"
     d="m 164.333,90.6667 c 0.11133,0.2222 0.11133,0.2222 0,0 z"
     id="path4181"
     inkscape:connector-curvature="0" />
  <path
     style="fill:#b7b7b1;stroke:none"
     d="m 311.333,90.6667 c 0.11133,0.2222 0.11133,0.2222 0,0 z"
     id="path4183"
     inkscape:connector-curvature="0" />
  <path
     style="fill:#b4af95;stroke:none"
     d="m 186,91 c -0.82337,5.816208 1.9345,4.881764 0,0 z m 113,0 c -1.07833,3.753373 2.35844,4.572787 0,0 z"
     id="path4185"
     inkscape:connector-curvature="0" />
  <path
     style="fill:#77776a;stroke:none"
     d="m 312,92 c -1.07833,3.753373 2.35844,4.572787 0,0 z"
     id="path4187"
     inkscape:connector-curvature="0" />
  <path
     style="fill:#7e7e82;stroke:none"
     d="m 163.333,93.6667 c 0.11133,0.2222 0.11133,0.2222 0,0 z"
     id="path4189"
     inkscape:connector-curvature="0" />
  <path
     style="fill:#77776a;stroke:none"
     d="m 166.333,94.6667 c 0.11133,0.2222 0.11133,0.2222 0,0 z"
     id="path4191"
     inkscape:connector-curvature="0" />
  <path
     style="fill:#c8c8c7;stroke:none"
     d="m 185,95 c -1.07833,3.753373 2.35844,4.572787 0,0 z"
     id="path4193"
     inkscape:connector-curvature="0" />
  <path
     style="fill:#b4af95;stroke:none"
     d="m 296,95 c -1.07833,3.753373 2.35844,4.572787 0,0 z"
     id="path4195"
     inkscape:connector-curvature="0" />
  <path
     style="fill:#77776a;stroke:none"
     d="m 162.333,96.6667 c 0.11133,0.2222 0.11133,0.2222 0,0 z"
     id="path4197"
     inkscape:connector-curvature="0" />
  <path
     style="fill:#9e9b7d;stroke:none"
     d="m 300.333,96.6667 c 0.11133,0.2222 0.11133,0.2222 0,0 z"
     id="path4199"
     inkscape:connector-curvature="0" />
  <path
     style="fill:#7e7e82;stroke:none"
     d="m 313.333,96.6667 c 0.11133,0.2222 0.11133,0.2222 0,0 z"
     id="path4201"
     inkscape:connector-curvature="0" />
  <path
     style="fill:#898673;stroke:none"
     d="m 316.333,96.6667 c 0.11133,0.2222 0.11133,0.2222 0,0 z"
     id="path4203"
     inkscape:connector-curvature="0" />
  <path
     style="fill:#77776a;stroke:none"
     d="m 165,97 c -1.07833,3.75337 2.35844,4.57279 0,0 z m -3.667,2.6667 0.334,0.6663 -0.334,-0.6663 z"
     id="path4205"
     inkscape:connector-curvature="0" />
  <path
     style="fill:#7e7e82;stroke:none"
     d="m 297,99 c -1.07833,3.75337 2.35844,4.57279 0,0 z"
     id="path4207"
     inkscape:connector-curvature="0" />
  <path
     style="fill:#666559;stroke:none"
     d="m 314,99 c -1.07833,3.75337 2.35844,4.57279 0,0 z"
     id="path4209"
     inkscape:connector-curvature="0" />
  <path
     style="fill:#77776a;stroke:none"
     d="m 317.333,100.667 0.334,0.666 -0.334,-0.666 z m -157,2 0.334,0.666 -0.334,-0.666 z"
     id="path4211"
     inkscape:connector-curvature="0" />
  <path
     style="fill:#b4af95;stroke:none"
     d="m 318,103 c -1.07833,3.75337 2.35844,4.57279 0,0 z"
     id="path4213"
     inkscape:connector-curvature="0" />
  <path
     style="fill:#b7b7b1;stroke:none"
     d="m 159.333,104.667 0.334,0.666 -0.334,-0.666 z M 158,107 c -1.07833,3.75337 2.35844,4.57279 0,0 z"
     id="path4215"
     inkscape:connector-curvature="0" />
  <path
     style="fill:#4c4a47;stroke:none"
     d="m 186,107 c -1.07833,3.75337 2.35844,4.57279 0,0 z"
     id="path4217"
     inkscape:connector-curvature="0" />
  <path
     style="fill:#3a3833;stroke:none"
     d="m 183,108 c -0.76396,5.53289 1.85733,9.75172 0,0 z"
     id="path4219"
     inkscape:connector-curvature="0" />
  <path
     style="fill:#c8c8c7;stroke:none"
     d="m 197,108 c -0.82337,5.81621 1.9345,4.88176 0,0 z"
     id="path4221"
     inkscape:connector-curvature="0" />
  <path
     style="fill:#95948e;stroke:none"
     d="m 319,108 c -1.07833,3.75337 2.35844,4.57279 0,0 z m -157.667,2.667 0.334,0.666 -0.334,-0.666 z"
     id="path4223"
     inkscape:connector-curvature="0" />
  <path
     style="fill:#9e9b7d;stroke:none"
     d="m 299.333,110.667 c 0.11133,0.222 0.11133,0.222 0,0 z"
     id="path4225"
     inkscape:connector-curvature="0" />
  <path
     style="fill:#95948e;stroke:none"
     d="m 317,111 c -1.07833,3.75337 2.35844,4.57279 0,0 z m -14,1 c -1.07833,3.75337 2.35844,4.57279 0,0 z"
     id="path4227"
     inkscape:connector-curvature="0" />
  <path
     style="fill:#77776a;stroke:none"
     d="m 320.333,112.667 c 0.11133,0.222 0.11133,0.222 0,0 z"
     id="path4229"
     inkscape:connector-curvature="0" />
  <path
     style="fill:#4c4a47;stroke:none"
     d="m 157,113 c -1.81127,5.26055 0.2953,10.52911 0,0 z"
     id="path4231"
     inkscape:connector-curvature="0" />
  <path
     style="fill:#898673;stroke:none"
     d="m 160,113 c -1.07833,3.75337 2.35844,4.57279 0,0 z"
     id="path4233"
     inkscape:connector-curvature="0" />
  <path
     style="fill:#666559;stroke:none"
     d="m 182,114 c -0.76396,5.53289 1.85733,9.75172 0,0 z m 136,0 c -1.07833,3.75337 2.35844,4.57279 0,0 z m -133,1 c -1.07833,3.75337 2.35844,4.57279 0,0 z"
     id="path4235"
     inkscape:connector-curvature="0" />
  <path
     style="fill:#898673;stroke:none"
     d="m 159.333,117.667 c 0.11133,0.222 0.11133,0.222 0,0 z"
     id="path4237"
     inkscape:connector-curvature="0" />
  <path
     style="fill:#95948e;stroke:none"
     d="m 304.333,118.667 c 0.11133,0.222 0.11133,0.222 0,0 z"
     id="path4239"
     inkscape:connector-curvature="0" />
  <path
     style="fill:#898673;stroke:none"
     d="m 155.333,120.667 c 0.11133,0.222 0.11133,0.222 0,0 z"
     id="path4241"
     inkscape:connector-curvature="0" />
  <path
     style="fill:#95948e;stroke:none"
     d="m 181,120 c -0.76396,5.53289 1.85733,9.75172 0,0 z"
     id="path4243"
     inkscape:connector-curvature="0" />
  <path
     style="fill:#b4af95;stroke:none"
     d="m 301,120 c -1.07833,3.75337 2.35844,4.57279 0,0 z"
     id="path4245"
     inkscape:connector-curvature="0" />
  <path
     style="fill:#666559;stroke:none"
     d="m 322.333,120.667 c 0.11133,0.222 0.11133,0.222 0,0 z"
     id="path4247"
     inkscape:connector-curvature="0" />
  <path
     style="fill:#9e9b7d;stroke:none"
     d="m 305,122 c -1.07833,3.75337 2.35844,4.57279 0,0 z m -151,1 c -1.07833,3.75337 2.35844,4.57279 0,0 z"
     id="path4249"
     inkscape:connector-curvature="0" />
  <path
     style="fill:#95948e;stroke:none"
     d="m 323,123 c -1.07833,3.75337 2.35844,4.57279 0,0 z"
     id="path4251"
     inkscape:connector-curvature="0" />
  <path
     style="fill:#b4af95;stroke:none"
     d="m 302,124 c -0.82337,5.81621 1.9345,4.88176 0,0 z"
     id="path4253"
     inkscape:connector-curvature="0" />
  <path
     style="fill:#b7b7b1;stroke:none"
     d="m 320.333,124.667 c 0.11133,0.222 0.11133,0.222 0,0 z"
     id="path4255"
     inkscape:connector-curvature="0" />
  <path
     style="fill:#c6c2ae;stroke:none"
     d="m 153,126 c -1.07833,3.75337 2.35844,4.57279 0,0 z"
     id="path4257"
     inkscape:connector-curvature="0" />
  <path
     style="fill:#b7b7b1;stroke:none"
     d="m 180,126 c -0.76396,5.53289 1.85733,9.75172 0,0 z"
     id="path4259"
     inkscape:connector-curvature="0" />
  <path
     style="fill:#77776a;stroke:none"
     d="m 183,127 c -0.76396,5.53289 1.85733,9.75172 0,0 z m 141.333,0.667 0.334,0.666 -0.334,-0.666 z"
     id="path4261"
     inkscape:connector-curvature="0" />
  <path
     style="fill:#666559;stroke:none"
     d="m 156.333,128.667 0.334,0.666 -0.334,-0.666 z M 303,128 c -0.62496,6.52299 1.87974,6.18254 0,0 z"
     id="path4263"
     inkscape:connector-curvature="0" />
  <path
     style="fill:#95948e;stroke:none"
     d="m 306.333,128.667 c 0.11133,0.222 0.11133,0.222 0,0 z"
     id="path4265"
     inkscape:connector-curvature="0" />
  <path
     style="fill:#b7b7b1;stroke:none"
     d="m 321.333,128.667 c 0.11133,0.222 0.11133,0.222 0,0 z"
     id="path4267"
     inkscape:connector-curvature="0" />
  <path
     style="fill:#898673;stroke:none"
     d="m 325.333,130.667 c 0.11133,0.222 0.11133,0.222 0,0 z"
     id="path4269"
     inkscape:connector-curvature="0" />
  <path
     style="fill:#95948e;stroke:none"
     d="m 322.333,131.667 c 0.11133,0.222 0.11133,0.222 0,0 z"
     id="path4271"
     inkscape:connector-curvature="0" />
  <path
     style="fill:#d9d7c9;stroke:none"
     d="m 179,132 c -0.79888,8.3268 1.83555,12.47608 0,0 z"
     id="path4273"
     inkscape:connector-curvature="0" />
  <path
     style="fill:#666559;stroke:none"
     d="m 180.333,132.667 c 0.11133,0.222 0.11133,0.222 0,0 z"
     id="path4275"
     inkscape:connector-curvature="0" />
  <path
     style="fill:#95948e;stroke:none"
     d="m 307,132 c -0.7151,8.19886 1.82774,9.50968 0,0 z"
     id="path4277"
     inkscape:connector-curvature="0" />
  <path
     style="fill:#222122;stroke:none"
     d="m 184,141 c 9.98776,-2.26263 15.76919,-12.18184 1.50178,-4.13405 L 184,141 z"
     id="path4279"
     inkscape:connector-curvature="0" />
  <path
     style="fill:#9e9b7d;stroke:none"
     d="m 195,133 c 1.42117,1.42117 1.14311,1.14311 0,0 z"
     id="path4281"
     inkscape:connector-curvature="0" />
  <path
     style="fill:#95948e;stroke:none"
     d="m 196,134 c -10.99924,-0.3191 5.87217,10.25527 0,0 z"
     id="path4283"
     inkscape:connector-curvature="0" />
  <path
     style="fill:#7e7e82;stroke:none"
     d="m 323,134 c -1.07833,3.75337 2.35844,4.57279 0,0 z"
     id="path4285"
     inkscape:connector-curvature="0" />
  <path
     style="fill:#77776a;stroke:none"
     d="m 326,134 c -1.07833,3.75337 2.35844,4.57279 0,0 z"
     id="path4287"
     inkscape:connector-curvature="0" />
  <path
     style="fill:#666559;stroke:none"
     d="m 151,135 c -1.07833,3.75337 2.35844,4.57279 0,0 z"
     id="path4289"
     inkscape:connector-curvature="0" />
  <path
     style="fill:#77776a;stroke:none"
     d="m 154.333,136.667 0.334,0.666 -0.334,-0.666 z M 182,136 c -1.44745,7.92446 4.15163,8.37907 0,0 z"
     id="path4291"
     inkscape:connector-curvature="0" />
  <path
     style="fill:#c6c2ae;stroke:none"
     d="m 187,170 c 7.37607,2.12214 -1.17354,-20.11707 3.16385,-14.67231 2.82339,12.17818 6.34152,-15.29042 0.34461,-7.58192 -5.03619,3.92564 11.79981,-23.29687 -3.36601,-5.49179 C 183.73199,151.19325 186.58026,160.82795 187,170 z"
     id="path4293"
     inkscape:connector-curvature="0" />
  <path
     style="fill:#b4af95;stroke:none"
     d="m 193,136 c -2.49851,3.7319 0.24816,21.51889 2.85712,6.93813 L 195.17983,139.00805 193,136 z"
     id="path4295"
     inkscape:connector-curvature="0" />
  <path
     style="fill:#898673;stroke:none"
     d="m 324,137 c -0.62496,6.52299 1.87974,6.18254 0,0 z"
     id="path4297"
     inkscape:connector-curvature="0" />
  <path
     style="fill:#666559;stroke:none"
     d="m 327.333,137.667 c 0.11133,0.222 0.11133,0.222 0,0 z"
     id="path4299"
     inkscape:connector-curvature="0" />
  <path
     style="fill:#77776a;stroke:none"
     d="m 150.333,138.667 c 0.11133,0.222 0.11133,0.222 0,0 z"
     id="path4301"
     inkscape:connector-curvature="0" />
  <path
     style="fill:#95948e;stroke:none"
     d="m 159,138 c 1.87452,2.74948 9.07902,2.39915 0,0 z"
     id="path4303"
     inkscape:connector-curvature="0" />
  <path
     style="fill:#c6c2ae;stroke:none"
     d="m 308,138 c -0.82337,5.81621 1.9345,4.88176 0,0 z"
     id="path4305"
     inkscape:connector-curvature="0" />
  <path
     style="fill:#95948e;stroke:none"
     d="m 153,139 c -0.62496,6.52299 1.87974,6.18254 0,0 z"
     id="path4307"
     inkscape:connector-curvature="0" />
  <path
     style="fill:#121310;stroke:none"
     d="m 183,170 c 6.81253,-1.20238 2.14461,-14.64975 4.34041,-20.77632 C 189.50983,120.07294 176.63295,163.47572 183,170 z"
     id="path4309"
     inkscape:connector-curvature="0" />
  <path
     style="fill:#898673;stroke:none"
     d="m 179.333,140.667 c 0.11133,0.222 0.11133,0.222 0,0 z"
     id="path4311"
     inkscape:connector-curvature="0" />
  <path
     style="fill:#4c4a47;stroke:none"
     d="m 181,140 c -1,9.66667 -2,19.33333 -3,29 -11.26881,-0.53131 11.21966,2.72876 5.27085,-9.50046 C 182.00037,153.47348 187.32191,143.33395 181,140 z"
     id="path4313"
     inkscape:connector-curvature="0" />
  <path
     style="fill:#898673;stroke:none"
     d="m 328.333,140.667 c 0.11133,0.222 0.11133,0.222 0,0 z"
     id="path4315"
     inkscape:connector-curvature="0" />
  <path
     style="fill:#7e7e82;stroke:none"
     d="m 149.333,141.667 c 0.11133,0.222 0.11133,0.222 0,0 z"
     id="path4317"
     inkscape:connector-curvature="0" />
  <path
     style="fill:#666559;stroke:none"
     d="m 160.667,141.333 c 0.222,0.11133 0.222,0.11133 0,0 z"
     id="path4319"
     inkscape:connector-curvature="0" />
  <path
     style="fill:#4c4a47;stroke:none"
     d="m 190,141 c -5.53586,12.9171 4.07783,3.63064 0,0 z"
     id="path4321"
     inkscape:connector-curvature="0" />
  <path
     style="fill:#77776a;stroke:none"
     d="m 192,141 c -3.18323,8.48861 -4.06388,10.83703 0,0 z"
     id="path4323"
     inkscape:connector-curvature="0" />
  <path
     style="fill:#c8c8c7;stroke:none"
     d="m 153,170 c 5.85135,-12.0154 1.0379,2.54065 13.10854,-1 14.8045,-2.4371 -7.79742,-10.7362 1.79512,-6 1.54534,5.47267 -8.82712,-4.25508 -8.11181,-8.51674 -11.65799,5.56179 13.4034,-22.10304 -3.25935,-7.54703 C 152.17103,153.4734 149.64944,162.49542 153,170 z"
     id="path4325"
     inkscape:connector-curvature="0" />
  <path
     style="fill:#c6c2ae;stroke:none"
     d="m 162,142 c -2.16307,6.87541 -0.24749,2.90519 -0.90633,14.06333 3.57034,1.19785 9.8487,-13.0354 0.90633,-14.06333 z"
     id="path4327"
     inkscape:connector-curvature="0" />
  <path
     style="fill:#4c4a47;stroke:none"
     d="m 323,142 c -0.76396,5.53289 1.85733,9.75172 0,0 z"
     id="path4329"
     inkscape:connector-curvature="0" />
  <path
     style="fill:#b7b7b1;stroke:none"
     d="m 148,143 c -1.07833,3.75337 2.35844,4.57279 0,0 z"
     id="path4331"
     inkscape:connector-curvature="0" />
  <path
     style="fill:#222122;stroke:none"
     d="m 306,144 c 1.31244,11.03492 -6.53815,24.41991 -3.09634,22 7.10351,7.27583 4.46127,4.10913 5.09634,-7.01219 2.86869,1.08951 3.32138,14.75999 5.17744,20.73489 1.98682,11.16042 2.35797,-13.4762 8.61579,2.44002 4.67658,5.68756 -6.07981,-10.42403 -7.46395,-14.48023 C 311.55285,159.78833 308.77643,151.89416 306,144 z"
     id="path4333"
     inkscape:connector-curvature="0" />
  <path
     style="fill:#666559;stroke:none"
     d="m 329.333,144.667 c 0.11133,0.222 0.11133,0.222 0,0 z"
     id="path4335"
     inkscape:connector-curvature="0" />
  <path
     style="fill:#77776a;stroke:none"
     d="m 334,145 c 1.8692,2.44632 6.37043,0.38078 0,0 z"
     id="path4337"
     inkscape:connector-curvature="0" />
  <path
     style="fill:#9e9b7d;stroke:none"
     d="m 303,146 c 1.42117,1.42117 1.14311,1.14311 0,0 z"
     id="path4339"
     inkscape:connector-curvature="0" />
  <path
     style="fill:#95948e;stroke:none"
     d="m 333,146 c -3.49097,10.43911 12.10639,-0.87865 0,0 z"
     id="path4341"
     inkscape:connector-curvature="0" />
  <path
     style="fill:#4c4a47;stroke:none"
     d="m 334,146 c 1.8692,2.44632 6.37043,0.38078 0,0 z"
     id="path4343"
     inkscape:connector-curvature="0" />
  <path
     style="fill:#77776a;stroke:none"
     d="m 147.333,147.667 c 0.11133,0.222 0.11133,0.222 0,0 z"
     id="path4345"
     inkscape:connector-curvature="0" />
  <path
     style="fill:#3a3833;stroke:none"
     d="m 156,155 c 11.10623,-4.79832 3.40784,-14.49571 0,0 z"
     id="path4347"
     inkscape:connector-curvature="0" />
  <path
     style="fill:#4c4a47;stroke:none"
     d="m 330.333,147.667 0.334,0.666 -0.334,-0.666 z M 338,147 c -10.91185,11.72636 10.01742,6.52495 0,0 z"
     id="path4349"
     inkscape:connector-curvature="0" />
  <path
     style="fill:#77776a;stroke:none"
     d="m 302,148 c -0.82337,5.81621 1.9345,4.88176 0,0 z"
     id="path4351"
     inkscape:connector-curvature="0" />
  <path
     style="fill:#d9d7c9;stroke:none"
     d="m 336,148 c -1.19745,8.1838 5.89844,-1.02622 0,0 z"
     id="path4353"
     inkscape:connector-curvature="0" />
  <path
     style="fill:#95948e;stroke:none"
     d="m 185,149 c -0.53817,12.30543 1.70647,11.95433 0,0 z"
     id="path4355"
     inkscape:connector-curvature="0" />
  <path
     style="fill:#222122;stroke:none"
     d="m 335,149 c -0.86474,4.95328 4.1817,3.38398 0,0 z"
     id="path4357"
     inkscape:connector-curvature="0" />
  <path
     style="fill:#77776a;stroke:none"
     d="m 146.333,150.667 0.334,0.666 -0.334,-0.666 z m 8,0 0.334,0.666 -0.334,-0.666 z"
     id="path4359"
     inkscape:connector-curvature="0" />
  <path
     style="fill:#b7b7b1;stroke:none"
     d="m 324.333,150.667 0.334,0.666 -0.334,-0.666 z M 312,151 c -1.3076,19.37543 6.93472,0.75226 0,0 z"
     id="path4361"
     inkscape:connector-curvature="0" />
  <path
     style="fill:#4c4a47;stroke:none"
     d="m 314,155 c 1.44538,-2.35895 8.7858,9.31804 2.03897,-2.78429 C 314.48845,151.74102 313.77136,153.90938 314,155 z m 18.333,-2.333 0.334,0.666 -0.334,-0.666 z"
     id="path4363"
     inkscape:connector-curvature="0" />
  <path
     style="fill:#666559;stroke:none"
     d="m 189,153 c -1.45188,5.54596 4.45475,-2.23536 0,0 z"
     id="path4365"
     inkscape:connector-curvature="0" />
  <path
     style="fill:#d9d7c9;stroke:none"
     d="m 315,153 c 1.57392,2.36087 3.59162,5.38743 0,0 z"
     id="path4367"
     inkscape:connector-curvature="0" />
  <path
     style="fill:#95948e;stroke:none"
     d="m 144,154 c 1.42117,1.42117 1.14311,1.14311 0,0 z"
     id="path4369"
     inkscape:connector-curvature="0" />
  <path
     style="fill:#121310;stroke:none"
     d="m 190,154 c 1.19396,12.85538 5.04372,1.987 0,0 z"
     id="path4371"
     inkscape:connector-curvature="0" />
  <path
     style="fill:#d9d7c9;stroke:none"
     d="m 194,154 c -1.07621,6.45724 -1.23959,7.43755 0,0 z"
     id="path4373"
     inkscape:connector-curvature="0" />
  <path
     style="fill:#b7b7b1;stroke:none"
     d="m 303.333,154.667 c 0.11133,0.222 0.11133,0.222 0,0 z"
     id="path4375"
     inkscape:connector-curvature="0" />
  <path
     style="fill:#898673;stroke:none"
     d="m 156.667,155.333 c 0.222,0.11133 0.222,0.11133 0,0 z"
     id="path4377"
     inkscape:connector-curvature="0" />
  <path
     style="fill:#222122;stroke:none"
     d="m 314,155 c 1.57062,12.87638 10.23423,1.08585 0,0 z"
     id="path4379"
     inkscape:connector-curvature="0" />
  <path
     style="fill:#95948e;stroke:none"
     d="m 152.333,156.667 c 0.11133,0.222 0.11133,0.222 0,0 z"
     id="path4381"
     inkscape:connector-curvature="0" />
  <path
     style="fill:#898673;stroke:none"
     d="m 177,157 c -5.16266,7.49193 0.57471,19.02982 1.5403,5.51638 C 177.92539,160.66547 180.9881,155.72043 177,157 z"
     id="path4383"
     inkscape:connector-curvature="0" />
  <path
     style="fill:#95948e;stroke:none"
     d="m 327,157 c -0.82337,5.81621 1.9345,4.88176 0,0 z"
     id="path4385"
     inkscape:connector-curvature="0" />
  <path
     style="fill:#7e7e82;stroke:none"
     d="m 341.667,157.333 c 0.222,0.11133 0.222,0.11133 0,0 z"
     id="path4387"
     inkscape:connector-curvature="0" />
  <path
     style="fill:#3a3833;stroke:none"
     d="m 308,158 c 0,10 0,20 0,30 3.77544,-4.27414 -0.10246,-23.1781 0,-30 z"
     id="path4389"
     inkscape:connector-curvature="0" />
  <path
     style="fill:#121310;stroke:none"
     d="m 341,158 c 2.83483,13.41525 13.87699,8.82758 0,0 z"
     id="path4391"
     inkscape:connector-curvature="0" />
  <path
     style="fill:#77776a;stroke:none"
     d="m 151,159 c -1.07833,3.75337 2.35844,4.57279 0,0 z"
     id="path4393"
     inkscape:connector-curvature="0" />
  <path
     style="fill:#666559;stroke:none"
     d="m 192,159 c 0.0692,11.96463 -5.65383,11.0108 -6,6.30122 0.46459,8.55653 -16.84168,3.92184 0.10554,5.93226 22.96482,0.58884 45.92964,1.17768 68.89446,1.76652 -5.80501,-2.51421 -15.93974,-0.8319 -23.41052,-1.73158 C 218.05965,170.84561 204.52983,170.42281 191,170 c -3.83101,-11.76694 8.46537,-7.13545 15.61247,-7.73979 14.79584,0.2466 29.59169,0.49319 44.38753,0.73979 -17.58529,-2.50063 -40.2831,2.92528 -59,-4 z m -47,1 c -8.22456,18.86361 0.39757,19.57117 1.66956,1.48696 C 148.01112,159.46873 146.09912,160.0604 145,160 z"
     id="path4395"
     inkscape:connector-curvature="0" />
  <path
     style="fill:#77776a;stroke:none"
     d="m 163,160 c 2.54868,8.99374 17.72017,-1.5794 3.4939,0 -1.16463,0 -2.32927,0 -3.4939,0 z"
     id="path4397"
     inkscape:connector-curvature="0" />
  <path
     style="fill:#b4af95;stroke:none"
     d="m 195,160 c 4.21874,2.42539 13.57392,0.4869 0,0 z"
     id="path4399"
     inkscape:connector-curvature="0" />
  <path
     style="fill:#d9d7c9;stroke:none"
     d="m 203,160 c 6.57428,2.20386 19.19054,0.85817 0,0 z"
     id="path4401"
     inkscape:connector-curvature="0" />
  <path
     style="fill:#77776a;stroke:none"
     d="m 345.333,160.667 c 0.11133,0.222 0.11133,0.222 0,0 z"
     id="path4403"
     inkscape:connector-curvature="0" />
  <path
     style="fill:#b4af95;stroke:none"
     d="m 138.667,161.333 c 0.222,0.11133 0.222,0.11133 0,0 z"
     id="path4405"
     inkscape:connector-curvature="0" />
  <path
     style="fill:#95948e;stroke:none"
     d="m 232,161 c 3.41132,2.39951 9.01066,0.44771 0,0 z"
     id="path4407"
     inkscape:connector-curvature="0" />
  <path
     style="fill:#b7b7b1;stroke:none"
     d="m 238,161 c 2.85778,2.45906 7.02817,0.33613 0,0 z"
     id="path4409"
     inkscape:connector-curvature="0" />
  <path
     style="fill:#77776a;stroke:none"
     d="m 328.333,161.667 c 0.11133,0.222 0.11133,0.222 0,0 z"
     id="path4411"
     inkscape:connector-curvature="0" />
  <path
     style="fill:#4c4a47;stroke:none"
     d="m 122,168 c 1.77698,1.5354 22.6797,-8.25361 14.29666,-4.76555 C 131.53111,164.82296 126.76555,166.41148 122,168 z"
     id="path4413"
     inkscape:connector-curvature="0" />
  <path
     style="fill:#b4af95;stroke:none"
     d="m 163,162 c 7.73283,2.93414 9.84389,0.97026 0,0 z m 28,0 c -0.36269,15.08351 12.69741,-4.29613 24.17091,4.33054 10.64747,1.10688 38.85101,1.00487 40.93401,-0.58922 C 234.41804,164.25645 212.70083,163.25727 191,162 z"
     id="path4415"
     inkscape:connector-curvature="0" />
  <path
     style="fill:#9e9b7d;stroke:none"
     d="m 238,163 c 4.48783,1.36112 17.04635,2.2146 21,-0.30122 -5.50228,-1.33457 -14.30853,0.4254 -21,0.30122 z"
     id="path4417"
     inkscape:connector-curvature="0" />
  <path
     style="fill:#d9d7c9;stroke:none"
     d="m 259,162 c 1.93825,2.22223 25.17951,0.60308 12.80314,0.71129 C 267.53542,162.47419 263.26771,162.2371 259,162 z"
     id="path4419"
     inkscape:connector-curvature="0" />
  <path
     style="fill:#95948e;stroke:none"
     d="m 150,163 c -0.62496,6.52299 1.87974,6.18254 0,0 z"
     id="path4421"
     inkscape:connector-curvature="0" />
  <path
     style="fill:#222122;stroke:none"
     d="m 155,163 c -4.45028,12.32234 6.18639,4.79577 0,0 z"
     id="path4423"
     inkscape:connector-curvature="0" />
  <path
     style="fill:#4c4a47;stroke:none"
     d="m 259,163 c 2.49075,2.22653 24.39922,0.64112 9.50657,0.59416 C 265.33772,163.39611 262.16886,163.19805 259,163 z"
     id="path4425"
     inkscape:connector-curvature="0" />
  <path
     style="fill:#77776a;stroke:none"
     d="m 272,164 c 6.40571,4.34786 14.1316,-3.38251 0,0 z"
     id="path4427"
     inkscape:connector-curvature="0" />
  <path
     style="fill:#b7b7b1;stroke:none"
     d="m 280,163 c 4.21874,2.42539 13.57392,0.4869 0,0 z"
     id="path4429"
     inkscape:connector-curvature="0" />
  <path
     style="fill:#b4af95;stroke:none"
     d="m 328.333,163.667 c 0.11133,0.222 0.11133,0.222 0,0 z"
     id="path4431"
     inkscape:connector-curvature="0" />
  <path
     style="fill:#c6c2ae;stroke:none"
     d="m 125,168 c 14.80498,2.84242 18.04019,-8.36544 0,0 z"
     id="path4433"
     inkscape:connector-curvature="0" />
  <path
     style="fill:#77776a;stroke:none"
     d="m 154,164 c -1.07833,3.75337 2.35844,4.57279 0,0 z"
     id="path4435"
     inkscape:connector-curvature="0" />
  <path
     style="fill:#c6c2ae;stroke:none"
     d="m 239,164 c 4.59653,3.07014 16.4306,-1.09727 21,2 -10.4447,0.99816 10.45035,1.9119 14.18303,2.11325 10.27232,0.62891 20.54465,1.25783 30.81697,1.88675 2.88154,-8.37969 -13.18044,-2.41848 -18.5096,-4.58238 C 270.66027,164.94508 254.83013,164.47254 239,164 z"
     id="path4437"
     inkscape:connector-curvature="0" />
  <path
     style="fill:#3a3833;stroke:none"
     d="m 280,164 c 6.57428,2.20386 19.19054,0.85817 0,0 z"
     id="path4439"
     inkscape:connector-curvature="0" />
  <path
     style="fill:#666559;stroke:none"
     d="m 291,164 c 4.19252,6.15494 13.3313,-2.23634 0.19268,0 L 291,164 z"
     id="path4441"
     inkscape:connector-curvature="0" />
  <path
     style="fill:#9e9b7d;stroke:none"
     d="m 299,164 c 4.5831,2.38599 9.78965,0.45334 0,0 z m 20,0 c -1.45188,5.54596 4.45475,-2.23536 0,0 z"
     id="path4443"
     inkscape:connector-curvature="0" />
  <path
     style="fill:#95948e;stroke:none"
     d="m 181,165 c -3.87887,6.31778 5.45727,5.39308 0,0 z"
     id="path4445"
     inkscape:connector-curvature="0" />
  <path
     style="fill:#d9d7c9;stroke:none"
     d="m 306,173 c 0.67028,-8.48673 -13.73184,-2.41769 -19.50643,-4.68046 -29.54834,-0.77558 -59.31037,-2.51838 -88.71839,-2.87804 -10.95661,3.39861 8.30386,5.7608 12.9341,4.80466 C 242.476,171.03343 274.23608,172.10127 306,173 z"
     id="path4447"
     inkscape:connector-curvature="0" />
  <path
     style="fill:#4c4a47;stroke:none"
     d="m 310,165 c -3.75498,4.47101 -0.42824,27.40155 1.60509,14.93283 C 312.22749,175.15014 314.50292,168.64397 310,165 z"
     id="path4449"
     inkscape:connector-curvature="0" />
  <path
     style="fill:#222122;stroke:none"
     d="m 320,165 c 5.09062,11.37713 8.51868,13.50772 0,0 z"
     id="path4451"
     inkscape:connector-curvature="0" />
  <path
     style="fill:#898673;stroke:none"
     d="m 339,165 c 1.42117,1.42117 1.14311,1.14311 0,0 z"
     id="path4453"
     inkscape:connector-curvature="0" />
  <path
     style="fill:#3a3833;stroke:none"
     d="m 348,165 c -5.13527,7.95113 12.26848,4.35701 17.26782,7.11685 16.24406,2.62772 32.48812,5.25543 48.73218,7.88315 -17.97127,-15.34259 -45.78157,-4.53604 -66,-15 z"
     id="path4455"
     inkscape:connector-curvature="0" />
  <path
     style="fill:#95948e;stroke:none"
     d="m 124,166 c 1.42117,1.42117 1.14311,1.14311 0,0 z"
     id="path4457"
     inkscape:connector-curvature="0" />
  <path
     style="fill:#7e7e82;stroke:none"
     d="m 333,166 c 7.04688,11.11443 -15.71009,8.92416 -2.79801,10.1734 8.266,0.27553 16.53201,0.55107 24.79801,0.8266 -3.55806,-0.52441 -18.16209,-9.21476 -17,-2.09634 -1.57193,-2.61593 -3.34977,-5.98915 -5,-8.90366 z"
     id="path4459"
     inkscape:connector-curvature="0" />
  <path
     style="fill:#9e9b7d;stroke:none"
     d="m 349,166 c 4.5831,2.38599 9.78965,0.45334 0,0 z"
     id="path4461"
     inkscape:connector-curvature="0" />
  <path
     style="fill:#898673;stroke:none"
     d="m 141,167 c -8.34178,11.9914 3.7211,7.73712 0.69878,0 L 141,167 z"
     id="path4463"
     inkscape:connector-curvature="0" />
  <path
     style="fill:#95948e;stroke:none"
     d="m 345,167 c 1.42117,1.42117 1.14311,1.14311 0,0 z"
     id="path4465"
     inkscape:connector-curvature="0" />
  <path
     style="fill:#d9d7c9;stroke:none"
     d="m 362,167 c 2.49929,2.38364 24.35701,2.16099 9.54414,1.19302 C 368.36276,167.79535 365.18138,167.39767 362,167 z"
     id="path4467"
     inkscape:connector-curvature="0" />
  <path
     style="fill:#7e7e82;stroke:none"
     d="m 120,169 c 6.27357,5.10536 24.28257,0.63135 3.65028,-0.44602 L 120,169 z"
     id="path4469"
     inkscape:connector-curvature="0" />
  <path
     style="fill:#d9d7c9;stroke:none"
     d="m 150,168 c 0.37972,7.3031 -2.13122,17.3739 0,23 0.0707,-7.23154 4.08093,-17.92215 1.69878,-23 l -1.30122,0 L 150,168 z"
     id="path4471"
     inkscape:connector-curvature="0" />
  <path
     style="fill:#666559;stroke:none"
     d="m 329,168 c -1.07833,3.75337 2.35844,4.57279 0,0 z"
     id="path4473"
     inkscape:connector-curvature="0" />
  <path
     style="fill:#b7b7b1;stroke:none"
     d="m 90,173 c 5.779019,1.75491 15.86838,-1.25306 23.30571,-1.33057 14.59416,-1.73749 -1.21626,-3.02583 -7.49357,-0.77772 C 100.54143,171.59448 95.270715,172.29724 90,173 z"
     id="path4475"
     inkscape:connector-curvature="0" />
  <path
     style="fill:#7e7e82;stroke:none"
     d="m 157,169 c 2.28978,2.34554 22.04897,1.63245 17.41048,1.74105 C 168.60698,170.1607 162.80349,169.58035 157,169 z"
     id="path4477"
     inkscape:connector-curvature="0" />
  <path
     style="fill:#898673;stroke:none"
     d="m 306,169 c 1.41508,9.08175 -14.66982,0.66352 -18,5 5.09259,-1.90833 22.87353,4.62183 18,-5 z"
     id="path4479"
     inkscape:connector-curvature="0" />
  <path
     style="fill:#c6c2ae;stroke:none"
     d="m 347,169 c 19.21439,8.44809 43.96656,2.31025 62.88972,14.64167 16.47712,5.68232 24.50209,32.97786 19.58554,42.72715 -1.37183,-6.31238 -0.0126,-20.80206 -11.68014,-19.36882 -7.94496,7.26366 6.54176,20.00069 15.78364,23.05251 7.4606,-13.88029 -4.24572,-42.56476 -23.09072,-49.17065 C 390.83539,171.32238 368.46469,170.04359 347,169 z"
     id="path4481"
     inkscape:connector-curvature="0" />
  <path
     style="fill:#95948e;stroke:none"
     d="m 352,169 c 2.85778,2.45906 7.02817,0.33613 0,0 z"
     id="path4483"
     inkscape:connector-curvature="0" />
  <path
     style="fill:#b7b7b1;stroke:none"
     d="m 379,169 c 4.5831,2.38599 9.78965,0.45334 0,0 z"
     id="path4485"
     inkscape:connector-curvature="0" />
  <path
     style="fill:#d9d7c9;stroke:none"
     d="m 61,224 c 18.69941,2.4073 43.16382,12.03765 56.36262,-7.2167 21.52102,-7.96986 46.69385,0.71437 69.63775,-0.16368 45.57842,4.15519 91.41921,2.58288 136.99438,6.00997 21.50891,6.4216 37.24143,29.03543 63.42163,21.43878 13.85689,-2.67388 36.81706,8.25149 30.03351,-13.37121 2.58709,-9.81393 -6.74447,-16.38836 -1.50311,-3.91006 C 407.30875,230.44162 410.31766,199.06151 396,199 c 2.92412,-6.1876 -6.2112,-5.99247 -14.46078,-8.76653 C 364.02614,188.15564 346.51307,186.07782 329,184 c -0.68687,7.15934 2.21634,16.02096 6,21 5.60041,-7.91724 1.57446,13.58172 -0.30122,15 -13.56626,0 -27.13252,0 -40.69878,0 0.50994,-0.47106 -3.30203,-7.88384 1.35276,-15.57284 1.8679,0.38063 4.16765,-4.88428 7.86116,-3.71067 0.32456,-7.33861 4.67076,-17.31398 2.52371,-23.03208 -8.53945,-0.55797 -4.02636,9.80022 -15.94088,6.18527 C 259.85762,183.14821 229.93261,181.94432 200,181 c -4.50783,-10.70698 11.14757,-4.16433 17.21621,-5.82314 28.26127,0.27438 56.52253,0.54876 84.78379,0.82314 -5.80566,-2.49187 -15.94154,-0.77054 -23.41317,-1.64146 C 237.72456,173.23903 196.86228,172.11951 156,171 c -3.97518,9.91538 4.12769,48.03349 -20.64475,38.36337 C 125.56577,207.14455 126.17139,195.4385 122.434,188 c 2.75895,-7.16101 20.35776,-22.3928 1.93375,-18.03263 C 98.15682,166.87253 63.872635,178.39592 63.2205,209.34512 62.583655,214.24343 62.157688,219.18558 61,224 z"
     id="path4487"
     inkscape:connector-curvature="0" />
  <path
     style="fill:#77776a;stroke:none"
     d="m 145,170 c -0.79888,8.3268 1.83555,12.47608 0,0 z"
     id="path4489"
     inkscape:connector-curvature="0" />
  <path
     style="fill:#b4af95;stroke:none"
     d="m 153,170 c -1.186,11.45554 4.36964,12.85057 5,1 -0.94245,-3.07374 -4.33679,10.10891 -5,-1 z"
     id="path4491"
     inkscape:connector-curvature="0" />
  <path
     style="fill:#666559;stroke:none"
     d="m 154,170 c -0.82337,5.81621 1.9345,4.88176 0,0 z"
     id="path4493"
     inkscape:connector-curvature="0" />
  <path
     style="fill:#b4af95;stroke:none"
     d="m 202,170 c 1.93825,2.22223 25.17951,0.60308 12.80314,0.71129 C 210.53542,170.47419 206.26771,170.2371 202,170 z"
     id="path4495"
     inkscape:connector-curvature="0" />
  <path
     style="fill:#666559;stroke:none"
     d="m 363,170 c 3.41132,2.39951 9.01066,0.44771 0,0 z"
     id="path4497"
     inkscape:connector-curvature="0" />
  <path
     style="fill:#898673;stroke:none"
     d="m 386,170 c 0.39316,2.7244 5.51447,0.1162 0,0 z"
     id="path4499"
     inkscape:connector-curvature="0" />
  <path
     style="fill:#c8c8c7;stroke:none"
     d="m 389.667,170.333 c 0.222,0.11133 0.222,0.11133 0,0 z"
     id="path4501"
     inkscape:connector-curvature="0" />
  <path
     style="fill:#666559;stroke:none"
     d="m 372,171 c 1.8692,2.44632 6.37043,0.38078 0,0 z"
     id="path4503"
     inkscape:connector-curvature="0" />
  <path
     style="fill:#77776a;stroke:none"
     d="m 391,171 c 0.39316,2.7244 5.51447,0.1162 0,0 z m -242,1 c -0.82337,5.81621 1.9345,4.88176 0,0 z"
     id="path4505"
     inkscape:connector-curvature="0" />
  <path
     style="fill:#9e9b7d;stroke:none"
     d="m 212,172 c 5.66757,2.33243 15.66575,0.33425 23,1 -7.66667,-0.33333 -15.33333,-0.66667 -23,-1 z"
     id="path4507"
     inkscape:connector-curvature="0" />
  <path
     style="fill:#898673;stroke:none"
     d="m 253,173 c 4.22882,2.35855 30.61593,0.9349 9.62712,-1.0735 l -4.90464,0.23356 L 253,173 z"
     id="path4509"
     inkscape:connector-curvature="0" />
  <path
     style="fill:#4c4a47;stroke:none"
     d="m 319,172 c -2.30934,8.32142 9.97667,25.56132 4.93175,7.388 L 321.79278,175.51194 319,172 z"
     id="path4511"
     inkscape:connector-curvature="0" />
  <path
     style="fill:#898673;stroke:none"
     d="m 323,172 c 1.42117,1.42117 1.14311,1.14311 0,0 z"
     id="path4513"
     inkscape:connector-curvature="0" />
  <path
     style="fill:#c6c2ae;stroke:none"
     d="m 398.667,172.333 c 0.222,0.11133 0.222,0.11133 0,0 z"
     id="path4515"
     inkscape:connector-curvature="0" />
  <path
     style="fill:#b4af95;stroke:none"
     d="m 241,173 c 8.02241,2.43632 16.45093,0.36832 1.6262,0.13552 L 241.32948,173.02746 241,173 z"
     id="path4517"
     inkscape:connector-curvature="0" />
  <path
     style="fill:#666559;stroke:none"
     d="m 272,173 c 2.49075,2.22653 24.39922,0.64112 9.50657,0.59416 C 278.33772,173.39611 275.16886,173.19805 272,173 z"
     id="path4519"
     inkscape:connector-curvature="0" />
  <path
     style="fill:#b7b7b1;stroke:none"
     d="m 330,173 c -4.26675,0.63447 -3.80533,3.40175 0,0 z"
     id="path4521"
     inkscape:connector-curvature="0" />
  <path
     style="fill:#4c4a47;stroke:none"
     d="m 133,174 c 5.00119,3.35213 5.44246,0.77994 0,0 z"
     id="path4523"
     inkscape:connector-curvature="0" />
  <path
     style="fill:#b4af95;stroke:none"
     d="m 144,174 c -1.81127,5.26055 0.2953,10.52911 0,0 z"
     id="path4525"
     inkscape:connector-curvature="0" />
  <path
     style="fill:#fefefe;stroke:none"
     d="m 199,175 c -0.9468,10.6068 12.57029,4.59995 19.21042,6.49217 25.59833,0.7876 51.21467,1.09277 76.78958,2.50783 19.0094,-7.03433 -19.73181,-6.97897 -29.06737,-7.59856 C 243.7199,174.41982 221.23607,171.98045 199,175 z"
     id="path4527"
     inkscape:connector-curvature="0" />
  <path
     style="fill:#b4af95;stroke:none"
     d="m 280,174 c 6.57428,2.20386 19.19054,0.85817 0,0 z"
     id="path4529"
     inkscape:connector-curvature="0" />
  <path
     style="fill:#666559;stroke:none"
     d="m 296,174 c 6.57428,2.20386 19.19054,0.85817 0,0 z"
     id="path4531"
     inkscape:connector-curvature="0" />
  <path
     style="fill:#b4af95;stroke:none"
     d="m 311,174 c -1.86066,9.96949 0.71515,15.8081 11.68121,13.83437 C 328.37374,187.31209 313.05448,170.14491 316,185 c -7.29101,2.63016 0.81905,-12.20192 -5,-11 z"
     id="path4533"
     inkscape:connector-curvature="0" />
  <path
     style="fill:#95948e;stroke:none"
     d="m 324,174 c 1.42117,1.42117 1.14311,1.14311 0,0 z"
     id="path4535"
     inkscape:connector-curvature="0" />
  <path
     style="fill:#898673;stroke:none"
     d="m 390.667,174.333 c 0.222,0.11133 0.222,0.11133 0,0 z"
     id="path4537"
     inkscape:connector-curvature="0" />
  <path
     style="fill:#c6c2ae;stroke:none"
     d="m 404.667,174.333 0.666,0.334 -0.666,-0.334 z M 146,193 C 156.89268,172.44316 113.02565,172.50453 135.33289,187.37994 138.84183,189.34801 141.9574,192.1062 146,193 z m 149,-17 c 2.51067,6.26826 21.80456,-1.54497 3.42342,-0.39288 L 295,176 z"
     id="path4539"
     inkscape:connector-curvature="0" />
  <path
     style="fill:#666559;stroke:none"
     d="m 313,175 c -2.87049,10.9173 5.50506,9.94783 2,6.30122 -0.33443,8.52046 -2.08542,-4.8495 -2,-6.30122 z m 3,1 c -2.05746,6.08293 5.43074,0.83947 0,0 z"
     id="path4541"
     inkscape:connector-curvature="0" />
  <path
     style="fill:#d9d7c9;stroke:none"
     d="m 325,176 c 21.76858,8.59295 49.58515,2.48553 70.94759,16.117 8.55118,-3.7669 -24.24358,-15.50655 -36.05518,-14.82995 C 348.30554,176.06425 336.63861,176.00064 325,176 z"
     id="path4543"
     inkscape:connector-curvature="0" />
  <path
     style="fill:#b4af95;stroke:none"
     d="m 333,176 c 2.85778,2.45906 7.02817,0.33613 0,0 z"
     id="path4545"
     inkscape:connector-curvature="0" />
  <path
     style="fill:#d9d7c9;stroke:none"
     d="m 369,176 c 10.18111,2.0602 -6.58682,2.44759 9.30088,4.16019 21.61869,4.04389 36.32,25.04654 50.59106,35.13653 -4.31997,8.84637 6.08713,17.10547 0.39647,4.38198 -3.84272,-5.77543 -3.21434,-17.97473 -9.89085,-19.6787 -5.42,-1.5798 -0.95779,-13.98924 -12.24313,-15.34127 -4.29664,-4.61496 -18.87485,-2.15948 -16.43641,-4.88168 C 383.47868,178.51803 376.23934,177.25902 369,176 z"
     id="path4547"
     inkscape:connector-curvature="0" />
  <path
     style="fill:#95948e;stroke:none"
     d="m 398.667,176.333 c 0.222,0.11133 0.222,0.11133 0,0 z"
     id="path4549"
     inkscape:connector-curvature="0" />
  <path
     style="fill:#b7b7b1;stroke:none"
     d="m 409.667,176.333 c 0.222,0.11133 0.222,0.11133 0,0 z"
     id="path4551"
     inkscape:connector-curvature="0" />
  <path
     style="fill:#666559;stroke:none"
     d="m 352,177 c 2.0454,2.31892 23.12948,3.94804 15.40157,0.85564 C 362.26771,177.57043 357.13386,177.28521 352,177 z"
     id="path4553"
     inkscape:connector-curvature="0" />
  <path
     style="fill:#95948e;stroke:none"
     d="m 153,178 c -1.07621,6.45724 -1.23959,7.43755 0,0 z"
     id="path4555"
     inkscape:connector-curvature="0" />
  <path
     style="fill:#b4af95;stroke:none"
     d="m 355,178 c 3.41132,2.39951 9.01066,0.44771 0,0 z"
     id="path4557"
     inkscape:connector-curvature="0" />
  <path
     style="fill:#666559;stroke:none"
     d="m 307,179 c -4.17737,10.09031 6.06666,12.96438 2.47526,8.63118 C 306.13689,189.1013 308.18406,180.88038 307,179 z"
     id="path4559"
     inkscape:connector-curvature="0" />
  <path
     style="fill:#4c4a47;stroke:none"
     d="m 370,179 c 15.38727,4.65689 35.19594,11.96681 43,29 -1.93597,-18.52747 -26.64173,-28.36935 -43,-29 z m 41,0 c 5.10694,4.30957 21.32127,19.7422 9.328,3.6075 L 415.89172,180.18256 411,179 z"
     id="path4561"
     inkscape:connector-curvature="0" />
  <path
     style="fill:#c6c2ae;stroke:none"
     d="m 125,180 c -2.99541,14.84596 -4.5187,8.63682 4.41433,18.61847 17.23461,4.82892 16.07205,-7.97687 3.09396,-12.98725 C 130.00553,183.75415 127.50276,181.87707 125,180 z"
     id="path4563"
     inkscape:connector-curvature="0" />
  <path
     style="fill:#4c4a47;stroke:none"
     d="m 126,180 c 5.67368,8.17629 20.02249,16.5479 17.43674,18.08622 10.24143,2.24661 2.60814,-20.11485 2.56326,-13.48378 3.19174,13.88544 -6.81284,3.45421 -13.09199,-0.11223 C 130.60534,182.99347 128.30267,181.49674 126,180 z"
     id="path4565"
     inkscape:connector-curvature="0" />
  <path
     style="fill:#b4af95;stroke:none"
     d="m 148,180 c -0.62496,6.52299 1.87974,6.18254 0,0 z"
     id="path4567"
     inkscape:connector-curvature="0" />
  <path
     style="fill:#666559;stroke:none"
     d="m 152,184 c -2.42646,15.11626 -4.68822,-7.52681 -3.22314,8.76857 -0.3326,7.30455 5.9085,-7.84647 3.22314,-8.76857 z"
     id="path4569"
     inkscape:connector-curvature="0" />
  <path
     style="fill:#b7b7b1;stroke:none"
     d="m 326,185 c 1.57392,2.36087 3.59162,5.38743 0,0 z"
     id="path4571"
     inkscape:connector-curvature="0" />
  <path
     style="fill:#121310;stroke:none"
     d="m 329,192 c -6.33333,6 -12.66667,12 -19,18 5.33333,-7.33333 10.66667,-14.66667 16,-22 -27.74378,-12.92747 -26.95836,35.73113 -0.11532,22.94948 C 331.61638,206.57461 331.50697,198.09876 329,192 z"
     id="path4573"
     inkscape:connector-curvature="0" />
  <path
     style="fill:#898673;stroke:none"
     d="m 152,188 c -2.9885,11.74995 -32.28898,20.32186 -5.054,19.563 7.624,-2.69072 7.29456,-13.34717 5.054,-19.563 z"
     id="path4575"
     inkscape:connector-curvature="0" />
  <path
     style="fill:#77776a;stroke:none"
     d="m 326,188 c 1.46138,4.28462 9.19838,23.58451 5.60975,5.82438 L 329.50294,190.58336 326,188 z"
     id="path4577"
     inkscape:connector-curvature="0" />
  <path
     style="fill:#222122;stroke:none"
     d="m 425,189 c 2.85447,6.53088 12.60633,27.80406 6.48638,7.38063 L 428.7343,192.19695 425,189 z"
     id="path4579"
     inkscape:connector-curvature="0" />
  <path
     style="fill:#666559;stroke:none"
     d="m 123,190 c 2.40074,11.83588 7.91417,10.97461 0,0 z"
     id="path4581"
     inkscape:connector-curvature="0" />
  <path
     style="fill:#b4af95;stroke:none"
     d="m 153,190 c 6.01958,21.18865 -18.34835,17.56761 -24.41808,14.16385 C 135.89262,216.64312 166.16837,206.35676 153,190 z m 170,5 c 5.20117,-5.20117 6.80683,-6.80683 0,0 z"
     id="path4583"
     inkscape:connector-curvature="0" />
  <path
     style="fill:#7e7e82;stroke:none"
     d="m 320,199 c 4.58664,-4.58664 4.99855,-4.99855 0,0 z"
     id="path4585"
     inkscape:connector-curvature="0" />
  <path
     style="fill:#3a3833;stroke:none"
     d="m 331,197 c -2.60665,9.71794 2.50198,13.94703 0,0 z"
     id="path4587"
     inkscape:connector-curvature="0" />
  <path
     style="fill:#c6c2ae;stroke:none"
     d="m 303,198 c 0.63416,2.2046 -6.61493,7.08858 -6,4 -2.28454,4.07162 -8.18419,16.96439 -1,17 -3.3618,1.93674 13.94371,0.61772 18.81951,1 6.46915,-0.80906 -6.89547,-12.10031 -8.54791,-17.20165 C 305.18107,201.1989 304.09053,199.59945 303,198 z"
     id="path4589"
     inkscape:connector-curvature="0" />
  <path
     style="fill:#4c4a47;stroke:none"
     d="m 318,198 c -4.50879,6.73779 -11.71937,17.09402 -2.16886,5.00263 C 315.93439,201.73869 323.36605,196.50159 318,198 z"
     id="path4591"
     inkscape:connector-curvature="0" />
  <path
     style="fill:#222122;stroke:none"
     d="m 127,199 c 18.51558,6.38019 18.36895,-0.99373 0,0 z"
     id="path4593"
     inkscape:connector-curvature="0" />
  <path
     style="fill:#b4af95;stroke:none"
     d="m 333,199 c 3.42986,12.98367 -30.02116,23.48899 -6.90405,21.52127 11.23944,2.93889 11.11624,-6.16467 11.4847,-14.74714 1.88952,-6.807 -5.98054,3.87582 -4.58065,-6.77413 z"
     id="path4595"
     inkscape:connector-curvature="0" />
  <path
     style="fill:#9e9b7d;stroke:none"
     d="m 131,200 c 3.41132,2.39951 9.01066,0.44771 0,0 z"
     id="path4597"
     inkscape:connector-curvature="0" />
  <path
     style="fill:#4c4a47;stroke:none"
     d="m 132,202 c 3.41132,2.39951 9.01066,0.44771 0,0 z"
     id="path4599"
     inkscape:connector-curvature="0" />
  <path
     style="fill:#666559;stroke:none"
     d="m 434,204 c 0.714,12.3825 2.88857,11.83585 0,0 z m -20,2 c 0.61848,8.97874 4.27084,18.56295 0.95186,4.12472 C 414.63457,208.74981 414.31729,207.37491 414,206 z"
     id="path4601"
     inkscape:connector-curvature="0" />
  <path
     style="fill:#9e9b7d;stroke:none"
     d="m 435,207 c -1.07833,3.75337 2.35844,4.57279 0,0 z"
     id="path4603"
     inkscape:connector-curvature="0" />
  <path
     style="fill:#666559;stroke:none"
     d="m 321,213 c 3.09606,0.55904 12.26068,-6.37152 0,0 z"
     id="path4605"
     inkscape:connector-curvature="0" />
  <path
     style="fill:#95948e;stroke:none"
     d="m 326,212 c -11.65666,-0.3986 -15.73931,6.47818 -0.39281,3.66881 l 0.69815,-1.45976 L 326,212 z"
     id="path4607"
     inkscape:connector-curvature="0" />
  <path
     style="fill:#7e7e82;stroke:none"
     d="m 436,212 c -1.86713,7.95161 0.44555,9.73989 0,0 z"
     id="path4609"
     inkscape:connector-curvature="0" />
  <path
     style="fill:#666559;stroke:none"
     d="m 122,213 c 4.21874,2.42539 13.57392,0.4869 0,0 z"
     id="path4611"
     inkscape:connector-curvature="0" />
  <path
     style="fill:#3a3833;stroke:none"
     d="m 313,213 c 4.21874,2.42539 13.57392,0.4869 0,0 z m -206,15 c 7.59989,-5.26745 13.71157,-14.7683 24.1085,-12.07918 8.96383,0.0264 17.92767,0.0528 26.8915,0.0792 -16.67284,-0.53854 -42.8158,-8.3277 -51,12 z"
     id="path4613"
     inkscape:connector-curvature="0" />
  <path
     style="fill:#666559;stroke:none"
     d="m 139,214 c 4.21874,2.42539 13.57392,0.4869 0,0 z"
     id="path4615"
     inkscape:connector-curvature="0" />
  <path
     style="fill:#b4af95;stroke:none"
     d="m 147,214 c 4.5831,2.38599 9.78965,0.45334 0,0 z"
     id="path4617"
     inkscape:connector-curvature="0" />
  <path
     style="fill:#95948e;stroke:none"
     d="m 122,215 c 5.24451,2.42694 14.4363,0.49237 0,0 z"
     id="path4619"
     inkscape:connector-curvature="0" />
  <path
     style="fill:#666559;stroke:none"
     d="m 158,215 c -1.21949,4.44322 10.46744,-0.39653 0,0 z"
     id="path4621"
     inkscape:connector-curvature="0" />
  <path
     style="fill:#9e9b7d;stroke:none"
     d="m 163,215 c 2.85778,2.45906 7.02817,0.33613 0,0 z"
     id="path4623"
     inkscape:connector-curvature="0" />
  <path
     style="fill:#d9d7c9;stroke:none"
     d="m 63,227 c -5.736035,25.63778 -5.086859,53.35105 -9.848607,79.65377 C 47.78315,345.63117 40.028608,384.5071 40,424 c 3.208026,-14.01492 -0.352884,1.89581 5.602439,4 -0.483261,-8.02147 12.797276,-2.27915 18.614634,-4 7.927642,0 15.855285,0 23.782927,0 -1.567484,-9.89765 12.92471,-1.10232 19,-2.104 22.00908,-0.37374 43.95337,0.2127 65.67806,4.05415 23.68711,3.07889 47.30937,7.05254 71.28294,6.17885 14.67967,1.62367 29.35933,3.24733 44.039,4.871 -0.6701,8.48219 13.72828,2.51068 19.50137,4.81256 5.28466,2.39645 9.33859,6.51582 18.7626,5.3761 8.5153,-0.33304 11.47349,4.10698 17.73603,5.11256 7.23665,0.37403 7.11334,7.21932 15.57225,8.60014 19.13206,4.67927 38.3698,9.02455 56.42775,17.09864 4.63057,-11.88741 -1.77497,-32.03307 1.43316,-48.58545 1.70606,-57.58962 1.5057,-115.23661 1.60196,-172.8453 -5.05383,-21.5619 -39.37898,-1.42388 -57.01994,-11.48513 -19.61217,-11.07006 -36.89113,-26.96052 -62.40064,-20.94525 -57.98394,-4.03393 -116.13569,-5.81745 -174.15629,-8.38151 -14.70686,6.25003 -25.663023,19.68892 -44.398761,12.99335 C 75.012368,228.54853 68.954996,228.11519 63,227 z"
     id="path4625"
     inkscape:connector-curvature="0" />
  <path
     style="fill:#898673;stroke:none"
     d="m 145,216 c 7.69158,2.40527 18.05669,0.41491 2.62091,0.20161 C 146.74727,216.13441 145.87364,216.0672 145,216 z"
     id="path4627"
     inkscape:connector-curvature="0" />
  <path
     style="fill:#3a3833;stroke:none"
     d="m 162,216 c 5.74482,2.33476 20.9669,0.51789 4.91461,0.35104 C 165.27641,216.23403 163.6382,216.11701 162,216 z"
     id="path4629"
     inkscape:connector-curvature="0" />
  <path
     style="fill:#666559;stroke:none"
     d="m 171,217 c 7.98996,1.76983 16.46366,-1.00135 1.59024,0 l -1.30122,0 L 171,217 z"
     id="path4631"
     inkscape:connector-curvature="0" />
  <path
     style="fill:#b4af95;stroke:none"
     d="m 183,216 c 5.24451,2.42694 14.4363,0.49237 0,0 z"
     id="path4633"
     inkscape:connector-curvature="0" />
  <path
     style="fill:#4c4a47;stroke:none"
     d="m 436,216 c -0.76516,8.85271 1.42432,20.11227 0.35104,4.91461 C 436.23403,219.27641 436.11701,217.6382 436,216 z"
     id="path4635"
     inkscape:connector-curvature="0" />
  <path
     style="fill:#b4af95;stroke:none"
     d="m 163,217 c 4.21874,2.42539 13.57392,0.4869 0,0 z"
     id="path4637"
     inkscape:connector-curvature="0" />
  <path
     style="fill:#3a3833;stroke:none"
     d="m 181,217 c 1.53695,2.19016 24.6655,0.66326 11.8041,0.69436 C 188.8694,217.46291 184.9347,217.23145 181,217 z"
     id="path4639"
     inkscape:connector-curvature="0" />
  <path
     style="fill:#898673;stroke:none"
     d="m 186,218 c 1.78306,2.1227 24.13307,-0.68838 15.09634,0 -5.03211,0 -10.06423,0 -15.09634,0 z"
     id="path4641"
     inkscape:connector-curvature="0" />
  <path
     style="fill:#4c4a47;stroke:none"
     d="m 200,218 c 2.49075,2.22653 24.39922,0.64112 9.50657,0.59416 C 206.33772,218.39611 203.16886,218.19805 200,218 z"
     id="path4643"
     inkscape:connector-curvature="0" />
  <path
     style="fill:#77776a;stroke:none"
     d="m 210,219 c 5.63751,3.90433 19.39654,-2.24693 4.21965,-0.35164 C 212.8131,218.76557 211.40655,218.88279 210,219 z"
     id="path4645"
     inkscape:connector-curvature="0" />
  <path
     style="fill:#b4af95;stroke:none"
     d="m 222,218 c 2.85778,2.45906 7.02817,0.33613 0,0 z"
     id="path4647"
     inkscape:connector-curvature="0" />
  <path
     style="fill:#3a3833;stroke:none"
     d="m 417,218 c 0.24207,11.17949 2.84089,15.11348 0.28865,1.73188 L 417.07473,218.44837 417,218 z"
     id="path4649"
     inkscape:connector-curvature="0" />
  <path
     style="fill:#b7b7b1;stroke:none"
     d="m 437,218 c -1.07833,3.75337 2.35844,4.57279 0,0 z"
     id="path4651"
     inkscape:connector-curvature="0" />
  <path
     style="fill:#4c4a47;stroke:none"
     d="m 222,219 c 4.21874,2.42539 13.57392,0.4869 0,0 z"
     id="path4653"
     inkscape:connector-curvature="0" />
  <path
     style="fill:#77776a;stroke:none"
     d="m 229,220 c 5.00597,1.84601 14.61576,-1.10245 0,0 z"
     id="path4655"
     inkscape:connector-curvature="0" />
  <path
     style="fill:#9e9b7d;stroke:none"
     d="m 238,219 c 2.85778,2.45906 7.02817,0.33613 0,0 z"
     id="path4657"
     inkscape:connector-curvature="0" />
  <path
     style="fill:#4c4a47;stroke:none"
     d="m 237,220 c 1.77651,2.21577 24.14617,0.58291 15.10174,0.79483 C 247.06782,220.52989 242.03391,220.26494 237,220 z"
     id="path4659"
     inkscape:connector-curvature="0" />
  <path
     style="fill:#666559;stroke:none"
     d="m 247,221 c 5.80612,2.47442 15.94278,0.72263 23.41499,1.5711 4.19071,0.37209 24.57929,0.86223 13.68135,-1.5711 -12.36545,0 -24.73089,0 -37.09634,0 z"
     id="path4661"
     inkscape:connector-curvature="0" />
  <path
     style="fill:#fefefe;stroke:none"
     d="m 208,226 c 18.01752,0.9216 36.09762,4.69547 54,1 19.51106,7.6479 43.72451,2.92813 65.1332,4.79319 16.15232,-3.28244 -19.81853,-4.88039 -27.06056,-4.36577 -27.72134,-0.23636 -55.4416,-1.37073 -82.86838,-5.21572 -3.27945,0.17216 -7.24924,0.7161 -9.20426,3.7883 z"
     id="path4663"
     inkscape:connector-curvature="0" />
  <path
     style="fill:#4c4a47;stroke:none"
     d="m 288,222 c 5.80533,2.50355 15.94063,0.80262 23.41183,1.68858 14.25672,0.51325 8.15764,0.12865 -2.40157,-0.45268 C 302.00684,222.82393 295.00342,222.41197 288,222 z"
     id="path4665"
     inkscape:connector-curvature="0" />
  <path
     style="fill:#7e7e82;stroke:none"
     d="m 302,222 c 2.85778,2.45906 7.02817,0.33613 0,0 z"
     id="path4667"
     inkscape:connector-curvature="0" />
  <path
     style="fill:#898673;stroke:none"
     d="m 291,223 c 4.5831,2.38599 9.78965,0.45334 0,0 z"
     id="path4669"
     inkscape:connector-curvature="0" />
  <path
     style="fill:#77776a;stroke:none"
     d="m 315,224 c 2.48759,2.07122 24.39213,-0.88363 9.4939,0 -3.16463,0 -6.32927,0 -9.4939,0 z"
     id="path4671"
     inkscape:connector-curvature="0" />
  <path
     style="fill:#95948e;stroke:none"
     d="m 419,223 c -3.25759,6.56055 7.92968,1.34935 0,0 z"
     id="path4673"
     inkscape:connector-curvature="0" />
  <path
     style="fill:#77776a;stroke:none"
     d="m 61,224 c 1.461339,10.3218 6.017371,0.53828 0,0 z"
     id="path4675"
     inkscape:connector-curvature="0" />
  <path
     style="fill:#222122;stroke:none"
     d="m 62,228 c 5.849591,-0.4958 31.331021,1.55729 12.873703,-2.35688 C 70.87991,225.37586 64.444902,223.60769 62,228 z"
     id="path4677"
     inkscape:connector-curvature="0" />
  <path
     style="fill:#3a3833;stroke:none"
     d="m 326,224 c 8.07406,6.97682 22.91235,3.36816 0,0 z"
     id="path4679"
     inkscape:connector-curvature="0" />
  <path
     style="fill:#7e7e82;stroke:none"
     d="m 417.333,224.667 c 0.11133,0.222 0.11133,0.222 0,0 z"
     id="path4681"
     inkscape:connector-curvature="0" />
  <path
     style="fill:#d9d7c9;stroke:none"
     d="m 420,224 c 10.69495,4.88068 -5.28892,9.62454 3.52474,12.36882 6.20337,1.74558 28.85201,1.83148 8.88763,9.55493 -15.36557,-2.18851 -11.03547,11.436 -11.68102,21.59269 -0.46779,60.4736 -3.05229,120.96635 0.0551,181.4076 0.40452,12.69199 0.80905,25.38397 1.21357,38.07596 18.40701,-4.322 33.38036,-26.99365 36.67806,-47.07821 C 459.97519,401.65775 458.33742,363.2717 457,325 c -12.42288,-18.77282 -11.30255,-45.9759 -12.64738,-68.68272 -1.9959,-16.30069 4.75561,-11.33863 2.64738,0.3937 1.62266,5.05424 -0.24708,-14.40265 5.13787,-0.0904 8.85603,8.10303 -1.30268,10.44611 7.675,9.36333 5.4437,-9.12457 7.64721,9.51393 11.54264,13.6555 2.26379,-8.93146 -16.45422,-39.92181 -29.14261,-43.69264 -0.32742,-3.29799 -4.24749,-5.90298 -12.03824,-8.38565 C 426.78311,226.37409 423.39155,225.18704 420,224 z"
     id="path4683"
     inkscape:connector-curvature="0" />
  <path
     style="fill:#666559;stroke:none"
     d="m 66,225 c 3.41132,2.39951 9.010659,0.44771 0,0 z"
     id="path4685"
     inkscape:connector-curvature="0" />
  <path
     style="fill:#9e9b7d;stroke:none"
     d="m 328,225 c 1.8692,2.44632 6.37043,0.38078 0,0 z"
     id="path4687"
     inkscape:connector-curvature="0" />
  <path
     style="fill:#77776a;stroke:none"
     d="m 424,225 c -0.68603,6.22333 5.31036,-1.33269 0,0 z"
     id="path4689"
     inkscape:connector-curvature="0" />
  <path
     style="fill:#666559;stroke:none"
     d="m 338,226 c 4.239,12.90251 21.89702,19.06967 5.79899,5.79899 C 341.86599,229.86599 339.933,227.933 338,226 z m -273,1 c 0.393156,2.7244 5.514467,0.1162 0,0 z"
     id="path4691"
     inkscape:connector-curvature="0" />
  <path
     style="fill:#4c4a47;stroke:none"
     d="m 72,228 c 3.046261,2.14645 21.255476,-0.67758 19.698781,0 C 85.13252,228 78.56626,228 72,228 z"
     id="path4693"
     inkscape:connector-curvature="0" />
  <path
     style="fill:#898673;stroke:none"
     d="m 93,227 c 1.869195,2.44632 6.370429,0.38078 0,0 z"
     id="path4695"
     inkscape:connector-curvature="0" />
  <path
     style="fill:#666559;stroke:none"
     d="m 104,227 c 1.37506,2.79148 4.60574,1.94441 0,0 z"
     id="path4697"
     inkscape:connector-curvature="0" />
  <path
     style="fill:#222122;stroke:none"
     d="m 89,228 c 1.536949,2.19016 24.6655,0.66326 11.8041,0.69436 C 96.869402,228.46291 92.934701,228.23145 89,228 z"
     id="path4699"
     inkscape:connector-curvature="0" />
  <path
     style="fill:#b4af95;stroke:none"
     d="m 420,228 c -3.97333,13.093 9.03141,-2.90474 0,0 z"
     id="path4701"
     inkscape:connector-curvature="0" />
  <path
     style="fill:#4c4a47;stroke:none"
     d="m 431,228 c 1.42117,1.42117 1.14311,1.14311 0,0 z m -334,1 c 4.21874,2.42539 13.57392,0.4869 0,0 z"
     id="path4703"
     inkscape:connector-curvature="0" />
  <path
     style="fill:#121310;stroke:none"
     d="m 419,229 c -0.55761,5.35758 0.72336,24.18753 0.59416,9.50657 C 419.39611,235.33772 419.19805,232.16886 419,229 z"
     id="path4705"
     inkscape:connector-curvature="0" />
  <path
     style="fill:#77776a;stroke:none"
     d="m 434.333,229.667 c 0.11133,0.222 0.11133,0.222 0,0 z"
     id="path4707"
     inkscape:connector-curvature="0" />
  <path
     style="fill:#95948e;stroke:none"
     d="m 437,229 c -1.10484,3.31451 -1.56082,4.68245 0,0 z"
     id="path4709"
     inkscape:connector-curvature="0" />
  <path
     style="fill:#666559;stroke:none"
     d="m 418,230 c -0.71382,6.95983 1.1252,22.57995 0.48067,7.20998 C 418.32044,234.80665 418.16022,232.40333 418,230 z"
     id="path4711"
     inkscape:connector-curvature="0" />
  <path
     style="fill:#95948e;stroke:none"
     d="m 439,232 c -0.68603,6.22333 5.31036,-1.33269 0,0 z"
     id="path4713"
     inkscape:connector-curvature="0" />
  <path
     style="fill:#3a3833;stroke:none"
     d="m 420,234 c 4.14572,7.61115 -8.5342,15.82929 0.71794,14.81026 C 427.42132,245.92169 436.91146,245.06732 442,241 c -6.39324,-0.43966 -18.68774,6.9489 -21.23561,1.40825 C 420.50959,239.6055 420.2548,236.80275 420,234 z"
     id="path4715"
     inkscape:connector-curvature="0" />
  <path
     style="fill:#95948e;stroke:none"
     d="m 442,234 c -0.68603,6.22333 5.31036,-1.33269 0,0 z"
     id="path4717"
     inkscape:connector-curvature="0" />
  <path
     style="fill:#c6c2ae;stroke:none"
     d="m 422,242 c 4.20835,-1.16269 24.65024,-2.75682 11.86594,-4.85568 C 429.44356,241.83744 420.2385,230.5845 422,242 z"
     id="path4719"
     inkscape:connector-curvature="0" />
  <path
     style="fill:#c8c8c7;stroke:none"
     d="m 445,236 c 5.16974,4.13579 6.21013,4.9681 0,0 z"
     id="path4721"
     inkscape:connector-curvature="0" />
  <path
     style="fill:#9e9b7d;stroke:none"
     d="m 421,241 c -0.65884,8.63561 13.49752,-0.63228 19.17357,0.34789 C 443.14736,240.52489 424.58621,241.24434 421,241 z"
     id="path4723"
     inkscape:connector-curvature="0" />
  <path
     style="fill:#c6c2ae;stroke:none"
     d="m 450,240 c 3.34675,5.57792 3.73192,6.21986 0,0 z"
     id="path4725"
     inkscape:connector-curvature="0" />
  <path
     style="fill:#3a3833;stroke:none"
     d="m 352,241 c 3.73775,3.03712 8.63714,1.85312 0,0 z"
     id="path4727"
     inkscape:connector-curvature="0" />
  <path
     style="fill:#95948e;stroke:none"
     d="m 58,242 c -1.772508,12.84376 -2.87974,-1.53762 -4,12 4.511434,-1.58134 8.752302,-8.30733 4,-12 z"
     id="path4729"
     inkscape:connector-curvature="0" />
  <path
     style="fill:#666559;stroke:none"
     d="m 356,243 c 1.62102,2.02091 6.51833,-1.20221 0,0 z"
     id="path4731"
     inkscape:connector-curvature="0" />
  <path
     style="fill:#898673;stroke:none"
     d="m 57,243 c 1.42117,1.42117 1.143108,1.14311 0,0 z"
     id="path4733"
     inkscape:connector-curvature="0" />
  <path
     style="fill:#222122;stroke:none"
     d="m 58,243 c -3.419474,5.88832 -0.183289,12.56052 0,0 z m 301,0 c 1.55421,2.28297 24.6196,2.10869 11.83077,1.39186 C 366.88718,243.9279 362.94359,243.46395 359,243 z"
     id="path4735"
     inkscape:connector-curvature="0" />
  <path
     style="fill:#b4af95;stroke:none"
     d="m 369,243 c 2.85778,2.45906 7.02817,0.33613 0,0 z"
     id="path4737"
     inkscape:connector-curvature="0" />
  <path
     style="fill:#898673;stroke:none"
     d="m 438.667,243.333 0.666,0.334 -0.666,-0.334 z M 453,243 c 5.01369,8.57238 14.43575,19.15413 3.35897,2.34231 L 453,243 z"
     id="path4739"
     inkscape:connector-curvature="0" />
  <path
     style="fill:#9e9b7d;stroke:none"
     d="m 56,244 c 1.42117,1.42117 1.143108,1.14311 0,0 z"
     id="path4741"
     inkscape:connector-curvature="0" />
  <path
     style="fill:#77776a;stroke:none"
     d="m 360,244 c 2.85778,2.45906 7.02817,0.33613 0,0 z"
     id="path4743"
     inkscape:connector-curvature="0" />
  <path
     style="fill:#3a3833;stroke:none"
     d="m 374,245 c 5.80612,2.47442 15.94278,0.72263 23.41499,1.5711 4.89626,-0.12526 25.26276,1.33481 11.18386,-0.73495 C 397.26383,244.02376 385.47282,245.45713 374,245 z"
     id="path4745"
     inkscape:connector-curvature="0" />
  <path
     style="fill:#b4af95;stroke:none"
     d="m 379,244 c 10.16674,-0.25844 31.31925,0.7277 37.5787,3.43653 C 407.52079,239.7658 390.46099,245.90312 379,244 z"
     id="path4747"
     inkscape:connector-curvature="0" />
  <path
     style="fill:#95948e;stroke:none"
     d="m 370,245 c 1.8692,2.44632 6.37043,0.38078 0,0 z"
     id="path4749"
     inkscape:connector-curvature="0" />
  <path
     style="fill:#b4af95;stroke:none"
     d="m 432.667,245.333 c 0.222,0.11133 0.222,0.11133 0,0 z"
     id="path4751"
     inkscape:connector-curvature="0" />
  <path
     style="fill:#81773f;stroke:none"
     d="m 444,245 c 0.74959,5.96566 3.03222,4.52431 0,0 z"
     id="path4753"
     inkscape:connector-curvature="0" />
  <path
     style="fill:#b4af95;stroke:none"
     d="m 446,245 c -1.29887,3.9667 -2.48315,6.11153 -1.15949,16.28871 C 446.49682,271.77815 445.92126,245.72616 446,245 z"
     id="path4755"
     inkscape:connector-curvature="0" />
  <path
     style="fill:#9e9b7d;stroke:none"
     d="m 379,246 c 4.21874,2.42539 13.57392,0.4869 0,0 z"
     id="path4757"
     inkscape:connector-curvature="0" />
  <path
     style="fill:#7e7e82;stroke:none"
     d="m 410,246 c 1.8692,2.44632 6.37043,0.38078 0,0 z"
     id="path4759"
     inkscape:connector-curvature="0" />
  <path
     style="fill:#9e9b7d;stroke:none"
     d="m 423,247 c 4.41676,1.74124 9.91367,-0.94088 0,0 z"
     id="path4761"
     inkscape:connector-curvature="0" />
  <path
     style="fill:#77776a;stroke:none"
     d="m 421.667,247.333 c 0.222,0.11133 0.222,0.11133 0,0 z"
     id="path4763"
     inkscape:connector-curvature="0" />
  <path
     style="fill:#95948e;stroke:none"
     d="m 420,248 c -6.85914,3.92614 0.98272,4.66538 0,0 z"
     id="path4765"
     inkscape:connector-curvature="0" />
  <path
     style="fill:#fefefe;stroke:none"
     d="m 448,250 c 1.83726,4.44096 -0.69406,23.65401 4.4386,16.95175 C 464.42364,265.92443 453.87121,255.89876 448,250 z"
     id="path4767"
     inkscape:connector-curvature="0" />
  <path
     style="fill:#3a3833;stroke:none"
     d="m 58,251 c 0.03877,6.80521 -4.2436,17.3823 -1.698781,22 C 58.169332,267.17453 57.234204,258.0026 58,251 z"
     id="path4769"
     inkscape:connector-curvature="0" />
  <path
     style="fill:#222122;stroke:none"
     d="m 419,251 c 0.33333,13 0.66667,26 1,39 2.33281,-5.80784 0.33378,-15.94752 1,-23.42195 0.40872,-5.29751 -1.22491,-10.38642 -2,-15.57805 z"
     id="path4771"
     inkscape:connector-curvature="0" />
  <path
     style="fill:#9e9b7d;stroke:none"
     d="m 419,253 c -0.79888,8.3268 1.83555,12.47608 0,0 z"
     id="path4773"
     inkscape:connector-curvature="0" />
  <path
     style="fill:#77776a;stroke:none"
     d="m 421,253 c -0.55761,5.35758 0.72336,24.18753 0.59416,9.50657 C 421.39611,259.33772 421.19805,256.16886 421,253 z"
     id="path4775"
     inkscape:connector-curvature="0" />
  <path
     style="fill:#121310;stroke:none"
     d="m 54,254 c -4.028907,13.09345 4.619675,3.48755 0,0 z"
     id="path4777"
     inkscape:connector-curvature="0" />
  <path
     style="fill:#666559;stroke:none"
     d="m 53,255 c -1.078328,3.75337 2.358437,4.57279 0,0 z"
     id="path4779"
     inkscape:connector-curvature="0" />
  <path
     style="fill:#4c4a47;stroke:none"
     d="m 462,256 c 3.66667,8.33333 7.33333,16.66667 11,25 -5.15475,-5.66916 6.61685,10.30213 2.25123,-4.40673 C 473.51917,268.54194 469.03767,260.53849 462,256 z"
     id="path4781"
     inkscape:connector-curvature="0" />
  <path
     style="fill:#9e9b7d;stroke:none"
     d="m 446,258 c 0.33333,10 0.66667,20 1,30 2.89956,-4.17393 -1.45545,-18.82563 3.53289,-18.21449 C 449.02193,265.85701 447.51096,261.9285 446,258 z"
     id="path4783"
     inkscape:connector-curvature="0" />
  <path
     style="fill:#666559;stroke:none"
     d="m 55,259 c -6.522642,0.84253 1.349745,21.16337 0,3.89146 0,-1.29715 0,-2.59431 0,-3.89146 z"
     id="path4785"
     inkscape:connector-curvature="0" />
  <path
     style="fill:#898673;stroke:none"
     d="m 419,261 c -0.34375,70.33461 -1.69385,140.67298 0,211 2.33281,-5.80784 0.33378,-15.94752 1,-23.42195 -0.39014,-59.85412 0.79437,-119.74576 -0.61854,-179.57549 C 419.2543,266.33504 419.12715,263.66752 419,261 z"
     id="path4787"
     inkscape:connector-curvature="0" />
  <path
     style="fill:#7e7e82;stroke:none"
     d="m 467,261 c 1.57392,2.36087 3.59162,5.38743 0,0 z"
     id="path4789"
     inkscape:connector-curvature="0" />
  <path
     style="fill:#4c4a47;stroke:none"
     d="m 461.667,262.333 c 0.222,0.11133 0.222,0.11133 0,0 z"
     id="path4791"
     inkscape:connector-curvature="0" />
  <path
     style="fill:#121310;stroke:none"
     d="m 459,264 c 3.33333,7.33333 6.66667,14.66667 10,22 10.19404,0.6944 -3.80075,-25.06487 -10,-22 z"
     id="path4793"
     inkscape:connector-curvature="0" />
  <path
     style="fill:#77776a;stroke:none"
     d="m 469.333,264.667 c 0.11133,0.222 0.11133,0.222 0,0 z"
     id="path4795"
     inkscape:connector-curvature="0" />
  <path
     style="fill:#9e9b7d;stroke:none"
     d="m 459,266 c -15.59668,-0.65938 4.18191,7.01101 0,0 z"
     id="path4797"
     inkscape:connector-curvature="0" />
  <path
     style="fill:#77776a;stroke:none"
     d="m 57,268 c -1.078328,3.75337 2.358437,4.57279 0,0 z"
     id="path4799"
     inkscape:connector-curvature="0" />
  <path
     style="fill:#121310;stroke:none"
     d="m 454,323 c 1.36571,-4.74524 -0.79734,-20.8376 2.53114,-5.3443 1.60836,1.34423 2.98143,-18.47491 -0.88965,-26.56952 C 454.11142,283.79839 448.5982,270.60898 459,281 c 6.08011,-18.68641 -15.77396,-12.50426 -9.999,3 0.19393,13.10282 0.98792,26.43631 4.999,39 z"
     id="path4801"
     inkscape:connector-curvature="0" />
  <path
     style="fill:#666559;stroke:none"
     d="m 460,268 c -1.84048,8.78493 6.28785,17.97541 1.53111,4.59333 C 461.02074,271.06222 460.51037,269.53111 460,268 z"
     id="path4803"
     inkscape:connector-curvature="0" />
  <path
     style="fill:#9e9b7d;stroke:none"
     d="m 421,269 c -0.76516,8.85271 1.42432,20.11227 0.35104,4.91461 C 421.23403,272.27641 421.11701,270.6382 421,269 z"
     id="path4805"
     inkscape:connector-curvature="0" />
  <path
     style="fill:#666559;stroke:none"
     d="m 448,270 c 0.66667,11.33333 1.33333,22.66667 2,34 1.82233,-5.78536 -1.06791,-15.8858 -1.05864,-23.3313 C 448.62757,277.11246 448.31379,273.55623 448,270 z"
     id="path4807"
     inkscape:connector-curvature="0" />
  <path
     style="fill:#77776a;stroke:none"
     d="m 55.6667,273.333 c 0.2222,0.11133 0.2222,0.11133 0,0 z"
     id="path4809"
     inkscape:connector-curvature="0" />
  <path
     style="fill:#d9d7c9;stroke:none"
     d="m 462,273 c 3.34675,5.57792 3.73192,6.21986 0,0 z"
     id="path4811"
     inkscape:connector-curvature="0" />
  <path
     style="fill:#4c4a47;stroke:none"
     d="m 452,276 c 0.90416,4.35019 2.76416,23.09667 3.48962,17.4481 C 454.32641,287.63207 453.16321,281.81603 452,276 z"
     id="path4813"
     inkscape:connector-curvature="0" />
  <path
     style="fill:#898673;stroke:none"
     d="m 453,276 c -0.0135,10.85013 5.27633,1.63693 1.67231,0.83615 L 453.50846,276.25423 453,276 z"
     id="path4815"
     inkscape:connector-curvature="0" />
  <path
     style="fill:#fefefe;stroke:none"
     d="m 455,277 c -3.26435,6.88011 5.28943,8.62931 0,0 z"
     id="path4817"
     inkscape:connector-curvature="0" />
  <path
     style="fill:#222122;stroke:none"
     d="m 460,277 c -5.26562,3.51914 -0.95179,21.61325 1,15.39756 0.4494,4.80228 6.77301,-3.13213 1.30776,-10.32049 C 461.53851,280.38471 460.76925,278.69236 460,277 z"
     id="path4819"
     inkscape:connector-curvature="0" />
  <path
     style="fill:#9e9b7d;stroke:none"
     d="m 476,277 c -0.62496,6.52299 1.87974,6.18254 0,0 z"
     id="path4821"
     inkscape:connector-curvature="0" />
  <path
     style="fill:#3a3833;stroke:none"
     d="m 457.333,278.667 c 0.11133,0.222 0.11133,0.222 0,0 z"
     id="path4823"
     inkscape:connector-curvature="0" />
  <path
     style="fill:#c6c2ae;stroke:none"
     d="m 416,279 c 0.52453,8.43038 3.12895,9.18747 0,0 z"
     id="path4825"
     inkscape:connector-curvature="0" />
  <path
     style="fill:#77776a;stroke:none"
     d="m 457,280 c -1.07833,3.75337 2.35844,4.57279 0,0 z"
     id="path4827"
     inkscape:connector-curvature="0" />
  <path
     style="fill:#121310;stroke:none"
     d="m 454,282 c -1.59498,11.34148 16.17757,32.9409 9,14 0.52616,7.78523 -9.1368,-10.84368 -4,-13 -1.66667,-0.33333 -3.33333,-0.66667 -5,-1 z"
     id="path4829"
     inkscape:connector-curvature="0" />
  <path
     style="fill:#4c4a47;stroke:none"
     d="m 464,282 c -0.82337,5.81621 1.9345,4.88176 0,0 z"
     id="path4831"
     inkscape:connector-curvature="0" />
  <path
     style="fill:#898673;stroke:none"
     d="m 472,284 c 0.39316,2.7244 5.51447,0.1162 0,0 z"
     id="path4833"
     inkscape:connector-curvature="0" />
  <path
     style="fill:#b4af95;stroke:none"
     d="m 465.333,286.667 c 0.11133,0.222 0.11133,0.222 0,0 z"
     id="path4835"
     inkscape:connector-curvature="0" />
  <path
     style="fill:#b7b7b1;stroke:none"
     d="m 416,288 c -0.68603,6.22333 5.31036,-1.33269 0,0 z"
     id="path4837"
     inkscape:connector-curvature="0" />
  <path
     style="fill:#c6c2ae;stroke:none"
     d="m 447,288 c 1.22951,5.70589 1.81531,19.34367 3.75653,19.72176 C 449.50435,301.14784 448.25218,294.57392 447,288 z"
     id="path4839"
     inkscape:connector-curvature="0" />
  <path
     style="fill:#898673;stroke:none"
     d="m 463,288 c -2.90174,7.49206 5.11625,-2.06356 0,0 z"
     id="path4841"
     inkscape:connector-curvature="0" />
  <path
     style="fill:#666559;stroke:none"
     d="m 465,288 c -1.10176,8.81405 -1.38984,11.1187 0,0 z"
     id="path4843"
     inkscape:connector-curvature="0" />
  <path
     style="fill:#d9d7c9;stroke:none"
     d="m 464,290 c -0.62496,6.52299 1.87974,6.18254 0,0 z"
     id="path4845"
     inkscape:connector-curvature="0" />
  <path
     style="fill:#898673;stroke:none"
     d="m 466,290 c -0.89229,5.34434 -0.78658,24.1877 0,9.4939 0,-3.16463 0,-6.32927 0,-9.4939 z"
     id="path4847"
     inkscape:connector-curvature="0" />
  <path
     style="fill:#4c4a47;stroke:none"
     d="m 461,291 c 0.4133,18.08277 4.27499,-6.2198 2,3.90366 -1.90366,1.13706 -1.24161,-3.06206 -2,-3.90366 z"
     id="path4849"
     inkscape:connector-curvature="0" />
  <path
     style="fill:#666559;stroke:none"
     d="m 456,294 c 2.32444,5.69379 -0.1792,21.11041 9,13 -1.75592,-4.67083 -6.23766,-8.65267 -9,-13 z"
     id="path4851"
     inkscape:connector-curvature="0" />
  <path
     style="fill:#3a3833;stroke:none"
     d="m 464,296 c -1.27984,10.81014 5.93454,-0.91472 0,0 z"
     id="path4853"
     inkscape:connector-curvature="0" />
  <path
     style="fill:#b7b7b1;stroke:none"
     d="m 416,302 c -0.68603,6.22333 5.31036,-1.33269 0,0 z"
     id="path4855"
     inkscape:connector-curvature="0" />
  <path
     style="fill:#3a3833;stroke:none"
     d="m 457,304 c -3.56479,21.24778 7.50131,-1.35466 0,0 z"
     id="path4857"
     inkscape:connector-curvature="0" />
  <path
     style="fill:#4c4a47;stroke:none"
     d="m 451,305 c -0.7151,8.19886 1.82774,9.50968 0,0 z"
     id="path4859"
     inkscape:connector-curvature="0" />
  <path
     style="fill:#c6c2ae;stroke:none"
     d="m 416,307 c -0.68603,6.22333 5.31036,-1.33269 0,0 z"
     id="path4861"
     inkscape:connector-curvature="0" />
  <path
     style="fill:#b7b7b1;stroke:none"
     d="m 462.667,307.333 c 0.222,0.11133 0.222,0.11133 0,0 z"
     id="path4863"
     inkscape:connector-curvature="0" />
  <path
     style="fill:#d9d7c9;stroke:none"
     d="m 460,308 c -8.03891,4.94673 8.70239,25.24492 0,0 z"
     id="path4865"
     inkscape:connector-curvature="0" />
  <path
     style="fill:#222122;stroke:none"
     d="m 454,310 c -6.32768,10.56945 9.17443,21.29994 2.92455,6.82394 C 455.9497,314.5493 454.97485,312.27465 454,310 z"
     id="path4867"
     inkscape:connector-curvature="0" />
  <path
     style="fill:#4c4a47;stroke:none"
     d="m 458,315 c -0.62496,6.52299 1.87974,6.18254 0,0 z"
     id="path4869"
     inkscape:connector-curvature="0" />
  <path
     style="fill:#c6c2ae;stroke:none"
     d="m 416,317 c -0.68603,6.22333 5.31036,-1.33269 0,0 z"
     id="path4871"
     inkscape:connector-curvature="0" />
  <path
     style="fill:#666559;stroke:none"
     d="m 452,317 c -1.07833,3.75337 2.35844,4.57279 0,0 z"
     id="path4873"
     inkscape:connector-curvature="0" />
  <path
     style="fill:#95948e;stroke:none"
     d="m 452,320 c -1.07833,3.75337 2.35844,4.57279 0,0 z m 7.333,0.667 0.334,0.666 -0.334,-0.666 z"
     id="path4875"
     inkscape:connector-curvature="0" />
  <path
     style="fill:#b7b7b1;stroke:none"
     d="m 457.667,324.333 0.666,0.334 -0.666,-0.334 z M 418,337 c 0.44564,6.13722 -0.99323,20.34338 0.94091,20.70012 C 418.62728,350.80008 418.31364,343.90004 418,337 z"
     id="path4877"
     inkscape:connector-curvature="0" />
  <path
     style="fill:#c6c2ae;stroke:none"
     d="m 415,340 c -1.19745,8.1838 5.89844,-1.02622 0,0 z"
     id="path4879"
     inkscape:connector-curvature="0" />
  <path
     style="fill:#b4af95;stroke:none"
     d="m 414,403 c -0.68603,6.22333 5.31036,-1.33269 0,0 z"
     id="path4881"
     inkscape:connector-curvature="0" />
  <path
     style="fill:#c6c2ae;stroke:none"
     d="m 41,417 c -5.152602,18.46107 20.882614,30.1391 20.532827,24.03631 36.765914,0.0962 73.605243,3.9687 109.739513,9.69105 C 177.03,449.57904 189.64883,446.16608 179,451 c 21.79455,-0.64865 42.81637,7.21418 64.55412,8.3948 C 280.59571,465.17841 317.27884,474.99256 355,475 c 15.7883,4.01866 46.73206,19.51375 65.86378,15.70593 -0.71069,-4.402 -0.90819,-23.41102 -4.86378,-15.10349 -2.57873,4.35564 -14.28602,-4.80111 -20.52204,-5.85911 C 381.03157,466.01856 366.48491,462.60517 352,459 c -0.24427,-7.25776 -8.86835,-6.13572 -14.5061,-8 -2.214,-5.24363 -12.93274,-3.20872 -19.64805,-4.51285 -7.06279,-1.25271 -8.55011,-7.21572 -18.84676,-5.02885 -10.82834,2.73717 -9.32335,-6.03587 -18.757,-5.33527 -21.09496,-2.80674 -42.25086,-4.71436 -63.53244,-4.57586 -32.89349,-3.47792 -65.52091,-10.8219 -98.73319,-9.66747 C 107.86637,422.44907 97.956888,420.41719 88,419 c 1.529498,9.70226 -13.302814,3.04271 -19.518292,5 C 61.496544,424.94248 50.786285,422.15986 46,425.30122 43.670194,435.75466 41.237937,419.35012 41,417 z m 376,4 c 0,12 0,24 0,36 2.08634,-9.81816 3.58427,-24.84478 0,-36 z"
     id="path4883"
     inkscape:connector-curvature="0" />
  <path
     style="fill:#898673;stroke:none"
     d="m 58,441 c 4.218738,2.42539 13.573917,0.4869 0,0 z"
     id="path4885"
     inkscape:connector-curvature="0" />
  <path
     style="fill:#b4af95;stroke:none"
     d="m 75,442 c 8.828987,2.32141 8.136206,0.52352 0,3 55.56689,-0.31761 110.68225,7.81622 165.22862,17.57828 13.18685,1.24615 20.98603,1.40403 13.06929,3.32901 14.59959,-2.22098 10.82401,2.34685 26.97605,1.82357 C 321.41225,471.56584 361.75609,481.31615 402,490 c -12.19804,-8.35434 -37.53063,-9.81736 -47,-15 -48.29825,-0.61424 -94.9889,-14.95797 -142.76792,-20.29636 -13.43632,-4.82815 -35.17306,-2.64699 -31.93003,-6.78516 -18.30487,5.75491 -37.91476,-5.13117 -57.45705,-5.07135 C 106.95903,441.25901 90.929354,440.75991 75,442 z"
     id="path4887"
     inkscape:connector-curvature="0" />
  <path
     style="fill:#4c4a47;stroke:none"
     d="m 62,442 c 7.491569,2.4349 15.291008,0.52847 0,0 z"
     id="path4889"
     inkscape:connector-curvature="0" />
  <path
     style="fill:#7e7e82;stroke:none"
     d="m 64,443 c 5.713588,1.10881 19.846917,-2.67872 0,0 z"
     id="path4891"
     inkscape:connector-curvature="0" />
  <path
     style="fill:#4c4a47;stroke:none"
     d="m 75,443 c 4.218738,2.42539 13.573917,0.4869 0,0 z"
     id="path4893"
     inkscape:connector-curvature="0" />
  <path
     style="fill:#77776a;stroke:none"
     d="m 85,444 c 3.940109,2.2756 23.14109,0.59196 7.209975,0.48067 C 89.80665,444.32044 87.403325,444.16022 85,444 z"
     id="path4895"
     inkscape:connector-curvature="0" />
  <path
     style="fill:#c8c8c7;stroke:none"
     d="m 84,445 c 4.583098,2.38599 9.789648,0.45334 0,0 z"
     id="path4897"
     inkscape:connector-curvature="0" />
  <path
     style="fill:#4c4a47;stroke:none"
     d="m 96,445 c 4.21874,2.42539 13.57392,0.4869 0,0 z"
     id="path4899"
     inkscape:connector-curvature="0" />
  <path
     style="fill:#77776a;stroke:none"
     d="m 102,446 c 27.76262,2.23887 59.43862,5.96924 88.32937,11.6298 18.27222,3.03751 60.82336,9.92053 64.21614,5.70091 -29.00568,-5.71616 -58.92406,-5.72573 -88.05362,-11.25873 C 144.99383,450.79073 123.57648,442.18525 102,446 z"
     id="path4901"
     inkscape:connector-curvature="0" />
  <path
     style="fill:#d9d7c9;stroke:none"
     d="m 94,446 c 4.218738,2.42539 13.57392,0.4869 0,0 z"
     id="path4903"
     inkscape:connector-curvature="0" />
  <path
     style="fill:#9e9b7d;stroke:none"
     d="m 123,448 c 5.24451,2.42694 14.4363,0.49237 0,0 z"
     id="path4905"
     inkscape:connector-curvature="0" />
  <path
     style="fill:#d9d7c9;stroke:none"
     d="m 132,449 c 7.97277,3.09862 16.45546,1.74122 1.73188,0.28865 L 132.44837,449.07473 132,449 z"
     id="path4907"
     inkscape:connector-curvature="0" />
  <path
     style="fill:#b4af95;stroke:none"
     d="m 170,454 c 3.41132,2.39951 9.01066,0.44771 0,0 z m 249,0 c -0.53817,12.30543 1.70647,11.95433 0,0 z"
     id="path4909"
     inkscape:connector-curvature="0" />
  <path
     style="fill:#c8c8c7;stroke:none"
     d="m 177,455 c 2.85778,2.45906 7.02817,0.33613 0,0 z"
     id="path4911"
     inkscape:connector-curvature="0" />
  <path
     style="fill:#c6c2ae;stroke:none"
     d="m 184,456 c 3.41132,2.39951 9.01066,0.44771 0,0 z"
     id="path4913"
     inkscape:connector-curvature="0" />
  <path
     style="fill:#95948e;stroke:none"
     d="m 202,458 c 1.8692,2.44632 6.37043,0.38078 0,0 z"
     id="path4915"
     inkscape:connector-curvature="0" />
  <path
     style="fill:#b4af95;stroke:none"
     d="m 208,459 c 1.8692,2.44632 6.37043,0.38078 0,0 z"
     id="path4917"
     inkscape:connector-curvature="0" />
  <path
     style="fill:#c8c8c7;stroke:none"
     d="m 214,460 c 2.85778,2.45906 7.02817,0.33613 0,0 z m 7,1 c 3.41132,2.39951 9.01066,0.44771 0,0 z"
     id="path4919"
     inkscape:connector-curvature="0" />
  <path
     style="fill:#b4af95;stroke:none"
     d="m 246,464 c 2.85778,2.45906 7.02817,0.33613 0,0 z"
     id="path4921"
     inkscape:connector-curvature="0" />
  <path
     style="fill:#666559;stroke:none"
     d="m 260,465 c 3.41132,2.39951 9.01066,0.44771 0,0 z"
     id="path4923"
     inkscape:connector-curvature="0" />
  <path
     style="fill:#c8c8c7;stroke:none"
     d="m 259,466 c 2.85778,2.45906 7.02817,0.33613 0,0 z"
     id="path4925"
     inkscape:connector-curvature="0" />
  <path
     style="fill:#b4af95;stroke:none"
     d="m 418,468 c -0.82337,5.81621 1.9345,4.88176 0,0 z"
     id="path4927"
     inkscape:connector-curvature="0" />
  <path
     style="fill:#d9d7c9;stroke:none"
     d="m 296,471 c 3.41132,2.39951 9.01066,0.44771 0,0 z"
     id="path4929"
     inkscape:connector-curvature="0" />
  <path
     style="fill:#4c4a47;stroke:none"
     d="m 419,472 c 2.0754,6.7042 -2.04969,26.99333 9.5015,16.85197 C 427.95221,485.58138 418.68511,483.63876 419,472 z"
     id="path4931"
     inkscape:connector-curvature="0" />
  <path
     style="fill:#c8c8c7;stroke:none"
     d="m 332,476 c 3.41132,2.39951 9.01066,0.44771 0,0 z"
     id="path4933"
     inkscape:connector-curvature="0" />
  <path
     style="fill:#7e7e82;stroke:none"
     d="m 421,480 c -0.62496,6.52299 1.87974,6.18254 0,0 z m 9,3 c -2.39719,8.65779 4.91457,-1.55208 0,0 z"
     id="path4935"
     inkscape:connector-curvature="0" />
  <path
     style="fill:#b4af95;stroke:none"
     d="m 422,492 c 1.8692,2.44632 6.37043,0.38078 0,0 z"
     id="path4937"
     inkscape:connector-curvature="0" />
</svg>
