<?xml version="1.0" encoding="UTF-8" standalone="no"?>
<svg
   xmlns:dc="http://purl.org/dc/elements/1.1/"
   xmlns:cc="http://creativecommons.org/ns#"
   xmlns:rdf="http://www.w3.org/1999/02/22-rdf-syntax-ns#"
   xmlns:svg="http://www.w3.org/2000/svg"
   xmlns="http://www.w3.org/2000/svg"
   xmlns:sodipodi="http://sodipodi.sourceforge.net/DTD/sodipodi-0.dtd"
   xmlns:inkscape="http://www.inkscape.org/namespaces/inkscape"
   width="473"
   height="496"
   id="svg2"
   version="1.1"
   inkscape:version="0.48.4 r9939"
   sodipodi:docname="Fwd-2016-Newest-Popular-handbag-designs-from-Ceso-43-2016022459.svg">
  <metadata
     id="metadata568">
    <rdf:RDF>
      <cc:Work
         rdf:about="">
        <dc:format>image/svg+xml</dc:format>
        <dc:type
           rdf:resource="http://purl.org/dc/dcmitype/StillImage" />
        <dc:title></dc:title>
      </cc:Work>
    </rdf:RDF>
  </metadata>
  <defs
     id="defs566" />
  <sodipodi:namedview
     pagecolor="#ffffff"
     bordercolor="#666666"
     borderopacity="1"
     objecttolerance="10"
     gridtolerance="10"
     guidetolerance="10"
     inkscape:pageopacity="0"
     inkscape:pageshadow="2"
     inkscape:window-width="713"
     inkscape:window-height="643"
     id="namedview564"
     showgrid="false"
     inkscape:zoom="0.47580645"
     inkscape:cx="211.79037"
     inkscape:cy="250.74129"
     inkscape:window-x="1015"
     inkscape:window-y="335"
     inkscape:window-maximized="0"
     inkscape:current-layer="svg2" />
  <path
     style="fill:#bca892;stroke:none"
     d="m 147,120 c 7.74002,-18.07857 10.44062,-40.949527 18.54974,-60.147072 9.56037,-26.474851 29.45539,-52.8557979 58.4929,-58.3865241 8.93502,3.5810968 17.71547,11.5208191 24.21455,18.0050411 10.68467,-0.394662 5.87086,14.692039 14.18636,14.79585 C 266.49139,40.619825 264.81073,53.559932 274,54 c 3.57095,8.481114 -3.03322,-10.703737 -5.22979,-14.351489 -6.73185,-13.659537 4.36089,2.99547 8.04554,7.051438 C 287.28464,60.467992 270.16897,26.979845 265.01671,24.25581 248.68032,3.6700639 215.32459,-7.4736174 194,12.304 166.96994,35.953116 159.22459,72.93706 148.58572,105.62966 147.572,110.34851 146.99426,115.16958 147,120 z"
     id="path6"
     inkscape:connector-curvature="0" />
  <path
     style="fill:#d5b59c;stroke:none"
     d="m 207,3 c 4.28273,1.1311804 10.08868,-2.37328996 0,0 z m -59,117 c -7.78491,1.05891 -16.87384,34.70899 -18.37744,49.13072 1.74968,12.00562 35.1691,16.50919 36.76701,6.51273 C 167.59304,159.09563 168.79652,142.54782 170,126 c -17.0237,-21.76811 4.83846,-48.177676 10.75962,-70.482686 5.76936,-18.758759 21.59534,-35.714956 38.29097,-44.466728 11.14681,-11.65231879 31.1516,16.681222 36.26251,29.572238 16.51289,35.225417 16.57545,75.561786 15.218,113.531716 -8.04309,22.72039 -8.7331,1.71563 -9.48781,-0.81256 0.3189,9.886 0.63781,19.77201 0.95671,29.65802 -1.07945,13.42997 -10.15031,13.72227 -22.96801,14.62737 -4.46193,0.97041 -25.82238,1.90399 -12.74792,4.33337 16.98338,2.73245 -13.56626,1.36963 -4.59872,3.03926 -5.02803,3.22394 -37.2156,0.25815 -50.40873,-5.49933 -0.17529,-4.00198 -4.65052,-12.54047 -7.42091,1.3565 -4.7664,12.82877 -9.93234,25.82108 -9.33876,39.56754 -1.61228,27.16562 -29.55392,16.91465 -43.41578,15.47412 -3.9359,-8.8704 -3.1756,2.27676 -2.21845,-13.13449 2.61808,-7.67933 12.39394,-42.14742 11.98943,-34.89744 -1.02039,4.1936 -7.56176,24.39331 -4.37618,16.39317 2.75587,-12.46074 5.81371,-6.61179 8.04729,-13.40427 3.13269,-8.60362 2.69742,-17.86614 3.45674,-26.8558 15.50918,3.21716 -4.91264,-13.49049 -2.2265,0.65225 C 101.15,191.87319 73.553716,178.72838 47.496121,180.66129 30.45927,177.54209 16.678674,178.15963 24.869547,197.21728 27.938761,219.78596 26.514415,199.44342 34,189 27.143462,222.51858 32.198133,257.61851 39.019479,290.86479 44.367781,318.8555 62.638999,345.63124 54.0147,375 c 8.523619,23.82904 -16.035103,58.97943 9.045539,74.01178 11.695664,4.65781 34.50281,2.3126 11.961691,0.39114 -7.309273,-2.51957 12.881844,0.34971 17.022093,0.56218 C 102.36268,450.97673 112.68134,451.98837 123,453 116.99873,449.85965 106.70036,450.47777 99.046994,448.78243 84.697996,446.85495 70.348998,444.92748 56,443 c 19.008975,-1.58579 42.209008,3.51336 62.61298,6.17259 74.36462,12.2229 149.30934,20.76762 224.08202,29.91341 22.0006,3.03776 44.79752,-6.14604 55.67109,-24.65519 C 406.4789,434.27871 399.56367,410.33965 399,389 c 5.34251,-21.34907 11.43448,-42.65113 17,-64 8.49994,1.09264 -4.6015,12.0168 -2.82625,18.36291 -1.2376,7.17374 -6.06646,17.09047 -5.17375,22.63709 8.68641,-17.45839 18.04941,-34.65495 22.06084,-53.92242 7.48062,-25.56899 23.02699,-47.95427 32.64185,-72.75507 4.55565,-8.81553 7.3768,-17.94062 5.4788,-27.90793 -1.91516,-11.78282 -1.59745,10.89694 -7.16841,12.28788 -8.08671,9.02315 -23.03395,15.16696 -21.81469,29.31361 -3.62911,1.01182 -2.22389,-21.30064 -5.85675,-19.6363 C 426.45952,234.61451 432.20528,229.64344 432,228 c -3.69746,-2.20997 -2.39568,-10.34955 -0.34267,-11 -6.87028,-2.59416 2.69817,-19.61174 -9.65733,-19 -1.17207,6.19304 1.4249,24.55912 2,9.28663 4.66325,8.42448 -3.88692,6.87915 -2,15.76942 0,15.31465 0,30.6293 0,45.94395 3.36459,-3.0421 2.92857,-14.38354 4.34267,-17 6.38103,3.21451 -7.38239,-9.25819 -0.10856,-13.47109 9.24819,1.42533 6.48484,13.5004 5.78895,20.37885 C 428.68593,268.93355 429.88138,279.61758 429,290 c -2.18968,7.31315 -8.65842,16.53483 -7.05059,24.94941 -3.2951,11.11753 1.19873,-26.21054 -1.94941,-15.29208 -1.33263,-16.11471 -2.00748,9.12593 -6.23435,4.85311 -13.71886,-0.20277 2.35581,10.7632 -4.44342,10.69122 -8.97217,-1.45591 -15.00892,3.68208 -20.48229,10.08559 -7.03838,4.78375 1.6477,19.32064 -6.83994,20.05542 1.9385,10.19175 -10.11816,14.50182 -15.34,21.68433 -8.88667,3.991 -17.77333,7.982 -26.66,11.973 9.44912,13.3698 34.84323,8.58568 38.36917,26.6998 2.90545,10.83534 -3.68194,-1.92389 -10.05613,8.61799 -1.39059,6.03913 0.49133,17.77024 -0.31304,27.13698 0.88682,10.68068 -18.95095,25.07865 -25.65733,14.54523 -5.63375,-8.64746 -33.18873,2.70062 -33.86975,-19.04511 -10.02817,-7.8943 7.03924,-7.08451 14.55855,-8.09533 3.09797,4.88978 11.5779,2.91596 10.96853,-4.85956 -13.11897,-2.9e-4 -15.47733,-29.02359 -32.45714,-13.87703 -13.22383,-2.34322 -25.3022,0.22534 -18.86828,6.7022 C 270.72259,427.20758 265.9148,415.69978 258.6293,414 c -2.88345,3.19732 4.71165,16.61354 -8.69174,11.86931 -15.58307,-1.80468 -26.37583,-9.52887 -40.83434,-11.98864 -12.55596,-0.31649 -21.77964,-12.00644 -34.37699,-11.45608 -4.80439,-4.78194 -5.33729,-10.26377 -14.65223,-10.09159 -9.09644,6.34732 -19.27414,0.95623 -29.074,-0.333 0.90859,-10.27577 -16.67241,-8.11814 -13.6332,-17.52664 -16.77712,-3.64815 3.7089,-1.285 2.6332,-8.50138 0.21852,-0.92719 12.04453,-5.46617 0,-5.97198 5.22349,-9.84134 -3.24946,-5.86045 -7.34047,-15.59908 C 103.90668,342.2902 110.18888,323.67983 112,331 c 8.69749,-9.92659 1.01858,-20.29168 1.3166,-25.26332 8.32657,-6.375 1.92754,-19.74592 5.38081,-24.06233 -8.05201,-1.3153 5.47975,-19.27741 -4.72543,-17.67435 -5.59454,-0.59376 7.5254,-2.79838 -5.87159,-0.42008 C 107.27825,263.72399 121.06378,259.62374 108,258 c 19.17741,4.27349 47.66182,10.09085 48.03156,-18.48777 5.74926,-18.71659 9.09564,-48.59835 32.91785,-32.46164 0.65138,6.2925 6.99797,-2.60602 7.70792,0.94941 -4.57581,2.25257 -2.15454,14.77514 -10.42133,20.5665 -17.25236,3.37541 -7.2015,34.27952 5.764,16.4335 7.65519,-0.99741 18.01467,0.59914 24,-2 -8.30198,-7.59332 41.68623,-8.31632 25.46721,13.29548 5.59126,14.8532 37.13892,12.30828 49.21479,5.49052 7.55113,-6.1997 1.31679,-43.14865 9.318,-33.786 -1.06972,13.97255 1.00457,4.76762 4,-2 -1.78367,6.95873 17.83731,-0.17067 16,-6.02802 10.51371,-2.62261 16.39513,-15.41855 20,-24.97198 0.70171,8.10363 13.79675,2.80472 2.32565,-0.30259 1.44652,-6.82136 -18.75174,2.13746 -14.64667,-4.45723 -11.69381,4.18337 -5.18884,-3.04186 -17.07635,-1.0809 C 294.06842,189.43952 277.53421,189.71976 261,190 c -2.54175,4.233 6.47346,-15.82963 17.68523,-7.82047 C 306.91502,197.54594 297.7844,144.06718 298,155 c 0.59428,-5.7998 -4.39301,-15.75245 -5.94467,-23.14888 C 282.21904,119.08016 277.73012,103.61325 277.2507,85.626138 272.77882,68.018582 272.05848,41.315514 257.64672,31.704636 259.14676,21.238452 247.89729,22.282103 246,15 231.15295,5.9753971 215.92669,-5.7647355 199.05145,11.25506 165.74118,37.185427 157.38464,81.309961 148,120 z"
     id="path10"
     inkscape:connector-curvature="0" />
  <path
     style="fill:#e6c9b1;stroke:none"
     d="m 201,8 c 3.08381,-1.0279383 4.4012,-1.4670656 0,0 z"
     id="path12"
     inkscape:connector-curvature="0" />
  <path
     style="fill:#b99c86;stroke:none"
     d="m 218,9 c 4.45645,12.423808 31.06777,7.587222 33.83258,28.251531 11.14421,30.699805 17.76233,63.936769 16.11242,96.733469 -7.63607,9.60851 -9.64692,46.43374 3.06906,21.16411 0.31705,-43.58006 1.6284,-91.608556 -23.87543,-129.43004 C 240.76781,17.28054 230.35628,1.802157 218,9 z"
     id="path14"
     inkscape:connector-curvature="0" />
  <path
     style="fill:#8d7058;stroke:none"
     d="m 208,16 c 1.11343,6.189581 21.13832,-4.905382 6.78966,-1.697414 C 212.52644,14.868391 210.26322,15.434195 208,16 z"
     id="path16"
     inkscape:connector-curvature="0" />
  <path
     style="fill:#ac8d78;stroke:none"
     d="m 200,29 c 6.61129,-0.006 12.14228,-3.630877 17.01781,-10.852622 C 223.92045,11.137187 196.81817,24.09902 200,29 z"
     id="path20"
     inkscape:connector-curvature="0" />
  <path
     style="fill:#60736c;stroke:none"
     d="m 172,125 c 8.75671,-6.02036 8.00812,10.56974 12.22239,15.35457 C 188.15891,148.49798 190.8439,157.01859 192,166 192.17679,135.12449 168.0901,107.4347 181.30497,75.744832 186.06688,54.856078 194.55536,34.748393 208,18 185.39551,33.796241 182.93066,65.769842 177.70285,90.884671 176.54576,102.33615 176.58287,114.22457 172,125 z"
     id="path22"
     inkscape:connector-curvature="0" />
  <path
     style="fill:#b6b4ab;stroke:none"
     d="m 212,20 c -2.23517,4.470349 -2.77111,5.542223 0,0 z"
     id="path24"
     inkscape:connector-curvature="0" />
  <path
     style="fill:#b99c86;stroke:none"
     d="m 202,27 c -20.22687,24.92439 -25.29689,59.429968 -23.15141,90.60297 0.13787,8.9081 11.48626,26.30188 8.15577,6.90488 -0.8702,-30.819205 3.18947,-62.020662 16.65083,-89.981705 C 204.15577,32.180295 204.98372,28.271187 202,27 z"
     id="path44"
     inkscape:connector-curvature="0" />
  <path
     style="fill:#ac8d78;stroke:none"
     d="m 194,30 c -8.79734,13.486713 4.33431,0.992952 0,0 z"
     id="path48"
     inkscape:connector-curvature="0" />
  <path
     style="fill:#d5b59c;stroke:none"
     d="m 266,33 c 3.33333,8 6.66667,16 10,24 -7.62196,-3.985717 9.1062,25.419874 10.65488,33.482792 4.07776,11.664848 15.4217,40.043768 21.78464,38.697278 C 302.60771,100.36948 292.62032,72.509631 280,46 282.82814,57.696033 274.94962,43.144597 270.18425,38.300051 268.7895,36.533367 267.39475,34.766684 266,33 z"
     id="path54"
     inkscape:connector-curvature="0" />
  <path
     style="fill:#828e88;stroke:none"
     d="m 189,40 c -2.55304,6.898157 -4.90728,22.631498 -1.42008,7.100395 C 188.05328,44.733596 188.52664,42.366798 189,40 z"
     id="path80"
     inkscape:connector-curvature="0" />
  <path
     style="fill:#e6c9b1;stroke:none"
     d="m 15,43 c -0.750735,8.112021 1.835422,9.784053 0,0 z m 155,0 c -1.02794,3.083815 -1.46707,4.401197 0,0 z"
     id="path82"
     inkscape:connector-curvature="0" />
  <path
     style="fill:#8b8273;stroke:none"
     d="m 270,52 c 4.56765,20.805356 17.53264,40.137634 22.84824,59.84824 C 297.61779,107.08058 283.03962,79.864428 277.955,68 275.53059,62.577568 274.27745,56.408298 270,52 z"
     id="path92"
     inkscape:connector-curvature="0" />
  <path
     style="fill:#b6b4ab;stroke:none"
     d="m 183,55 c -2.01383,10.18084 4.83793,0.765415 0,0 z"
     id="path94"
     inkscape:connector-curvature="0" />
  <path
     style="fill:#e4e1dc;stroke:none"
     d="m 192,61 c -2.01383,10.18084 4.83793,0.765415 0,0 z"
     id="path106"
     inkscape:connector-curvature="0" />
  <path
     style="fill:#b6b4ab;stroke:none"
     d="m 181,65 c -1.73522,8.685146 0.31054,14.236063 0,0 z"
     id="path114"
     inkscape:connector-curvature="0" />
  <path
     style="fill:#e6c9b1;stroke:none"
     d="m 191,66 c -1.73897,13.128999 0.37987,14.886393 0,0 z"
     id="path116"
     inkscape:connector-curvature="0" />
  <path
     style="fill:#b6b4ab;stroke:none"
     d="m 179,74 c -0.8034,5.442562 1.87989,10.00383 0,0 z"
     id="path118"
     inkscape:connector-curvature="0" />
  <path
     style="fill:#e6c9b1;stroke:none"
     d="m 155,80 c -0.65324,6.594723 1.88298,6.139707 0,0 z"
     id="path150"
     inkscape:connector-curvature="0" />
  <path
     style="fill:#bbdae2;stroke:none"
     d="m 176,94 c -0.62515,13.08781 1.78721,16.54497 0,0 z"
     id="path190"
     inkscape:connector-curvature="0" />
  <path
     style="fill:#e4e1dc;stroke:none"
     d="m 187,99 c 0,12.66667 0,25.33333 0,38 2.08037,-10.48681 3.79383,-26.19059 0,-38 z"
     id="path192"
     inkscape:connector-curvature="0" />
  <path
     style="fill:#a19e8b;stroke:none"
     d="m 289,102 c -0.78806,8.50385 1.90292,14.60038 0,0 z"
     id="path194"
     inkscape:connector-curvature="0" />
  <path
     style="fill:#e6c9b1;stroke:none"
     d="m 267,104 c -0.71148,7.10458 1.12856,23.95919 0.49748,7.95964 C 267.33165,109.30643 267.16583,106.65321 267,104 z m 13,2 c 0.23992,7.13204 4.13446,22.64132 1.42008,7.10039 C 280.94672,110.7336 280.47336,108.3668 280,106 z"
     id="path196"
     inkscape:connector-curvature="0" />
  <path
     style="fill:#b6b4ab;stroke:none"
     d="m 175,107 c -0.65324,6.59472 1.88298,6.13971 0,0 z"
     id="path198"
     inkscape:connector-curvature="0" />
  <path
     style="fill:#60736c;stroke:none"
     d="m 291,108 c 1.03028,5.66083 -2.09106,21.09591 1.60046,20.79908 3.63778,-11.29253 10.96507,5.97117 16.10144,9.05754 16.71769,21.14789 3.38006,-7.74524 -7.7989,-14.37062 C 296.97368,118.74212 294.35261,113.12882 291,108 z"
     id="path200"
     inkscape:connector-curvature="0" />
  <path
     style="fill:#bbdae2;stroke:none"
     d="m 291,117 c -0.75073,8.11202 1.83542,9.78405 0,0 z"
     id="path202"
     inkscape:connector-curvature="0" />
  <path
     style="fill:#705843;stroke:none"
     d="m 173,121 c -6.80174,13.56808 6.27503,13.91261 -0.71552,28.51764 C 170.27352,159.19613 170.8502,169.18312 170,179 c -2.73845,-15.12302 0.005,4.76488 -9.32232,1.28077 C 150.11845,178.85384 139.55923,177.42692 129,176 c 13.93852,9.14228 40.45469,8.71729 47.02246,4.21171 20.75186,7.4655 15.70379,-14.48288 12.45088,-28.48645 -1.42882,-7.97679 -5.98422,8.89172 -10.39501,-5.81039 -0.28059,-11.71913 0.27781,-24.62719 -2.57699,-13.16151 C 174.69689,128.86345 170.44345,124.93253 173,121 z"
     id="path204"
     inkscape:connector-curvature="0" />
  <path
     style="fill:#553823;stroke:none"
     d="m 176,123 c -8.02416,12.53995 3.34033,14.08293 0,0 z"
     id="path206"
     inkscape:connector-curvature="0" />
  <path
     style="fill:#312614;stroke:none"
     d="m 295,124 c -3.12208,7.28486 -3.9781,9.28224 0,0 z"
     id="path208"
     inkscape:connector-curvature="0" />
  <path
     style="fill:#a19e8b;stroke:none"
     d="m 296,125 c 1,10 2,20 3,30 -3.64496,-11.79132 0.39546,6.64644 1.49638,12.10101 1.26232,12.34718 1.77581,14.51081 1.92006,0.8221 -0.074,-8.10809 0.69369,-16.66734 2.03257,-24.14752 C 301.63268,137.51706 298.81634,131.25853 296,125 z"
     id="path210"
     inkscape:connector-curvature="0" />
  <path
     style="fill:#8d7058;stroke:none"
     d="m 295,127 c -1.54096,12.55412 4.03062,9.13196 0,0 z"
     id="path212"
     inkscape:connector-curvature="0" />
  <path
     style="fill:#614d2f;stroke:none"
     d="m 298,127 c 4.66667,7.33333 9.33333,14.66667 14,22 13.80112,2.47829 -7.00618,-18.35086 -14,-22 z"
     id="path214"
     inkscape:connector-curvature="0" />
  <path
     style="fill:#553823;stroke:none"
     d="m 178,130 c -5.5874,12.19792 6.13103,27.19623 9.32565,19.30259 C 191.79479,159.65138 183.26145,127.16862 178,130 z"
     id="path216"
     inkscape:connector-curvature="0" />
  <path
     style="fill:#ac8d78;stroke:none"
     d="m 300,133 c 5.15412,7.64992 4.29424,14.96845 3,23.3707 1.59709,6.84113 -3.3186,20.19503 2.68535,22.6293 5.36061,1.71921 22.22896,-4.3527 16.31465,5 5.2363,3.24178 1.94339,-3.03536 -0.12773,-8.68231 -0.76847,-5.83976 0.35964,-21.49028 -2.65268,-16.41027 C 310.41178,151.51463 310.46195,141.40431 300,133 z"
     id="path218"
     inkscape:connector-curvature="0" />
  <path
     style="fill:#8b8273;stroke:none"
     d="m 174,135 c -6.74752,3.38926 -1.93146,15.52843 -3.99812,22.4596 0.3626,4.51924 -2.49288,25.27667 0.40909,18.66675 C 168.09076,161.81686 176.05935,148.49666 174,135 z"
     id="path220"
     inkscape:connector-curvature="0" />
  <path
     style="fill:#b6b4ab;stroke:none"
     d="m 188,139 c -1.16296,3.67095 2.43365,4.73425 0,0 z m 1.333,3.667 0.334,0.666 -0.334,-0.666 z"
     id="path222"
     inkscape:connector-curvature="0" />
  <path
     style="fill:#e4e1dc;stroke:none"
     d="m 134,144 c -1.73897,13.129 0.37987,14.88639 0,0 z"
     id="path224"
     inkscape:connector-curvature="0" />
  <path
     style="fill:#bbdae2;stroke:none"
     d="m 318,146 c 0.0201,5.12261 3.69867,10.43854 0,0 z"
     id="path226"
     inkscape:connector-curvature="0" />
  <path
     style="fill:#8d7058;stroke:none"
     d="m 313,147 c -6.21526,2.76141 10.2182,16.33884 6.3378,9.02678 C 318.51908,144.32315 318.17711,152.40464 313,147 z"
     id="path228"
     inkscape:connector-curvature="0" />
  <path
     style="fill:#828e88;stroke:none"
     d="m 191,150 c 1.68853,9.22911 -1.8129,40.87039 2.44905,18.43432 C 193.55538,162.24044 193.25061,155.84435 191,150 z"
     id="path230"
     inkscape:connector-curvature="0" />
  <path
     style="fill:#e4e1dc;stroke:none"
     d="m 320,152 c 0.20337,8.21955 3.44916,12.83119 0,0 z"
     id="path232"
     inkscape:connector-curvature="0" />
  <path
     style="fill:#614d2f;stroke:none"
     d="m 136,165 c -0.47212,5.97358 9.7136,-1.4467 0,0 z"
     id="path234"
     inkscape:connector-curvature="0" />
  <path
     style="fill:#bbdae2;stroke:none"
     d="m 193,165 c -0.78806,8.50385 1.90292,14.60038 0,0 z"
     id="path236"
     inkscape:connector-curvature="0" />
  <path
     style="fill:#b6b4ab;stroke:none"
     d="m 299,165 c -0.69771,11.32313 1.58861,16.73799 0.17617,2.29024 L 299.07319,165.95152 299,165 z"
     id="path238"
     inkscape:connector-curvature="0" />
  <path
     style="fill:#614d2f;stroke:none"
     d="m 309,173 c 12.02605,2.74304 1.18026,-15.1152 -0.36217,-3.0867 L 309,173 z"
     id="path240"
     inkscape:connector-curvature="0" />
  <path
     style="fill:#e4e1dc;stroke:none"
     d="m 260,166 c -0.62515,13.08781 1.78721,16.54497 0,0 z"
     id="path242"
     inkscape:connector-curvature="0" />
  <path
     style="fill:#ac8d78;stroke:none"
     d="m 142,167 c -6.54506,10.72302 4.70528,-0.65731 0,0 z"
     id="path244"
     inkscape:connector-curvature="0" />
  <path
     style="fill:#bca892;stroke:none"
     d="m 155,167 c 9.76941,9.60699 13.14095,0.29792 0,0 z"
     id="path246"
     inkscape:connector-curvature="0" />
  <path
     style="fill:#d5b59c;stroke:none"
     d="m 314,167 c 1.64555,2.46832 3.52234,5.2835 0,0 z"
     id="path248"
     inkscape:connector-curvature="0" />
  <path
     style="fill:#e6c9b1;stroke:none"
     d="m 138,168 c 2.25799,3.03861 6.04005,1.82949 0,0 z"
     id="path250"
     inkscape:connector-curvature="0" />
  <path
     style="fill:#312614;stroke:none"
     d="m 155,168 c -0.83078,4.38365 10.31153,1.52139 0,0 z"
     id="path252"
     inkscape:connector-curvature="0" />
  <path
     style="fill:#8d7058;stroke:none"
     d="m 159,168 c 7.39321,5.56372 -7.12618,10.67741 2.63739,2.25011 L 159,168 z"
     id="path254"
     inkscape:connector-curvature="0" />
  <path
     style="fill:#b99c86;stroke:none"
     d="m 181,168 c -0.99368,3.9747 -1.65842,6.63367 0,0 z"
     id="path256"
     inkscape:connector-curvature="0" />
  <path
     style="fill:#312614;stroke:none"
     d="m 287,168 c -0.83078,4.38365 10.31153,1.52139 0,0 z"
     id="path258"
     inkscape:connector-curvature="0" />
  <path
     style="fill:#ac8d78;stroke:none"
     d="m 291,168 c 9.87708,5.80846 -16.51214,-2.37756 -0.79942,6.32055 4.20551,0.21086 5.33715,-5.46743 0.79942,-6.32055 z"
     id="path260"
     inkscape:connector-curvature="0" />
  <path
     style="fill:#614d2f;stroke:none"
     d="m 136,169 c -0.47212,5.97358 9.7136,-1.4467 0,0 z"
     id="path262"
     inkscape:connector-curvature="0" />
  <path
     style="fill:#8b8273;stroke:none"
     d="m 268,169 c 0.47878,2.45429 7.42778,0.48228 0,0 z"
     id="path264"
     inkscape:connector-curvature="0" />
  <path
     style="fill:#614d2f;stroke:none"
     d="m 267,170 c 2.89645,2.46291 7.05283,0.33145 0,0 z"
     id="path266"
     inkscape:connector-curvature="0" />
  <path
     style="fill:#d5b59c;stroke:none"
     d="m 289,170 c 2.89645,2.46291 7.05283,0.33145 0,0 z"
     id="path268"
     inkscape:connector-curvature="0" />
  <path
     style="fill:#ac8d78;stroke:none"
     d="m 274,171 c -2.66889,3.55853 -5.09968,6.79958 0,0 z"
     id="path270"
     inkscape:connector-curvature="0" />
  <path
     style="fill:#312614;stroke:none"
     d="m 310,171 c 5.11588,3.42449 5.41939,0.7775 0,0 z m -154,1 c -0.83078,4.38365 10.31153,1.52139 0,0 z"
     id="path272"
     inkscape:connector-curvature="0" />
  <path
     style="fill:#553823;stroke:none"
     d="m 288,172 c -0.0724,4.46925 11.28118,-0.18564 0,0 z"
     id="path274"
     inkscape:connector-curvature="0" />
  <path
     style="fill:#312614;stroke:none"
     d="m 180,173 c 5.38242,5.19758 11.09583,-2.05393 0,0 z"
     id="path276"
     inkscape:connector-curvature="0" />
  <path
     style="fill:#705843;stroke:none"
     d="m 268,173 c -0.9566,5.91377 8.0952,-1.16909 0,0 z"
     id="path278"
     inkscape:connector-curvature="0" />
  <path
     style="fill:#8d7058;stroke:none"
     d="m 300,177 c -16.46127,8.99846 8.30322,3.78177 0.39723,0.19861 L 300,177 z"
     id="path280"
     inkscape:connector-curvature="0" />
  <path
     style="fill:#fefefe;stroke:none"
     d="m 129,179 c 4.83964,7.57015 40.90876,8.16867 33.02392,5.35523 C 151.01594,182.57015 140.00797,180.78508 129,179 z"
     id="path282"
     inkscape:connector-curvature="0" />
  <path
     style="fill:#a19e8b;stroke:none"
     d="m 131,179 c 7.84296,3.24327 15.14305,2.01993 0,0 z"
     id="path284"
     inkscape:connector-curvature="0" />
  <path
     style="fill:#d5b59c;stroke:none"
     d="m 191,179 c 1.64555,2.46832 3.52234,5.2835 0,0 z"
     id="path286"
     inkscape:connector-curvature="0" />
  <path
     style="fill:#614d2f;stroke:none"
     d="m 304,180 c 11.55505,12.47544 30.20862,-5.22127 7.931,-0.39655 -2.64366,0.13218 -5.28733,0.26437 -7.931,0.39655 z"
     id="path288"
     inkscape:connector-curvature="0" />
  <path
     style="fill:#e4e1dc;stroke:none"
     d="m 38,180 c 8.156412,2.41928 17.908687,0.39362 2.290241,0.17617 L 38.951521,180.07319 38,180 z"
     id="path290"
     inkscape:connector-curvature="0" />
  <path
     style="fill:#b6b4ab;stroke:none"
     d="m 51,180 c 7.4162,2.42257 15.665963,0.5533 0,0 z"
     id="path292"
     inkscape:connector-curvature="0" />
  <path
     style="fill:#553823;stroke:none"
     d="m 172,180 c -1.80529,6.67208 11.8716,1.46992 18.67435,2.69741 C 189.18104,176.54769 177.19867,181.67883 172,180 z"
     id="path294"
     inkscape:connector-curvature="0" />
  <path
     style="fill:#e4e1dc;stroke:none"
     d="m 326,180 c -6.27713,0.0492 7.52268,15.78621 0,0 z"
     id="path296"
     inkscape:connector-curvature="0" />
  <path
     style="fill:#828e88;stroke:none"
     d="m 50,181 c 6.055167,2.33421 16.446037,0.33273 24.168145,1 C 69.608163,181.74347 57.253405,181.30998 50,181 z"
     id="path298"
     inkscape:connector-curvature="0" />
  <path
     style="fill:#e4e1dc;stroke:none"
     d="m 75,181 c 4.513568,2.36103 10.046445,0.50185 0,0 z"
     id="path300"
     inkscape:connector-curvature="0" />
  <path
     style="fill:#8b8273;stroke:none"
     d="m 144,181 c 2.89645,2.46291 7.05283,0.33145 0,0 z"
     id="path302"
     inkscape:connector-curvature="0" />
  <path
     style="fill:#8e5f40;stroke:none"
     d="m 282,182 c 7.42715,4.17883 15.19638,-3.39166 0,0 z"
     id="path304"
     inkscape:connector-curvature="0" />
  <path
     style="fill:#614d2f;stroke:none"
     d="m 291,181 c -9.40938,4.90422 -46.5973,5.75366 -18.95919,4.97841 C 282.49663,185.03652 293.11845,184.96994 303,181 c -4,0 -8,0 -12,0 z"
     id="path306"
     inkscape:connector-curvature="0" />
  <path
     style="fill:#a19e8b;stroke:none"
     d="m 302,184 c 3.21325,-3.21325 4.57424,-4.57424 0,0 z"
     id="path308"
     inkscape:connector-curvature="0" />
  <path
     style="fill:#60736c;stroke:none"
     d="m 72,182 c 6.038623,2.78152 16.401102,1.54762 24.102112,2.78534 C 106.06807,185.52356 116.03404,186.26178 126,187 122.37396,182.15503 110.15944,185.43464 103.20967,183.73387 92.806448,183.15591 82.403224,182.57796 72,182 z"
     id="path310"
     inkscape:connector-curvature="0" />
  <path
     style="fill:#a19e8b;stroke:none"
     d="m 83,182 c 2.896447,2.46291 7.052833,0.33145 0,0 z"
     id="path312"
     inkscape:connector-curvature="0" />
  <path
     style="fill:#ac8d78;stroke:none"
     d="m 133,182 c 3.9335,2.97578 -12.29925,2.32011 2.98981,4.03094 7.83718,0.23508 16.7683,3.67922 23.9596,2.01965 C 158.042,184.71938 144.6847,184.98461 138.52998,182.9875 136.68665,182.65833 134.84333,182.32917 133,182 z"
     id="path314"
     inkscape:connector-curvature="0" />
  <path
     style="fill:#8b8273;stroke:none"
     d="m 150,182 c 2.89645,2.46291 7.05283,0.33145 0,0 z"
     id="path316"
     inkscape:connector-curvature="0" />
  <path
     style="fill:#705843;stroke:none"
     d="m 175,182 c 2.73589,6.51183 19.56303,-0.0226 8.68328,1.24047 C 180.78885,182.82698 177.89443,182.41349 175,182 z"
     id="path318"
     inkscape:connector-curvature="0" />
  <path
     style="fill:#8d7058;stroke:none"
     d="m 191,182 c -0.65576,6.28214 5.29394,-1.34476 0,0 z"
     id="path320"
     inkscape:connector-curvature="0" />
  <path
     style="fill:#b99c86;stroke:none"
     d="m 193,182 c -6.27663,1.94738 -1.61386,8.45818 0.55853,3.35119 C 193.37235,184.23413 193.18618,183.11706 193,182 z m 71,0 c 1.85171,2.20654 25.64932,0.63469 12.63757,0.70209 C 272.42505,182.46806 268.21252,182.23403 264,182 z"
     id="path322"
     inkscape:connector-curvature="0" />
  <path
     style="fill:#e6c9b1;stroke:none"
     d="m 304,182 c -9.64727,0.6533 -18.67112,6.68559 -3.62209,4.37481 4.38484,1.5261 9.26425,-3.0538 3.62209,-4.37481 z"
     id="path324"
     inkscape:connector-curvature="0" />
  <path
     style="fill:#a19e8b;stroke:none"
     d="m 96,183 c 3.953367,2.21217 14.54488,0.85652 0,0 z"
     id="path326"
     inkscape:connector-curvature="0" />
  <path
     style="fill:#8b8273;stroke:none"
     d="m 156,183 c 2.89645,2.46291 7.05283,0.33145 0,0 z"
     id="path328"
     inkscape:connector-curvature="0" />
  <path
     style="fill:#b99c86;stroke:none"
     d="m 170,183 c -15.34739,3.67663 -6.08846,12.34981 1.56549,2.81534 L 170,183 z"
     id="path330"
     inkscape:connector-curvature="0" />
  <path
     style="fill:#18201b;stroke:none"
     d="m 172,183 c 0.26934,15.10273 33.80626,3.88054 9,3 -3,-1 -6,-2 -9,-3 z"
     id="path332"
     inkscape:connector-curvature="0" />
  <path
     style="fill:#553823;stroke:none"
     d="m 183,184 c 6.63132,2.65253 6.73942,2.69577 0,0 z"
     id="path334"
     inkscape:connector-curvature="0" />
  <path
     style="fill:#8d7058;stroke:none"
     d="m 261,184 c 2.64745,2.11863 22.84034,-0.577 18.31465,0 -6.10488,0 -12.20977,0 -18.31465,0 z"
     id="path336"
     inkscape:connector-curvature="0" />
  <path
     style="fill:#a19e8b;stroke:none"
     d="m 113,184 c 4.51357,2.36103 10.04644,0.50185 0,0 z"
     id="path338"
     inkscape:connector-curvature="0" />
  <path
     style="fill:#b6b4ab;stroke:none"
     d="m 162,184 c 0.47878,2.45429 7.42778,0.48228 0,0 z"
     id="path340"
     inkscape:connector-curvature="0" />
  <path
     style="fill:#60736c;stroke:none"
     d="m 172,184 c -0.80863,4.93966 2.14165,6.13821 0,0 z"
     id="path342"
     inkscape:connector-curvature="0" />
  <path
     style="fill:#e6c9b1;stroke:none"
     d="m 188,184 c 5.11588,3.42449 5.41939,0.7775 0,0 z"
     id="path344"
     inkscape:connector-curvature="0" />
  <path
     style="fill:#a19e8b;stroke:none"
     d="m 290,184 c 2.89645,2.46291 7.05283,0.33145 0,0 z"
     id="path346"
     inkscape:connector-curvature="0" />
  <path
     style="fill:#8b8273;stroke:none"
     d="m 306,184 c -12.917,-0.0531 -10.47108,13.21116 0,0 z"
     id="path348"
     inkscape:connector-curvature="0" />
  <path
     style="fill:#312614;stroke:none"
     d="m 307,184 c -10.97356,10.41232 3.69572,5.44921 10.97676,4.91607 14.53796,-0.92211 1.82858,-7.67565 -6.40351,-4.91607 -1.52441,0 -3.04883,0 -4.57325,0 z"
     id="path350"
     inkscape:connector-curvature="0" />
  <path
     style="fill:#e6c9b1;stroke:none"
     d="m 127,200 c -2.36519,7.8989 -2.61866,16.54412 -6.99731,15.49328 -3.8426,9.94388 -6.45547,16.32261 -1.9951,2.19498 2.57321,-7.14081 5.94693,-22.29075 -0.19054,-4.79106 C 113.95046,230.89408 102.03817,249.52064 111,256 c 13.52135,1.38429 42.32317,10.8601 44.02812,-16.05403 -3.02884,-16.18766 14.01307,-38.39128 6.81035,-50.54111 C 150.58467,187.53111 119.39435,176.31012 127,200 z"
     id="path352"
     inkscape:connector-curvature="0" />
  <path
     style="fill:#bca892;stroke:none"
     d="m 157.667,185.333 c 0.222,0.11133 0.222,0.11133 0,0 z"
     id="path354"
     inkscape:connector-curvature="0" />
  <path
     style="fill:#d5b59c;stroke:none"
     d="m 280,185 c 4.51357,2.36103 10.04644,0.50185 0,0 z"
     id="path356"
     inkscape:connector-curvature="0" />
  <path
     style="fill:#e4e1dc;stroke:none"
     d="m 261,187 c 6.05181,2.13249 16.43691,-0.21517 24.15473,0.19484 14.33823,-1.5715 -4.93203,-2.54178 -10.23114,-1.12308 C 270.28239,186.38117 265.6412,186.69059 261,187 z"
     id="path358"
     inkscape:connector-curvature="0" />
  <path
     style="fill:#e6c9b1;stroke:none"
     d="m 326,186 c -12.90659,6.83655 -2.23982,4.6569 2.25522,5.11717 -1.00847,5.19121 17.74866,-3.54962 15.03579,5.25169 11.53276,5.22955 -6.20687,0.45245 -4.90222,0.77942 1.16668,9.06123 -10.31829,14.82786 -15.07414,21.85172 -3.83738,3.2591 -9.43662,9.29871 -18.40088,10.65733 C 302.06997,218.62566 299.8062,248.88211 300,229 c -7.8873,-12.41005 -4.25217,28.48252 -11.279,34.347 -15.04885,4.60018 -56.73512,8.55197 -45.01393,-18.49209 -6.33055,-11.54151 -33.65387,-6.01769 -30.39009,-0.74312 -11.94425,-0.2484 -22.99239,0.89741 -32.93289,6.37723 -12.04219,-12.33613 7.61492,-22.03564 14.3124,-33.18551 -4.87236,-8.8161 7.65943,-12.74052 -2.69649,-8.96084 0.33002,4.48707 -15.57799,-11.85571 -24.957,-4.19367 -12.47294,20.9446 -7.60953,69.91339 -44.72834,55.91566 -14.1292,-1.96629 -13.61835,-2.69904 -8.58843,1.35993 -18.680814,4.84348 9.62094,-0.47453 -1.75425,1.57541 5.45343,-1.59457 7.1005,7.25984 4.30234,15.66826 8.23795,6.71413 -4.3214,7.14066 1.14655,16.83049 -0.82514,9.51091 -7.65445,13.58396 -1.76354,16.50125 -0.81209,9.945 -2.66233,15.70323 -8.65733,25 6.22887,11.18639 14.34771,16.54373 15.68535,23 7.718,4.86535 -5.56314,2.72688 -4.02136,10.1336 -20.213855,2.02201 7.44224,1.91449 1.26389,13.20277 13.8435,5.65637 24.84312,17.58854 44.11348,10.22323 8.50909,-2.74504 5.37152,12.43584 15.79595,9.66514 13.67894,4.39219 27.44376,8.51057 41.16269,12.77526 8.38861,7.3359 33.27109,13.87107 38.50134,6.75336 -8.37106,-12.03481 5.59235,-10.60137 7.73594,-1.95827 C 279.20447,420.977 287.00297,417.6002 280,410 c 20.37922,3.19914 40.30485,-12.49088 48,14 14.07828,0.34959 -0.54499,6.46428 0,9 -10.19292,-10.13277 -31.88398,-4.73168 -18.29863,8.97962 7.87918,16.68693 29.44067,5.259 38.66491,18.27908 13.43514,-1.25626 20.98455,-11.65863 19.63372,-24.34277 2.99684,-10.36825 -4.40601,-18.46353 3.42935,-23.86455 6.37136,-6.53822 9.76443,3.78563 5.80662,-10.03448 -5.60921,-13.5089 -30.73955,-12.11195 -36.00532,-23.55382 12.4693,-6.13573 27.21234,-8.99273 35.55448,-21.07984 6.40639,-6.81099 6.41991,-12.73856 9.21487,-18.75394 -2.65172,-9.64604 4.07272,-15.12046 10.97068,-20.51768 C 399.97509,314.40327 419.96151,315.34378 408,312 c -0.90235,-11.13268 12.21459,-2.22709 9.76587,-16.59525 3.38462,-2.34979 2.70486,12.47518 3.7884,-2.44171 -0.0348,-4.58243 2.56699,-24.08468 0.22272,-18.28697 C 421.53913,289.4146 417.42431,280.99233 419,271 c 8.55541,2.69957 -1.54943,-8.02865 2.26849,-15.76698 C 421.51233,241.82201 421.75616,228.41101 422,215 c 6.88056,5.44131 0.69709,-17.8003 2,-1 -4.03114,-3.33797 -3.7935,-23.75298 5,-12 -6.07347,11.67003 6.60068,15.12107 1.20092,18.40185 1.05343,6.9824 0.0405,7.91916 1.45641,11.59815 -6.32724,2.42858 10.07639,0.15951 2.34267,6 0.9206,4.27595 4.46548,24.81002 5.5344,11.65595 0.80943,-12.63127 15.00169,-17.99555 22.38279,-26.7715 4.49841,-2.5348 4.88775,-23.94894 6.08281,-10.51375 0.54245,15.07088 1.46435,-5.34362 1,-10.82547 3.87089,-11.70915 -6.41018,-10.24113 -14.73189,-10.59751 -38.03862,-1.97827 -76.00312,-7.62488 -114.13489,-4.99374 -4.70975,0.0827 -9.42252,0.02 -14.13322,0.046 z"
     id="path360"
     inkscape:connector-curvature="0" />
  <path
     style="fill:#a19e8b;stroke:none"
     d="m 267,186 c 0.47878,2.45429 7.42778,0.48228 0,0 z"
     id="path362"
     inkscape:connector-curvature="0" />
  <path
     style="fill:#8d7058;stroke:none"
     d="m 161,187 c 4.51357,2.36103 10.04644,0.50185 0,0 z"
     id="path364"
     inkscape:connector-curvature="0" />
  <path
     style="fill:#312614;stroke:none"
     d="m 170,188 c -8.97237,8.58579 37.15187,15.59239 21.3378,5.02678 C 188.17171,190.69559 175.7445,186.76986 170,188 z"
     id="path366"
     inkscape:connector-curvature="0" />
  <path
     style="fill:#60736c;stroke:none"
     d="m 191,187 c 1.77778,11.37576 11.25803,9.63505 0,0 z"
     id="path368"
     inkscape:connector-curvature="0" />
  <path
     style="fill:#8b8273;stroke:none"
     d="m 260,187 c 9.10806,2.06568 20.10286,1.44911 4.62516,0.33037 C 263.08344,187.22025 261.54172,187.11012 260,187 z"
     id="path370"
     inkscape:connector-curvature="0" />
  <path
     style="fill:#ac8d78;stroke:none"
     d="m 278,187 c 3.95337,2.21217 14.54488,0.85652 0,0 z"
     id="path372"
     inkscape:connector-curvature="0" />
  <path
     style="fill:#705843;stroke:none"
     d="m 260,189 c 6.04584,1.99833 16.42072,-0.57954 24.13093,-0.34061 14.27114,-0.7116 10.54216,-0.67333 -1.5525,-0.28657 C 275.05229,188.58188 267.52614,188.79094 260,189 z"
     id="path374"
     inkscape:connector-curvature="0" />
  <path
     style="fill:#b99c86;stroke:none"
     d="m 276,189 c 5.66741,2.08807 15.66731,-0.34882 23,0 -7.66667,0 -15.33333,0 -23,0 z"
     id="path376"
     inkscape:connector-curvature="0" />
  <path
     style="fill:#705843;stroke:none"
     d="m 317,188 c 3.95337,2.21217 14.54488,0.85652 0,0 z"
     id="path378"
     inkscape:connector-curvature="0" />
  <path
     style="fill:#ac8d78;stroke:none"
     d="m 32,189 c -5.050442,19.48952 -6.671354,43.19644 1,61 -3.060835,-19.74651 -1.07076,-44.84507 -1,-61 z"
     id="path380"
     inkscape:connector-curvature="0" />
  <path
     style="fill:#8d7058;stroke:none"
     d="m 132,189 c 0.81906,2.30719 5.21669,0.48977 0,0 z"
     id="path382"
     inkscape:connector-curvature="0" />
  <path
     style="fill:#705843;stroke:none"
     d="m 305,189 c 4.2523,4.36944 17.12877,-0.62098 1.63988,0.14908 L 305.30271,189.02752 305,189 z"
     id="path384"
     inkscape:connector-curvature="0" />
  <path
     style="fill:#ac8d78;stroke:none"
     d="m 131,190 c -4.35676,7.67449 13.61647,5.73241 4.31465,0 -1.43822,0 -2.87643,0 -4.31465,0 z"
     id="path386"
     inkscape:connector-curvature="0" />
  <path
     style="fill:#553823;stroke:none"
     d="m 132,190 c 2.17315,2.84241 8.87083,2.29719 0,0 z"
     id="path388"
     inkscape:connector-curvature="0" />
  <path
     style="fill:#8b8273;stroke:none"
     d="m 260,190 c 1.64555,2.46832 3.52234,5.2835 0,0 z"
     id="path390"
     inkscape:connector-curvature="0" />
  <path
     style="fill:#705843;stroke:none"
     d="m 132,191 c 0.81906,2.30719 5.21669,0.48977 0,0 z"
     id="path392"
     inkscape:connector-curvature="0" />
  <path
     style="fill:#a19e8b;stroke:none"
     d="m 302,191 c 5.16935,2.42107 14.56953,0.50493 0,0 z"
     id="path394"
     inkscape:connector-curvature="0" />
  <path
     style="fill:#8b8273;stroke:none"
     d="m 152,195 c 8.46143,0.2028 6.47493,-7.39168 0,0 z"
     id="path396"
     inkscape:connector-curvature="0" />
  <path
     style="fill:#553823;stroke:none"
     d="m 130,193 c 1.68202,6.29233 10.16971,-1.53471 0,0 z"
     id="path398"
     inkscape:connector-curvature="0" />
  <path
     style="fill:#b99c86;stroke:none"
     d="m 150,193 c -6.803,19.50983 24.19226,-3.99542 0,0 z"
     id="path400"
     inkscape:connector-curvature="0" />
  <path
     style="fill:#553823;stroke:none"
     d="m 153,193 c 0.20299,5.8163 10.08645,-1.49731 0.97198,0 L 153,193 z m 132,1 c 2.88218,4.23316 16.3628,-2.98539 0,0 z"
     id="path402"
     inkscape:connector-curvature="0" />
  <path
     style="fill:#e6c9b1;stroke:none"
     d="m 169,194 c -2.49367,8.88704 8.76603,4.11274 15.34005,9.51497 13.21998,0.82834 26.43997,1.65669 39.65995,2.48503 -16.22579,-3.81329 23.19997,0.31403 -0.415,-5.60675 C 205.03268,201.11796 187.3223,195.44393 169,194 z"
     id="path404"
     inkscape:connector-curvature="0" />
  <path
     style="fill:#2d5555;stroke:none"
     d="m 192,194 c 7.87147,7.93511 14.68603,3.6249 0,0 z"
     id="path406"
     inkscape:connector-curvature="0" />
  <path
     style="fill:#705843;stroke:none"
     d="m 264,197 c 13.53323,0.61688 -5.87107,-2.29306 6,-2 L 266.53875,194.63012 264,197 z"
     id="path408"
     inkscape:connector-curvature="0" />
  <path
     style="fill:#8d7058;stroke:none"
     d="m 177,195 c 0.81906,2.30719 5.21669,0.48977 0,0 z"
     id="path410"
     inkscape:connector-curvature="0" />
  <path
     style="fill:#312614;stroke:none"
     d="m 265,195 c 2.89645,2.46291 7.05283,0.33145 0,0 z"
     id="path412"
     inkscape:connector-curvature="0" />
  <path
     style="fill:#ac8d78;stroke:none"
     d="m 270,195 c -4.15087,5.25021 4.33496,4.73497 0,0 z"
     id="path414"
     inkscape:connector-curvature="0" />
  <path
     style="fill:#8d7058;stroke:none"
     d="m 151,196 c 0.004,5.62828 9.64003,-0.27971 1,1 5.2516,0.15855 2.22061,-0.0709 -1,-1 z"
     id="path416"
     inkscape:connector-curvature="0" />
  <path
     style="fill:#a19e8b;stroke:none"
     d="m 180,196 c 0.81906,2.30719 5.21669,0.48977 0,0 z m 22,0 c 0.57381,3.27265 10.32136,1.96927 0,0 z"
     id="path418"
     inkscape:connector-curvature="0" />
  <path
     style="fill:#60736c;stroke:none"
     d="m 284,199 c 10.87109,1.59185 5.51424,-7.51034 0,0 z"
     id="path420"
     inkscape:connector-curvature="0" />
  <path
     style="fill:#312614;stroke:none"
     d="m 152,197 c 0.47878,2.45429 7.42778,0.48228 0,0 z"
     id="path422"
     inkscape:connector-curvature="0" />
  <path
     style="fill:#ac8d78;stroke:none"
     d="m 183,197 c 0.81906,2.30719 5.21669,0.48977 0,0 z"
     id="path424"
     inkscape:connector-curvature="0" />
  <path
     style="fill:#60736c;stroke:none"
     d="m 190,198 c 2.7523,2.23599 25.52383,0.6199 10.29821,0.60578 C 196.86547,198.40385 193.43274,198.20193 190,198 z"
     id="path426"
     inkscape:connector-curvature="0" />
  <path
     style="fill:#8b8273;stroke:none"
     d="m 227,199 c 5.67304,1.84118 15.66638,-1.02993 23,-1 -7.66667,0.33333 -15.33333,0.66667 -23,1 z"
     id="path428"
     inkscape:connector-curvature="0" />
  <path
     style="fill:#614d2f;stroke:none"
     d="m 285,197 c 5.16469,2.9033 7.89191,1.38969 0,0 z"
     id="path430"
     inkscape:connector-curvature="0" />
  <path
     style="fill:#312614;stroke:none"
     d="m 286,197 c 0.47878,2.45429 7.42778,0.48228 0,0 z"
     id="path432"
     inkscape:connector-curvature="0" />
  <path
     style="fill:#828e88;stroke:none"
     d="m 195,199 c 6.05517,2.33421 16.44604,0.33273 24.16815,1 15.78721,0.11495 -3.44028,-0.31708 -9.61441,-0.5452 C 204.7025,199.3032 199.85125,199.1516 195,199 z"
     id="path434"
     inkscape:connector-curvature="0" />
  <path
     style="fill:#b6b4ab;stroke:none"
     d="m 211,198 c 6.05517,2.33421 16.44604,0.33273 24.16815,1 0.39367,-0.15043 -15.24624,-0.60909 -20.97676,-0.87725 C 213.1276,198.08183 212.0638,198.04092 211,198 z"
     id="path436"
     inkscape:connector-curvature="0" />
  <path
     style="fill:#8d7058;stroke:none"
     d="m 266,201 c -1.32461,-2.509 -1.49566,-3.25291 0,0 z"
     id="path438"
     inkscape:connector-curvature="0" />
  <path
     style="fill:#312614;stroke:none"
     d="m 264,199 c 0.96745,1.95713 9.82857,-3.19742 0,0 z"
     id="path440"
     inkscape:connector-curvature="0" />
  <path
     style="fill:#e6c9b1;stroke:none"
     d="m 25,203 c 0.239922,7.13204 4.134455,22.64132 1.420079,7.10039 C 25.946719,207.7336 25.47336,205.3668 25,203 z"
     id="path442"
     inkscape:connector-curvature="0" />
  <path
     style="fill:#bca892;stroke:none"
     d="m 29,227 c -0.62032,9.21724 1.827803,10.53697 0,0 z m 396,11 c -5.34969,9.44302 9.55915,15.77642 0,14 1.67956,5.96188 1.32577,11.64325 -2.34267,17 -2.27279,-11.87477 3.64073,4.2282 -3.65733,3.34267 -1.59364,12.13204 3.25151,14.34013 2.89202,0.95304 2.1524,-3.8026 0.55357,23.8215 2.10798,8.33359 -0.97271,-9.74071 9.63375,-2.2615 6.32565,-15.93189 C 433.44712,257.68809 432.98542,249.36684 432,241 c -2.33333,-1 -4.66667,-2 -7,-3 z"
     id="path444"
     inkscape:connector-curvature="0" />
  <path
     style="fill:#8b8273;stroke:none"
     d="m 426,269 c 0.47878,2.45429 7.42778,0.48228 0,0 z"
     id="path446"
     inkscape:connector-curvature="0" />
  <path
     style="fill:#ac8d78;stroke:none"
     d="m 424,275 c 3.37592,11.66245 -9.33736,41.02035 -1,41 -4.19547,-4.8146 4.95571,-12.06499 1,-18 6.41772,-6.30408 5.05713,-14.83895 5,-23 -1.66667,0 -3.33333,0 -5,0 z"
     id="path448"
     inkscape:connector-curvature="0" />
  <path
     style="fill:#553823;stroke:none"
     d="m 438,292 c -9.22459,8.39459 -15.68706,52.68212 -6.43968,23.37142 C 434.37355,307.58095 437.18677,299.79047 440,292 l -1.34267,0 L 438,292 z"
     id="path450"
     inkscape:connector-curvature="0" />
  <path
     style="fill:#ac8d78;stroke:none"
     d="m 437,297 c -1.16296,3.67095 2.43365,4.73425 0,0 z"
     id="path452"
     inkscape:connector-curvature="0" />
  <path
     style="fill:#8d7058;stroke:none"
     d="m 435,300 c -2.631,13.7336 5.53983,0.60526 0,0 z"
     id="path454"
     inkscape:connector-curvature="0" />
  <path
     style="fill:#bca892;stroke:none"
     d="m 436,303 c -1.16296,3.67095 2.43365,4.73425 0,0 z m -2,3 c -3.73695,13.758 4.33146,4.80662 0,0 z"
     id="path456"
     inkscape:connector-curvature="0" />
  <path
     style="fill:#ac8d78;stroke:none"
     d="m 431,315 c -2.631,13.7336 5.53983,0.60526 0,0 z"
     id="path458"
     inkscape:connector-curvature="0" />
  <path
     style="fill:#8e5f40;stroke:none"
     d="m 430,318 c -7.55018,11.86268 -0.98877,20.19548 -0.40292,3.02193 0.1343,-1.00731 0.26861,-2.01462 0.40292,-3.02193 z"
     id="path460"
     inkscape:connector-curvature="0" />
  <path
     style="fill:#ac8d78;stroke:none"
     d="m 418,320 c -1.36132,10.91833 8.33046,-1.13402 0,0 z"
     id="path462"
     inkscape:connector-curvature="0" />
  <path
     style="fill:#e6c9b1;stroke:none"
     d="m 431,321 c -1.84891,5.21728 0.27435,10.66618 0,0 z"
     id="path464"
     inkscape:connector-curvature="0" />
  <path
     style="fill:#ac8d78;stroke:none"
     d="m 416,325 c -4.33333,16.66667 -8.66667,33.33333 -13,50 11.71535,0.77085 0.85434,-4.8685 6.68451,-13.78211 C 413.2801,349.52331 413.06453,336.38565 420,326 c -1.33333,-0.33333 -2.66667,-0.66667 -4,-1 z"
     id="path466"
     inkscape:connector-curvature="0" />
  <path
     style="fill:#553823;stroke:none"
     d="m 425,329 c -6,14 -12,28 -18,42 7.18758,-10.55473 22.11605,-30.85084 18,-42 z"
     id="path468"
     inkscape:connector-curvature="0" />
  <path
     style="fill:#8b8273;stroke:none"
     d="m 426,333 c -1.16296,3.67095 2.43365,4.73425 0,0 z"
     id="path470"
     inkscape:connector-curvature="0" />
  <path
     style="fill:#8d7058;stroke:none"
     d="m 422.333,336.667 c 0.11133,0.222 0.11133,0.222 0,0 z"
     id="path472"
     inkscape:connector-curvature="0" />
  <path
     style="fill:#705843;stroke:none"
     d="m 425,336 c -3.59529,8.63436 -2.89309,13.91723 0,0 z"
     id="path474"
     inkscape:connector-curvature="0" />
  <path
     style="fill:#8d7058;stroke:none"
     d="m 419.333,344.667 0.334,0.666 -0.334,-0.666 z M 421,345 c -1.16296,3.67095 2.43365,4.73425 0,0 z"
     id="path476"
     inkscape:connector-curvature="0" />
  <path
     style="fill:#bca892;stroke:none"
     d="m 422,345 c -1.16296,3.67095 2.43365,4.73425 0,0 z"
     id="path478"
     inkscape:connector-curvature="0" />
  <path
     style="fill:#8d7058;stroke:none"
     d="m 418.333,346.667 c 0.11133,0.222 0.11133,0.222 0,0 z"
     id="path480"
     inkscape:connector-curvature="0" />
  <path
     style="fill:#e4e1dc;stroke:none"
     d="m 420,348 c -4.65424,11.35936 6.48436,0.349 0.31465,0 L 420,348 z"
     id="path482"
     inkscape:connector-curvature="0" />
  <path
     style="fill:#8b8273;stroke:none"
     d="m 417,353 c -1.82279,6.73488 4.93447,-1.00752 0,0 z"
     id="path484"
     inkscape:connector-curvature="0" />
  <path
     style="fill:#bca892;stroke:none"
     d="m 414,359 c -5.72161,9.00727 -8.89346,21.27083 0.39758,3.85784 C 419.27008,358.2312 415.9493,359.07331 414,359 z"
     id="path486"
     inkscape:connector-curvature="0" />
  <path
     style="fill:#e4e1dc;stroke:none"
     d="m 413,363 c -2.94749,7.66127 -1.03322,10.0742 0,0 z"
     id="path488"
     inkscape:connector-curvature="0" />
  <path
     style="fill:#553823;stroke:none"
     d="m 404,374 c -1.02794,3.08381 -1.46707,4.4012 0,0 z"
     id="path490"
     inkscape:connector-curvature="0" />
  <path
     style="fill:#614d2f;stroke:none"
     d="m 408,374 c -3.23216,14.652 5.99759,2.1725 0.31465,0 L 408,374 z"
     id="path492"
     inkscape:connector-curvature="0" />
  <path
     style="fill:#e4e1dc;stroke:none"
     d="m 408,382 c 5.2925,-11.52629 -8.19008,-6.11312 0,0 z"
     id="path494"
     inkscape:connector-curvature="0" />
  <path
     style="fill:#e6c9b1;stroke:none"
     d="m 411,375 c -0.65324,6.59472 1.88298,6.13971 0,0 z"
     id="path496"
     inkscape:connector-curvature="0" />
  <path
     style="fill:#8d7058;stroke:none"
     d="m 402,376 c -4.56611,12.46045 1.17862,13.38031 4.75336,6.49866 C 398.77773,388.37139 408.49657,378.66974 402,376 z"
     id="path498"
     inkscape:connector-curvature="0" />
  <path
     style="fill:#a19e8b;stroke:none"
     d="m 409,376 c -1.16296,3.67095 2.43365,4.73425 0,0 z"
     id="path500"
     inkscape:connector-curvature="0" />
  <path
     style="fill:#b99c86;stroke:none"
     d="m 403,379 c -0.0368,5.12789 6.63853,9.96846 0,0 z"
     id="path502"
     inkscape:connector-curvature="0" />
  <path
     style="fill:#e6c9b1;stroke:none"
     d="m 403,386 c 5.03857,11.8612 8.33593,-5.26729 0,0 z"
     id="path504"
     inkscape:connector-curvature="0" />
  <path
     style="fill:#614d2f;stroke:none"
     d="m 407,386 c -0.8034,5.44256 1.87989,10.00383 0,0 z"
     id="path506"
     inkscape:connector-curvature="0" />
  <path
     style="fill:#b6b4ab;stroke:none"
     d="m 408,386 c -0.78806,8.50385 1.90292,14.60038 0,0 z"
     id="path508"
     inkscape:connector-curvature="0" />
  <path
     style="fill:#ac8d78;stroke:none"
     d="m 402,387 c -9.10136,4.64447 11.48399,15.37822 0,0 z"
     id="path510"
     inkscape:connector-curvature="0" />
  <path
     style="fill:#8e5f40;stroke:none"
     d="m 404,389 c 0.1762,7.98512 -5.23112,10.38671 -3,20.42675 1.42418,6.43357 -2.8012,18.5167 2,21.57325 -0.33333,-11.33333 -0.66667,-22.66667 -1,-34 5.89723,4.02281 1.24052,-5.55949 2,-8 z"
     id="path512"
     inkscape:connector-curvature="0" />
  <path
     style="fill:#ac8d78;stroke:none"
     d="m 405,391 c -6.36419,11.61118 6.35278,10.87635 0,0 z"
     id="path514"
     inkscape:connector-curvature="0" />
  <path
     style="fill:#e4e1dc;stroke:none"
     d="m 406,396 c 0,9.33333 0,18.66667 0,28 6.03331,-5.0792 3.94283,-23.92976 0,-28 z"
     id="path516"
     inkscape:connector-curvature="0" />
  <path
     style="fill:#553823;stroke:none"
     d="m 402,397 c -0.33333,12.33333 -0.66667,24.66667 -1,37 7.5105,-9.64864 2.2372,-48.92075 4,-19.57325 0.70728,9.19202 2.43046,-12.35025 -0.0741,-15.23235 C 403.95057,398.46293 402.97529,397.73147 402,397 z"
     id="path518"
     inkscape:connector-curvature="0" />
  <path
     style="fill:#312614;stroke:none"
     d="m 404,401 c 0,10.66667 0,21.33333 0,32 2.14508,-6.05221 -0.18096,-16.43801 0.24511,-24.15635 C 404.16341,406.2291 404.0817,403.61455 404,401 z"
     id="path520"
     inkscape:connector-curvature="0" />
  <path
     style="fill:#8b8273;stroke:none"
     d="m 405,418 c -0.71059,7.19889 1.11548,22.71442 0.46412,6.96179 C 405.30941,422.6412 405.15471,420.3206 405,418 z"
     id="path522"
     inkscape:connector-curvature="0" />
  <path
     style="fill:#553823;stroke:none"
     d="m 408,421 c -3.82484,13.60904 3.73956,3.76994 0,0 z"
     id="path524"
     inkscape:connector-curvature="0" />
  <path
     style="fill:#e6c9b1;stroke:none"
     d="m 410,421 c -0.75073,8.11202 1.83542,9.78405 0,0 z"
     id="path526"
     inkscape:connector-curvature="0" />
  <path
     style="fill:#8d7058;stroke:none"
     d="m 407,422 c -0.65324,6.59472 1.88298,6.13971 0,0 z"
     id="path528"
     inkscape:connector-curvature="0" />
  <path
     style="fill:#e4e1dc;stroke:none"
     d="m 164,423 c 6.00619,2.83457 16.33257,1.69399 24,3 -8,-1 -16,-2 -24,-3 z m -112,1 c -0.62032,9.21724 1.827803,10.53697 0,0 z"
     id="path530"
     inkscape:connector-curvature="0" />
  <path
     style="fill:#8b8273;stroke:none"
     d="m 192,424 c 4.57765,4.81655 14.95135,0.81756 0.78379,0.15676 L 192,424 z"
     id="path532"
     inkscape:connector-curvature="0" />
  <path
     style="fill:#bca892;stroke:none"
     d="m 406,424 c -0.8034,5.44256 1.87989,10.00383 0,0 z"
     id="path534"
     inkscape:connector-curvature="0" />
  <path
     style="fill:#e6c9b1;stroke:none"
     d="m 409,428 c -4.32859,10.91655 -3.50318,15.26545 -0.39483,1.57931 l 0.32565,-1.30258 L 409,428 z"
     id="path536"
     inkscape:connector-curvature="0" />
  <path
     style="fill:#e4e1dc;stroke:none"
     d="m 51,433 c 0.270999,8.60628 3.300761,13.58515 0,0 z"
     id="path538"
     inkscape:connector-curvature="0" />
  <path
     style="fill:#ac8d78;stroke:none"
     d="m 403,439 c 5.42809,-3.94435 -1.86656,-11.253 0,0 z"
     id="path540"
     inkscape:connector-curvature="0" />
  <path
     style="fill:#bca892;stroke:none"
     d="m 405,433 c 2.07458,21.92147 -27.70998,40.31824 -34.35119,45.44147 8.20176,2.69275 -12.53176,1.94374 -16.75613,2.70752 -7.19157,-0.16662 -22.58655,1.71923 -6.85053,2.32408 15.84481,0.50514 2.6152,2.27029 -5.81157,1.52693 -13.17175,0.81634 23.50494,3.7628 29.17652,-1.02555 C 388.97763,475.30465 406.73589,454.32291 405,433 z"
     id="path542"
     inkscape:connector-curvature="0" />
  <path
     style="fill:#ac8d78;stroke:none"
     d="m 56,442 c 6.001265,3.14035 16.299638,2.52223 23.953006,4.21757 C 94.302004,448.14505 108.651,450.07252 123,452 116.97373,453.7434 106.63243,450.72806 98.947172,450.64188 89.964782,449.76125 80.982391,448.88063 72,448 c 24.101535,7.14963 53.48099,8.67149 79.58085,12.52355 56.40605,5.34704 112.39881,13.81526 168.38749,22.26908 6.35619,1.14208 43.84306,3.74543 30.69823,0.57578 C 327.11105,480.57894 303.55552,477.78947 280,475 c 14.91621,-2.45093 33.99216,2.4383 50.4324,3.57692 10.11115,2.45929 55.37424,1.32089 26.57912,-1.33266 -43.19248,3.24924 -85.42497,-9.08527 -128.25271,-12.59802 C 176.71189,459.54424 125.48929,448.51198 73.535817,442.91136 67.700882,442.44085 61.852956,442.12084 56,442 z"
     id="path544"
     inkscape:connector-curvature="0" />
  <path
     style="fill:#e4e1dc;stroke:none"
     d="m 52,452 c 2.081388,14.47749 2.006111,29.35886 6.4336,43.397 96.95801,1.34516 193.94275,0.24538 290.91156,0.603 19.21828,0 38.43656,0 57.65484,0 -1.33333,-10.66667 -2.66667,-21.33333 -4,-32 0.15354,13.41204 0.2535,8.89267 -13.15031,16.1512 -34.85797,14.6786 -72.88088,0.68039 -108.83884,-1.43152 C 236.5524,473.5338 192.71324,463.34907 147.86974,461.77758 121.32396,457.56034 94.374357,455.04249 68.026298,450.22373 62.244143,444.18869 58.156442,450.0882 52,452 z"
     id="path546"
     inkscape:connector-curvature="0" />
  <path
     style="fill:#b6b4ab;stroke:none"
     d="m 72,451 c 6.008408,3.08527 16.319039,2.37261 23.981516,3.99769 C 114.65434,457.33179 133.32717,459.6659 152,462 126.61813,453.56115 98.485895,453.79994 72,451 z"
     id="path548"
     inkscape:connector-curvature="0" />
  <path
     style="fill:#e6c9b1;stroke:none"
     d="m 399,456 c 0.12898,12.58663 -30.55747,25.38603 -24.77038,27.94354 11.6723,-2.79338 34.73011,-3.18492 26.66382,-18.47635 C 400.26229,462.31146 399.63115,459.15573 399,456 z"
     id="path550"
     inkscape:connector-curvature="0" />
  <path
     style="fill:#b6b4ab;stroke:none"
     d="m 197,467 c 6.0303,2.88242 16.3785,1.82168 24.06889,3.18808 18.00034,2.59604 -3.88553,-3.86997 -11.60855,-3.05677 C 205.30889,466.96309 201.1536,466.99737 197,467 z"
     id="path552"
     inkscape:connector-curvature="0" />
  <path
     style="fill:#bca892;stroke:none"
     d="m 247,469 c 6.01117,3.06284 16.32654,2.3117 23.99253,3.90819 18.03603,3.25856 -3.60146,-4.51336 -11.57156,-3.61789 C 255.28571,469.03684 251.14161,468.99677 247,469 z"
     id="path554"
     inkscape:connector-curvature="0" />
  <path
     style="fill:#b6b4ab;stroke:none"
     d="m 232,471 c 6.00841,3.08527 16.31904,2.37261 23.98152,3.99769 17.52717,3.31002 -5.33918,-4.91366 -11.88856,-3.78306 C 240.06674,470.97185 236.03162,470.9644 232,471 z"
     id="path556"
     inkscape:connector-curvature="0" />
  <path
     style="fill:#d5b59c;stroke:none"
     d="m 280,474 c 15.66103,2.94093 35.3795,4.51505 52.60108,6.94961 9.75649,2.09733 41.17153,0.53848 37.3709,-0.95006 C 339.74647,481.39494 309.99274,476.95437 280,474 z"
     id="path558"
     inkscape:connector-curvature="0" />
  <path
     style="fill:#b6b4ab;stroke:none"
     d="m 264,476 c 3.25204,2.60848 23.07002,2.39936 20.66964,2.81859 C 277.77976,477.87906 270.88988,476.93953 264,476 z"
     id="path560"
     inkscape:connector-curvature="0" />
  <path
     style="fill:#e6c9b1;stroke:none"
     d="m 302,482 c 6.03173,2.86643 16.38239,1.77823 24.07461,3.12423 C 359.22846,489.0953 302.77479,478.9431 302,482 z"
     id="path562"
     inkscape:connector-curvature="0" />
</svg>
