<?xml version="1.0" encoding="UTF-8" standalone="no"?>
<svg
   xmlns:dc="http://purl.org/dc/elements/1.1/"
   xmlns:cc="http://creativecommons.org/ns#"
   xmlns:rdf="http://www.w3.org/1999/02/22-rdf-syntax-ns#"
   xmlns:svg="http://www.w3.org/2000/svg"
   xmlns="http://www.w3.org/2000/svg"
   xmlns:sodipodi="http://sodipodi.sourceforge.net/DTD/sodipodi-0.dtd"
   xmlns:inkscape="http://www.inkscape.org/namespaces/inkscape"
   width="452"
   height="492"
   id="svg2"
   version="1.1"
   inkscape:version="0.48.4 r9939"
   sodipodi:docname="Fwd-2016-Newest-Popular-handbag-designs-from-Ceso-38-2016022459.svg">
  <metadata
     id="metadata860">
    <rdf:RDF>
      <cc:Work
         rdf:about="">
        <dc:format>image/svg+xml</dc:format>
        <dc:type
           rdf:resource="http://purl.org/dc/dcmitype/StillImage" />
        <dc:title></dc:title>
      </cc:Work>
    </rdf:RDF>
  </metadata>
  <defs
     id="defs858" />
  <sodipodi:namedview
     pagecolor="#ffffff"
     bordercolor="#666666"
     borderopacity="1"
     objecttolerance="10"
     gridtolerance="10"
     guidetolerance="10"
     inkscape:pageopacity="0"
     inkscape:pageshadow="2"
     inkscape:window-width="640"
     inkscape:window-height="480"
     id="namedview856"
     showgrid="false"
     inkscape:zoom="0.4796748"
     inkscape:cx="226"
     inkscape:cy="246"
     inkscape:window-x="368"
     inkscape:window-y="116"
     inkscape:window-maximized="0"
     inkscape:current-layer="svg2" />
  <path
     style="fill:#b5a089;stroke:none"
     d="m 208,11 c 7.15344,1.688153 15.5294,-0.992075 0,0 z"
     id="path6"
     inkscape:connector-curvature="0" />
  <path
     style="fill:#d8c7b4;stroke:none"
     d="m 206.667,11.3333 c 0.222,0.111133 0.222,0.111133 0,0 z"
     id="path8"
     inkscape:connector-curvature="0" />
  <path
     style="fill:#332e2a;stroke:none"
     d="m 175,89 c -0.83535,-13.470125 22.69896,-38.089853 15.97043,-44.646695 -3.69214,10.163813 -8.76429,18.928845 -4.45874,1.415187 C 190.80472,28.528558 205.28626,6.405491 226,15 195.103,-0.31289301 182.38293,45.516648 177.58173,67.878837 176.16983,74.834406 175.16516,81.896173 175,89 z"
     id="path10"
     inkscape:connector-curvature="0" />
  <path
     style="fill:#94908c;stroke:none"
     d="m 218,11 c 0.39279,2.724049 5.51394,0.116041 0,0 z m -12.333,1.3333 0.666,0.3334 -0.666,-0.3334 z"
     id="path12"
     inkscape:connector-curvature="0" />
  <path
     style="fill:#b5a089;stroke:none"
     d="m 222.667,12.3333 c 0.222,0.111133 0.222,0.111133 0,0 z"
     id="path14"
     inkscape:connector-curvature="0" />
  <path
     style="fill:#716452;stroke:none"
     d="m 202,15 c 2.34055,-1.56037 5.39715,-3.598103 0,0 z"
     id="path16"
     inkscape:connector-curvature="0" />
  <path
     style="fill:#987e60;stroke:none"
     d="m 200,19 c -6.35875,21.53579 13.66157,4.261715 27.18002,11.593714 9.12161,4.188192 27.94186,25.93749 15.89021,3.571809 C 235.66058,18.418854 215.77036,7.65697 200,19 z"
     id="path18"
     inkscape:connector-curvature="0" />
  <path
     style="fill:#bcb4ac;stroke:none"
     d="m 225.667,13.3333 c 0.222,0.111133 0.222,0.111133 0,0 z"
     id="path20"
     inkscape:connector-curvature="0" />
  <path
     style="fill:#4a4f49;stroke:none"
     d="m 224,15 c 22.7182,14.258357 32.20905,43.800431 36.70377,69.603212 1.89694,10.464754 1.82396,26.836738 4.29623,17.681118 3.22977,3.53384 -3.08457,-26.679211 -5.70222,-35.363953 C 255.05004,47.245599 247.88122,22.616275 227.07892,15.106204 L 224,15 z"
     id="path22"
     inkscape:connector-curvature="0" />
  <path
     style="fill:#716452;stroke:none"
     d="m 194,23 c 8.62588,-8.625885 9.65958,-9.65958 0,0 z"
     id="path24"
     inkscape:connector-curvature="0" />
  <path
     style="fill:#b4906b;stroke:none"
     d="m 198,21 c -2.15613,6.029623 -12.05371,20.012742 -0.10754,11.553769 C 198.70059,30.699266 201.92,18.980359 198,21 z"
     id="path26"
     inkscape:connector-curvature="0" />
  <path
     style="fill:#4a4f49;stroke:none"
     d="m 193,23 c -9.14075,8.742364 -12.09822,42.923405 -5.19324,16.733781 C 189.53784,34.155854 191.26892,28.577927 193,23 z"
     id="path28"
     inkscape:connector-curvature="0" />
  <path
     style="fill:#b5a089;stroke:none"
     d="m 242,26 c 1.45224,1.452242 1.08311,1.083113 0,0 z"
     id="path42"
     inkscape:connector-curvature="0" />
  <path
     style="fill:#1e1c18;stroke:none"
     d="m 194,43 c 13.58649,-22.451054 38.97468,-11.099142 47.0073,9.774918 8.29645,10.806649 16.27874,44.181892 21.298,41.978687 C 253.36303,71.961519 248.05312,42.73511 224.85752,29.911158 213.04588,24.347467 197.62181,29.921006 194,43 z"
     id="path48"
     inkscape:connector-curvature="0" />
  <path
     style="fill:#716452;stroke:none"
     d="m 210,29 c 4.60262,2.392017 9.70433,0.438346 0,0 z"
     id="path52"
     inkscape:connector-curvature="0" />
  <path
     style="fill:#563c29;stroke:none"
     d="m 222,29 c 0.39279,2.724049 5.51394,0.116041 0,0 z"
     id="path54"
     inkscape:connector-curvature="0" />
  <path
     style="fill:#ffffff;stroke:none"
     d="m 187,50 c 5.85268,-5.02897 9.85814,-13.605807 15,-20 -8.72093,2.827695 -14.12381,11.126465 -15,20 z"
     id="path56"
     inkscape:connector-curvature="0" />
  <path
     style="fill:#756d6a;stroke:none"
     d="m 208.667,30.3333 c 0.222,0.111133 0.222,0.111133 0,0 z"
     id="path58"
     inkscape:connector-curvature="0" />
  <path
     style="fill:#94908c;stroke:none"
     d="m 218,30 c 0.39279,2.724049 5.51394,0.116041 0,0 z"
     id="path62"
     inkscape:connector-curvature="0" />
  <path
     style="fill:#bcb4ac;stroke:none"
     d="m 230,31 c 1.7712,2.361601 6.26658,8.355439 0,0 z"
     id="path64"
     inkscape:connector-curvature="0" />
  <path
     style="fill:#94908c;stroke:none"
     d="m 225,33 c 1.45224,1.452242 1.08311,1.083113 0,0 z"
     id="path66"
     inkscape:connector-curvature="0" />
  <path
     style="fill:#756d6a;stroke:none"
     d="m 198,34 c 1.45224,1.452242 1.08311,1.083113 0,0 z"
     id="path68"
     inkscape:connector-curvature="0" />
  <path
     style="fill:#94908c;stroke:none"
     d="m 226,34 c 1.45224,1.452242 1.08311,1.083113 0,0 z"
     id="path70"
     inkscape:connector-curvature="0" />
  <path
     style="fill:#ffffff;stroke:none"
     d="m 233,34 c 8.33333,16 16.66667,32 25,48 1.83059,-16.825244 -9.07715,-38.322285 -25,-48 z"
     id="path72"
     inkscape:connector-curvature="0" />
  <path
     style="fill:#b5a089;stroke:none"
     d="m 248.333,34.6667 c 0.11133,0.2222 0.11133,0.2222 0,0 z"
     id="path74"
     inkscape:connector-curvature="0" />
  <path
     style="fill:#4a4f49;stroke:none"
     d="m 197,35 c -4.87214,7.110115 -4.48193,11.014808 0,0 z"
     id="path76"
     inkscape:connector-curvature="0" />
  <path
     style="fill:#756d6a;stroke:none"
     d="m 200,36 c 1.45224,1.452242 1.08311,1.083113 0,0 z m 49.333,0.6667 0.334,0.6666 -0.334,-0.6666 z"
     id="path78"
     inkscape:connector-curvature="0" />
  <path
     style="fill:#b5a089;stroke:none"
     d="m 185.333,38.6667 c 0.11133,0.2222 0.11133,0.2222 0,0 z"
     id="path80"
     inkscape:connector-curvature="0" />
  <path
     style="fill:#bcb4ac;stroke:none"
     d="m 199,38 c -6.50189,5.207422 -16.9296,34.091014 -13.48223,29.458531 3.04907,-4.033715 5.83749,2.977054 7.43464,-9.299886 C 194.96827,51.439097 196.98414,44.719548 199,38 z"
     id="path82"
     inkscape:connector-curvature="0" />
  <path
     style="fill:#987e60;stroke:none"
     d="m 230,38 c 7.56496,27.334438 21.68987,53.189974 23,82 6.26791,-2.74623 5.03642,21.63573 6.72548,10.15679 C 259.01432,119.34316 258.88828,120.76117 265,121 262.02599,93.276668 250.0005,66.919894 235.54602,43.432919 L 232.92717,40.555409 230,38 z"
     id="path84"
     inkscape:connector-curvature="0" />
  <path
     style="fill:#b5a089;stroke:none"
     d="m 189.333,39.6667 c 0.11133,0.2222 0.11133,0.2222 0,0 z"
     id="path86"
     inkscape:connector-curvature="0" />
  <path
     style="fill:#bcb4ac;stroke:none"
     d="m 184,40 c -2.22005,5.447606 0.65497,5.173497 0,0 z"
     id="path90"
     inkscape:connector-curvature="0" />
  <path
     style="fill:#b5a089;stroke:none"
     d="m 246,41 c -1.05712,7.590009 5.48611,9.52377 0,0 z m -57.667,1.6667 0.334,0.6666 -0.334,-0.6666 z"
     id="path98"
     inkscape:connector-curvature="0" />
  <path
     style="fill:#756d6a;stroke:none"
     d="m 191.333,43.6667 c 0.11133,0.2222 0.11133,0.2222 0,0 z"
     id="path100"
     inkscape:connector-curvature="0" />
  <path
     style="fill:#94908c;stroke:none"
     d="m 195,43 c -1.01997,3.059906 -1.6056,4.816803 0,0 z"
     id="path102"
     inkscape:connector-curvature="0" />
  <path
     style="fill:#d2b189;stroke:none"
     d="m 182,44 c -13.8855,26.851901 -26.86871,55.088219 -32,85 10.42272,5.72971 4.51308,-5.73315 6,-10 8.3712,7.22714 5.24558,1.51024 9,-2.853 -1.45202,-9.41258 3.62958,-8.62019 4,-16.147 3.79023,9.91873 6.04049,-7.529633 6.26268,-12.245014 C 177.38956,73.151308 179.61538,58.563961 182,44 z"
     id="path108"
     inkscape:connector-curvature="0" />
  <path
     style="fill:#94908c;stroke:none"
     d="m 183,44 c -0.81734,5.78094 1.93589,4.866766 0,0 z"
     id="path110"
     inkscape:connector-curvature="0" />
  <path
     style="fill:#756d6a;stroke:none"
     d="m 249,45 c 0.76061,6.694153 3.24938,6.560761 0,0 z"
     id="path112"
     inkscape:connector-curvature="0" />
  <path
     style="fill:#94908c;stroke:none"
     d="m 241,47 c 1.45224,1.452242 1.08311,1.083113 0,0 z"
     id="path114"
     inkscape:connector-curvature="0" />
  <path
     style="fill:#94908c;stroke:none"
     d="m 182,48 c -0.81734,5.78094 1.93589,4.866766 0,0 z"
     id="path118"
     inkscape:connector-curvature="0" />
  <path
     style="fill:#bcb4ac;stroke:none"
     d="m 249.333,48.6667 c 0.11133,0.2222 0.11133,0.2222 0,0 z"
     id="path120"
     inkscape:connector-curvature="0" />
  <path
     style="fill:#b5a089;stroke:none"
     d="m 186,49 c -2.5382,5.942293 1.84496,7.905652 0,0 z"
     id="path122"
     inkscape:connector-curvature="0" />
  <path
     style="fill:#756d6a;stroke:none"
     d="m 191,49 c -1.0475,3.778457 2.3319,4.520203 0,0 z m 52.333,1.6667 0.334,0.6666 -0.334,-0.6666 z"
     id="path124"
     inkscape:connector-curvature="0" />
  <path
     style="fill:#987e60;stroke:none"
     d="m 251,50 c -1.0475,3.778457 2.3319,4.520203 0,0 z"
     id="path126"
     inkscape:connector-curvature="0" />
  <path
     style="fill:#8d7061;stroke:none"
     d="m 181,52 c -0.7024,8.216219 1.82754,9.424098 0,0 z"
     id="path128"
     inkscape:connector-curvature="0" />
  <path
     style="fill:#716452;stroke:none"
     d="m 244.333,52.6667 c 0.11133,0.2222 0.11133,0.2222 0,0 z"
     id="path130"
     inkscape:connector-curvature="0" />
  <path
     style="fill:#94908c;stroke:none"
     d="m 256.333,52.6667 c 0.11133,0.2222 0.11133,0.2222 0,0 z"
     id="path132"
     inkscape:connector-curvature="0" />
  <path
     style="fill:#bcb4ac;stroke:none"
     d="m 252,53 c -1.0475,3.778457 2.3319,4.520203 0,0 z"
     id="path134"
     inkscape:connector-curvature="0" />
  <path
     style="fill:#756d6a;stroke:none"
     d="m 184,54 c 0.74605,5.925699 3.03547,4.523015 0,0 z"
     id="path138"
     inkscape:connector-curvature="0" />
  <path
     style="fill:#d8c7b4;stroke:none"
     d="m 257,54 c 1.7712,2.361601 6.26658,8.355439 0,0 z"
     id="path140"
     inkscape:connector-curvature="0" />
  <path
     style="fill:#716452;stroke:none"
     d="m 246.333,56.6667 c 0.11133,0.2222 0.11133,0.2222 0,0 z"
     id="path142"
     inkscape:connector-curvature="0" />
  <path
     style="fill:#756d6a;stroke:none"
     d="m 247.333,58.6667 c 0.11133,0.2222 0.11133,0.2222 0,0 z"
     id="path146"
     inkscape:connector-curvature="0" />
  <path
     style="fill:#d2b189;stroke:none"
     d="m 258,58 c 6.3044,24.248824 8.59341,49.13372 11,74 10.27483,-8.52049 5.20469,14.7005 13.13726,9.57516 9.6629,9.73044 2.99065,-6.12578 6.62888,-12.39194 -7.54326,-23.73945 -14.25278,-49.014073 -28.53016,-69.610284 L 258,58 z"
     id="path148"
     inkscape:connector-curvature="0" />
  <path
     style="fill:#bcb4ac;stroke:none"
     d="m 254.333,59.6667 c 0.11133,0.2222 0.11133,0.2222 0,0 z"
     id="path150"
     inkscape:connector-curvature="0" />
  <path
     style="fill:#756d6a;stroke:none"
     d="m 248.333,60.6667 c 0.11133,0.2222 0.11133,0.2222 0,0 z"
     id="path152"
     inkscape:connector-curvature="0" />
  <path
     style="fill:#8d7061;stroke:none"
     d="m 179,61 c -0.81734,5.78094 1.93589,4.866766 0,0 z"
     id="path154"
     inkscape:connector-curvature="0" />
  <path
     style="fill:#795536;stroke:none"
     d="m 246,62 c 0.74605,5.925699 3.03547,4.523015 0,0 z"
     id="path158"
     inkscape:connector-curvature="0" />
  <path
     style="fill:#716452;stroke:none"
     d="m 249.333,62.6667 c 0.11133,0.2222 0.11133,0.2222 0,0 z"
     id="path160"
     inkscape:connector-curvature="0" />
  <path
     style="fill:#b4906b;stroke:none"
     d="m 187,64 c -8.6262,12.056953 -8.52923,26.945183 -11,41 1.67331,-4.92276 2.87917,-1.34904 5,-4.71567 C 183.19891,99.654681 191.99443,71.602989 187,64 z"
     id="path162"
     inkscape:connector-curvature="0" />
  <path
     style="fill:#756d6a;stroke:none"
     d="m 250.333,64.6667 0.334,0.6666 -0.334,-0.6666 z M 178,65 c -1.82219,8.322173 0.29207,12.313702 0,0 z"
     id="path164"
     inkscape:connector-curvature="0" />
  <path
     style="fill:#756d6a;stroke:none"
     d="m 184,66 c -2.82688,8.235444 -1.23245,12.254483 0,0 z"
     id="path170"
     inkscape:connector-curvature="0" />
  <path
     style="fill:#987e60;stroke:none"
     d="m 251.333,66.6667 c 0.11133,0.2222 0.11133,0.2222 0,0 z"
     id="path172"
     inkscape:connector-curvature="0" />
  <path
     style="fill:#382615;stroke:none"
     d="m 182,67 c -10.14977,21.246042 -9.85684,46.11307 -13.93991,69.13221 -0.0377,14.89676 -12.80923,49.93408 -7.63122,52.33518 C 167.53177,147.96194 173.47233,107.24171 182,67 z"
     id="path174"
     inkscape:connector-curvature="0" />
  <path
     style="fill:#94908c;stroke:none"
     d="m 252.333,68.6667 c 0.11133,0.2222 0.11133,0.2222 0,0 z"
     id="path176"
     inkscape:connector-curvature="0" />
  <path
     style="fill:#94908c;stroke:none"
     d="m 253.333,70.6667 c 0.11133,0.2222 0.11133,0.2222 0,0 z"
     id="path182"
     inkscape:connector-curvature="0" />
  <path
     style="fill:#bcb4ac;stroke:none"
     d="m 242.333,72.6667 c 0.11133,0.2222 0.11133,0.2222 0,0 z"
     id="path186"
     inkscape:connector-curvature="0" />
  <path
     style="fill:#94908c;stroke:none"
     d="m 258,75 c -1.0475,3.778457 2.3319,4.520203 0,0 z"
     id="path188"
     inkscape:connector-curvature="0" />
  <path
     style="fill:#e7ded1;stroke:none"
     d="m 270,77 c 4.59273,11.450278 6.29738,10.357864 0,0 z"
     id="path190"
     inkscape:connector-curvature="0" />
  <path
     style="fill:#716452;stroke:none"
     d="m 262,79 c -0.81734,5.78094 1.93589,4.866766 0,0 z"
     id="path192"
     inkscape:connector-curvature="0" />
  <path
     style="fill:#756d6a;stroke:none"
     d="m 257.333,80.6667 c 0.11133,0.2222 0.11133,0.2222 0,0 z"
     id="path194"
     inkscape:connector-curvature="0" />
  <path
     style="fill:#bcb4ac;stroke:none"
     d="m 259,81 c -0.61365,6.496571 1.87811,6.200406 0,0 z"
     id="path196"
     inkscape:connector-curvature="0" />
  <path
     style="fill:#d8c7b4;stroke:none"
     d="m 185,82 c -0.74788,5.566643 1.84789,9.654335 0,0 z"
     id="path198"
     inkscape:connector-curvature="0" />
  <path
     style="fill:#756d6a;stroke:none"
     d="m 174,86 c -0.61365,6.496571 1.87811,6.200406 0,0 z"
     id="path220"
     inkscape:connector-curvature="0" />
  <path
     style="fill:#bcb4ac;stroke:none"
     d="m 246,88 c -1.0475,3.778457 2.3319,4.520203 0,0 z"
     id="path234"
     inkscape:connector-curvature="0" />
  <path
     style="fill:#987e60;stroke:none"
     d="m 264,88 c -0.81734,5.78094 1.93589,4.866766 0,0 z"
     id="path236"
     inkscape:connector-curvature="0" />
  <path
     style="fill:#987e60;stroke:none"
     d="m 173,91 c -0.81734,5.78094 1.93589,4.866766 0,0 z"
     id="path242"
     inkscape:connector-curvature="0" />
  <path
     style="fill:#bcb4ac;stroke:none"
     d="m 247,91 c 0.2171,8.128997 3.43791,12.62504 0,0 z"
     id="path244"
     inkscape:connector-curvature="0" />
  <path
     style="fill:#d8c7b4;stroke:none"
     d="m 276,91 c 0.76061,6.694153 3.24938,6.560761 0,0 z"
     id="path246"
     inkscape:connector-curvature="0" />
  <path
     style="fill:#4a4f49;stroke:none"
     d="m 176,92 c -0.7024,8.21622 1.82754,9.4241 0,0 z"
     id="path256"
     inkscape:connector-curvature="0" />
  <path
     style="fill:#d8c7b4;stroke:none"
     d="m 183,92 c -0.81734,5.78094 1.93589,4.866766 0,0 z"
     id="path258"
     inkscape:connector-curvature="0" />
  <path
     style="fill:#4a4f49;stroke:none"
     d="m 173,95 c -0.61365,6.49657 1.87811,6.20041 0,0 z"
     id="path274"
     inkscape:connector-curvature="0" />
  <path
     style="fill:#987e60;stroke:none"
     d="m 175,99 c -1.90421,15.19848 -3.57716,33.48238 -3.18368,46.81632 1.07325,-8.87371 2.47868,-5.70084 4.82089,-11.91399 C 178.09147,122.26822 179.54574,110.63411 181,99 c -3.32364,4.30501 -3.22623,5.39623 -5.42229,3.46628 C 175.38514,101.31085 175.19257,100.15543 175,99 z"
     id="path288"
     inkscape:connector-curvature="0" />
  <path
     style="fill:#e4c6a3;stroke:none"
     d="m 168,100 c 1.27422,9.34165 -5.41538,7.63408 -3,18.55901 -4.38159,2.94515 -2.19443,5.40838 -8.6885,1.68698 -1.36749,4.64283 3.43722,14.76884 -7.3115,7.75401 -6.42763,18.43035 -4.12577,43.00638 -11.62387,55.477 -4.17982,10.28147 13.75979,4.88131 20.36789,7.49973 7.12143,-28.7813 9.7872,-59.3492 14.25598,-88.97673 -1.33333,-0.66667 -2.66667,-1.33333 -4,-2 z m -33,1 c 1.88168,2.44321 6.32387,0.37971 0,0 z"
     id="path296"
     inkscape:connector-curvature="0" />
  <path
     style="fill:#332e2a;stroke:none"
     d="m 264,101 c 2,17 4,34 6,51 2.03621,-14.9513 0.10879,-35.42227 -6,-51 z"
     id="path298"
     inkscape:connector-curvature="0" />
  <path
     style="fill:#94908c;stroke:none"
     d="m 171,105 c -0.81734,5.78094 1.93589,4.86677 0,0 z"
     id="path306"
     inkscape:connector-curvature="0" />
  <path
     style="fill:#bcb4ac;stroke:none"
     d="m 180,105 c -0.7024,8.21622 1.82754,9.4241 0,0 z"
     id="path308"
     inkscape:connector-curvature="0" />
  <path
     style="fill:#716452;stroke:none"
     d="m 266,106 c -0.60836,11.5782 1.69606,10.92933 0,0 z"
     id="path310"
     inkscape:connector-curvature="0" />
  <path
     style="fill:#b5a089;stroke:none"
     d="m 170,109 c -0.79057,8.30654 1.8398,12.40278 0,0 z"
     id="path312"
     inkscape:connector-curvature="0" />
  <path
     style="fill:#716452;stroke:none"
     d="m 264,112 c -0.61365,6.49657 1.87811,6.20041 0,0 z"
     id="path314"
     inkscape:connector-curvature="0" />
  <path
     style="fill:#d8c7b4;stroke:none"
     d="m 179,114 c -1.6079,10.98969 0.31774,15.22033 0,1.72532 l 0,-1.28433 L 179,114 z"
     id="path316"
     inkscape:connector-curvature="0" />
  <path
     style="fill:#716452;stroke:none"
     d="m 267,115 c -0.74788,5.56664 1.84789,9.65434 0,0 z"
     id="path318"
     inkscape:connector-curvature="0" />
  <path
     style="fill:#987e60;stroke:none"
     d="m 169,118 c -0.81734,5.78094 1.93589,4.86677 0,0 z"
     id="path320"
     inkscape:connector-curvature="0" />
  <path
     style="fill:#716452;stroke:none"
     d="m 265,118 c -0.61365,6.49657 1.87811,6.20041 0,0 z"
     id="path322"
     inkscape:connector-curvature="0" />
  <path
     style="fill:#b4906b;stroke:none"
     d="m 254,120 c 2,10.66667 4,21.33333 6,32 3.26337,-10.89953 7.82727,-2.67636 7.83038,-19.87438 -2.09805,-12.55391 -11.3244,-16.56735 -8.09834,-1.87705 C 258.8494,143.22591 258.14621,117.482 254,120 z"
     id="path324"
     inkscape:connector-curvature="0" />
  <path
     style="fill:#94908c;stroke:none"
     d="m 168,123 c -0.79057,8.30654 1.8398,12.40278 0,0 z"
     id="path326"
     inkscape:connector-curvature="0" />
  <path
     style="fill:#b4906b;stroke:none"
     d="m 172,124 c -3.36519,21.81175 -7.75646,43.51083 -11.4183,65.21285 0.86779,21.66431 6.27779,2.19118 6.4183,5.78715 3.7437,-15.43455 5.76478,-34.96119 8.33013,-52.01225 -0.35402,-18.23321 -5.95266,15.28066 -3.24308,-3.67917 C 173.44604,134.34832 173.55436,128.93504 172,124 z"
     id="path328"
     inkscape:connector-curvature="0" />
  <path
     style="fill:#e4c6a3;stroke:none"
     d="m 271,130 c -4.19936,19.06263 3.45635,38.09856 7.67912,56.45364 9.88478,9.22094 28.67614,3.68783 19.59784,-11.31641 C 295.51797,161.09149 292.75899,147.04574 290,133 c -7.10253,1.88784 2.55294,19.89249 -7,8 -9.4208,7.6148 -2.47422,-13.30246 -12,-11 z"
     id="path330"
     inkscape:connector-curvature="0" />
  <path
     style="fill:#b5a089;stroke:none"
     d="m 176,131 c -0.61365,6.49657 1.87811,6.20041 0,0 z"
     id="path332"
     inkscape:connector-curvature="0" />
  <path
     style="fill:#987e60;stroke:none"
     d="m 167,132 c -0.79057,8.30654 1.8398,12.40278 0,0 z"
     id="path334"
     inkscape:connector-curvature="0" />
  <path
     style="fill:#756d6a;stroke:none"
     d="m 269,132 c -0.7024,8.21622 1.82754,9.4241 0,0 z"
     id="path336"
     inkscape:connector-curvature="0" />
  <path
     style="fill:#c6a37c;stroke:none"
     d="m 267,139 c -1.39644,12.74603 -6.33163,0.23471 -5.51189,16.88387 0.24212,17.82233 6.22961,15.78218 8.298,30.65364 1.88641,8.44703 2.91141,17.51128 5.78826,10.61123 10.37489,-7.76543 -9.20509,-25.50834 -3.7178,-39.23995 C 271.37268,151.42774 270.72073,144.55185 267,139 z"
     id="path338"
     inkscape:connector-curvature="0" />
  <path
     style="fill:#bcb4ac;stroke:none"
     d="m 175,140 c -0.81734,5.78094 1.93589,4.86677 0,0 z"
     id="path340"
     inkscape:connector-curvature="0" />
  <path
     style="fill:#b5a089;stroke:none"
     d="m 166,141 c -0.81734,5.78094 1.93589,4.86677 0,0 z"
     id="path342"
     inkscape:connector-curvature="0" />
  <path
     style="fill:#e7ded1;stroke:none"
     d="m 175,144 c -1.82219,8.32217 0.29207,12.3137 0,0 z"
     id="path344"
     inkscape:connector-curvature="0" />
  <path
     style="fill:#716452;stroke:none"
     d="m 168,145 c -0.81734,5.78094 1.93589,4.86677 0,0 z"
     id="path346"
     inkscape:connector-curvature="0" />
  <path
     style="fill:#4a4f49;stroke:none"
     d="m 165,150 c -0.81734,5.78094 1.93589,4.86677 0,0 z m 106,0 c -3.51058,9.66034 6.2042,44.43479 7.87229,34.98796 C 276.24819,173.32531 273.6241,161.66265 271,150 z"
     id="path348"
     inkscape:connector-curvature="0" />
  <path
     style="fill:#b5a089;stroke:none"
     d="m 293,153 c 2.66667,12 5.33333,24 8,36 1.65846,-10.12529 -2.31893,-25.65843 -8,-36 z"
     id="path350"
     inkscape:connector-curvature="0" />
  <path
     style="fill:#96714f;stroke:none"
     d="m 153.667,155.333 c 0.222,0.11133 0.222,0.11133 0,0 z"
     id="path352"
     inkscape:connector-curvature="0" />
  <path
     style="fill:#987e60;stroke:none"
     d="m 164,155 c -1.0475,3.77846 2.3319,4.5202 0,0 z"
     id="path354"
     inkscape:connector-curvature="0" />
  <path
     style="fill:#d8c7b4;stroke:none"
     d="m 261,155 c -0.61365,6.49657 1.87811,6.20041 0,0 z"
     id="path356"
     inkscape:connector-curvature="0" />
  <path
     style="fill:#382615;stroke:none"
     d="m 152,156 c -1.28845,8.37378 8.30085,-1.24669 0,0 z"
     id="path358"
     inkscape:connector-curvature="0" />
  <path
     style="fill:#8d7061;stroke:none"
     d="m 155.333,156.667 c 0.11133,0.222 0.11133,0.222 0,0 z"
     id="path360"
     inkscape:connector-curvature="0" />
  <path
     style="fill:#987e60;stroke:none"
     d="m 282,156 c 1.14422,4.48659 5.05828,3.51157 0,0 z"
     id="path362"
     inkscape:connector-curvature="0" />
  <path
     style="fill:#8d7061;stroke:none"
     d="m 281,157 c 2.83377,3.95018 5.33199,3.28084 0,0 z"
     id="path364"
     inkscape:connector-curvature="0" />
  <path
     style="fill:#563c29;stroke:none"
     d="m 282,157 c -0.69922,6.19776 5.31909,-1.32585 0,0 z"
     id="path366"
     inkscape:connector-curvature="0" />
  <path
     style="fill:#b5a089;stroke:none"
     d="m 142,158 c -2.33333,10.33333 -4.66667,20.66667 -7,31 5.80849,-5.5205 7.32585,-12.64921 7,-20.42167 0,-3.52611 0,-7.05222 0,-10.57833 z"
     id="path368"
     inkscape:connector-curvature="0" />
  <path
     style="fill:#d8c7b4;stroke:none"
     d="m 171,167 c -0.61365,6.49657 1.87811,6.20041 0,0 z"
     id="path370"
     inkscape:connector-curvature="0" />
  <path
     style="fill:#987e60;stroke:none"
     d="m 161,172 c -1.0475,3.77846 2.3319,4.5202 0,0 z"
     id="path372"
     inkscape:connector-curvature="0" />
  <path
     style="fill:#8d7061;stroke:none"
     d="m 266,174 c 2.8047,12.8696 5.24136,25.77182 4,39 12.08339,6.02794 5.65647,-14.98861 6,-1 -11.68124,-1.24311 0.82537,-30.26255 -10,-38 z"
     id="path374"
     inkscape:connector-curvature="0" />
  <path
     style="fill:#d8c7b4;stroke:none"
     d="m 170,177 c -0.81734,5.78094 1.93589,4.86677 0,0 z"
     id="path376"
     inkscape:connector-curvature="0" />
  <path
     style="fill:#b5a089;stroke:none"
     d="m 158.333,185.667 c 0.11133,0.222 0.11133,0.222 0,0 z"
     id="path378"
     inkscape:connector-curvature="0" />
  <path
     style="fill:#e7ded1;stroke:none"
     d="m 128,208 c 0.33458,-20.01106 37.20134,-18.60928 28.24706,5.64837 8.55017,12.54123 -0.92464,-12.32417 5.34718,-14.02117 -2.21879,-15.15628 -41.78252,-18.40582 -33.6676,5.18289 L 128,208 z m 166,-19 c 6.38059,9.81587 17.71045,2.10397 2,4 -0.60077,-1.75392 1.59835,-5.2546 -2,-4 z"
     id="path380"
     inkscape:connector-curvature="0" />
  <path
     style="fill:#ffffff;stroke:none"
     d="m 276,217 c 13.35306,2.45457 -2.40856,-28.27672 19,-23 0.64609,-6.61055 -17.17932,-5.03346 -15.54856,1.02902 C 279.3531,202.63422 279.25974,209.94738 276,217 z"
     id="path382"
     inkscape:connector-curvature="0" />
  <path
     style="fill:#d8c7b4;stroke:none"
     d="m 277,191 c 1.05976,6.92197 -0.67888,16.77243 2,22 -0.66667,-7.33333 -1.33333,-14.66667 -2,-22 z"
     id="path384"
     inkscape:connector-curvature="0" />
  <path
     style="fill:#8d7061;stroke:none"
     d="m 166,192 c 2.42371,7.58288 -9.75306,15.46271 0,11 6.50667,4.01065 -0.52514,-8.35241 0,-11 z"
     id="path386"
     inkscape:connector-curvature="0" />
  <path
     style="fill:#716452;stroke:none"
     d="m 131,200 c 9.89083,-1.10124 15.91035,-9.99325 1.24259,-3.7635 L 131,200 z"
     id="path388"
     inkscape:connector-curvature="0" />
  <path
     style="fill:#b5a089;stroke:none"
     d="m 144,194 c 2.83916,2.45803 7.02273,0.33781 0,0 z"
     id="path390"
     inkscape:connector-curvature="0" />
  <path
     style="fill:#bcb4ac;stroke:none"
     d="m 283,194 c 7.83392,2.4301 16.5058,0.377 1.76081,0.14673 L 283.48092,194.04008 283,194 z"
     id="path392"
     inkscape:connector-curvature="0" />
  <path
     style="fill:#987e60;stroke:none"
     d="m 291,196 c 3.82865,1.76285 23.0208,-2.47888 7.31106,-0.4874 -2.43702,0.16246 -4.87404,0.32493 -7.31106,0.4874 z"
     id="path394"
     inkscape:connector-curvature="0" />
  <path
     style="fill:#8c6339;stroke:none"
     d="m 144,195 c 3.72569,6.54498 20.24324,1.1272 6.86266,0 -2.28755,0 -4.57511,0 -6.86266,0 z"
     id="path396"
     inkscape:connector-curvature="0" />
  <path
     style="fill:#d8c7b4;stroke:none"
     d="m 167,195 c -1.0475,3.77846 2.3319,4.5202 0,0 z"
     id="path398"
     inkscape:connector-curvature="0" />
  <path
     style="fill:#94908c;stroke:none"
     d="m 282,195 c -0.59857,6.55042 -1.37979,29.21753 0.46213,10.57208 C 282.92974,195.45398 300.0444,196.42918 282,195 z"
     id="path400"
     inkscape:connector-curvature="0" />
  <path
     style="fill:#8c6339;stroke:none"
     d="m 283,197 c 7.28716,-1.04102 9.4469,-1.34956 0,0 z"
     id="path402"
     inkscape:connector-curvature="0" />
  <path
     style="fill:#563c29;stroke:none"
     d="m 290,195 c 1.88168,2.44321 6.32387,0.37971 0,0 z"
     id="path404"
     inkscape:connector-curvature="0" />
  <path
     style="fill:#4a4f49;stroke:none"
     d="m 304,195 c 0.28202,6.48325 4.63798,-0.76897 0,0 z"
     id="path406"
     inkscape:connector-curvature="0" />
  <path
     style="fill:#e4c6a3;stroke:none"
     d="m 129,219 c 6.97873,-0.62136 17.04211,2.59849 22.22006,-0.26534 0.24103,-6.59551 4.79145,-17.417 2.51054,-21.53937 -13.36438,1.98826 -25.85291,-3.84875 -24.50282,16.6944 L 129,219 z"
     id="path408"
     inkscape:connector-curvature="0" />
  <path
     style="fill:#987e60;stroke:none"
     d="m 142,199 c 8.86077,0.21893 8.86031,-7.12597 0,0 z"
     id="path410"
     inkscape:connector-curvature="0" />
  <path
     style="fill:#94908c;stroke:none"
     d="m 156,196 c -0.3256,4.22286 0.26357,24.66828 0.69833,11.87153 C 156.46555,203.91435 156.23278,199.95718 156,196 z"
     id="path412"
     inkscape:connector-curvature="0" />
  <path
     style="fill:#e7ded1;stroke:none"
     d="m 270,196 c -0.81734,5.78094 1.93589,4.86677 0,0 z"
     id="path414"
     inkscape:connector-curvature="0" />
  <path
     style="fill:#987e60;stroke:none"
     d="m 274,196 c -0.53032,12.23044 1.71084,11.95153 0,0 z"
     id="path416"
     inkscape:connector-curvature="0" />
  <path
     style="fill:#d2b189;stroke:none"
     d="m 284,198 c 1.33333,8 2.66667,16 4,24 6.22952,-1.92422 19.02738,2.41457 21,-3.56867 -5.03298,-12.19492 10.31735,0.79901 3,-2.43133 7.4737,0.29162 2.1104,12.58206 3.10209,18.95825 4.81164,0.11002 0.85885,19.54745 6.37843,28.29042 5.11342,7.15911 -7.31414,14.90814 -1.04065,20.73339 8.11002,2.92231 4.90021,16.90521 7.1345,16.8692 6.91163,7.33775 0.30203,4.73041 -3.48699,15.33549 -7.58715,18.66066 19.43062,2.4454 23.77263,-3.64125 10.5787,-6.0846 30.3353,-8.20167 23.13999,-23.5455 17.92186,-15.10406 -5.36514,-39.6821 -2.71114,-59.04054 2.90942,-13.67941 6.78882,-23.5135 -10.23761,-22.20082 -14.15665,-3.23352 -28.44339,-3.78548 -42.84247,-2.02153 -7.63297,5.59754 -4.82213,3.9013 -7.89983,-7.29536 -4.96352,-3.28239 -15.19471,0.24888 -22.12203,-0.49336 L 284,198 z"
     id="path418"
     inkscape:connector-curvature="0" />
  <path
     style="fill:#332e2a;stroke:none"
     d="m 155,199 c -1.33333,7.66667 -2.66667,15.33333 -4,23 11.63006,-0.67786 0.21228,-12.16278 3.56732,-19.10592 C 154.71155,201.59606 154.85577,200.29803 155,199 z"
     id="path420"
     inkscape:connector-curvature="0" />
  <path
     style="fill:#716452;stroke:none"
     d="m 283,199 c -4.64988,11.43021 7.27507,9.27542 0,0 z"
     id="path422"
     inkscape:connector-curvature="0" />
  <path
     style="fill:#94908c;stroke:none"
     d="m 130,200 c 0.74605,5.9257 3.03547,4.52302 0,0 z"
     id="path424"
     inkscape:connector-curvature="0" />
  <path
     style="fill:#b5a089;stroke:none"
     d="m 159,201 c -2.19978,12.41264 2.54838,-2.93551 -0.76315,11.81576 8.40667,8.56403 -4.22963,5.15154 2.58152,10.45567 C 152.26353,243.71312 174.09751,231.80417 180,221 c 4.85639,0.27053 0.92258,-5.46491 9,-8 -7.85377,-4.36088 -33.31941,7.00235 -25.25188,-3.25939 C 164.90533,203.78557 159.13988,199.62167 159,201 z"
     id="path426"
     inkscape:connector-curvature="0" />
  <path
     style="fill:#d8c7b4;stroke:none"
     d="m 268,201 c 2.16691,10.05249 -1.23584,14.45159 -11.55772,11.8275 -28.4052,-0.43286 -56.81181,-0.7855 -85.21328,-1.4305 -3.13895,-17.26733 -14.0013,5.92017 -6.229,2.31867 6.56312,-1.67544 16.24259,-0.23453 24,-0.71567 -4.52466,6.5029 12.39832,0.20304 17.19046,1.30672 7.3255,-0.47137 22.68457,-3.13799 6.95676,2.79055 -0.49444,6.19126 14.51285,-2.93699 20.98984,-0.8907 4.27898,-0.39499 23.06004,0.6624 17.29427,-1.20657 -12.68307,0.693 -12.34605,-1.69659 0.12768,-1 6.27147,-1.55828 20.84195,4.56858 16.94847,-6.40276 C 268.33832,205.39816 268.16916,203.19908 268,201 z"
     id="path428"
     inkscape:connector-curvature="0" />
  <path
     style="fill:#795536;stroke:none"
     d="m 272,201 c -1.42693,10.42304 5.88943,15.16887 4,2.00966 -1.86771,4.60582 -1.67358,3.67799 -4,-2.00966 z m -142,1 c -1.88594,11.42036 0.47147,11.05826 0,0 z"
     id="path430"
     inkscape:connector-curvature="0" />
  <path
     style="fill:#716452;stroke:none"
     d="m 155,202 c -1.0648,6.38883 -1.23945,7.43671 0,0 z"
     id="path432"
     inkscape:connector-curvature="0" />
  <path
     style="fill:#756d6a;stroke:none"
     d="m 159,204 c -2.69617,11.74127 2.50397,11.40783 0,0 z"
     id="path434"
     inkscape:connector-curvature="0" />
  <path
     style="fill:#e7ded1;stroke:none"
     d="m 323,204 c 6.07574,2.18366 19.53706,0.88864 0,0 z"
     id="path436"
     inkscape:connector-curvature="0" />
  <path
     style="fill:#8c6339;stroke:none"
     d="m 162,211 c 6.614,-5.16428 3.52679,-9.55785 0,0 z"
     id="path438"
     inkscape:connector-curvature="0" />
  <path
     style="fill:#d2b189;stroke:none"
     d="m 271,205 c -0.74788,5.56664 1.84789,9.65434 0,0 z"
     id="path440"
     inkscape:connector-curvature="0" />
  <path
     style="fill:#716452;stroke:none"
     d="m 152,206 c -0.81734,5.78094 1.93589,4.86677 0,0 z"
     id="path442"
     inkscape:connector-curvature="0" />
  <path
     style="fill:#563c29;stroke:none"
     d="m 282,212 c 1.71102,-10.25804 6.16738,9.0116 4,-6 -1.33333,2 -2.66667,4 -4,6 z"
     id="path444"
     inkscape:connector-curvature="0" />
  <path
     style="fill:#e4c6a3;stroke:none"
     d="m 59,217 c 14.791602,20.03667 -0.03734,43.04093 -4.248369,63.01809 2.939692,9.79735 9.751731,19.2165 10.248369,30.31491 12.180747,2.30619 42.94053,30.74476 44,8.667 10.09012,-7.11121 9.56409,-34.26514 8,-49 10.33333,0.66667 20.66667,1.33333 31,2 3.72707,-11.07062 -6.22723,-9.80219 -14.05269,-10.45373 -9.73903,-0.81739 -20.63233,0.24534 -9.86987,-11.90231 1.02701,-14.92369 -0.62311,-23.94416 17.43718,-17.58871 18.3979,-1.97379 11.09598,-13.33462 -2.82107,-10.85601 -3.98605,-0.74141 -24.53237,-1.9541 -14.84055,-3.19924 8.99323,-1.02087 -9.2326,-3.70604 4.147,-3 -6.30624,-15.53419 -36.050761,-2.34733 -52.583684,-2.10498 C 69.891193,214.03803 64.41088,215.4005 59,217 z"
     id="path446"
     inkscape:connector-curvature="0" />
  <path
     style="fill:#987e60;stroke:none"
     d="m 128,208 c 0.0958,5.24039 3.61435,10.1254 0,0 z"
     id="path448"
     inkscape:connector-curvature="0" />
  <path
     style="fill:#b4906b;stroke:none"
     d="m 151,208 c -0.79057,8.30654 1.8398,12.40278 0,0 z"
     id="path450"
     inkscape:connector-curvature="0" />
  <path
     style="fill:#4a4f49;stroke:none"
     d="m 283,208 c 1.71014,17.91429 6.07259,5.83401 0,0 z"
     id="path452"
     inkscape:connector-curvature="0" />
  <path
     style="fill:#756d6a;stroke:none"
     d="m 153,210 c -0.69922,6.19776 5.31909,-1.32585 0,0 z"
     id="path454"
     inkscape:connector-curvature="0" />
  <path
     style="fill:#716452;stroke:none"
     d="m 166,210 c -0.69922,6.19776 5.31909,-1.32585 0,0 z"
     id="path456"
     inkscape:connector-curvature="0" />
  <path
     style="fill:#c6a37c;stroke:none"
     d="m 269,210 c 0.70872,8.46373 -13.54043,1.96958 -19.26502,4 -14.37957,-0.49718 -6.82452,1.78916 3.10837,1 -8.27731,8.26926 31.94567,-1.48346 14.10909,5.15984 -14.45134,3.19997 -1.7985,5.3099 6.03325,5.83812 0.59249,9.07076 3.63733,16.59471 4.20251,3.09056 C 279.68955,220.2842 266.54008,222.47995 278,214 c -0.92346,-2.63834 -6.43799,-2.48197 -9,-4 z"
     id="path458"
     inkscape:connector-curvature="0" />
  <path
     style="fill:#e7ded1;stroke:none"
     d="m 187,211 c 1.85888,2.22514 23.92147,0.5668 15.15232,0.79749 C 197.10155,211.53166 192.05077,211.26583 187,211 z"
     id="path460"
     inkscape:connector-curvature="0" />
  <path
     style="fill:#b5a089;stroke:none"
     d="m 370,211 c 13.04457,9.22656 16.20103,40.68482 24.96786,42.1954 C 393.16494,237.27447 387.05089,216.33588 370,211 z"
     id="path462"
     inkscape:connector-curvature="0" />
  <path
     style="fill:#382615;stroke:none"
     d="m 282,212 c -5.33462,10.31885 7.71158,14.63565 5,2.29399 -0.71516,-1.43269 -2.09114,8.02821 -4.87186,-2.03771 L 282,212 z"
     id="path464"
     inkscape:connector-curvature="0" />
  <path
     style="fill:#94908c;stroke:none"
     d="m 309,212 c -5.77821,12.61543 10.20404,7.17974 4.63902,1.98815 C 312.09268,213.32543 310.54634,212.66272 309,212 z"
     id="path466"
     inkscape:connector-curvature="0" />
  <path
     style="fill:#8d7061;stroke:none"
     d="m 128,213 c -9.7419,1.5094 -0.96541,4.71935 -0.43323,8.09872 7.81108,0.30043 15.62215,0.60085 23.43323,0.90128 -3.32684,-4.76551 -15.16698,-1.3959 -21.81117,-2.99142 C 128.50607,217.38849 128.42669,214.91814 128,213 z"
     id="path468"
     inkscape:connector-curvature="0" />
  <path
     style="fill:#d2b189;stroke:none"
     d="m 187,214 c -7.87744,4.98037 -1.61137,6.57303 -11.97627,11.0589 -6.96777,6.79623 -18.04525,10.84107 -18.78409,21.80747 -4.58574,8.41794 -1.74524,17.51904 -1.81041,26.37138 -4.7168,16.14842 -9.6817,32.25402 -9.43715,49.25882 C 142.02251,329.75936 138.26947,336.81609 135,344 c 16.49163,2.30908 26.15933,18.2894 46.38199,20.87704 C 193.40095,372.45181 207.13803,376.938 220,383 c -8.01884,0.4461 -17.18929,-4.34676 -26.15115,-9.37208 -4.88805,-6.31785 -15.5453,-3.01465 -18.27448,-7.77666 -10.6983,-5.92855 -29.08835,-12.67584 -40.71171,-18.85126 1.49488,10.84728 34.17784,16.55984 47.31777,24.73117 19.97856,12.37149 42.18846,22.13609 61.72709,3.47904 14.69339,-9.83104 53.49052,-21.71636 54.35452,-31.1447 C 287.79006,348.42021 305.19206,318.4918 288,328 c 3.34622,-19.49741 -2.5818,-39.25824 -7.92871,-57.49416 5.67551,-15.64061 2.77398,-42.45119 -14.69985,-45.59563 -14.00132,-0.50814 2.7048,-5.10968 7.62856,-6.91021 -5.20618,-1.7279 -14.82224,4.20845 -21.3215,-0.80178 C 238.5434,214.23155 224.93962,216.89422 212,220 c 16.16248,-9.77287 -0.19375,-4.75065 -10.26502,-6 -4.91166,0 -9.82332,0 -14.73498,0 z"
     id="path470"
     inkscape:connector-curvature="0" />
  <path
     style="fill:#94908c;stroke:none"
     d="m 287,213 c -0.81734,5.78094 1.93589,4.86677 0,0 z"
     id="path472"
     inkscape:connector-curvature="0" />
  <path
     style="fill:#e7ded1;stroke:none"
     d="m 311,213 c 0.38062,5.80197 8.40535,-1.60213 0.147,0 L 311,213 z"
     id="path474"
     inkscape:connector-curvature="0" />
  <path
     style="fill:#987e60;stroke:none"
     d="m 155,214 c -0.81734,5.78094 1.93589,4.86677 0,0 z"
     id="path476"
     inkscape:connector-curvature="0" />
  <path
     style="fill:#756d6a;stroke:none"
     d="m 282,214 c -0.81734,5.78094 1.93589,4.86677 0,0 z"
     id="path478"
     inkscape:connector-curvature="0" />
  <path
     style="fill:#795536;stroke:none"
     d="m 370,214 c -2.63659,10.00047 15.46883,11.24557 3,3.71567 -0.081,-3.04723 1.00197,-4.3763 -3,-3.71567 z"
     id="path480"
     inkscape:connector-curvature="0" />
  <path
     style="fill:#e7ded1;stroke:none"
     d="m 61,215 c 6.07574,2.18366 19.537056,0.88864 0,0 z"
     id="path482"
     inkscape:connector-curvature="0" />
  <path
     style="fill:#b4906b;stroke:none"
     d="m 274,215 c -10.12707,12.01316 15.04145,2.60554 4.26204,1.06551 C 276.84136,215.71034 275.42068,215.35517 274,215 z"
     id="path484"
     inkscape:connector-curvature="0" />
  <path
     style="fill:#987e60;stroke:none"
     d="m 373,215 c 1.7712,2.3616 6.26658,8.35544 0,0 z"
     id="path486"
     inkscape:connector-curvature="0" />
  <path
     style="fill:#d8c7b4;stroke:none"
     d="m 156,217 c 3.42961,2.398 8.9385,0.44585 0,0 z"
     id="path488"
     inkscape:connector-curvature="0" />
  <path
     style="fill:#4a4f49;stroke:none"
     d="m 287,217 c -3.71566,8.50018 -6.54008,6.57084 6.53503,6.2558 4.64735,-1.99921 21.91008,2.23902 17.46497,-4.2558 -7.685,0.72992 -15.33028,2.04493 -23,3 -0.33333,-1.66667 -0.66667,-3.33333 -1,-5 z"
     id="path490"
     inkscape:connector-curvature="0" />
  <path
     style="fill:#e4c6a3;stroke:none"
     d="m 311,219 c 3.65806,-0.73161 6.65475,-1.33095 1.22182,-0.24436 L 311,219 z"
     id="path492"
     inkscape:connector-curvature="0" />
  <path
     style="fill:#c6a37c;stroke:none"
     d="m 42,250 c 2.117714,4.18034 -3.435843,2.93481 1,8.28433 1.585858,16.75187 7.943281,-26.91743 14.300691,-32.75738 10.407012,-4.13008 -2.719174,26.36147 -4.454956,36.41887 -3.599111,10.45497 -1.020537,22.54786 0.991773,26.77018 -0.06897,-20.58731 17.793085,-45.03221 8.100515,-68.37337 C 46.815654,214.42487 50.408294,244.84644 42,250 z"
     id="path494"
     inkscape:connector-curvature="0" />
  <path
     style="fill:#b4906b;stroke:none"
     d="m 120,218 c 4.60262,2.39202 9.70433,0.43835 0,0 z"
     id="path496"
     inkscape:connector-curvature="0" />
  <path
     style="fill:#716452;stroke:none"
     d="m 155,218 c 4.00559,2.41245 13.65627,0.50654 0,0 z"
     id="path498"
     inkscape:connector-curvature="0" />
  <path
     style="fill:#8c6339;stroke:none"
     d="m 280,218 c -4.7768,3.30728 -1.84914,17.34696 2.71242,19.93137 C 284.3544,230.09661 280.72508,221.50821 293,225 c -5.75663,0.94105 -9.6665,-3.77486 -13,-7 z"
     id="path500"
     inkscape:connector-curvature="0" />
  <path
     style="fill:#c6a37c;stroke:none"
     d="m 311,219 c 1.94149,0.21132 -6.76686,13.22778 2,12 -2.1757,15.56314 0.25197,30.16175 2.97833,45.16872 9.53485,7.85478 3.83569,-19.65281 3.20772,-28.12214 1.27319,-10.80366 -4.00586,-10.7227 -3.91604,-16.17682 C 314.10284,227.25004 320.01266,214.3139 311,219 z"
     id="path502"
     inkscape:connector-curvature="0" />
  <path
     style="fill:#e7ded1;stroke:none"
     d="m 276,219 c 0.39279,2.72405 5.51394,0.11604 0,0 z"
     id="path504"
     inkscape:connector-curvature="0" />
  <path
     style="fill:#795536;stroke:none"
     d="m 155,221 c 6.38883,1.0648 7.43671,1.23945 0,0 z"
     id="path506"
     inkscape:connector-curvature="0" />
  <path
     style="fill:#563c29;stroke:none"
     d="m 372,221 c 2,8.66667 4,17.33333 6,26 -0.9807,-11.10307 12.7227,6.33457 7.06369,-8.62031 C 382.67754,233.39697 378.75032,218.43162 372,221 z"
     id="path508"
     inkscape:connector-curvature="0" />
  <path
     style="fill:#987e60;stroke:none"
     d="m 378,221 c 4.33817,7.59179 5.54465,9.70314 0,0 z"
     id="path510"
     inkscape:connector-curvature="0" />
  <path
     style="fill:#795536;stroke:none"
     d="m 58,222 c -4,14 -8,28 -12,42 14.886611,-8.75325 2.824644,-25.88682 15.937164,-38.38972 L 60.923892,223.5915 58,222 z"
     id="path512"
     inkscape:connector-curvature="0" />
  <path
     style="fill:#96714f;stroke:none"
     d="m 152,222 c 5.23042,1.28946 2.37144,17.78975 4.95581,2.3535 4.80862,5.38873 -1.61047,7.79 -0.95581,15.6465 -5.67367,-7.19083 -6.92095,20.89509 0.27723,4.87691 C 159.2751,237.2861 165.24413,221.11308 152,222 z m 219,0 c 0.74605,5.9257 3.03547,4.52302 0,0 z"
     id="path514"
     inkscape:connector-curvature="0" />
  <path
     style="fill:#b4906b;stroke:none"
     d="m 154,223 c -6.66911,7.1929 3.10747,15.53998 0,0 z m 124,0 c -4.80655,21.79026 5.16681,16.29898 2,0 l -1.28433,0 L 278,223 z"
     id="path516"
     inkscape:connector-curvature="0" />
  <path
     style="fill:#94908c;stroke:none"
     d="m 299,223 c 2.59932,5.30392 8.94873,0.50377 0,0 z"
     id="path518"
     inkscape:connector-curvature="0" />
  <path
     style="fill:#d2b189;stroke:none"
     d="m 304,223 c -2.35349,4.95661 -11.53099,0.18216 -16.13734,4 -5.62685,9.88699 7.98117,5.8449 14.43034,5.08837 9.70175,3.68703 13.16878,-12.34017 2.28533,-9.08837 L 304,223 z"
     id="path520"
     inkscape:connector-curvature="0" />
  <path
     style="fill:#8c6339;stroke:none"
     d="m 157,224 c 3.56284,12.18781 -10.56393,5.05302 -13,10 8.52004,0.004 3.5234,8.21464 7.28433,-1 2.66098,1.71718 2.73224,13.90183 5.42483,0.6176 1.54352,-4.10175 2.76637,-1.55045 0.29084,-9.6176 z"
     id="path522"
     inkscape:connector-curvature="0" />
  <path
     style="fill:#c6a37c;stroke:none"
     d="m 370,224 c -9.27472,20.73661 15.95553,43.08528 3.8349,62.82219 -5.74399,6.82822 1.85409,18.84986 -13.93256,19.43553 -12.21404,2.42067 -30.09685,23.81482 -36.81609,16.4146 C 328.60994,318.624 325.75932,302.77717 332,308 c -8.1755,-5.72487 -3.12462,-10.13094 -7.13726,-19.20589 -13.35965,-22.69754 -3.4565,24.91219 -3.76618,33.19258 8.10981,12.97383 -27.81587,29.58033 -16.3746,24.98961 9.06158,-1.69053 19.86442,0.25741 21.68499,-8.98499 4.11526,-5.00499 -19.92579,11.07604 -6.31698,1.09333 C 328.9038,332.18232 338.00989,325.66818 347,319 c 7.87836,1.42928 13.62777,-9.05787 20.55106,-10.49519 5.67345,-3.94169 18.54677,-3.19897 15.3292,-12.92537 C 383.36045,281.46851 381.88563,267.59058 378,254 c -3.93002,4.78566 -2.67906,-12.37558 -4.20824,-17.13804 C 373.99478,225.7894 370.00603,236.33345 370,224 z m -87,1 c -0.33308,13.0004 11.145,8.22861 0,0 z"
     id="path524"
     inkscape:connector-curvature="0" />
  <path
     style="fill:#e4c6a3;stroke:none"
     d="m 286,225 c 4.00559,2.41245 13.65627,0.50654 0,0 z"
     id="path526"
     inkscape:connector-curvature="0" />
  <path
     style="fill:#b4906b;stroke:none"
     d="m 372,226 c -1.98031,7.26666 3.01055,5.09659 2.47216,16.75869 0.22047,10.9165 2.25333,10.87579 4.57794,16.27018 3.7899,11.12873 2.58486,22.54399 1.1729,33.97113 10.66164,15.75314 -10.69305,14.95047 -20.32068,23.07336 -11.02721,6.19318 -45.33599,20.19282 -41.434,25.24842 12.94667,-6.60969 26.97308,-11.41847 37.56342,-21.60562 10.32795,-4.47985 31.92353,-22.08611 31.77173,-1.50227 2.06551,8.26204 4.13102,16.52407 6.19653,24.78611 5.77933,-13.38185 2.30757,9.82953 12.01663,14.11729 6.21388,9.56583 -1.71461,20.84878 9.98337,20.16704 -0.23364,11.99758 -0.56459,8.29686 4,12.71567 -1.75815,1.23743 -5.84271,17.9723 0,13 4.23496,11.61102 0.13409,42.19308 11.40614,42.78157 6.14337,-9.46671 6.4437,-12.70403 0.91848,-27.53319 C 417.83189,378.33951 407.52396,336.97289 396.258,296.147 377.6791,279.709 386.74626,249.75645 373.96638,229.37852 L 372,226 z"
     id="path528"
     inkscape:connector-curvature="0" />
  <path
     style="fill:#563c29;stroke:none"
     d="m 60,230 c -12.178181,11.03646 -2.3977,27.60239 0.05956,6.46814 C 59.714849,234.67129 64.474942,228.54087 60,230 z"
     id="path530"
     inkscape:connector-curvature="0" />
  <path
     style="fill:#8c6339;stroke:none"
     d="m 125,230 c -3.83863,9.71867 16.54385,-0.26392 8.19942,1.36657 C 130.46628,230.91105 127.73314,230.45552 125,230 z"
     id="path532"
     inkscape:connector-curvature="0" />
  <path
     style="fill:#b4906b;stroke:none"
     d="m 137,231 c 4.00559,2.41245 13.65627,0.50654 0,0 z"
     id="path534"
     inkscape:connector-curvature="0" />
  <path
     style="fill:#716452;stroke:none"
     d="m 312,231 c -11.52215,-0.65699 4.13653,18.42766 0,2.29399 l 0,-1.28433 L 312,231 z"
     id="path536"
     inkscape:connector-curvature="0" />
  <path
     style="fill:#563c29;stroke:none"
     d="m 136,232 c 4.00559,2.41245 13.65627,0.50654 0,0 z"
     id="path538"
     inkscape:connector-curvature="0" />
  <path
     style="fill:#d2b189;stroke:none"
     d="m 128,233 c -1.37021,12.59001 5.01584,0.80538 15.52899,6.843 -11.58208,-1.00191 1.31801,7.01139 5.47101,1.87267 3.7857,-11.31895 -8.50068,-7.31294 -15.39457,-8.44874 C 131.73695,233.17795 129.86848,233.08898 128,233 z"
     id="path540"
     inkscape:connector-curvature="0" />
  <path
     style="fill:#987e60;stroke:none"
     d="m 138,233 c 3.42961,2.398 8.9385,0.44585 0,0 z"
     id="path542"
     inkscape:connector-curvature="0" />
  <path
     style="fill:#1e1c18;stroke:none"
     d="m 150,233 c -1.33333,9.66667 -2.66667,19.33333 -4,29 5.28902,-3.26121 3.78258,-14.86775 6.42363,-21.38087 C 152.20232,237.00675 157.25472,230.97298 150,233 z"
     id="path544"
     inkscape:connector-curvature="0" />
  <path
     style="fill:#b4906b;stroke:none"
     d="m 290,233 c 5.73693,2.35952 15.72036,0.66392 0,0 z"
     id="path546"
     inkscape:connector-curvature="0" />
  <path
     style="fill:#563c29;stroke:none"
     d="m 284,234 c -1.40578,12.08194 2.71628,-4.4209 12.54899,0.51879 11.96924,-0.41599 14.11535,-0.62742 0.892,-0.51879 -4.48033,0 -8.96066,0 -13.44099,0 z"
     id="path548"
     inkscape:connector-curvature="0" />
  <path
     style="fill:#c6a37c;stroke:none"
     d="m 288,236 c 0.29778,9.44598 1.17412,-3.31524 3.21843,5.59386 9.14165,-4.90937 10.06491,4.47764 18.31358,-2.98056 C 313.15684,231.90278 294.13402,235.12955 288,236 z"
     id="path550"
     inkscape:connector-curvature="0" />
  <path
     style="fill:#563c29;stroke:none"
     d="m 126,235 c -1.74653,12.09251 0.50737,12.06938 0,0 z"
     id="path552"
     inkscape:connector-curvature="0" />
  <path
     style="fill:#96714f;stroke:none"
     d="m 282,235 c -2.1689,4.16074 -0.59399,5.56939 2.75165,15.30463 C 288.34445,253.38182 284.85154,235.45044 282,235 z"
     id="path554"
     inkscape:connector-curvature="0" />
  <path
     style="fill:#332e2a;stroke:none"
     d="m 285,235 c -4.12323,14.43171 9.25108,39.62478 4.49493,13.95272 C 287.77748,245.20723 290.88377,233.69387 285,235 z"
     id="path556"
     inkscape:connector-curvature="0" />
  <path
     style="fill:#795536;stroke:none"
     d="m 385,236 c 0.92908,3.99709 7.53847,23.31449 4.19616,11.18976 C 387.79744,243.45984 386.39872,239.72992 385,236 z"
     id="path558"
     inkscape:connector-curvature="0" />
  <path
     style="fill:#987e60;stroke:none"
     d="m 51,237 c -1.666667,8 -3.333333,16 -5,24 3.900409,-5.58326 6.899141,-16.329 5,-24 z"
     id="path560"
     inkscape:connector-curvature="0" />
  <path
     style="fill:#e4c6a3;stroke:none"
     d="m 128,239 c 1.60577,-2.18887 -4.70746,11.58364 -4.43962,17.33821 0.20754,6.19196 14.31396,1.62055 19.96778,3.59489 2.36572,-1.62946 6.5311,-18.48608 2.03499,-17.12082 -16.96118,-0.15565 -4.27451,-1.66937 -3.60151,-4.75726 C 132.71131,239.84363 136.30234,236.58225 128,239 z m 161,-2 c 0.66667,8.33333 1.33333,16.66667 2,25 6.70145,-0.9404 17.5814,1.82626 21.84698,-1.27519 C 311.89799,252.81654 310.94899,244.90827 310,237 c -7.4888,5.52956 -13.29747,7.29772 -13.43685,2.81228 C 291.70589,241.09355 289.1015,244.41118 289,237 z"
     id="path562"
     inkscape:connector-curvature="0" />
  <path
     style="fill:#8c6339;stroke:none"
     d="m 136.667,240.333 c 0.222,0.11133 0.222,0.11133 0,0 z"
     id="path564"
     inkscape:connector-curvature="0" />
  <path
     style="fill:#987e60;stroke:none"
     d="m 126,241 c -1.0475,3.77846 2.3319,4.5202 0,0 z"
     id="path566"
     inkscape:connector-curvature="0" />
  <path
     style="fill:#1e1c18;stroke:none"
     d="m 136,241 c -0.89637,5.85254 7.9953,-1.15661 0,0 z"
     id="path568"
     inkscape:connector-curvature="0" />
  <path
     style="fill:#8c6339;stroke:none"
     d="m 297.333,241.667 c 0.11133,0.222 0.11133,0.222 0,0 z"
     id="path570"
     inkscape:connector-curvature="0" />
  <path
     style="fill:#1e1c18;stroke:none"
     d="m 298,241 c -0.69922,6.19776 5.31909,-1.32585 0,0 z"
     id="path572"
     inkscape:connector-curvature="0" />
  <path
     style="fill:#795536;stroke:none"
     d="m 300.333,241.667 c 0.11133,0.222 0.11133,0.222 0,0 z"
     id="path574"
     inkscape:connector-curvature="0" />
  <path
     style="fill:#332e2a;stroke:none"
     d="m 151,242 c -1.74653,12.09251 0.50737,12.06938 0,0 z"
     id="path576"
     inkscape:connector-curvature="0" />
  <path
     style="fill:#1e1c18;stroke:none"
     d="m 379,242 c -4.02264,8.71936 19.90693,20.08873 8.07362,5.40475 L 383.26139,244.53259 379,242 z"
     id="path578"
     inkscape:connector-curvature="0" />
  <path
     style="fill:#716452;stroke:none"
     d="m 124,243 c 0.23808,5.15462 -9.90357,17.85706 -1,17 0.33333,-5.66667 0.66667,-11.33333 1,-17 z"
     id="path580"
     inkscape:connector-curvature="0" />
  <path
     style="fill:#b4906b;stroke:none"
     d="m 136,243 c 0.39279,2.72405 5.51394,0.11604 0,0 z"
     id="path582"
     inkscape:connector-curvature="0" />
  <path
     style="fill:#716452;stroke:none"
     d="m 148,243 c -1.0475,3.77846 2.3319,4.5202 0,0 z"
     id="path584"
     inkscape:connector-curvature="0" />
  <path
     style="fill:#795536;stroke:none"
     d="m 298.667,243.333 c 0.222,0.11133 0.222,0.11133 0,0 z"
     id="path586"
     inkscape:connector-curvature="0" />
  <path
     style="fill:#8c6339;stroke:none"
     d="m 57,245 c -1.047503,3.77846 2.331899,4.5202 0,0 z"
     id="path588"
     inkscape:connector-curvature="0" />
  <path
     style="fill:#563c29;stroke:none"
     d="m 147,248 c -0.81734,5.78094 1.93589,4.86677 0,0 z"
     id="path590"
     inkscape:connector-curvature="0" />
  <path
     style="fill:#b4906b;stroke:none"
     d="m 147,262 c 1.13477,11.61513 -0.15991,22.60897 -2.31648,33.68678 -0.99088,13.51453 -3.371,27.7749 -7.67017,39.13543 -4.37009,5.94315 -15.38818,6.08958 -19.09871,-0.2712 C 113.58833,327.79335 103.84731,330.39849 97,328 c 12.15915,5.56772 11.78666,9.89061 8.65337,10.55835 24.47788,13.45496 51.18616,22.92422 76.17392,35.64708 16.24227,2.04541 30.51395,24.35677 45.46723,12.5378 C 255.19634,372.49548 283.09817,358.24774 311,344 c -8.53559,-4.84643 -11.02395,1.12376 -12.56312,3.26661 -27.35968,9.66047 -50.90352,27.33391 -77.09475,39.20338 -24.05095,-2.1498 -44.27656,-21.3728 -68.42232,-26.66795 -10.42985,-1.18376 -28.00446,-19.65611 -11.40203,-10.38026 9.04488,11.43272 30.58848,8.74987 35.86717,18.5322 7.3027,-0.38472 13.49927,3.67361 19.99643,7.69252 5.6379,2.99554 26.31203,11.65892 19.08866,5.80914 -12.60684,-5.92901 -26.34735,-10.05506 -37.19307,-18.70678 -15.34379,-0.45311 -28.64134,-15.79235 -35.83359,-15.23078 -20.62606,-4.48482 12.54549,-25.35766 2.57792,-39.52531 1.8843,-13.77325 5.80994,-28.16775 3.9787,-38.13011 -1.50637,-9.8004 3.38891,-9.87007 4.49198,-19.83056 C 156.39059,244.25249 147.66848,261.44755 147,262 z m 136,-14 c -0.99823,12.88581 -5.07826,25.97113 0.13881,38.4546 2.57518,14.7398 3.44711,0.39244 2.86119,-6.58228 -3.60784,-10.57397 4.34724,-22.96117 -3,-31.87232 z"
     id="path592"
     inkscape:connector-curvature="0" />
  <path
     style="fill:#8d7061;stroke:none"
     d="m 312,248 c -0.56086,16.59023 6.39071,16.77917 0.69075,2.59031 C 312.4605,249.72687 312.23025,248.86344 312,248 z"
     id="path594"
     inkscape:connector-curvature="0" />
  <path
     style="fill:#716452;stroke:none"
     d="m 379,248 c 0.54344,10.08554 7.72193,14.17936 4.40614,8.21843 2.94789,12.17374 7.93805,10.35213 15.59386,21.78157 -1.68192,-11.77992 -7.63614,-26.14023 -20,-30 z"
     id="path596"
     inkscape:connector-curvature="0" />
  <path
     style="fill:#332e2a;stroke:none"
     d="m 395,250 c 3.23109,11.87725 -7.95006,-1.85753 -0.70153,12.73083 5.04563,12.20402 6.13454,25.4269 8.70153,38.26917 3.83484,-6.15684 2.39528,-13.86168 10,-6 -4.36226,-13.94392 -10.22525,-31.53211 -18,-45 z"
     id="path598"
     inkscape:connector-curvature="0" />
  <path
     style="fill:#94908c;stroke:none"
     d="m 396,250 c 1.45224,1.45224 1.08311,1.08311 0,0 z"
     id="path600"
     inkscape:connector-curvature="0" />
  <path
     style="fill:#563c29;stroke:none"
     d="m 41.3333,251.667 c 0.111133,0.222 0.111133,0.222 0,0 z"
     id="path602"
     inkscape:connector-curvature="0" />
  <path
     style="fill:#1e1c18;stroke:none"
     d="m 42.3333,251.667 c 0.111133,0.222 0.111133,0.222 0,0 z"
     id="path604"
     inkscape:connector-curvature="0" />
  <path
     style="fill:#563c29;stroke:none"
     d="m 43.3333,251.667 c 0.111133,0.222 0.111133,0.222 0,0 z"
     id="path606"
     inkscape:connector-curvature="0" />
  <path
     style="fill:#716452;stroke:none"
     d="m 146,252 c -1.0475,3.77846 2.3319,4.5202 0,0 z"
     id="path608"
     inkscape:connector-curvature="0" />
  <path
     style="fill:#987e60;stroke:none"
     d="m 395,252 c -0.61365,6.49657 1.87811,6.20041 0,0 z"
     id="path610"
     inkscape:connector-curvature="0" />
  <path
     style="fill:#1e1c18;stroke:none"
     d="m 54,254 c -6.407181,7.49063 -10.596484,18.76554 0.07332,3.76711 L 54,254 z"
     id="path612"
     inkscape:connector-curvature="0" />
  <path
     style="fill:#8d7061;stroke:none"
     d="m 290,254 c -0.81734,5.78094 1.93589,4.86677 0,0 z"
     id="path614"
     inkscape:connector-curvature="0" />
  <path
     style="fill:#b5a089;stroke:none"
     d="m 399.333,254.667 c 0.11133,0.222 0.11133,0.222 0,0 z"
     id="path616"
     inkscape:connector-curvature="0" />
  <path
     style="fill:#8d7061;stroke:none"
     d="m 55,255 c -1.763727,4.04826 -12.713321,20.96322 -3.367353,11.36735 C 56.263892,263.6729 54.837214,259.51466 55,255 z"
     id="path618"
     inkscape:connector-curvature="0" />
  <path
     style="fill:#94908c;stroke:none"
     d="m 383,255 c 0.86358,15.2758 6.21565,5.26312 0,0 z"
     id="path620"
     inkscape:connector-curvature="0" />
  <path
     style="fill:#716452;stroke:none"
     d="m 145,256 c -0.74788,5.56664 1.84789,9.65434 0,0 z"
     id="path622"
     inkscape:connector-curvature="0" />
  <path
     style="fill:#c6a37c;stroke:none"
     d="m 152,256 c -0.75198,4.45641 -4.36595,13.05111 -0.71567,19 -6.11437,17.96993 8.36232,-4.4599 2.36144,-15.25998 L 152,256 z"
     id="path624"
     inkscape:connector-curvature="0" />
  <path
     style="fill:#d8c7b4;stroke:none"
     d="m 40,257 c 1.144218,4.48659 5.058275,3.51157 0,0 z"
     id="path626"
     inkscape:connector-curvature="0" />
  <path
     style="fill:#795536;stroke:none"
     d="m 148,258 c -0.81734,5.78094 1.93589,4.86677 0,0 z"
     id="path628"
     inkscape:connector-curvature="0" />
  <path
     style="fill:#b5a089;stroke:none"
     d="m 123,259 c 5.34261,2.81796 14.99794,1.69748 22,3 -5.95742,-5.12032 -14.85901,-2.78145 -22,-3 z"
     id="path630"
     inkscape:connector-curvature="0" />
  <path
     style="fill:#96714f;stroke:none"
     d="m 286,259 c -0.846,9.51088 -1.9912,16.77593 0.65189,25.3885 1.44937,14.20383 2.89874,28.40767 4.34811,42.6115 9.73023,-3.63354 1.59646,11.60481 3,17.28433 6.15067,1.82111 21.37902,-2.36489 6.77225,-8.96107 -9.66289,-20.87735 -11.46582,-45.73533 -12.79625,-67.74401 L 287.65419,262.79434 286,259 z"
     id="path632"
     inkscape:connector-curvature="0" />
  <path
     style="fill:#bcb4ac;stroke:none"
     d="m 400,259 c 0.76061,6.69415 3.24938,6.56076 0,0 z"
     id="path634"
     inkscape:connector-curvature="0" />
  <path
     style="fill:#332e2a;stroke:none"
     d="m 41,261 c -3.808952,12.35729 14.532026,3.92928 2,4 -0.600775,-1.75392 1.598348,-5.2546 -2,-4 z"
     id="path636"
     inkscape:connector-curvature="0" />
  <path
     style="fill:#c6a37c;stroke:none"
     d="m 287,274 c 9.53538,4.49594 -0.14685,-17.87826 7,-7.43133 -2.1471,1.02523 31.05042,-6.3772 10.40243,-5.34473 C 295.97276,260.50929 283.75582,262.25486 287,274 z"
     id="path638"
     inkscape:connector-curvature="0" />
  <path
     style="fill:#bcb4ac;stroke:none"
     d="m 40,262 c -0.61365,6.49657 1.878107,6.20041 0,0 z"
     id="path640"
     inkscape:connector-curvature="0" />
  <path
     style="fill:#4a4f49;stroke:none"
     d="m 53,262 c -9.782745,6.50425 -9.430012,18.89035 -13,29 16.168994,-5.71248 -6.266053,1.12562 5.274034,-7.83636 C 49.413667,277.04429 54.918703,269.88434 53,262 z"
     id="path642"
     inkscape:connector-curvature="0" />
  <path
     style="fill:#d2b189;stroke:none"
     d="m 295,269 c -0.65942,-12.16592 -10.38102,1.97495 -2.43133,4 8.14378,0 16.28755,0 24.43133,0 1.88022,-14.35387 -16.80462,-13.65575 -22,-4 z"
     id="path644"
     inkscape:connector-curvature="0" />
  <path
     style="fill:#bcb4ac;stroke:none"
     d="m 402,264 c -1.0475,3.77846 2.3319,4.5202 0,0 z"
     id="path646"
     inkscape:connector-curvature="0" />
  <path
     style="fill:#756d6a;stroke:none"
     d="m 389,265 c 3.33333,8.66667 6.66667,17.33333 10,26 0.46676,-7.34683 -1.58199,-19.70582 -10,-26 z"
     id="path648"
     inkscape:connector-curvature="0" />
  <path
     style="fill:#1e1c18;stroke:none"
     d="m 40,267 c -3.165725,11.6432 -6.094029,23.37457 -12,34 8.407097,-12.45116 5.311456,12.21789 14,-5 -9.717236,-7.58365 14.043259,-31.39657 -2,-29 z"
     id="path650"
     inkscape:connector-curvature="0" />
  <path
     style="fill:#bcb4ac;stroke:none"
     d="m 403.333,268.667 c 0.11133,0.222 0.11133,0.222 0,0 z"
     id="path652"
     inkscape:connector-curvature="0" />
  <path
     style="fill:#94908c;stroke:none"
     d="m 38,270 c -1.857047,7.97292 0.457591,9.65225 0,0 z"
     id="path654"
     inkscape:connector-curvature="0" />
  <path
     style="fill:#382615;stroke:none"
     d="m 117,270 c 12.67407,6.59988 33.58287,-3.31657 25.2555,19.23048 C 140.91232,307.99581 137.19432,328.23188 121,340 c 24.85159,-9.94188 19.1442,-42.21652 25.73532,-63.23741 1.7263,-7.81305 -15.197,-3.53943 -21.74584,-5.98941 C 122.32632,270.51545 119.66316,270.25773 117,270 z"
     id="path656"
     inkscape:connector-curvature="0" />
  <path
     style="fill:#756d6a;stroke:none"
     d="m 126,270 c 2.83916,2.45803 7.02273,0.33781 0,0 z"
     id="path658"
     inkscape:connector-curvature="0" />
  <path
     style="fill:#795536;stroke:none"
     d="m 118,272 c -1.66667,14.66667 -3.33333,29.33333 -5,44 3.24095,-5.63434 2.84127,-15.54355 4.68114,-22.82306 C 119.60593,286.12695 118.57807,279.14652 118,272 z"
     id="path660"
     inkscape:connector-curvature="0" />
  <path
     style="fill:#e4c6a3;stroke:none"
     d="m 120,272 c 4.65245,14.17152 -4.9692,24.24004 -4.72271,39.19365 C 106.61332,327.14606 129.24487,349.30584 132,324 c 8.27012,-11.61252 12.31598,-41.45572 7.16148,-50.33378 C 132.77432,273.11081 126.38716,272.55541 120,272 z"
     id="path662"
     inkscape:connector-curvature="0" />
  <path
     style="fill:#987e60;stroke:none"
     d="m 122,272 c 5.73693,2.35952 15.72036,0.66392 0,0 z"
     id="path664"
     inkscape:connector-curvature="0" />
  <path
     style="fill:#4a4f49;stroke:none"
     d="m 144,272 c 0.39279,2.72405 5.51394,0.11604 0,0 z"
     id="path666"
     inkscape:connector-curvature="0" />
  <path
     style="fill:#94908c;stroke:none"
     d="m 404.333,272.667 c 0.11133,0.222 0.11133,0.222 0,0 z"
     id="path668"
     inkscape:connector-curvature="0" />
  <path
     style="fill:#8d7061;stroke:none"
     d="m 137,273 c 3.42961,2.398 8.9385,0.44585 0,0 z"
     id="path670"
     inkscape:connector-curvature="0" />
  <path
     style="fill:#563c29;stroke:none"
     d="m 292,273 c 5.70221,2.56978 15.73078,0.9897 23.09798,1.96242 -0.70874,14.09879 7.40709,-2.23516 -0.95098,-1.96242 -7.38234,0 -14.76467,0 -22.147,0 z"
     id="path672"
     inkscape:connector-curvature="0" />
  <path
     style="fill:#d8c7b4;stroke:none"
     d="m 34,274 c -11.994073,22.48717 9.442831,-4.49971 0,0 z"
     id="path674"
     inkscape:connector-curvature="0" />
  <path
     style="fill:#332e2a;stroke:none"
     d="m 287,275 c 2.59657,6.9887 3.16836,16.62833 7,22 -1.1519,-7.10734 0.90162,-18.16965 -2.26686,-22.78886 C 290.15543,274.4741 288.57771,274.73705 287,275 z"
     id="path676"
     inkscape:connector-curvature="0" />
  <path
     style="fill:#8d7061;stroke:none"
     d="m 49,275 c -2.161321,5.57529 -13.733397,17.54434 -1,13 -4.441768,-2.65768 1.071961,-9.07006 1,-13 z"
     id="path678"
     inkscape:connector-curvature="0" />
  <path
     style="fill:#d2b189;stroke:none"
     d="m 293,275 c 0.73331,20.56149 0.14553,42.78845 10.59938,61.18513 22.91421,11.8059 14.02075,-32.85766 12.64934,-46.18533 3.51819,-16.0184 -6.92373,-16.28617 -19.2294,-14.9998 -1.33978,0 -2.67955,0 -4.01932,0 z"
     id="path680"
     inkscape:connector-curvature="0" />
  <path
     style="fill:#987e60;stroke:none"
     d="m 315,275 c -0.74788,5.56664 1.84789,9.65434 0,0 z"
     id="path682"
     inkscape:connector-curvature="0" />
  <path
     style="fill:#94908c;stroke:none"
     d="m 405.333,275.667 c 0.11133,0.222 0.11133,0.222 0,0 z"
     id="path684"
     inkscape:connector-curvature="0" />
  <path
     style="fill:#4a4f49;stroke:none"
     d="m 142,276 c -0.74788,5.56664 1.84789,9.65434 0,0 z m 4,0 c -3.10409,11.20007 -0.77292,11.14737 0,0 z"
     id="path686"
     inkscape:connector-curvature="0" />
  <path
     style="fill:#716452;stroke:none"
     d="m 36.3333,278.667 c 0.111133,0.222 0.111133,0.222 0,0 z"
     id="path688"
     inkscape:connector-curvature="0" />
  <path
     style="fill:#94908c;stroke:none"
     d="m 49,278 c -6.054248,9.90692 2.048119,11.21308 0,0 z m 357.333,0.667 0.334,0.666 -0.334,-0.666 z M 35,280 c -1.047503,3.77846 2.331899,4.5202 0,0 z"
     id="path690"
     inkscape:connector-curvature="0" />
  <path
     style="fill:#e7ded1;stroke:none"
     d="m 50,280 c -2.07477,12.97653 4.119598,-0.23127 0,0 z"
     id="path692"
     inkscape:connector-curvature="0" />
  <path
     style="fill:#b4906b;stroke:none"
     d="m 52,280 c -8.898129,10.07168 0.492159,42.77777 4.4186,15.57288 C 57.55535,286.15147 49.010562,292.58593 52,280 z"
     id="path694"
     inkscape:connector-curvature="0" />
  <path
     style="fill:#795536;stroke:none"
     d="m 317,280 c 0.33333,9.33333 0.66667,18.66667 1,28 3.88688,-6.95503 1.39742,-19.6315 -1,-28 z"
     id="path696"
     inkscape:connector-curvature="0" />
  <path
     style="fill:#c6a37c;stroke:none"
     d="m 119,281 c 1.7712,2.3616 6.26658,8.35544 0,0 z"
     id="path698"
     inkscape:connector-curvature="0" />
  <path
     style="fill:#bcb4ac;stroke:none"
     d="m 396,283 c -1.0475,3.77846 2.3319,4.5202 0,0 z"
     id="path700"
     inkscape:connector-curvature="0" />
  <path
     style="fill:#94908c;stroke:none"
     d="m 398,284 c 3.47107,16.27303 7.65741,2.24876 0,0 z"
     id="path702"
     inkscape:connector-curvature="0" />
  <path
     style="fill:#716452;stroke:none"
     d="m 401,284 c -0.14542,8.66395 2.86204,20.12678 0.72857,5.10002 C 401.48572,287.40001 401.24286,285.70001 401,284 z"
     id="path704"
     inkscape:connector-curvature="0" />
  <path
     style="fill:#ffffff;stroke:none"
     d="m 49,285 c -2.78368,12.1951 -0.997696,15.10938 0,0 z"
     id="path706"
     inkscape:connector-curvature="0" />
  <path
     style="fill:#987e60;stroke:none"
     d="m 144,285 c -0.96411,18.62159 -9.00728,39.67985 -14,54 11.18309,-4.13115 11.92552,-18.81195 14.11759,-30.12569 C 138.5639,301.72482 151.64336,289.24015 144,285 z"
     id="path708"
     inkscape:connector-curvature="0" />
  <path
     style="fill:#94908c;stroke:none"
     d="m 34.3333,286.667 c 0.111133,0.222 0.111133,0.222 0,0 z"
     id="path710"
     inkscape:connector-curvature="0" />
  <path
     style="fill:#795536;stroke:none"
     d="m 289,286 c -0.61365,6.49657 1.87811,6.20041 0,0 z"
     id="path712"
     inkscape:connector-curvature="0" />
  <path
     style="fill:#bcb4ac;stroke:none"
     d="m 397,287 c -1.0475,3.77846 2.3319,4.5202 0,0 z m -364,1 c -1.047503,3.77846 2.331899,4.5202 0,0 z"
     id="path714"
     inkscape:connector-curvature="0" />
  <path
     style="fill:#987e60;stroke:none"
     d="m 116,288 c -0.81734,5.78094 1.93589,4.86677 0,0 z"
     id="path716"
     inkscape:connector-curvature="0" />
  <path
     style="fill:#d8c7b4;stroke:none"
     d="m 388.333,288.667 c 0.11133,0.222 0.11133,0.222 0,0 z"
     id="path718"
     inkscape:connector-curvature="0" />
  <path
     style="fill:#94908c;stroke:none"
     d="m 414,288 c -0.81734,5.78094 1.93589,4.86677 0,0 z"
     id="path720"
     inkscape:connector-curvature="0" />
  <path
     style="fill:#716452;stroke:none"
     d="m 45,290 c -11.621579,-2.93343 5.792108,20.32382 1.155427,6.93256 C 45.770285,294.62171 45.385142,292.31085 45,290 z"
     id="path722"
     inkscape:connector-curvature="0" />
  <path
     style="fill:#d8c7b4;stroke:none"
     d="m 46,290 c 2.081502,7.28526 2.652957,9.28535 0,0 z"
     id="path724"
     inkscape:connector-curvature="0" />
  <path
     style="fill:#8d7061;stroke:none"
     d="m 140,290 c -0.81734,5.78094 1.93589,4.86677 0,0 z"
     id="path726"
     inkscape:connector-curvature="0" />
  <path
     style="fill:#987e60;stroke:none"
     d="m 294,290 c -0.79057,8.30654 1.8398,12.40278 0,0 z"
     id="path728"
     inkscape:connector-curvature="0" />
  <path
     style="fill:#94908c;stroke:none"
     d="m 407,292 c 3.05991,-1.01997 4.8168,-1.6056 0,0 z"
     id="path730"
     inkscape:connector-curvature="0" />
  <path
     style="fill:#d2b189;stroke:none"
     d="m 58,291 c -1.604218,15.64855 -8.80249,19.13764 -16.652735,8.6066 C 31.984955,319.33225 34.055989,341.42064 25.5941,362 17.256419,386.79203 20.936589,414.84245 8.4206014,438.16698 -0.18208862,457.48127 21.490732,486.90724 35.715665,484 c -6.532434,-1.56345 12.494801,-2.34758 16.431523,-3.12747 8.58818,-0.4594 9.476642,-4.63088 19.67197,-3.66037 C 117.47221,473.68863 163.22824,472.58762 209,472 c 8.99037,7.90137 10.21092,-4.90755 9,-11.55901 -1.51019,-11.95756 3.36436,-12.21225 2,-0.16631 -0.97098,9.01853 -1.05283,17.10439 10.26294,13.23445 45.95811,-2.89181 92.01377,0.18379 138.01989,0.14707 16.60162,0.69503 33.19092,1.56693 49.71717,3.3438 7.22377,-1.96503 19.6624,-23.8134 17,-39 -1.60193,6.77633 -9.64751,14.48142 -8.97993,1.35655 C 423.76316,427.30266 424.37688,414.50351 420,403 c -6.62778,5.54331 -0.39078,-15.04551 0,-13 -4.56687,-3.82794 -4.19917,-2.0526 -4,-13.84335 -15.19519,4.25818 0.38694,-16.91597 -13.46605,-26.43976 C 394.75956,345.7452 399.65761,331.97909 394,343 c -3,-12 -6,-24 -9,-36 -20.80652,4.23135 -36.61112,18.26409 -53.63494,27.53582 -6.41821,8.17676 -9.82274,11.49877 -19.4769,11.953 -10.28128,-0.89923 -19.26695,6.93388 -28.85315,10.1179 C 261.02334,368.40448 239.01167,380.20224 217,392 197.80462,377.0956 172.34341,371.61099 151.07647,359.50641 127.35106,351.16193 107.83636,337.08042 85.281011,327.78585 76.083374,326.08193 43.732016,302.69713 66.199127,315.43953 c 6.744578,2.89561 13.640944,2.39146 19.721122,8.32062 7.104324,6.35091 15.992411,7.29766 25.110661,7.89055 7.93506,2.03189 -1.17405,-23.6753 -2.06716,-7.9482 -12.918376,6.47537 -50.091617,-7.7285 -47.209055,-29.03898 L 60.427514,292.76606 58,291 z"
     id="path732"
     inkscape:connector-curvature="0" />
  <path
     style="fill:#d8c7b4;stroke:none"
     d="m 408,291 c 1.31484,8.04472 4.7277,11.8359 0,0 z"
     id="path734"
     inkscape:connector-curvature="0" />
  <path
     style="fill:#716452;stroke:none"
     d="m 407,292 c -8.71652,12.79513 8.50644,9.50279 0,0 z"
     id="path736"
     inkscape:connector-curvature="0" />
  <path
     style="fill:#d8c7b4;stroke:none"
     d="m 400,293 c 0.28202,6.48325 4.63798,-0.76897 0,0 z"
     id="path738"
     inkscape:connector-curvature="0" />
  <path
     style="fill:#94908c;stroke:none"
     d="m 117,294 c -0.61365,6.49657 1.87811,6.20041 0,0 z"
     id="path740"
     inkscape:connector-curvature="0" />
  <path
     style="fill:#716452;stroke:none"
     d="m 27,295 c -0.61365,6.49657 1.878107,6.20041 0,0 z"
     id="path742"
     inkscape:connector-curvature="0" />
  <path
     style="fill:#4a4f49;stroke:none"
     d="m 411,295 c -2.20904,12.02547 2.75226,7.54793 0,0 z"
     id="path744"
     inkscape:connector-curvature="0" />
  <path
     style="fill:#94908c;stroke:none"
     d="m 412,295 c -0.71419,6.85975 1.12858,22.53174 0.4874,7.31106 C 412.32494,299.87404 412.16247,297.43702 412,295 z"
     id="path746"
     inkscape:connector-curvature="0" />
  <path
     style="fill:#8d7061;stroke:none"
     d="m 31,296 c 5.549797,16.25075 7.511106,0.73431 0,0 z"
     id="path748"
     inkscape:connector-curvature="0" />
  <path
     style="fill:#382615;stroke:none"
     d="m 391,296 c -2.04612,9.8905 5.26183,-1.17148 0,0 z"
     id="path750"
     inkscape:connector-curvature="0" />
  <path
     style="fill:#ffffff;stroke:none"
     d="m 31,297 c -4.379832,14.12022 4.188967,1.00845 0,0 z"
     id="path752"
     inkscape:connector-curvature="0" />
  <path
     style="fill:#382615;stroke:none"
     d="m 293,297 c -3.7846,14.29138 8.6024,49.445 15.44265,42.82637 C 295.62818,328.24446 297.59227,311.66454 293,297 z"
     id="path754"
     inkscape:connector-curvature="0" />
  <path
     style="fill:#b5a089;stroke:none"
     d="m 397,297 c -0.60836,11.5782 1.69606,10.92933 0,0 z m -367,1 c -2.423128,10.16293 0.653399,9.91608 3,9.56867 2.560968,9.42365 -0.281844,-5.95801 -3,-7.42167 L 30,298.86266 30,298 z"
     id="path756"
     inkscape:connector-curvature="0" />
  <path
     style="fill:#b4906b;stroke:none"
     d="m 287,298 c 0.33333,10 0.66667,20 1,30 7.14952,-7.87844 2.28376,-21.34338 -1,-30 z"
     id="path758"
     inkscape:connector-curvature="0" />
  <path
     style="fill:#bcb4ac;stroke:none"
     d="m 402,298 c -0.61365,6.49657 1.87811,6.20041 0,0 z m 3,0 c -1.75835,6.63951 4.87464,-0.92729 0,0 z"
     id="path760"
     inkscape:connector-curvature="0" />
  <path
     style="fill:#382615;stroke:none"
     d="m 44,299 c 0.261033,9.73171 5.136514,-0.94134 0,0 z"
     id="path762"
     inkscape:connector-curvature="0" />
  <path
     style="fill:#4a4f49;stroke:none"
     d="m 404,299 c -0.23924,14.14249 5.34708,12.60888 0,0 z"
     id="path764"
     inkscape:connector-curvature="0" />
  <path
     style="fill:#d8c7b4;stroke:none"
     d="m 406,299 c -0.74788,5.56664 1.84789,9.65434 0,0 z m -374,1 c -0.817344,5.78094 1.935895,4.86677 0,0 z"
     id="path766"
     inkscape:connector-curvature="0" />
  <path
     style="fill:#987e60;stroke:none"
     d="m 408,300 c -6.32234,5.77056 2.5739,12.70358 0,0 z"
     id="path768"
     inkscape:connector-curvature="0" />
  <path
     style="fill:#e4c6a3;stroke:none"
     d="m 413,301 c 2.25403,14.43688 -3.78496,2.86885 -3.80299,4.5611 C 408.23732,322.03093 415.14586,316.98635 413,301 z"
     id="path770"
     inkscape:connector-curvature="0" />
  <path
     style="fill:#795536;stroke:none"
     d="m 46,302 c 3.945311,9.85596 9.072689,6.53309 0,0 z"
     id="path772"
     inkscape:connector-curvature="0" />
  <path
     style="fill:#e4c6a3;stroke:none"
     d="m 364,310 c -6.44159,4.08457 -12.08346,10.27168 -19.20262,10.32157 -4.36958,3.33849 -17.53604,9.0519 -16.63668,11.12862 C 346.7738,322.63346 365.3869,313.81673 384,305 c -1.05862,-6.28617 -13.44661,4.16152 -19.07959,4.63184 L 364,310 z"
     id="path774"
     inkscape:connector-curvature="0" />
  <path
     style="fill:#ffffff;stroke:none"
     d="m 35,318 c 4.742584,-9.43376 2.732211,-23.70663 -1.01293,-4.43738 L 35,318 z"
     id="path776"
     inkscape:connector-curvature="0" />
  <path
     style="fill:#b5a089;stroke:none"
     d="m 116,304 c -0.81734,5.78094 1.93589,4.86677 0,0 z"
     id="path778"
     inkscape:connector-curvature="0" />
  <path
     style="fill:#94908c;stroke:none"
     d="m 403,304 c -1.0475,3.77846 2.3319,4.5202 0,0 z"
     id="path780"
     inkscape:connector-curvature="0" />
  <path
     style="fill:#8c6339;stroke:none"
     d="m 408,304 c -2.38289,9.75662 1.83568,16.90632 0.25339,3.04071 C 408.16893,306.02714 408.08446,305.01357 408,304 z"
     id="path782"
     inkscape:connector-curvature="0" />
  <path
     style="fill:#987e60;stroke:none"
     d="m 31,305 c -1.633211,6.96278 -3.824491,-2.70293 -3,9 7.004032,-8.45122 3.379678,17.51301 5,-0.70601 -0.967262,-2.29866 2.173329,-9.32364 -2,-8.29399 z m 378,1 c -5.05954,10.95519 2.83632,16.08799 0,0 z"
     id="path784"
     inkscape:connector-curvature="0" />
  <path
     style="fill:#563c29;stroke:none"
     d="m 319,307 c 5.93229,10.49637 -10.70436,35.8444 -4.69625,33.24003 C 323.35864,332.24873 322.87247,317.39908 319,307 z"
     id="path786"
     inkscape:connector-curvature="0" />
  <path
     style="fill:#987e60;stroke:none"
     d="m 318,308 c -0.81734,5.78094 1.93589,4.86677 0,0 z"
     id="path788"
     inkscape:connector-curvature="0" />
  <path
     style="fill:#8d7061;stroke:none"
     d="m 404,308 c 2.83377,3.95018 5.33199,3.28084 0,0 z"
     id="path790"
     inkscape:connector-curvature="0" />
  <path
     style="fill:#e4c6a3;stroke:none"
     d="m 56,310 c 16.448415,12.10728 35.880509,18.88029 54,28 C 100.75271,326.91666 82.526775,323.87044 71.262037,317.93449 66.140111,315.68055 61.08042,312.57336 56,310 z"
     id="path792"
     inkscape:connector-curvature="0" />
  <path
     style="fill:#94908c;stroke:none"
     d="m 296,310 c 0.7137,12.30511 2.8938,11.83953 0,0 z"
     id="path794"
     inkscape:connector-curvature="0" />
  <path
     style="fill:#d8c7b4;stroke:none"
     d="m 30,311 c -4.52397,7.44329 6.595775,17.63507 2.253393,3.04071 C 31.837535,312.1151 32.986351,310.17632 30,311 z"
     id="path796"
     inkscape:connector-curvature="0" />
  <path
     style="fill:#bcb4ac;stroke:none"
     d="m 404,311 c 0.64691,12.87893 7.36383,0.1532 0,0 z"
     id="path798"
     inkscape:connector-curvature="0" />
  <path
     style="fill:#756d6a;stroke:none"
     d="m 137,313 c -1.0475,3.77846 2.3319,4.5202 0,0 z"
     id="path800"
     inkscape:connector-curvature="0" />
  <path
     style="fill:#d8c7b4;stroke:none"
     d="m 36,315 c -1.112173,4.44869 -1.462472,5.84989 0,0 z"
     id="path802"
     inkscape:connector-curvature="0" />
  <path
     style="fill:#e4c6a3;stroke:none"
     d="m 56,315 c -3.513474,11.42975 0.687858,10.12848 0.36102,17.3898 -1.864182,9.10376 -2.707189,17.10099 8.747925,11.77221 5.23726,7.82492 -5.590994,7.67575 -8.725167,14.85827 C 49.98538,363.11506 56.007984,378.30339 46,376 c -4.969391,7.10094 -4.850488,15.74249 -6,24 -11.463166,2.60796 -6.361303,9.16477 -10.734378,15.14519 -8.970214,14.68852 4.138478,16.35717 11.981587,6.9194 10.582941,-6.72177 0.358234,-4.52361 6.752791,-9.63326 6.725555,-1.67123 4.933187,-4.1324 9.284335,-8.43133 5.834477,-1.35665 7.951537,-9.9597 6.226483,-11.07738 10.298246,-9.13243 -0.843199,-18.31024 14.995668,-22.34215 3.449619,-5.7508 14.920988,-1.96296 19.68439,-12.36502 2.291914,-7.04943 12.823114,-18.95802 -0.485736,-20.47266 C 86.145948,326.26522 71.454518,321.62208 57.465319,315.91582 L 56.376205,315.23513 56,315 z"
     id="path804"
     inkscape:connector-curvature="0" />
  <path
     style="fill:#987e60;stroke:none"
     d="m 114,315 c -0.53032,12.23044 1.71084,11.95153 0,0 z"
     id="path806"
     inkscape:connector-curvature="0" />
  <path
     style="fill:#8c6339;stroke:none"
     d="m 33,316 c -2.354828,8.53907 4.805602,8.98696 0,0 z"
     id="path808"
     inkscape:connector-curvature="0" />
  <path
     style="fill:#563c29;stroke:none"
     d="m 113,316 c -3.02971,15.07229 13.29099,31.22413 3.35877,9.65645 C 115.23918,322.43763 114.11959,319.21882 113,316 z"
     id="path810"
     inkscape:connector-curvature="0" />
  <path
     style="fill:#8d7061;stroke:none"
     d="m 319,319 c -0.74788,5.56664 1.84789,9.65434 0,0 z"
     id="path812"
     inkscape:connector-curvature="0" />
  <path
     style="fill:#b5a089;stroke:none"
     d="m 132,324 c 0.33237,10.27279 6.44158,-2.4536 0,0 z"
     id="path814"
     inkscape:connector-curvature="0" />
  <path
     style="fill:#716452;stroke:none"
     d="m 300.333,330.667 c 0.11133,0.222 0.11133,0.222 0,0 z"
     id="path816"
     inkscape:connector-curvature="0" />
  <path
     style="fill:#d8c7b4;stroke:none"
     d="m 30,336 c -1.822185,8.32217 0.292068,12.3137 0,0 z"
     id="path818"
     inkscape:connector-curvature="0" />
  <path
     style="fill:#94908c;stroke:none"
     d="m 121.667,337.333 c 0.222,0.11133 0.222,0.11133 0,0 z"
     id="path820"
     inkscape:connector-curvature="0" />
  <path
     style="fill:#d8c7b4;stroke:none"
     d="m 408,337 c 0.53612,8.43155 3.12154,9.12446 0,0 z"
     id="path822"
     inkscape:connector-curvature="0" />
  <path
     style="fill:#bcb4ac;stroke:none"
     d="m 28,349 c -2.78368,12.1951 -0.997696,15.10938 0,0 z"
     id="path824"
     inkscape:connector-curvature="0" />
  <path
     style="fill:#987e60;stroke:none"
     d="m 284,349 c -0.69922,6.19776 5.31909,-1.32585 0,0 z m -47,24 c -0.69922,6.19776 5.31909,-1.32585 0,0 z"
     id="path826"
     inkscape:connector-curvature="0" />
  <path
     style="fill:#bcb4ac;stroke:none"
     d="m 424,393 c 0.53612,8.43155 3.12154,9.12446 0,0 z"
     id="path828"
     inkscape:connector-curvature="0" />
  <path
     style="fill:#d8c7b4;stroke:none"
     d="m 17,402 c -0.747876,5.56664 1.847886,9.65434 0,0 z"
     id="path830"
     inkscape:connector-curvature="0" />
  <path
     style="fill:#b5a089;stroke:none"
     d="m 218,450 c -0.66973,7.48403 1.30063,16.06163 -0.90816,22.90816 -5.16577,2.66848 -13.64653,-3.22161 -20.92492,-0.39484 C 150.44461,474.34222 104.72231,476.17111 59,478 c -7.699783,4.31985 -0.538592,2.53451 9.12768,3 50.29077,0 100.58155,0 150.87232,0 0.33333,-10.33333 0.66667,-20.66667 1,-31 l -1.28433,0 L 218,450 z"
     id="path832"
     inkscape:connector-curvature="0" />
  <path
     style="fill:#987e60;stroke:none"
     d="m 219,466 c 0.0392,7.95755 -2.70883,18.70239 8.99034,15 18.54922,-0.36727 6.87003,0.40662 -5.49359,-1.95368 C 218.10781,476.10608 220.8154,470.12441 219,466 z"
     id="path834"
     inkscape:connector-curvature="0" />
  <path
     style="fill:#e7ded1;stroke:none"
     d="m 13,468 c -0.817344,5.78094 1.935895,4.86677 0,0 z m 415,0 c -6.53453,21.68345 -30.22379,14.24871 -46.99034,15 C 266.33452,482.57796 151.67274,484.8409 37,485 c 15.138919,6.74712 35.213993,-0.0297 52.24393,0.75929 59.50233,-0.64325 119.00314,-2.7577 178.50618,-0.36144 40.84008,0.56294 81.75955,1.17733 122.57223,0.10688 12.83062,2.08272 47.36952,0.77684 38.23143,-17.22785 L 428,468 z"
     id="path836"
     inkscape:connector-curvature="0" />
  <path
     style="fill:#c5916b;stroke:none"
     d="m 220,474 c 3.30608,9.5582 30.96135,3.64215 46.56117,2.78758 21.32786,-1.04726 52.82248,-1.01194 68.1545,1.21242 -10.23856,0 -20.47711,0 -30.71567,0 5.7062,2.43688 15.74178,0.62309 23.11413,1.42411 28.62862,0.5253 57.25725,1.05059 85.88587,1.57589 -6.88339,1.95832 -26.88627,0.79279 -4.50127,2.22175 15.90523,-1.05395 17.05692,-12.0089 5.66409,-6.57058 C 362.9471,471.37986 311.38583,473.69117 260,472.039 c -13.33333,0.65367 -26.66667,1.30733 -40,1.961 z"
     id="path838"
     inkscape:connector-curvature="0" />
  <path
     style="fill:#b4906b;stroke:none"
     d="m 224,476 c 16.16581,9.38413 42.1632,2.92092 62.01055,4.85295 C 317.00703,480.57286 348.00142,480.00001 379,480 c -5.70716,-2.33218 -15.74443,-0.33425 -23.11802,-1 -17.29399,0 -34.58799,0 -51.88198,0 5.70716,-2.33218 15.74443,-0.33425 23.11802,-1 22.72714,-0.42266 -16.85854,-1.73928 -23.50832,-1.50538 C 277.1209,472.99516 249.59244,483.14233 224,476 z"
     id="path840"
     inkscape:connector-curvature="0" />
  <path
     style="fill:#563c29;stroke:none"
     d="m 379,479 c 3.78683,4.69365 17.14913,0.99219 2.15467,0.39176 L 379.89106,479.16201 379,479 z"
     id="path842"
     inkscape:connector-curvature="0" />
  <path
     style="fill:#716452;stroke:none"
     d="m 388,479 c 4.78903,3.98863 -12.46401,1.14121 -17.26502,2 -103.24499,0 -206.48999,0 -309.73498,0 5.707157,2.33236 15.744432,0.33474 23.118022,1.00072 C 193.74535,482.00647 303.37267,482.00139 413,482 c -8.33333,-1 -16.66667,-2 -25,-3 z"
     id="path844"
     inkscape:connector-curvature="0" />
  <path
     style="fill:#563c29;stroke:none"
     d="m 51,484 c 10.24716,0.36665 21.784504,-2.86719 3.093295,-2.40414 L 51,484 z m 21,-3 c 5.707157,2.33218 15.744432,0.33425 23.118022,1 5.231988,-0.0496 -13.376417,-0.55743 -17.652192,-0.78978 C 75.643886,481.14015 73.821943,481.07007 72,481 z"
     id="path846"
     inkscape:connector-curvature="0" />
  <path
     style="fill:#987e60;stroke:none"
     d="m 33,483 c 5.707157,2.33218 15.744432,0.33425 23.118022,1 14.521626,0.65092 1.865221,-2.46983 -5.400581,-1.9325 C 44.811627,482.37834 38.905814,482.68917 33,483 z"
     id="path848"
     inkscape:connector-curvature="0" />
  <path
     style="fill:#94908c;stroke:none"
     d="m 183,482 c 5.70716,2.33218 15.74443,0.33425 23.11802,1 13.21332,0.0906 -7.65278,-0.40611 -12.08802,-0.61966 C 190.35333,482.25356 186.67667,482.12678 183,482 z"
     id="path850"
     inkscape:connector-curvature="0" />
  <path
     style="fill:#987e60;stroke:none"
     d="m 235,482 c 5.33443,2.33224 14.99927,0.33406 22,1 -7.33333,-0.33333 -14.66667,-0.66667 -22,-1 z"
     id="path852"
     inkscape:connector-curvature="0" />
  <path
     style="fill:#bcb4ac;stroke:none"
     d="m 257,482 c 5.70716,2.33218 15.74443,0.33425 23.11802,1 38.96066,0 77.92132,0 116.88198,0 -20.43415,-5.12627 -41.67907,0.48668 -62.54935,-1 -25.81689,0 -51.63377,0 -77.45065,0 z m -193,1 c 5.707157,2.33218 15.744432,0.33425 23.118022,1 C 140.41201,484 193.70601,484 247,484 200.36735,481.83584 153.62711,483.54756 106.94959,483 92.633057,483 78.316529,483 64,483 z"
     id="path854"
     inkscape:connector-curvature="0" />
</svg>
