<?xml version="1.0" encoding="UTF-8" standalone="no"?>
<svg
   xmlns:dc="http://purl.org/dc/elements/1.1/"
   xmlns:cc="http://creativecommons.org/ns#"
   xmlns:rdf="http://www.w3.org/1999/02/22-rdf-syntax-ns#"
   xmlns:svg="http://www.w3.org/2000/svg"
   xmlns="http://www.w3.org/2000/svg"
   xmlns:sodipodi="http://sodipodi.sourceforge.net/DTD/sodipodi-0.dtd"
   xmlns:inkscape="http://www.inkscape.org/namespaces/inkscape"
   width="500"
   height="569"
   id="svg2"
   version="1.1"
   inkscape:version="0.48.4 r9939"
   sodipodi:docname="Fwd-2016-Newest-Popular-handbag-designs-from-Ceso-40-2016022459.svg">
  <metadata
     id="metadata884">
    <rdf:RDF>
      <cc:Work
         rdf:about="">
        <dc:format>image/svg+xml</dc:format>
        <dc:type
           rdf:resource="http://purl.org/dc/dcmitype/StillImage" />
        <dc:title></dc:title>
      </cc:Work>
    </rdf:RDF>
  </metadata>
  <defs
     id="defs882" />
  <sodipodi:namedview
     pagecolor="#ffffff"
     bordercolor="#666666"
     borderopacity="1"
     objecttolerance="10"
     gridtolerance="10"
     guidetolerance="10"
     inkscape:pageopacity="0"
     inkscape:pageshadow="2"
     inkscape:window-width="640"
     inkscape:window-height="480"
     id="namedview880"
     showgrid="false"
     inkscape:zoom="0.41476274"
     inkscape:cx="78.226159"
     inkscape:cy="250.51516"
     inkscape:window-x="685"
     inkscape:window-y="36"
     inkscape:window-maximized="0"
     inkscape:current-layer="svg2" />
  <path
     style="fill:#b2b2b8; stroke:none;"
     d="M233 0L233 1L240 1L233 0z"
     id="path6" />
  <path
     style="fill:#26242c; stroke:none;"
     d="M 235.96875 1.0625 C 225.2145 1.2825806 213.09472 14.324859 216 25 C 207.482 30.0836 205.18825 46.3308 201.03125 55 C 193.51025 70.6829 189.5145 88.5147 184.0625 105 C 177.9515 123.481 168.68525 141.254 163.53125 160 C 160.90825 169.54 158.55425 179.216 156.90625 189 C 156.26725 192.791 156.97375 199.21475 154.09375 202.09375 C 150.45075 205.73775 138.899 206.282 134 206 L 134 207 L 137 207 C 142.229 212.984 153.693 204.1 158 211 L 155 209 L 154 218 L 156 218 L 161 210 L 160 219 L 160 220 L 158 224 L 159 224 L 160 222 L 164 224 C 164 227.363 163.284 230.204 167 231 L 167 237 L 168 237 C 168.583 232.06 166.04275 222.3685 169.59375 218.5625 C 176.40875 211.2585 199.797 214 209 214 C 238.307 214 268.915 212.1235 298 214.0625 C 304.581 214.5015 310.33 217.926 317 218 L 317 230 L 332 228 L 332 218 L 346 218 L 349 238 L 352 237 L 349 218 L 374 217 L 374 215 L 355 215 L 355 214 L 364 214 L 364 212 L 330 212 C 326.091 200.185 325.67075 187.22 322.09375 175 C 311.03775 137.227 297.06675 102.286 281.34375 66 C 274.56375 50.3538 269.39325 33.8616 260.90625 19 C 255.78625 10.0361 247.996 1.73608 237 1.09375 C 236.65647 1.0736828 236.31566 1.0554006 235.96875 1.0625 z M 235.75 10.84375 C 253.63723 10.004041 259.75937 37.842656 264.625 50.71875 C 274.538 76.94775 282.61125 103.73425 292.78125 129.90625 C 302.56725 155.09325 314.809 176.271 316 204 L 188 203 C 188 191.92 187.99462 180.48028 188.25 169 L 189 169 L 188.375 164.53125 C 188.83242 148.77286 189.86204 132.99666 192.3125 118 C 195.4575 98.7489 204.10675 80.018 208.34375 61 C 211.48475 46.9014 215.022 15.63325 232 11.40625 C 233.30006 11.082576 234.55752 10.89973 235.75 10.84375 z "
     id="path8" />
  <path
     style="fill:#6c6b6e; stroke:none;"
     d="M240.667 1.33331L241.333 1.66669L240.667 1.33331M244 3L244 4L247 4L244 3z"
     id="path10" />
  <path
     style="fill:#969598; stroke:none;"
     d="M226 4L227 5L226 4z"
     id="path12" />
  <path
     style="fill:#17171e; stroke:none;"
     d="M233 8L231 9L231 10L233 8z"
     id="path14" />
  <path
     style="fill:#b2b2b8; stroke:none;"
     d="M231 10L231 11L241 11L231 10z"
     id="path16" />
  <path
     style="fill:#828188; stroke:none;"
     d="M218 13L219 14L218 13M244.667 13.3333L245.333 13.6667L244.667 13.3333z"
     id="path20" />
  <path
     style="fill:#b2b2b8; stroke:none;"
     d="M246.333 14.6667L246.667 15.3333L246.333 14.6667z"
     id="path22" />
  <path
     style="fill:#828188; stroke:none;"
     d="M259 16L260 17L259 16z"
     id="path24" />
  <path
     style="fill:#6c6b6e; stroke:none;"
     d="M214 20L214 26L215 26L214 20z"
     id="path26" />
  <path
     style="fill:#b2b2b8; stroke:none;"
     d="M220.333 20.6667L220.667 21.3333L220.333 20.6667z"
     id="path28" />
  <path
     style="fill:#969598; stroke:none;"
     d="M251 20L252 21L251 20z"
     id="path30" />
  <path
     style="fill:#17171e; stroke:none;"
     d="M257 20C258.196 25.0347 259.694 30.3407 265 32L265 31L257 20z"
     id="path32" />
  <path
     style="fill:#828188; stroke:none;"
     d="M253 22L254 23L253 22z"
     id="path34" />
  <path
     style="fill:#969598; stroke:none;"
     d="M213 23L213 26L214 26L213 23M218 23L218 26L219 26L218 23z"
     id="path36" />
  <path
     style="fill:#828188; stroke:none;"
     d="M263 25L264 26L263 25z"
     id="path40" />
  <path
     style="fill:#969598; stroke:none;"
     d="M217 26L217 29L218 29L217 26z"
     id="path44" />
  <path
     style="fill:#828188; stroke:none;"
     d="M264 26L265 27L264 26z"
     id="path46" />
  <path
     style="fill:#b2b2b8; stroke:none;"
     d="M266 29L266 32L267 32L266 29z"
     id="path54" />
  <path
     style="fill:#b2b2b8; stroke:none;"
     d="M215.333 32.6667L215.667 33.3333L215.333 32.6667z"
     id="path60" />
  <path
     style="fill:#969598; stroke:none;"
     d="M214 34L214 37L215 37L214 34z"
     id="path66" />
  <path
     style="fill:#6c6b6e; stroke:none;"
     d="M208 35L208 39L209 39L208 35z"
     id="path68" />
  <path
     style="fill:#828188; stroke:none;"
     d="M262 37L265 44L266 44L262 37z"
     id="path70" />
  <path
     style="fill:#c3c9d1; stroke:none;"
     d="M270 37L270 40L271 40L270 37z"
     id="path72" />
  <path
     style="fill:#969598; stroke:none;"
     d="M213 39L213 42L214 42L213 39z"
     id="path74" />
  <path
     style="fill:#b2b2b8; stroke:none;"
     d="M261.333 40.6667L261.667 41.3333L261.333 40.6667z"
     id="path76" />
  <path
     style="fill:#504e54; stroke:none;"
     d="M204 45L204 49L205 49L204 45z"
     id="path88" />
  <path
     style="fill:#b2b2b8; stroke:none;"
     d="M266 45L269 53L270 53L266 45M273 45L273 48L274 48L273 45z"
     id="path90" />
  <path
     style="fill:#c3c9d1; stroke:none;"
     d="M211 46L211 50L212 50L211 46z"
     id="path92" />
  <path
     style="fill:#969598; stroke:none;"
     d="M202 49L202 52L203 52L202 49z"
     id="path98" />
  <path
     style="fill:#b2b2b8; stroke:none;"
     d="M210.333 50.6667L210.667 51.3333L210.333 50.6667z"
     id="path100" />
  <path
     style="fill:#c3c9d1; stroke:none;"
     d="M264.333 50.6667L264.667 51.3333L264.333 50.6667z"
     id="path102" />
  <path
     style="fill:#504e54; stroke:none;"
     d="M201 52L201 55L202 55L201 52z"
     id="path104" />
  <path
     style="fill:#3a3947; stroke:none;"
     d="M207 52L204 65L205 65L210 52L207 52z"
     id="path106" />
  <path
     style="fill:#6c6b6e; stroke:none;"
     d="M266 52L266 57L267 57L266 52z"
     id="path108" />
  <path
     style="fill:#d7d7da; stroke:none;"
     d="M99 54L99 58L100 58L99 54M270 54L272 61L273 61L270 54z"
     id="path112" />
  <path
     style="fill:#828188; stroke:none;"
     d="M200.333 55.6667L200.667 56.3333L200.333 55.6667z"
     id="path114" />
  <path
     style="fill:#969598; stroke:none;"
     d="M277.333 55.6667L277.667 56.3333L277.333 55.6667z"
     id="path116" />
  <path
     style="fill:#b2b2b8; stroke:none;"
     d="M208 56L208 61L209 61L208 56z"
     id="path118" />
  <path
     style="fill:#969598; stroke:none;"
     d="M278 58L279 59L278 58z"
     id="path120" />
  <path
     style="fill:#969598; stroke:none;"
     d="M279 59L279 63L280 63L279 59z"
     id="path126" />
  <path
     style="fill:#c3c9d1; stroke:none;"
     d="M207 62L207 65L208 65L207 62M273 62L276 68L273 62z"
     id="path130" />
  <path
     style="fill:#828188; stroke:none;"
     d="M196 65L196 68L197 68L196 65z"
     id="path138" />
  <path
     style="fill:#c3c9d1; stroke:none;"
     d="M206 65L206 68L207 68L206 65z"
     id="path140" />
  <path
     style="fill:#504e54; stroke:none;"
     d="M281.333 65.6667L281.667 66.3333L281.333 65.6667z"
     id="path142" />
  <path
     style="fill:#b2b2b8; stroke:none;"
     d="M282 66L282 69L283 69L282 66z"
     id="path144" />
  <path
     style="fill:#504e54; stroke:none;"
     d="M195 68L194 74L195 74L195 68z"
     id="path146" />
  <path
     style="fill:#969598; stroke:none;"
     d="M275 68L277 70L276 74L277 74L275 68z"
     id="path148" />
  <path
     style="fill:#b2b2b8; stroke:none;"
     d="M271.333 70.6667L271.667 71.3333L271.333 70.6667z"
     id="path154" />
  <path
     style="fill:#d7d7da; stroke:none;"
     d="M276.333 70.6667L276.667 71.3333L276.333 70.6667z"
     id="path156" />
  <path
     style="fill:#828188; stroke:none;"
     d="M283.333 70.6667L283.667 71.3333L283.333 70.6667z"
     id="path158" />
  <path
     style="fill:#b2b2b8; stroke:none;"
     d="M204 71L204 76L205 76L204 71z"
     id="path162" />
  <path
     style="fill:#ffffff; stroke:none;"
     d="M277 72C279.812 90.7751 289.991 113.154 298.491 130.089C301.179 135.445 302.997 143.485 308 147C306.987 135.473 300.134 124.334 295.604 113.91C290.021 101.062 286.431 82.48 277 72z"
     id="path164" />
  <path
     style="fill:#6c6b6e; stroke:none;"
     d="M279 73L279 76L280 76L279 73z"
     id="path166" />
  <path
     style="fill:#969598; stroke:none;"
     d="M286 75L286 78L287 78L286 75z"
     id="path168" />
  <path
     style="fill:#504e54; stroke:none;"
     d="M192 77L192 82L193 82L192 77z"
     id="path170" />
  <path
     style="fill:#828188; stroke:none;"
     d="M202 78L202 81L203 81L202 78z"
     id="path172" />
  <path
     style="fill:#969598; stroke:none;"
     d="M274.333 79.6667L274.667 80.3333L274.333 79.6667z"
     id="path174" />
  <path
     style="fill:#c3c9d1; stroke:none;"
     d="M281.333 79.6667L281.667 80.3333L281.333 79.6667z"
     id="path176" />
  <path
     style="fill:#b2b2b8; stroke:none;"
     d="M279 80L279 83L280 83L279 80z"
     id="path178" />
  <path
     style="fill:#504e54; stroke:none;"
     d="M282 80L282 84L283 84L282 80z"
     id="path180" />
  <path
     style="fill:#b2b2b8; stroke:none;"
     d="M190.333 82.6667L190.667 83.3333L190.333 82.6667M201 82L201 87L202 87L201 82M275.333 82.6667L275.667 83.3333L275.333 82.6667z"
     id="path182" />
  <path
     style="fill:#969598; stroke:none;"
     d="M289 82L289 85L290 85L289 82z"
     id="path184" />
  <path
     style="fill:#6c6b6e; stroke:none;"
     d="M280.333 84.6667L280.667 85.3333L280.333 84.6667M283 84L284 85L283 84z"
     id="path200" />
  <path
     style="fill:#828188; stroke:none;"
     d="M189 85L189 88L190 88L189 85z"
     id="path208" />
  <path
     style="fill:#6c6b6e; stroke:none;"
     d="M290.333 85.6667L290.667 86.3333L290.333 85.6667z"
     id="path210" />
  <path
     style="fill:#969598; stroke:none;"
     d="M281 86L282 92L283 92L281 86z"
     id="path220" />
  <path
     style="fill:#b2b2b8; stroke:none;"
     d="M284.333 86.6667L284.667 87.3333L284.333 86.6667z"
     id="path222" />
  <path
     style="fill:#b2b2b8; stroke:none;"
     d="M200.333 88.6667L200.667 89.3333L200.333 88.6667z"
     id="path232" />
  <path
     style="fill:#828188; stroke:none;"
     d="M285 88L286 89L285 88z"
     id="path234" />
  <path
     style="fill:#c3c9d1; stroke:none;"
     d="M277.333 89.6667L277.667 90.3333L277.333 89.6667z"
     id="path242" />
  <path
     style="fill:#828188; stroke:none;"
     d="M292 89L292 92L293 92L292 89z"
     id="path244" />
  <path
     style="fill:#969598; stroke:none;"
     d="M199 91L198 95L199 95L199 91z"
     id="path258" />
  <path
     style="fill:#6c6b6e; stroke:none;"
     d="M279 93L279 96L280 96L279 93z"
     id="path268" />
  <path
     style="fill:#828188; stroke:none;"
     d="M186 95L186 98L187 98L186 95z"
     id="path272" />
  <path
     style="fill:#c3c9d1; stroke:none;"
     d="M198 95L198 99L199 99L198 95z"
     id="path274" />
  <path
     style="fill:#6c6b6e; stroke:none;"
     d="M295 95L295 98L296 98L295 95z"
     id="path276" />
  <path
     style="fill:#b2b2b8; stroke:none;"
     d="M286 98L286 101L287 101L286 98z"
     id="path296" />
  <path
     style="fill:#6c6b6e; stroke:none;"
     d="M296.333 98.6667L296.667 99.3333L296.333 98.6667z"
     id="path298" />
  <path
     style="fill:#b2b2b8; stroke:none;"
     d="M197.333 99.6667L197.667 100.333L197.333 99.6667z"
     id="path300" />
  <path
     style="fill:#828188; stroke:none;"
     d="M282 101L282 105L283 105L282 101z"
     id="path306" />
  <path
     style="fill:#b2b2b8; stroke:none;"
     d="M196.333 102.667L196.667 103.333L196.333 102.667M291.333 102.667L291.667 103.333L291.333 102.667z"
     id="path308" />
  <path
     style="fill:#6c6b6e; stroke:none;"
     d="M184.333 103.667L184.667 104.333L184.333 103.667M287.333 103.667L287.667 104.333L287.333 103.667z"
     id="path310" />
  <path
     style="fill:#969598; stroke:none;"
     d="M195.333 104.667L195.667 105.333L195.333 104.667z"
     id="path312" />
  <path
     style="fill:#6c6b6e; stroke:none;"
     d="M292 104L292 107L293 107L292 104M299 104L299 107L300 107L299 104M183.333 105.667L183.667 106.333L183.333 105.667z"
     id="path314" />
  <path
     style="fill:#969598; stroke:none;"
     d="M182.333 107.667L182.667 108.333L182.333 107.667z"
     id="path316" />
  <path
     style="fill:#828188; stroke:none;"
     d="M300 107L301 108L300 107z"
     id="path318" />
  <path
     style="fill:#6c6b6e; stroke:none;"
     d="M289 108L289 111L290 111L289 108z"
     id="path320" />
  <path
     style="fill:#d7d7da; stroke:none;"
     d="M181 109L181 113L182 113L181 109z"
     id="path322" />
  <path
     style="fill:#b2b2b8; stroke:none;"
     d="M294.333 109.667L294.667 110.333L294.333 109.667z"
     id="path324" />
  <path
     style="fill:#6c6b6e; stroke:none;"
     d="M286 110L286 114L287 114L288 110L286 110z"
     id="path326" />
  <path
     style="fill:#828188; stroke:none;"
     d="M193 111L193 114L194 114L193 111z"
     id="path328" />
  <path
     style="fill:#969598; stroke:none;"
     d="M295 111L295 115L296 115L295 111z"
     id="path330" />
  <path
     style="fill:#6c6b6e; stroke:none;"
     d="M302 111L302 114L303 114L302 111M180.333 114.667L180.667 115.333L180.333 114.667z"
     id="path332" />
  <path
     style="fill:#828188; stroke:none;"
     d="M192 114L192 117L193 117L192 114z"
     id="path334" />
  <path
     style="fill:#6c6b6e; stroke:none;"
     d="M292 114L292 118L293 118L292 114z"
     id="path336" />
  <path
     style="fill:#c3c9d1; stroke:none;"
     d="M296.333 115.667L296.667 116.333L296.333 115.667M178 118L178 121L179 121L178 118z"
     id="path338" />
  <path
     style="fill:#828188; stroke:none;"
     d="M289 118L289 123L290 123L289 118M293 118L293 121L294 121L293 118M305.333 118.667L305.667 119.333L305.333 118.667z"
     id="path340" />
  <path
     style="fill:#504e54; stroke:none;"
     d="M305 120L305 123L306 123L305 120z"
     id="path342" />
  <path
     style="fill:#969598; stroke:none;"
     d="M299 121L299 124L300 124L299 121z"
     id="path344" />
  <path
     style="fill:#828188; stroke:none;"
     d="M295 122L295 125L296 125L295 122z"
     id="path346" />
  <path
     style="fill:#969598; stroke:none;"
     d="M176.333 124.667L176.667 125.333L176.333 124.667z"
     id="path348" />
  <path
     style="fill:#504e54; stroke:none;"
     d="M307.333 125.667L307.667 126.333L307.333 125.667z"
     id="path350" />
  <path
     style="fill:#828188; stroke:none;"
     d="M292 127L292 130L293 130L292 127z"
     id="path354" />
  <path
     style="fill:#6c6b6e; stroke:none;"
     d="M302 127L302 130L303 130L302 127M308 127L308 133L309 133L308 127z"
     id="path356" />
  <path
     style="fill:#b2b2b8; stroke:none;"
     d="M191 128L191 136L192 136L191 128z"
     id="path358" />
  <path
     style="fill:#828188; stroke:none;"
     d="M174 130L174 133L175 133L174 130z"
     id="path360" />
  <path
     style="fill:#c3c9d1; stroke:none;"
     d="M293.333 131.667L293.667 132.333L293.333 131.667z"
     id="path362" />
  <path
     style="fill:#828188; stroke:none;"
     d="M299.333 131.667L299.667 132.333L299.333 131.667M303 132L304 133L303 132M309.333 133.667L309.667 134.333L309.333 133.667M172.333 134.667L172.667 135.333L172.333 134.667z"
     id="path364" />
  <path
     style="fill:#969598; stroke:none;"
     d="M295 134L295 137L296 137L295 134z"
     id="path366" />
  <path
     style="fill:#6c6b6e; stroke:none;"
     d="M300.333 134.667L300.667 135.333L300.333 134.667z"
     id="path368" />
  <path
     style="fill:#d7d7da; stroke:none;"
     d="M184 135L184 141L185 141L184 135z"
     id="path370" />
  <path
     style="fill:#6c6b6e; stroke:none;"
     d="M305 135L305 138L306 138L305 135z"
     id="path372" />
  <path
     style="fill:#969598; stroke:none;"
     d="M302 137L302 140L303 140L302 137z"
     id="path374" />
  <path
     style="fill:#ffffff; stroke:none;"
     d="M182 138L172.749 163L166 203L178 203L184 138L182 138z"
     id="path376" />
  <path
     style="fill:#828188; stroke:none;"
     d="M190 138L190 145L191 145L190 138z"
     id="path378" />
  <path
     style="fill:#6c6b6e; stroke:none;"
     d="M170 140L170 143L171 143L170 140M181 140L181 143L182 143L181 140z"
     id="path380" />
  <path
     style="fill:#504e54; stroke:none;"
     d="M311 140L311 148L312 148L311 140z"
     id="path382" />
  <path
     style="fill:#b2b2b8; stroke:none;"
     d="M184 141L184 146L185 146L184 141z"
     id="path384" />
  <path
     style="fill:#969598; stroke:none;"
     d="M299.333 142.667L299.667 143.333L299.333 142.667z"
     id="path386" />
  <path
     style="fill:#828188; stroke:none;"
     d="M307 142L308 143L307 142z"
     id="path388" />
  <path
     style="fill:#b2b2b8; stroke:none;"
     d="M168 143L168 146L169 146L168 143z"
     id="path390" />
  <path
     style="fill:#d7d7da; stroke:none;"
     d="M180 143L179 147L180 147L180 143z"
     id="path392" />
  <path
     style="fill:#6c6b6e; stroke:none;"
     d="M305.333 144.667L305.667 145.333L305.333 144.667z"
     id="path394" />
  <path
     style="fill:#d7d7da; stroke:none;"
     d="M308 144C307.385 148.6 308.086 153.13 312 156L308 144z"
     id="path396" />
  <path
     style="fill:#c3c9d1; stroke:none;"
     d="M190 145L190 150L191 150L190 145z"
     id="path398" />
  <path
     style="fill:#6c6b6e; stroke:none;"
     d="M168.333 146.667L168.667 147.333L168.333 146.667z"
     id="path400" />
  <path
     style="fill:#b2b2b8; stroke:none;"
     d="M167 147L167 150L168 150L167 147z"
     id="path402" />
  <path
     style="fill:#828188; stroke:none;"
     d="M312 148L313 153L314 153L312 148M166.333 150.667L166.667 151.333L166.333 150.667z"
     id="path404" />
  <path
     style="fill:#969598; stroke:none;"
     d="M177.333 150.667L177.667 151.333L177.333 150.667z"
     id="path406" />
  <path
     style="fill:#6c6b6e; stroke:none;"
     d="M183 150L183 156L184 156L183 150z"
     id="path408" />
  <path
     style="fill:#b2b2b8; stroke:none;"
     d="M302 150L302 153L303 153L302 150M310.333 150.667L310.667 151.333L310.333 150.667M165 152L165 156L166 156L165 152z"
     id="path410" />
  <path
     style="fill:#17171e; stroke:none;"
     d="M184 153L179 205L187 205L187 181L186 181L184 196L183 196C182.907 183.773 188.718 164.243 184 153z"
     id="path412" />
  <path
     style="fill:#828188; stroke:none;"
     d="M314 153L315 154L314 153z"
     id="path414" />
  <path
     style="fill:#b2b2b8; stroke:none;"
     d="M189 154L189 160L190 160L189 154z"
     id="path416" />
  <path
     style="fill:#828188; stroke:none;"
     d="M315.333 154.667L315.667 155.333L315.333 154.667z"
     id="path418" />
  <path
     style="fill:#b2b2b8; stroke:none;"
     d="M305 156L305 159L306 159L305 156z"
     id="path420" />
  <path
     style="fill:#6c6b6e; stroke:none;"
     d="M311 156L316 163L311 156z"
     id="path422" />
  <path
     style="fill:#828188; stroke:none;"
     d="M182 157L182 162L183 162L182 157M163.333 158.667L163.667 159.333L163.333 158.667z"
     id="path424" />
  <path
     style="fill:#6c6b6e; stroke:none;"
     d="M316.333 158.667L316.667 159.333L316.333 158.667z"
     id="path426" />
  <path
     style="fill:#b2b2b8; stroke:none;"
     d="M173.333 160.667L173.667 161.333L173.333 160.667z"
     id="path428" />
  <path
     style="fill:#504e54; stroke:none;"
     d="M317.333 160.667L317.667 161.333L317.333 160.667z"
     id="path430" />
  <path
     style="fill:#c3c9d1; stroke:none;"
     d="M181 162L181 172L182 172L181 162z"
     id="path432" />
  <path
     style="fill:#b2b2b8; stroke:none;"
     d="M162 163L161 168L162 168L162 163z"
     id="path436" />
  <path
     style="fill:#969598; stroke:none;"
     d="M308 163L308 166L309 166L308 163z"
     id="path438" />
  <path
     style="fill:#504e54; stroke:none;"
     d="M318 163L318 167L319 167L318 163z"
     id="path440" />
  <path
     style="fill:#828188; stroke:none;"
     d="M319.333 166.667L319.667 167.333L319.333 166.667z"
     id="path442" />
  <path
     style="fill:#b2b2b8; stroke:none;"
     d="M171 167L171 170L172 170L171 167z"
     id="path444" />
  <path
     style="fill:#c3c9d1; stroke:none;"
     d="M309.333 168.667L309.667 169.333L309.333 168.667z"
     id="path446" />
  <path
     style="fill:#504e54; stroke:none;"
     d="M320.333 169.667L320.667 170.333L320.333 169.667z"
     id="path448" />
  <path
     style="fill:#c3c9d1; stroke:none;"
     d="M159 170L159 176L160 176L159 170z"
     id="path450" />
  <path
     style="fill:#969598; stroke:none;"
     d="M170 170L170 173L171 173L170 170z"
     id="path452" />
  <path
     style="fill:#b2b2b8; stroke:none;"
     d="M310.333 170.667L310.667 171.333L310.333 170.667z"
     id="path454" />
  <path
     style="fill:#6c6b6e; stroke:none;"
     d="M321.333 171.667L321.667 172.333L321.333 171.667z"
     id="path456" />
  <path
     style="fill:#969598; stroke:none;"
     d="M181 172L181 176L182 176L181 172M169.333 173.667L169.667 174.333L169.333 173.667z"
     id="path458" />
  <path
     style="fill:#d7d7da; stroke:none;"
     d="M311 173L311 177L312 177L311 173M322 173L322 177L323 177L322 173z"
     id="path460" />
  <path
     style="fill:#6c6b6e; stroke:none;"
     d="M168 175L168 181L169 181L168 175z"
     id="path462" />
  <path
     style="fill:#828188; stroke:none;"
     d="M159 176L158 182L159 182L159 176z"
     id="path464" />
  <path
     style="fill:#6c6b6e; stroke:none;"
     d="M181 176L181 182L182 182L181 176z"
     id="path466" />
  <path
     style="fill:#828188; stroke:none;"
     d="M187 176L187 186L188 186L187 176z"
     id="path468" />
  <path
     style="fill:#c3c9d1; stroke:none;"
     d="M180 177L180 182L181 182L180 177z"
     id="path470" />
  <path
     style="fill:#6c6b6e; stroke:none;"
     d="M323.333 179.667L323.667 180.333L323.333 179.667z"
     id="path472" />
  <path
     style="fill:#828188; stroke:none;"
     d="M313.333 180.667L313.667 181.333L313.333 180.667z"
     id="path474" />
  <path
     style="fill:#969598; stroke:none;"
     d="M180 182L180 185L181 185L180 182z"
     id="path476" />
  <path
     style="fill:#b2b2b8; stroke:none;"
     d="M157 183L157 186L158 186L157 183z"
     id="path478" />
  <path
     style="fill:#828188; stroke:none;"
     d="M167.333 183.667L167.667 184.333L167.333 183.667M314.333 183.667L314.667 184.333L314.333 183.667z"
     id="path480" />
  <path
     style="fill:#504e54; stroke:none;"
     d="M180 185L180 188L181 188L180 185z"
     id="path482" />
  <path
     style="fill:#3a3947; stroke:none;"
     d="M186 185L186 202L187 202L186 185z"
     id="path484" />
  <path
     style="fill:#b2b2b8; stroke:none;"
     d="M156 186L156 189L157 189L156 186z"
     id="path486" />
  <path
     style="fill:#c3c9d1; stroke:none;"
     d="M179 186L179 189L180 189L179 186M187 186L187 204L191 204L191 203L188 203L187 186z"
     id="path488" />
  <path
     style="fill:#828188; stroke:none;"
     d="M315 186L315 189L316 189L315 186z"
     id="path490" />
  <path
     style="fill:#6c6b6e; stroke:none;"
     d="M166 188L166 191L167 191L166 188M156 189L156 192L157 192L156 189z"
     id="path492" />
  <path
     style="fill:#504e54; stroke:none;"
     d="M179 189L179 195L180 195L179 189z"
     id="path494" />
  <path
     style="fill:#d7d7da; stroke:none;"
     d="M315 189L315 199L316 199L315 189z"
     id="path496" />
  <path
     style="fill:#c3c9d1; stroke:none;"
     d="M166 191L166 196L167 196L166 191z"
     id="path498" />
  <path
     style="fill:#969598; stroke:none;"
     d="M155 192L155 197L156 197L155 192z"
     id="path500" />
  <path
     style="fill:#b2b2b8; stroke:none;"
     d="M178 193L178 204L179 204L178 193z"
     id="path502" />
  <path
     style="fill:#828188; stroke:none;"
     d="M165 194L165 204L166 204L165 194z"
     id="path504" />
  <path
     style="fill:#6c6b6e; stroke:none;"
     d="M327 195L327 200L328 200L327 195M316 196L316 202L317 202L316 196z"
     id="path506" />
  <path
     style="fill:#504e54; stroke:none;"
     d="M155 197L155 202L156 202L155 197z"
     id="path508" />
  <path
     style="fill:#969598; stroke:none;"
     d="M154.333 200.667L154.667 201.333L154.333 200.667z"
     id="path510" />
  <path
     style="fill:#b2b2b8; stroke:none;"
     d="M40 202L40 203L69 203L40 202z"
     id="path512" />
  <path
     style="fill:#6c6b6e; stroke:none;"
     d="M69 202L69 203L113 203C101.537 198.19 81.4804 202 69 202z"
     id="path514" />
  <path
     style="fill:#969598; stroke:none;"
     d="M113 202L113 203L130 203L113 202z"
     id="path516" />
  <path
     style="fill:#d7d7da; stroke:none;"
     d="M130 202L130 203L143 203L130 202z"
     id="path518" />
  <path
     style="fill:#c3c9d1; stroke:none;"
     d="M316 202L307 204L307 205C309.667 205 317.608 206.264 316 202z"
     id="path520" />
  <path
     style="fill:#b2b2b8; stroke:none;"
     d="M32 203L32 204L39 204L32 203z"
     id="path522" />
  <path
     style="fill:#504e54; stroke:none;"
     d="M39 203L39 204L51 204L39 203z"
     id="path524" />
  <path
     style="fill:#26242c; stroke:none;"
     d="M10 205L16 267L17 267L17 253L18 253C18 261.143 16.4858 281.352 23 287L21 308L23 307L28.9105 348L31 364L35.6829 382.09L36 397L38 396L38 408L39 408L39 405L40 405C38.3173 413.197 37.3496 425.457 39.2994 433.83C39.9784 436.746 42.1666 438.943 42.4869 442.004C44.7982 464.092 49.6902 490.205 46 512C49.9954 512 47.4895 522.682 48 526C48.4707 529.059 51.5505 530.764 52 534C53.3104 543.435 47.8584 551.137 60 553.667C68.0963 555.353 77.7289 554 86 554L137 554C194.03 554 251.121 553 308 553C337.79 553 368.449 554.873 398 552C411.554 550.682 426.881 554.798 440 551L440 550L428 550L428 549C436.085 549 447.976 552.036 454.736 546.347C460.196 541.753 459.545 532.457 460.424 526C462.973 507.274 463.376 487.848 465.17 469C470.133 416.845 475.933 364.972 482.155 313C486.351 277.957 492.973 241.127 493 206L434 205L435 208L416 210L416 211L439 210C435.273 216.373 424.442 212.551 418 214L418 215C427.558 215.675 432.12 214.574 438 223L433 220L435 229L426 227L433 234L429 234L429 238L424 235C424.72 239.501 426.57 240.494 431 240L424 249L425 243L421 243L420 254L415 251C416.639 258.512 421.804 253.756 427 253L425 265L414 268L416 275L410 273C409.949 268.756 409.612 266.469 406 264L407 272L409 276L405 276L408 283L409 283L408 280L417 287L417 288L406 284C404.389 286.69 403.22 289.212 400 288L399 288L394 302L394 292L392 294C383.453 290.997 377.047 307.271 374 314L366 313L366 314L371 315L370 319L374 317L367 320L369 328L365 327L357 330L357 323L355 323C355 371.637 356.765 420.45 360.09 469C361.81 494.121 366.895 525.241 361 550L392 550L392 551L201 551L155 551C149.753 551 142.189 552.438 139.179 546.941C132.525 534.792 136 512.474 136 499C136 462.639 135 426.295 135 390L135 351C135 346.759 136.399 339.97 133 337C134.195 346.511 134.54 367.492 130 376L132 387L124 371L119 376L118 376L120 372L114 371L116 367L113 366L114 363L96 359L96 358L97 355L99 357L108 357L106 355L106 354L106 353L108 353L105 346L104 349L100 349L97 343L101 344L103 339L99 340C102.014 336.145 105.1 334.322 110 334L110 333L95 336L98 333L98 331L93 331L95 321L97 325L120 324L120 322L109 324L116 320L116 319L105 313L107 306L100 304L101 307L92 304L96 309L92 308L94 313L93 314L92 314L91 314L91 298L88 298L90 293L80 296L82 293L76 294L72 282L71 282L70 289L68 285C62.2489 281.899 62.6477 276.878 63 271L58 274L59 270L55 271L55 267L60 267L64 263L64 271L68 271L68 272L65 275L71 273L71 267L68 267L68 263C71.8521 261.618 72.437 258.864 72 255C73.8129 253.444 73.8129 252.556 72 251L72 250L72 249L74 249L74 242L71 243L72 247L67 248L69 241L64 243C64.2394 237.719 71.1367 234.731 76 235L73 225L72 225L70 228L69 221L69 220L69 219L71 217L64 221C65.4932 218.339 67.9413 215.867 64 215L64 214L73 215L79 216L80 208L65 207L65 206L76 205L76 203L10 205z"
     id="path526" />
  <path
     style="fill:#3a3947; stroke:none;"
     d="M65 206L65 207L80 208L79 216C76.7056 214.361 75.1633 212.833 73 215L64 214L64 215L67 215L64 221L71 217L69 219L69 220L69 221L70 228L72 225L73 225L76 235C71.1592 234.132 63.1501 237.437 64 243L69 241L67 248L72 247L74 242L72 249L72 250L72 251L72 255L68 263L68 267L71 267L71 273L65 275L68 272L68 271L64 271L64 263L60 267L55 267L55 271L59 270L58 274L63 271C61.9377 276.598 61.7174 282.931 68 285C67.4234 287.711 67.2325 288.395 70 289L71 282L72 282L76 294L82 293L80 296L90 293L88 298L91 298L91 314L94 313L92 308L96 309L92 304L101 307L100 304L107 306L105 313L116 319L116 320L109 324L120 322L120 324L97 325L95 321L93 331L98 331L98 333L95 336L110 333L110 334C105.021 334.148 101.388 335.439 99 340L103 339L101 344L97 343L100 349L105 346L106 353L106 354L106 355L108 357L97 355L96 358L96 359L114 363L113 366L116 367L114 371L120 372L118 376L119 376L124 371L132 387L130 376C134.735 369.75 134.438 344.749 133 337L135 339L136 339C136 308.549 140 278.359 140 248C140 235.342 135.659 218.311 152 219L152 231L162 231L159 234L159 235L163 235L163 239L150 239L150 250L147 245L146 245L148.873 256.996L147.058 268.015L147 332C166.181 338.851 161 310.749 161 299L158 299L158 303L157 303L157 297L160 297L161 271L151 274L151 270L163 270L164 236L168 238L164 224L159 224L158 224L160 220L160 219L161 210L156 218L154 218L155 209L158 211C156.595 206 139.679 208.353 134 207L134 206C137.859 206.455 141.424 207.369 144 204C118.447 204 89.8297 198.658 65 206z"
     id="path528" />
  <path
     style="fill:#504e54; stroke:none;"
     d="M130 203L130 204L149 204L130 203z"
     id="path530" />
  <path
     style="fill:#969598; stroke:none;"
     d="M149 203L149 204L154 204L149 203z"
     id="path532" />
  <path
     style="fill:#d7d7da; stroke:none;"
     d="M166 203L166 204L178 204L166 203M191 203L191 204L199 204L191 203M374 204L374 205L419 205C406.953 199.945 387.006 204 374 204z"
     id="path534" />
  <path
     style="fill:#c3c9d1; stroke:none;"
     d="M19 204L19 205L30 205L19 204z"
     id="path536" />
  <path
     style="fill:#6c6b6e; stroke:none;"
     d="M30 204L30 205L34 205L30 204M166 204L166 205L178 205L166 204z"
     id="path538" />
  <path
     style="fill:#3a3947; stroke:none;"
     d="M166 208L169 207L170 212L176 214C184.695 210.371 195.76 212 205 212L261 212C267.039 212 286.133 215.069 290 211L310 212L310 207L317 207L317 205L235 205C224.121 205 212.775 206.989 202 205.917C192.995 205.02 184.051 204.267 175 204.917C171.325 205.18 166.926 203.68 166 208z"
     id="path540" />
  <path
     style="fill:#6c6b6e; stroke:none;"
     d="M188 204L188 205L199 205L188 204z"
     id="path542" />
  <path
     style="fill:#b2b2b8; stroke:none;"
     d="M199 204L199 205L203 205L199 204z"
     id="path544" />
  <path
     style="fill:#d7d7da; stroke:none;"
     d="M264 204L264 205L307 205C295.774 200.29 276.219 204 264 204z"
     id="path546" />
  <path
     style="fill:#3a3947; stroke:none;"
     d="M327 204L330 212L364 212L364 214L355 214L355 215L374 215L374 217L349 218C350.214 222.809 352.846 234.588 349 238L348 227L347 227L349.985 249L353 264C347.578 286.776 353.985 311.95 354 335L355 335L355 323L357 323L357 330C360.511 330 364.146 330.987 365 327L369 328L367 320C370.598 320.554 372.922 320.836 374 317L370 319L371 315L366 314L366 313L374 314C380.554 303.829 383.077 296.99 394 292L394 302L399 288L400 288C402.95 290.97 404.902 286.71 406 284L417 288L417 287L408 280L409 283L408 283L405 276L409 276L407 272L406 264L410 273L416 275L414 268L425 265L427 253C421.666 253.391 417.459 257.676 415 251L420 254L421 243L425 243L423 245L424 249L431 240C426.941 239.886 425.172 238.956 424 235L429 238L429 234L433 234L426 227L435 229L433 220L438 223C433.316 213.873 427.229 215.206 418 215L418 214C423.84 213.332 436.727 216.465 439 210L416 211L416 210L435 208C430.613 201.917 413.991 205 407 205C381.985 205 351.319 209.79 327 204z"
     id="path548" />
  <path
     style="fill:#6c6b6e; stroke:none;"
     d="M419 204L419 205L453 205L419 204z"
     id="path550" />
  <path
     style="fill:#969598; stroke:none;"
     d="M453 204L453 205L472 205L453 204z"
     id="path552" />
  <path
     style="fill:#504e54; stroke:none;"
     d="M199 205L199 206L216 206L199 205M484 205L484 206L492 206L484 205z"
     id="path554" />
  <path
     style="fill:#969598; stroke:none;"
     d="M9 206L9 215L10 215L9 206z"
     id="path556" />
  <path
     style="fill:#17171e; stroke:none;"
     d="M312 208L315 217L317 217L318 207L312 208z"
     id="path558" />
  <path
     style="fill:#828188; stroke:none;"
     d="M493 207L493 215L494 215L493 207z"
     id="path560" />
  <path
     style="fill:#17171e; stroke:none;"
     d="M164 209L166 215L166 216L164 218L168 218L169 214L168 210L164 209z"
     id="path562" />
  <path
     style="fill:#3a3947; stroke:none;"
     d="M169 217L169 218L304 216C296.459 210.287 277.313 215.044 268 214.999C234.791 214.839 202.01 212.555 169 217z"
     id="path564" />
  <path
     style="fill:#6c6b6e; stroke:none;"
     d="M11 215L11 219L12 219L11 215M491 215L491 222L492 222L493 215L491 215z"
     id="path566" />
  <path
     style="fill:#242e6f; stroke:none;"
     d="M181 217L181 218L310 218L310 216L223 216L181 217z"
     id="path568" />
  <path
     style="fill:#3952bc; stroke:none;"
     d="M172 219C171.048 226.532 170.027 234.594 175 241L175 242C168.81 248.607 169 265.236 169 274L166 274C165.722 287.446 163 300.503 163 314C163 318.553 164.567 326.738 161.397 330.442C157 335.579 151.364 332.71 146 332L148.966 257.985L146.133 246L147 230L149 230L148 228C153.167 224.063 147.84 215.283 142.6 219.046C140.317 220.685 140.263 225.486 140.09 228C139.635 234.591 136.979 254.612 142 259L142 260L142 261L140 261L140 262L140 263L142 263L142 264L142 265L140 265L140 266L140 267L142 267L142 268L142 269L142 273C138.001 278.863 134.226 303.955 140 309C137.767 314.024 134.111 324.728 139 329L139 330L139 331C136.994 332.127 136.994 332.873 139 334L139 335L139 336C132.67 341.119 136.022 359.496 136.176 367C136.538 384.651 135.267 402.362 136.039 420C136.498 430.474 139.776 440.759 136 451L137 473L137 524L139.179 547.682L153 550L193 550L361 549L357.09 416L353 355L354.001 340L352 296L350.285 277L346 218L335 218L338.856 234.015L339 258L338.039 276L342.87 300.039L342 331C336.454 331.372 331.545 335.05 327.148 329.659C321.477 322.706 324.282 310.079 323.245 302C320.791 282.899 315.296 264.482 311.39 246C310.235 240.535 315.663 229.348 312 226L313 218L172 219z"
     id="path570" />
  <path
     style="fill:#2f4191; stroke:none;"
     d="M168 218C168 224.292 165.813 236.426 172 240C167.875 253.918 165.042 265.947 165 281L166 281L166 274L169 274C169 264.295 169.571 250.226 175 242L175 241C170.873 233.487 171.351 227.227 172 219L180 219L168 218M312 226C314.891 230.698 310.304 239.98 311.213 246C314.014 264.563 320.819 282.88 322.941 302C323.824 309.952 321.294 323.855 327.148 330.442C331.71 335.575 336.615 331.701 342 331L342 315L341 315C341 318.463 341.898 323.521 339.987 326.585C336.398 332.34 328.889 329.869 327.313 323.981C325.315 316.514 326.603 308.577 325.829 301.001C324.762 290.545 322.095 279.361 320.259 268.91C319.247 263.147 322.314 254.833 317 251L318 249C311.984 241.181 316.848 235.598 321 229L317 230L317 218C312.299 218.817 312.329 221.725 312 226z"
     id="path572" />
  <path
     style="fill:#504e54; stroke:none;"
     d="M332 218C332.267 225.383 342.828 238.925 335 244L335 245L338 245L338 248L335 248L339 258L338.856 233.039L335 218L332 218z"
     id="path574" />
  <path
     style="fill:#969598; stroke:none;"
     d="M11 219L11 222L12 222L11 219z"
     id="path576" />
  <path
     style="fill:#2f4191; stroke:none;"
     d="M148 219L148 220L149 230L147 230L148 232C145.769 233.947 145.769 236.053 148 238C147.583 234.204 148.537 232.599 152 231L152 219L148 219z"
     id="path578" />
  <path
     style="fill:#969598; stroke:none;"
     d="M12 222L12 240L13 240L12 222M491 222L491 238L492 238L491 222M321 228L321 229L328 229L321 228z"
     id="path580" />
  <path
     style="fill:#d7d7da; stroke:none;"
     d="M321 229L321 230L334 230L334 228L321 229z"
     id="path582" />
  <path
     style="fill:#b2b2b8; stroke:none;"
     d="M321 230L321 231L324 231L321 230z"
     id="path584" />
  <path
     style="fill:#6c6b6e; stroke:none;"
     d="M321 233L334 231C329.916 229.286 323.836 229.275 321 233z"
     id="path586" />
  <path
     style="fill:#17171e; stroke:none;"
     d="M334 230L325 236L321 231C313.481 234.022 318.932 244.875 317 251C321.883 256.172 320 265.285 320 272C327.023 266.9 321.539 244.463 320 237L328 240L332 235L334 245L338 244C338 238.852 339.594 232.249 334 230z"
     id="path588" />
  <path
     style="fill:#c3c9d1; stroke:none;"
     d="M149 233L162 233L162 231L149 233z"
     id="path590" />
  <path
     style="fill:#504e54; stroke:none;"
     d="M165 231L165 233L167 233L167 231L165 231z"
     id="path592" />
  <path
     style="fill:#3a3947; stroke:none;"
     d="M325 231L325 236L334 231L325 231z"
     id="path594" />
  <path
     style="fill:#969598; stroke:none;"
     d="M150 233L150 234L158 233L150 233z"
     id="path596" />
  <path
     style="fill:#17171e; stroke:none;"
     d="M147 233L148 238L149 238L149 233L147 233z"
     id="path598" />
  <path
     style="fill:#504e54; stroke:none;"
     d="M149 233L148 239L151 235L156 233L149 233z"
     id="path600" />
  <path
     style="fill:#17171e; stroke:none;"
     d="M156 233L158 238L151 235L150 239L163 239L163 235L156 233z"
     id="path602" />
  <path
     style="fill:#828188; stroke:none;"
     d="M158 233L158 234L162 234L158 233z"
     id="path604" />
  <path
     style="fill:#242e6f; stroke:none;"
     d="M316 233L316 246L317 246L316 233z"
     id="path606" />
  <path
     style="fill:#969598; stroke:none;"
     d="M326.667 234.333L327.333 234.667L326.667 234.333z"
     id="path608" />
  <path
     style="fill:#828188; stroke:none;"
     d="M155 235L155 236C156.96 236.653 157.554 237 155 237L155 238L158 235L155 235z"
     id="path610" />
  <path
     style="fill:#3a3947; stroke:none;"
     d="M328 240L320 237L322.626 261L323.757 268.958L337 268L333 264L332 251L334 251L336 263L337 263L332 235L328 240z"
     id="path612" />
  <path
     style="fill:#6c6b6e; stroke:none;"
     d="M13 236L13 243L14 243L13 236z"
     id="path614" />
  <path
     style="fill:#ffffff; stroke:none;"
     d="M155.667 236.333L156.333 236.667L155.667 236.333z"
     id="path616" />
  <path
     style="fill:#c3c9d1; stroke:none;"
     d="M164 236L164 240L165 240L166 236L164 236z"
     id="path618" />
  <path
     style="fill:#242e6f; stroke:none;"
     d="M168 237L167 247L168 250C162.414 253.621 165 266.904 165 273L166 273L172 240L170 237L168 237z"
     id="path620" />
  <path
     style="fill:#828188; stroke:none;"
     d="M490 237L490 243L491 243L490 237z"
     id="path622" />
  <path
     style="fill:#969598; stroke:none;"
     d="M146 238L146 245L147 245L148 238L146 238z"
     id="path624" />
  <path
     style="fill:#ffffff; stroke:none;"
     d="M165 238L167 245L168 245L165 238M147 239L148 248L149 248L149 239L147 239z"
     id="path626" />
  <path
     style="fill:#c3c9d1; stroke:none;"
     d="M149 239L148 249C150.789 246.563 150.361 242.244 149 239z"
     id="path628" />
  <path
     style="fill:#17171e; stroke:none;"
     d="M163 240L163 270L151 270L151 274L161 271L160 297L157 297L157 303L158 303L158 299C163.64 297.136 163.646 292.185 164.285 287C165.469 277.392 160.927 256.927 168 250L165 240L163 240z"
     id="path630" />
  <path
     style="fill:#504e54; stroke:none;"
     d="M165 241L165 244L166 244L165 241z"
     id="path632" />
  <path
     style="fill:#969598; stroke:none;"
     d="M168 241L167 247L168 241z"
     id="path634" />
  <path
     style="fill:#2f4191; stroke:none;"
     d="M348 241L348 259L349 259L348 241z"
     id="path636" />
  <path
     style="fill:#b2b2b8; stroke:none;"
     d="M13 243L13 248L14 248L13 243z"
     id="path638" />
  <path
     style="fill:#26242c; stroke:none;"
     d="M349 243L351 277L352 277L353 264L349 243z"
     id="path640" />
  <path
     style="fill:#504e54; stroke:none;"
     d="M489 243L489 248L490 248L489 243z"
     id="path642" />
  <path
     style="fill:#c3c9d1; stroke:none;"
     d="M490 243L490 248L491 248L490 243z"
     id="path644" />
  <path
     style="fill:#969598; stroke:none;"
     d="M166 244L167 245L166 244z"
     id="path646" />
  <path
     style="fill:#504e54; stroke:none;"
     d="M14 245L15 262L16 262L14 245z"
     id="path648" />
  <path
     style="fill:#b2b2b8; stroke:none;"
     d="M147 245L147 248L148 248L147 245z"
     id="path650" />
  <path
     style="fill:#d7d7da; stroke:none;"
     d="M335 245L335 248L338 248L338 245L335 245z"
     id="path652" />
  <path
     style="fill:#6c6b6e; stroke:none;"
     d="M316 246L316 249L319 249L319 246L316 246z"
     id="path654" />
  <path
     style="fill:#d7d7da; stroke:none;"
     d="M489 248L489 256L490 256L489 248z"
     id="path656" />
  <path
     style="fill:#828188; stroke:none;"
     d="M148.667 249.333L149.333 249.667L148.667 249.333z"
     id="path658" />
  <path
     style="fill:#26242c; stroke:none;"
     d="M332 251L333 264L337 268L322 270L322 291L326 291C325.596 285.887 323.82 279.995 326.009 275.059C327.826 270.964 331.646 270.382 334 274L335 274L336 271L337 274L338 274L334 251L332 251z"
     id="path660" />
  <path
     style="fill:#c3c9d1; stroke:none;"
     d="M14 253L14 261L15 261L14 253z"
     id="path662" />
  <path
     style="fill:#3a3947; stroke:none;"
     d="M17 253C17 287.998 23.5399 321.207 27.7145 356C32.663 397.243 35.6242 439.085 42.2461 480C45.0694 497.444 43.9539 515.554 46.8056 533C47.7415 538.726 46.3815 546.902 52 550L51.5833 532.018L48.0231 522.995L46 512C48.6251 502.078 46.4251 493.892 45.8202 483.91C44.2133 457.396 36.8399 430.957 40 405L39 405L39 408L38 408L38 396L36 397L35.6968 381.17L31 364L28.8295 346L23 307L21 308L23 287L17 253z"
     id="path664" />
  <path
     style="fill:#828188; stroke:none;"
     d="M488 253L488 258L489 258L488 253z"
     id="path666" />
  <path
     style="fill:#b2b2b8; stroke:none;"
     d="M488 258L488 267L489 267L488 258z"
     id="path668" />
  <path
     style="fill:#2f4191; stroke:none;"
     d="M139 259L138 289L139 289L142 273L142 269L142 268L142 267L140 267L140 266L140 265L142 265L142 264L142 263L140 263L140 262L140 261L142 259L139 259z"
     id="path670" />
  <path
     style="fill:#b2b2b8; stroke:none;"
     d="M15 262L15 274L16 274L15 262z"
     id="path672" />
  <path
     style="fill:#242e6f; stroke:none;"
     d="M338 264L338 272L339 272L338 264z"
     id="path674" />
  <path
     style="fill:#6c6b6e; stroke:none;"
     d="M487 268L487 272L488 272L487 268z"
     id="path676" />
  <path
     style="fill:#3a3947; stroke:none;"
     d="M341 327L338.615 284L336 271L335 274L334 274L334 271C317.759 271.194 327.732 298.641 327.985 309C328.095 313.475 326.188 322.829 329.742 326.243C332.329 328.727 337.767 327.066 341 327z"
     id="path678" />
  <path
     style="fill:#2f4191; stroke:none;"
     d="M350 272L350 279L351 279L350 272z"
     id="path680" />
  <path
     style="fill:#969598; stroke:none;"
     d="M487 272L487 277L488 277L487 272M16 276L16 280L17 280L16 276z"
     id="path682" />
  <path
     style="fill:#26242c; stroke:none;"
     d="M158 277L158 285L160 285L160 277L158 277z"
     id="path684" />
  <path
     style="fill:#828188; stroke:none;"
     d="M486 277L485 286L486 286L486 277z"
     id="path686" />
  <path
     style="fill:#6c6b6e; stroke:none;"
     d="M17 280L17 286L18 286L17 280z"
     id="path688" />
  <path
     style="fill:#2f4191; stroke:none;"
     d="M351 280L352 296L351 280M348 284L348 286L350 286L350 284L348 284z"
     id="path690" />
  <path
     style="fill:#242e6f; stroke:none;"
     d="M164 285L164 293L165 293L164 285z"
     id="path692" />
  <path
     style="fill:#b2b2b8; stroke:none;"
     d="M485 286L485 294L486 294L485 286z"
     id="path694" />
  <path
     style="fill:#6c6b6e; stroke:none;"
     d="M18 287L18 293L19 293L18 287z"
     id="path696" />
  <path
     style="fill:#394a72; stroke:none;"
     d="M340 289L342 308L343 308L340 289z"
     id="path698" />
  <path
     style="fill:#17171e; stroke:none;"
     d="M323 291C326.055 303.96 321.4 335.37 341 328L341 327L330.434 326.168L328 316L326 291L323 291z"
     id="path700" />
  <path
     style="fill:#6779cd; stroke:none;"
     d="M349 291L349 293L351 293L351 291L349 291z"
     id="path702" />
  <path
     style="fill:#242e6f; stroke:none;"
     d="M137 292L135 415L136 415C136 395.97 136.091 377.013 136.001 358C135.968 351.058 134.355 341.675 139 336L139 335L139 334L139 331L139 330L139 329C134.622 323.222 138.026 315.164 140 309L137 292z"
     id="path704" />
  <path
     style="fill:#c3c9d1; stroke:none;"
     d="M18 293L18 302L19 302L18 293z"
     id="path706" />
  <path
     style="fill:#242e6f; stroke:none;"
     d="M163 294C158.19 305.352 166.109 322.873 157 332L157 333C167.031 330.535 162.815 312.188 163.015 304C163.098 300.589 164.156 297.223 163 294z"
     id="path708" />
  <path
     style="fill:#969598; stroke:none;"
     d="M484 297L484 302L485 302L484 297z"
     id="path710" />
  <path
     style="fill:#242e6f; stroke:none;"
     d="M146 299L146 332L147 332L146 299z"
     id="path712" />
  <path
     style="fill:#6c6b6e; stroke:none;"
     d="M483 302L483 309L484 309L483 302z"
     id="path714" />
  <path
     style="fill:#b2b2b8; stroke:none;"
     d="M19 304L19 309L20 309L19 304z"
     id="path716" />
  <path
     style="fill:#969598; stroke:none;"
     d="M20 309L21 318L22 318L20 309z"
     id="path718" />
  <path
     style="fill:#828188; stroke:none;"
     d="M482 310L482 318L483 318L482 310M22 318L22 323L23 323L22 318M481 318L481 322L482 322L481 318z"
     id="path720" />
  <path
     style="fill:#c3c9d1; stroke:none;"
     d="M22 323L22 328L23 328L22 323z"
     id="path722" />
  <path
     style="fill:#504e54; stroke:none;"
     d="M480 328L480 332L481 332L480 328z"
     id="path724" />
  <path
     style="fill:#c3c9d1; stroke:none;"
     d="M23 330L23 335L24 335L23 330z"
     id="path726" />
  <path
     style="fill:#6c6b6e; stroke:none;"
     d="M480 332L480 336L481 336L480 332z"
     id="path728" />
  <path
     style="fill:#b2b2b8; stroke:none;"
     d="M24 335L24 341L25 341L24 335z"
     id="path730" />
  <path
     style="fill:#969598; stroke:none;"
     d="M479 339L479 342L480 342L479 339z"
     id="path732" />
  <path
     style="fill:#c3c9d1; stroke:none;"
     d="M25 341L25 352L26 352L25 341z"
     id="path734" />
  <path
     style="fill:#828188; stroke:none;"
     d="M478 342L478 347L479 347L478 342z"
     id="path736" />
  <path
     style="fill:#6c6b6e; stroke:none;"
     d="M26 347L27 362L28 362L26 347z"
     id="path738" />
  <path
     style="fill:#c3c9d1; stroke:none;"
     d="M478 347L478 354L479 354L478 347z"
     id="path740" />
  <path
     style="fill:#6c6b6e; stroke:none;"
     d="M477 354L477 357L478 357L477 354z"
     id="path742" />
  <path
     style="fill:#2f4191; stroke:none;"
     d="M353 355L354 367L355 367L353 355z"
     id="path744" />
  <path
     style="fill:#d7d7da; stroke:none;"
     d="M477 357L477 361L478 361L477 357z"
     id="path746" />
  <path
     style="fill:#969598; stroke:none;"
     d="M476 361L476 364L477 364L476 361M475 364L475 371L476 371L475 364z"
     id="path748" />
  <path
     style="fill:#c3c9d1; stroke:none;"
     d="M28 365L28 377L29 377L28 365z"
     id="path750" />
  <path
     style="fill:#504e54; stroke:none;"
     d="M474 370L474 377L475 377L474 370z"
     id="path752" />
  <path
     style="fill:#b2b2b8; stroke:none;"
     d="M29 377L29 384L30 384L29 377z"
     id="path754" />
  <path
     style="fill:#969598; stroke:none;"
     d="M474 377L474 384L475 384L474 377z"
     id="path756" />
  <path
     style="fill:#828188; stroke:none;"
     d="M30 384L30 387L31 387L30 384M473 385L473 393L474 393L473 385z"
     id="path758" />
  <path
     style="fill:#969598; stroke:none;"
     d="M31 390L31 394L32 394L31 390z"
     id="path760" />
  <path
     style="fill:#d7d7da; stroke:none;"
     d="M31 394L32 409L33 409L31 394z"
     id="path762" />
  <path
     style="fill:#6c6b6e; stroke:none;"
     d="M472 394L472 401L473 401L472 394M32 397L32 403L33 403L32 397z"
     id="path764" />
  <path
     style="fill:#c3c9d1; stroke:none;"
     d="M472 401L472 416L473 416L472 401z"
     id="path766" />
  <path
     style="fill:#828188; stroke:none;"
     d="M33 403L33 409L34 409L33 403z"
     id="path768" />
  <path
     style="fill:#b2b2b8; stroke:none;"
     d="M33 409L35 424L36 424L33 409z"
     id="path770" />
  <path
     style="fill:#6c6b6e; stroke:none;"
     d="M471 411L471 416L472 416L471 411z"
     id="path772" />
  <path
     style="fill:#d7d7da; stroke:none;"
     d="M471 416L471 424L472 424L471 416z"
     id="path774" />
  <path
     style="fill:#6c6b6e; stroke:none;"
     d="M470 421L470 424L471 424L470 421z"
     id="path776" />
  <path
     style="fill:#2f4191; stroke:none;"
     d="M136 424L136 451L137 451C138.669 443.132 139.157 431.507 136 424z"
     id="path778" />
  <path
     style="fill:#242e6f; stroke:none;"
     d="M358 424L358 436L359 436L358 424z"
     id="path780" />
  <path
     style="fill:#969598; stroke:none;"
     d="M469 426L468 438L469 438L469 426z"
     id="path782" />
  <path
     style="fill:#828188; stroke:none;"
     d="M36 430L36 435L37 435L36 430z"
     id="path784" />
  <path
     style="fill:#6c6b6e; stroke:none;"
     d="M37 434L37 440L38 440L37 434z"
     id="path786" />
  <path
     style="fill:#d7d7da; stroke:none;"
     d="M36 435L36 443L37 443L36 435z"
     id="path788" />
  <path
     style="fill:#b2b2b8; stroke:none;"
     d="M37 440L37 446L38 446L37 440z"
     id="path790" />
  <path
     style="fill:#504e54; stroke:none;"
     d="M467 440L467 448L468 448L467 440z"
     id="path792" />
  <path
     style="fill:#242e6f; stroke:none;"
     d="M359 444L359 462L360 462L359 444z"
     id="path794" />
  <path
     style="fill:#828188; stroke:none;"
     d="M38 446L38 451L39 451L38 446z"
     id="path796" />
  <path
     style="fill:#d7d7da; stroke:none;"
     d="M467 448L466 464L467 464L467 448M38 451L38 462L39 462L38 451z"
     id="path798" />
  <path
     style="fill:#2f4191; stroke:none;"
     d="M136 452L136 482L137 482L138 452L136 452z"
     id="path800" />
  <path
     style="fill:#969598; stroke:none;"
     d="M39 464L39 467L40 467L39 464z"
     id="path802" />
  <path
     style="fill:#b2b2b8; stroke:none;"
     d="M465 466L465 472L466 472L465 466M40 469L40 474L41 474L40 469z"
     id="path804" />
  <path
     style="fill:#828188; stroke:none;"
     d="M41 475L41 478L42 478L41 475z"
     id="path806" />
  <path
     style="fill:#c3c9d1; stroke:none;"
     d="M41 478L41 492L42 492L41 478z"
     id="path808" />
  <path
     style="fill:#504e54; stroke:none;"
     d="M42 481L42 493L43 493L42 481z"
     id="path810" />
  <path
     style="fill:#242e6f; stroke:none;"
     d="M361 481L361 549L362 549L362 502L361 481z"
     id="path812" />
  <path
     style="fill:#b2b2b8; stroke:none;"
     d="M464 481L464 488L465 488L464 481z"
     id="path814" />
  <path
     style="fill:#242e6f; stroke:none;"
     d="M136 482L136 532L137 532C137 517.951 141.409 494.89 136 482z"
     id="path816" />
  <path
     style="fill:#b2b2b8; stroke:none;"
     d="M463 488L463 493L464 493L463 488M42 493L42 499L43 499L42 493z"
     id="path818" />
  <path
     style="fill:#6c6b6e; stroke:none;"
     d="M462 493L462 499L463 499L462 493z"
     id="path820" />
  <path
     style="fill:#b2b2b8; stroke:none;"
     d="M462 499L462 504L463 504L462 499z"
     id="path822" />
  <path
     style="fill:#969598; stroke:none;"
     d="M43 501L43 507L44 507L43 501z"
     id="path824" />
  <path
     style="fill:#504e54; stroke:none;"
     d="M461 506L461 515L462 515L461 506z"
     id="path826" />
  <path
     style="fill:#6c6b6e; stroke:none;"
     d="M44 508L44 514L45 514L44 508z"
     id="path828" />
  <path
     style="fill:#d7d7da; stroke:none;"
     d="M44 514L44 525L45 525L44 514z"
     id="path830" />
  <path
     style="fill:#969598; stroke:none;"
     d="M461 515L461 523L462 523L461 515M460 525L460 533L461 533L460 525z"
     id="path832" />
  <path
     style="fill:#b2b2b8; stroke:none;"
     d="M46 530L46 538L47 538L46 530z"
     id="path834" />
  <path
     style="fill:#6c6b6e; stroke:none;"
     d="M459 533L459 539L460 539L459 533z"
     id="path836" />
  <path
     style="fill:#828188; stroke:none;"
     d="M47 538L47 541L48 541L47 538z"
     id="path838" />
  <path
     style="fill:#969598; stroke:none;"
     d="M457.333 542.667L457.667 543.333L457.333 542.667z"
     id="path840" />
  <path
     style="fill:#6c6b6e; stroke:none;"
     d="M455 546L456 547L455 546z"
     id="path842" />
  <path
     style="fill:#b2b2b8; stroke:none;"
     d="M453.667 547.333L454.333 547.667L453.667 547.333z"
     id="path844" />
  <path
     style="fill:#969598; stroke:none;"
     d="M451 548L451 550L453 548L451 548z"
     id="path846" />
  <path
     style="fill:#394a72; stroke:none;"
     d="M256 549L256 550L325 550L303 549L256 549z"
     id="path848" />
  <path
     style="fill:#3a3947; stroke:none;"
     d="M325 549L325 550L392 551L369 549.999L325 549M428 549L428 550L445 551L428 549z"
     id="path850" />
  <path
     style="fill:#6c6b6e; stroke:none;"
     d="M446 549L446 550L451 550L446 549z"
     id="path852" />
  <path
     style="fill:#242e6f; stroke:none;"
     d="M141 550L141 551L256 551L221 550L141 550z"
     id="path854" />
  <path
     style="fill:#6c6b6e; stroke:none;"
     d="M53 551L56 553L53 551z"
     id="path856" />
  <path
     style="fill:#828188; stroke:none;"
     d="M438 551L438 552L441 552L438 551z"
     id="path858" />
  <path
     style="fill:#504e54; stroke:none;"
     d="M395 552L395 553L411 553L395 552z"
     id="path860" />
  <path
     style="fill:#828188; stroke:none;"
     d="M411 552L411 553L433 553L411 552z"
     id="path862" />
  <path
     style="fill:#504e54; stroke:none;"
     d="M56 553L56 554L60 554L56 553M277 553L277 554L331 554L313 553L277 553z"
     id="path864" />
  <path
     style="fill:#828188; stroke:none;"
     d="M331 553L331 554L380 554C367.348 548.691 344.788 553 331 553z"
     id="path866" />
  <path
     style="fill:#b2b2b8; stroke:none;"
     d="M380 553L380 554L395 554L380 553z"
     id="path868" />
  <path
     style="fill:#c3c9d1; stroke:none;"
     d="M58 554L58 555L66 555L58 554z"
     id="path870" />
  <path
     style="fill:#6c6b6e; stroke:none;"
     d="M66 554L66 555L94 555L66 554z"
     id="path872" />
  <path
     style="fill:#969598; stroke:none;"
     d="M94 554L94 555L128 555L94 554z"
     id="path874" />
  <path
     style="fill:#b2b2b8; stroke:none;"
     d="M128 554L128 555L242 555L207 554L128 554z"
     id="path876" />
  <path
     style="fill:#d7d7da; stroke:none;"
     d="M242 554L242 555L331 555L304 554L242 554M70 555L70 556L115 556C103.299 551.09 82.742 555 70 555z"
     id="path878" />
</svg>
