<?xml version="1.0" encoding="UTF-8" standalone="no"?>
<svg
   xmlns:dc="http://purl.org/dc/elements/1.1/"
   xmlns:cc="http://creativecommons.org/ns#"
   xmlns:rdf="http://www.w3.org/1999/02/22-rdf-syntax-ns#"
   xmlns:svg="http://www.w3.org/2000/svg"
   xmlns="http://www.w3.org/2000/svg"
   xmlns:sodipodi="http://sodipodi.sourceforge.net/DTD/sodipodi-0.dtd"
   xmlns:inkscape="http://www.inkscape.org/namespaces/inkscape"
   width="445"
   height="498"
   id="svg2"
   version="1.1"
   inkscape:version="0.48.4 r9939"
   sodipodi:docname="Fwd-2016-Newest-Popular-handbag-designs-from-Ceso-22-2016022459.svg">
  <metadata
     id="metadata1074">
    <rdf:RDF>
      <cc:Work
         rdf:about="">
        <dc:format>image/svg+xml</dc:format>
        <dc:type
           rdf:resource="http://purl.org/dc/dcmitype/StillImage" />
        <dc:title></dc:title>
      </cc:Work>
    </rdf:RDF>
  </metadata>
  <defs
     id="defs1072" />
  <sodipodi:namedview
     pagecolor="#ffffff"
     bordercolor="#666666"
     borderopacity="1"
     objecttolerance="10"
     gridtolerance="10"
     guidetolerance="10"
     inkscape:pageopacity="0"
     inkscape:pageshadow="2"
     inkscape:window-width="640"
     inkscape:window-height="480"
     id="namedview1070"
     showgrid="false"
     inkscape:zoom="0.47389558"
     inkscape:cx="222.5"
     inkscape:cy="249"
     inkscape:window-x="0"
     inkscape:window-y="0"
     inkscape:window-maximized="0"
     inkscape:current-layer="svg2" />
  <path
     style="fill:#e2ccb7; stroke:none;"
     d="M219 6L219 7L224 7L219 6z"
     id="path6" />
  <path
     style="fill:#7d6d6a; stroke:none;"
     d="M214 8L214 9L229 8L214 8z"
     id="path8" />
  <path
     style="fill:#585359; stroke:none;"
     d="M173 72L172 72L172 69L171 69C166.374 87.5123 151.822 105.913 151 125L149 124L146 140L144 139C143.075 147.975 129.72 180.803 120 164L116 165L140 114C129.785 122.273 124.872 139.781 118.29 151C115.1 156.438 109.354 160.421 107 166L111 169L106 168L106 161L105 161L99 167L105 165L103 168L115 170L116 170L126 171L124 175L125 186L126 186L129 180L129 179L126 179L135 169L136 169L136 172L144 166L141 168L140 165C146.174 164.203 155.657 160.015 161 164C168.319 162.581 180.207 162.233 184 155C173.053 161.022 154.512 161.384 142 163C145.804 149.797 152.455 136.897 157.343 124C166.703 99.3075 174.441 74.8951 188.015 52C194.084 41.7621 205.684 34.8649 211 25L201 31L208 23L197 31L211 18L210 15C218.887 12.5016 227.517 10.5853 235.946 15.6837C241.863 19.2626 244.814 25.2195 252 27C252.158 33.5317 256.311 40.6503 262 44L261 48L272.295 68.9992L296 129C299.303 119.3 290.795 107.105 287.96 98C283.974 85.2004 278.24 73.0033 272.514 60.9105C263.225 41.2942 254.853 17.2368 232 9.12964C202.268 -1.41782 173.068 47.3019 173 72z"
     id="path10" />
  <path
     style="fill:#e2ccb7; stroke:none;"
     d="M230 8L230 9L233 9L230 8z"
     id="path12" />
  <path
     style="fill:#b1aaa8; stroke:none;"
     d="M236.667 11.3333L237.333 11.6667L236.667 11.3333z"
     id="path14" />
  <path
     style="fill:#51637c; stroke:none;"
     d="M210 15L215 19L215 20L208 24L211 26L212 26C234.754 14.0104 253.815 36.4333 257 58L258 58L258 55L259 55L262 62L263 62C262.497 57.7428 265.439 48.9512 261 48L262 44L258 39L256 41L245 26L251 31L252 27C245.567 24.4832 242.407 19.2029 236.871 15.6837C228.723 10.5034 218.583 11.78 210 15z"
     id="path16" />
  <path
     style="fill:#7f797e; stroke:none;"
     d="M197 31L215 20C207.56 15.6388 199.922 24.7339 197 31z"
     id="path20" />
  <path
     style="fill:#b1aaa8; stroke:none;"
     d="M220 22L220 23L230 23L220 22z"
     id="path32" />
  <path
     style="fill:#939ba5; stroke:none;"
     d="M232.667 23.3333L233.333 23.6667L232.667 23.3333z"
     id="path40" />
  <path
     style="fill:#7f797e; stroke:none;"
     d="M201 31L211 25C206.742 24.0206 203.063 27.4919 201 31z"
     id="path42" />
  <path
     style="fill:#b0bcc9; stroke:none;"
     d="M212 25L212 26L216 25L212 25z"
     id="path44" />
  <path
     style="fill:#7f797e; stroke:none;"
     d="M245 26L257 41L252 28L251 28L251 31L245 26z"
     id="path46" />
  <path
     style="fill:#b1aaa8; stroke:none;"
     d="M190 30L190 32L192 30L190 30z"
     id="path48" />
  <path
     style="fill:#b0bcc9; stroke:none;"
     d="M244.333 30.6667L244.667 31.3333L244.333 30.6667z"
     id="path50" />
  <path
     style="fill:#9b8d7c; stroke:none;"
     d="M257.333 30.6667L257.667 31.3333L257.333 30.6667z"
     id="path52" />
  <path
     style="fill:#b0bcc9; stroke:none;"
     d="M245 32L247 35L245 32z"
     id="path54" />
  <path
     style="fill:#9b8d7c; stroke:none;"
     d="M258 32L260 35L258 32z"
     id="path56" />
  <path
     style="fill:#b0bcc9; stroke:none;"
     d="M247 35L249 38L247 35z"
     id="path62" />
  <path
     style="fill:#b1aaa8; stroke:none;"
     d="M261.333 36.6667L261.667 37.3333L261.333 36.6667z"
     id="path64" />
  <path
     style="fill:#b0bcc9; stroke:none;"
     d="M249.333 38.6667L249.667 39.3333L249.333 38.6667M63 39L63 40L69 40L63 39z"
     id="path68" />
  <path
     style="fill:#9b8d7c; stroke:none;"
     d="M183 40L179 48L180 48L183 40z"
     id="path70" />
  <path
     style="fill:#b0bcc9; stroke:none;"
     d="M250.333 40.6667L250.667 41.3333L250.333 40.6667z"
     id="path72" />
  <path
     style="fill:#b0bcc9; stroke:none;"
     d="M253.333 46.6667L253.667 47.3333L253.333 46.6667z"
     id="path84" />
  <path
     style="fill:#939ba5; stroke:none;"
     d="M177 48L176 52L179 48L177 48z"
     id="path86" />
  <path
     style="fill:#b1aaa8; stroke:none;"
     d="M254.333 48.6667L254.667 49.3333L254.333 48.6667z"
     id="path88" />
  <path
     style="fill:#7f797e; stroke:none;"
     d="M178 50C169.081 59.0779 165.836 69.5414 165 82L171 69L172 69L172 72L173 72L178 50z"
     id="path90" />
  <path
     style="fill:#b1aaa8; stroke:none;"
     d="M269.333 51.6667L269.667 52.3333L269.333 51.6667z"
     id="path92" />
  <path
     style="fill:#b1aaa8; stroke:none;"
     d="M174 53L173 56L174 53z"
     id="path96" />
  <path
     style="fill:#19497b; stroke:none;"
     d="M263 53L263 62L262 62L259 55L258 55C260.083 69.1071 270.086 81.3488 276 94L278 92L282 98C281.114 84.0911 271.986 65.0129 265 53L263 53z"
     id="path98" />
  <path
     style="fill:#7f797e; stroke:none;"
     d="M270 53L283 78L286 77L270 53z"
     id="path100" />
  <path
     style="fill:#b1aaa8; stroke:none;"
     d="M258.333 58.6667L258.667 59.3333L258.333 58.6667z"
     id="path104" />
  <path
     style="fill:#b0bcc9; stroke:none;"
     d="M275 60L277 63L275 60M182 61L182 64L183 64L182 61z"
     id="path110" />
  <path
     style="fill:#4a79a7; stroke:none;"
     d="M275 64L292 112L293 112C292.769 106.628 290.989 102.253 295 98L312 130L314 130C313.614 116.984 300.002 99.1257 293.258 88C291.043 84.347 288.172 75.6027 283 78L275 64z"
     id="path112" />
  <path
     style="fill:#4a79a7; stroke:none;"
     d="M166 65C155.447 82.0279 141.405 101.905 138 122L139 122L151 100L150 95L151 95L152 97L164 80L162 91L153 107L152 115L153 115C159.289 104.326 162.818 92.1211 165.259 80.0895C166.387 74.5325 169.69 70.4026 166 65z"
     id="path116" />
  <path
     style="fill:#b0bcc9; stroke:none;"
     d="M179.333 67.6667L179.667 68.3333L179.333 67.6667z"
     id="path120" />
  <path
     style="fill:#939ba5; stroke:none;"
     d="M262.333 67.6667L262.667 68.3333L262.333 67.6667z"
     id="path122" />
  <path
     style="fill:#b0bcc9; stroke:none;"
     d="M178.333 69.6667L178.667 70.3333L178.333 69.6667z"
     id="path124" />
  <path
     style="fill:#939ba5; stroke:none;"
     d="M162 71L161 74L162 71z"
     id="path126" />
  <path
     style="fill:#dbd6da; stroke:none;"
     d="M177 71L176 75L177 75L177 71z"
     id="path128" />
  <path
     style="fill:#b1aaa8; stroke:none;"
     d="M265 74L267 77L265 74z"
     id="path130" />
  <path
     style="fill:#3c3843; stroke:none;"
     d="M275 76L281 93L282 93L277 76L275 76z"
     id="path132" />
  <path
     style="fill:#b1aaa8; stroke:none;"
     d="M267 77L267 80L268 80L267 77z"
     id="path134" />
  <path
     style="fill:#b0bcc9; stroke:none;"
     d="M156.333 80.6667L156.667 81.3333L156.333 80.6667z"
     id="path154" />
  <path
     style="fill:#2e6eab; stroke:none;"
     d="M162 80L151 95L150 95L151 100L141.8 116.829L123 157L126 156L126 158L132 152L137 152L137 157L138 157L149 124L151 125L153 107C160.039 107 156.494 89.6235 162 91L164 80L162 80z"
     id="path156" />
  <path
     style="fill:#87abd0; stroke:none;"
     d="M155 82L153 88L154 88L155 82z"
     id="path174" />
  <path
     style="fill:#b1aaa8; stroke:none;"
     d="M171.333 84.6667L171.667 85.3333L171.333 84.6667z"
     id="path180" />
  <path
     style="fill:#9b8d7c; stroke:none;"
     d="M170 86L170 89L171 89L170 86z"
     id="path194" />
  <path
     style="fill:#b0bcc9; stroke:none;"
     d="M292.333 86.6667L292.667 87.3333L292.333 86.6667z"
     id="path196" />
  <path
     style="fill:#b1aaa8; stroke:none;"
     d="M169.333 89.6667L169.667 90.3333L169.333 89.6667z"
     id="path204" />
  <path
     style="fill:#b0bcc9; stroke:none;"
     d="M273 89L275 92L273 89z"
     id="path206" />
  <path
     style="fill:#b0bcc9; stroke:none;"
     d="M168 92L168 95L169 95L168 92M275.333 92.6667L275.667 93.3333L275.333 92.6667z"
     id="path214" />
  <path
     style="fill:#3c3843; stroke:none;"
     d="M277 92L287.11 114L303 154L304 154L299 135L300 135L303 144L304 144L305 140L297 120L296 120L297 129L296 129L283 93L282 93L282 98L277 92z"
     id="path216" />
  <path
     style="fill:#2e6eab; stroke:none;"
     d="M294 98C290.275 103.32 293.231 110.046 294 116L298 115L302 121C301.44 124.374 301.451 126.28 305 127C305.542 131.163 305.851 134.338 310 136L308 140L311 142L312 142L314 138L315 138L315 144L316 144L317 142C318.546 147.918 321.811 156.206 328 158L325 155L326 152L294 98z"
     id="path244" />
  <path
     style="fill:#b0bcc9; stroke:none;"
     d="M299 99L301 102L299 99z"
     id="path246" />
  <path
     style="fill:#b1aaa8; stroke:none;"
     d="M165.333 100.667L165.667 101.333L165.333 100.667M280.333 101.667L280.667 102.333L280.333 101.667z"
     id="path248" />
  <path
     style="fill:#b0bcc9; stroke:none;"
     d="M301.333 102.667L301.667 103.333L301.333 102.667M164 103L164 106L165 106L164 103M281.333 103.667L281.667 104.333L281.333 103.667M143 104L143 106L145 104L143 104M305 109L306 113L307 113L305 109z"
     id="path250" />
  <path
     style="fill:#939ba5; stroke:none;"
     d="M140.333 110.667L140.667 111.333L140.333 110.667M285 111L287 114L285 111M139 112L138 115L139 112M287.333 114.667L287.667 115.333L287.333 114.667z"
     id="path252" />
  <path
     style="fill:#4a79a7; stroke:none;"
     d="M296 115L301 135L305 134L307 143L310 143L310 147L313 146L314 152C318.541 152 323.122 159.469 321 160L321 161L327 160L323 162L324 168L336 163L336 162C325.733 159.202 320.613 151.517 317 142L316 144L315 144L315 138L314 138L312 142L311 142L308 140L310 136L305 127C301.663 126.247 301.726 124.159 302 121L296 115z"
     id="path254" />
  <path
     style="fill:#9b8d7c; stroke:none;"
     d="M288.333 116.667L288.667 117.333L288.333 116.667z"
     id="path256" />
  <path
     style="fill:#b0bcc9; stroke:none;"
     d="M309 117L311 120L309 117z"
     id="path258" />
  <path
     style="fill:#b1aaa8; stroke:none;"
     d="M289 119L289 122L290 122L289 119z"
     id="path260" />
  <path
     style="fill:#739cc7; stroke:none;"
     d="M139 120C131.549 132.908 119.287 150.635 116 165C125.423 160.085 130.405 142.042 135.08 133C136.908 129.465 140.101 123.966 139 120z"
     id="path262" />
  <path
     style="fill:#939ba5; stroke:none;"
     d="M291.333 124.667L291.667 125.333L291.333 124.667z"
     id="path264" />
  <path
     style="fill:#b1aaa8; stroke:none;"
     d="M156 125L156 128L157 128L156 125M131.333 126.667L131.667 127.333L131.333 126.667z"
     id="path266" />
  <path
     style="fill:#7f797e; stroke:none;"
     d="M292.333 126.667L292.667 127.333L292.333 126.667z"
     id="path268" />
  <path
     style="fill:#739cc7; stroke:none;"
     d="M314 126C314.097 134.72 318.872 146.609 326 152L325 155L330 159C327.49 148.77 320.724 134.115 314 126z"
     id="path270" />
  <path
     style="fill:#b0bcc9; stroke:none;"
     d="M155.333 128.667L155.667 129.333L155.333 128.667z"
     id="path272" />
  <path
     style="fill:#9b8d7c; stroke:none;"
     d="M293 128L293 131L294 131L293 128z"
     id="path274" />
  <path
     style="fill:#b1aaa8; stroke:none;"
     d="M294 131L294 134L295 134L294 131z"
     id="path276" />
  <path
     style="fill:#9b8d7c; stroke:none;"
     d="M153 133L152 138L153 138L153 133z"
     id="path278" />
  <path
     style="fill:#51637c; stroke:none;"
     d="M145 134L141 148L142 148L144 139L146 140L145 134z"
     id="path280" />
  <path
     style="fill:#739cc7; stroke:none;"
     d="M303 134L305 140L304 144L307 150L310 150L312 154C311.243 157.754 311.863 162.118 316 163L315 167L318 171C322.64 169.142 324.019 166.915 323 162L327 160L321 161L321 160L323 159L314 152L313 146L310 147L310 143L307 143L303 134z"
     id="path282" />
  <path
     style="fill:#585359; stroke:none;"
     d="M299 135L315 174C321.938 171.659 330.207 171.449 335 165L339 167C339.431 162.522 337.237 160.876 333 160L336 162L318 171L315 167L316 163L312 154L310 150L307 150L299 135z"
     id="path284" />
  <path
     style="fill:#b1aaa8; stroke:none;"
     d="M151.333 138.667L151.667 139.333L151.333 138.667z"
     id="path286" />
  <path
     style="fill:#dbd6da; stroke:none;"
     d="M190 141L190 142L198 142L190 141z"
     id="path288" />
  <path
     style="fill:#739cc7; stroke:none;"
     d="M235 141L235 142L249 142L235 141z"
     id="path290" />
  <path
     style="fill:#dbd6da; stroke:none;"
     d="M298 141L299 146L300 146L298 141z"
     id="path292" />
  <path
     style="fill:#2e6eab; stroke:none;"
     d="M196 150L200 143C190.136 140.651 183.703 147.563 196 150z"
     id="path294" />
  <path
     style="fill:#b1aaa8; stroke:none;"
     d="M198 142L198 143L203 143L198 142z"
     id="path296" />
  <path
     style="fill:#7f797e; stroke:none;"
     d="M234 142L234 146L235 146L234 142z"
     id="path298" />
  <path
     style="fill:#121522; stroke:none;"
     d="M235 142L235 150L232 147L231 147L231 152L235 152L235 153L232 154L232 155L243 156L252 182L251 182L246 168L245 168L250 189L259 189C258.303 172.767 252.669 165.408 243.059 153.08C240.149 149.349 239.066 144.68 235 142z"
     id="path300" />
  <path
     style="fill:#3c3843; stroke:none;"
     d="M237 142L240 146L237 142z"
     id="path302" />
  <path
     style="fill:#2e6eab; stroke:none;"
     d="M239 142C239.664 145.986 244.042 153.468 250 149C252.594 147.054 248.763 142.95 249 142L239 142z"
     id="path304" />
  <path
     style="fill:#4a79a7; stroke:none;"
     d="M248 143L251 154L252 154L254 152L253 157L259 160C256.561 154.535 254.867 143.322 248 143z"
     id="path306" />
  <path
     style="fill:#585359; stroke:none;"
     d="M198 148L199 148L201 144L202 144L203 150L204 150L205 144C200.997 143.096 199.404 144.18 198 148z"
     id="path308" />
  <path
     style="fill:#b1aaa8; stroke:none;"
     d="M121.333 144.667L121.667 145.333L121.333 144.667z"
     id="path310" />
  <path
     style="fill:#3c3843; stroke:none;"
     d="M186 144L185 154C188.933 152.129 191.521 150.56 194 155L200 147L196 150C191.93 148.895 189.291 148.254 188 144L186 144z"
     id="path312" />
  <path
     style="fill:#121522; stroke:none;"
     d="M201 144L182.569 170.259L179 189C183.6 188.799 187.721 188.363 190 184L191 184L190 192C195.251 188.294 201.984 168.323 201 162L204 162L203 156L209 155L209 153L201 144z"
     id="path314" />
  <path
     style="fill:#e2ccb7; stroke:none;"
     d="M205 144L204 150L205 150L205 144z"
     id="path316" />
  <path
     style="fill:#9b8d7c; stroke:none;"
     d="M206 145L206 146L212 146L206 145z"
     id="path318" />
  <path
     style="fill:#e2ccb7; stroke:none;"
     d="M227 145L227 146L233 146L227 145z"
     id="path320" />
  <path
     style="fill:#b1aaa8; stroke:none;"
     d="M148.333 146.667L148.667 147.333L148.333 146.667z"
     id="path322" />
  <path
     style="fill:#121522; stroke:none;"
     d="M206 146L206 151L208 151L208 147L215 152C213.595 146.791 211.137 146.061 206 146z"
     id="path324" />
  <path
     style="fill:#7d6d6a; stroke:none;"
     d="M227 146L227 147L230 152L231 152L231 147L232 147L235 150L235 149L233 146L227 146z"
     id="path326" />
  <path
     style="fill:#b0bcc9; stroke:none;"
     d="M300.333 146.667L300.667 147.333L300.333 146.667z"
     id="path328" />
  <path
     style="fill:#9b8d7c; stroke:none;"
     d="M208 147L208 151L209 151L210 147L208 147z"
     id="path330" />
  <path
     style="fill:#121522; stroke:none;"
     d="M225 152L229 147L225 152z"
     id="path332" />
  <path
     style="fill:#3c3843; stroke:none;"
     d="M240 147L244 156L245 156C246.178 152.118 248.048 151.301 252 151L252 150L240 147z"
     id="path334" />
  <path
     style="fill:#939ba5; stroke:none;"
     d="M147.333 148.667L147.667 149.333L147.333 148.667z"
     id="path336" />
  <path
     style="fill:#dbd6da; stroke:none;"
     d="M209 148L207 151L207 152L211 152L211 148L209 148z"
     id="path338" />
  <path
     style="fill:#4a79a7; stroke:none;"
     d="M214 148L215 152C210.626 152.325 208.197 153.662 207 158L219 154L220 154L221 154L234 157L234 154L234 153L228 150L227 150C222.021 153.017 218.265 151.293 214 148z"
     id="path340" />
  <path
     style="fill:#939ba5; stroke:none;"
     d="M301.333 148.667L301.667 149.333L301.333 148.667z"
     id="path342" />
  <path
     style="fill:#b0bcc9; stroke:none;"
     d="M325 148L327 151L325 148z"
     id="path344" />
  <path
     style="fill:#7f797e; stroke:none;"
     d="M205 149C205.177 152.436 206.723 152.741 210 153L210 152L205 149z"
     id="path346" />
  <path
     style="fill:#9b8d7c; stroke:none;"
     d="M211 149L211 152L212 152L211 149M224.333 149.667L224.667 150.333L224.333 149.667z"
     id="path348" />
  <path
     style="fill:#dbd6da; stroke:none;"
     d="M228 149L228 152L230 152L230 149L228 149z"
     id="path350" />
  <path
     style="fill:#b1aaa8; stroke:none;"
     d="M118 150L117 153L118 150M184.333 150.667L184.667 151.333L184.333 150.667z"
     id="path352" />
  <path
     style="fill:#9b8d7c; stroke:none;"
     d="M302.333 150.667L302.667 151.333L302.333 150.667z"
     id="path354" />
  <path
     style="fill:#e2ccb7; stroke:none;"
     d="M188 151L188 154L190 151L188 151z"
     id="path356" />
  <path
     style="fill:#9b8d7c; stroke:none;"
     d="M190.333 151.667L190.667 152.333L190.333 151.667z"
     id="path358" />
  <path
     style="fill:#b0bcc9; stroke:none;"
     d="M191 151L191 154L193 154L193 151L191 151z"
     id="path360" />
  <path
     style="fill:#939ba5; stroke:none;"
     d="M246 151L246 152C247.96 152.653 248.554 153 246 153L246 154L251 151L246 151z"
     id="path362" />
  <path
     style="fill:#4d8ac2; stroke:none;"
     d="M132 152L126 158L126 156L118 165L131 170L128 169L134 152L132 152z"
     id="path364" />
  <path
     style="fill:#739cc7; stroke:none;"
     d="M135 152L128 169C134.242 166.919 136.737 158.008 137 152L135 152z"
     id="path366" />
  <path
     style="fill:#51637c; stroke:none;"
     d="M184 152C185.249 155.55 187.5 155.646 191 156L189 160L194 152L193 152L188 152L184 152z"
     id="path368" />
  <path
     style="fill:#939ba5; stroke:none;"
     d="M228 152L228 153L235 153L228 152z"
     id="path370" />
  <path
     style="fill:#2e6eab; stroke:none;"
     d="M245 152C245.941 158.125 255.56 172.003 260.584 175.825C264.335 178.677 269.172 176.588 272 181L278 181L276 177L281 175C279.219 169.634 274.282 171.194 270 173L264 163L276 164L259 157L258 157L259 160L245 152z"
     id="path372" />
  <path
     style="fill:#dbd6da; stroke:none;"
     d="M246.667 152.333L247.333 152.667L246.667 152.333M250.333 152.667L250.667 153.333L250.333 152.667z"
     id="path374" />
  <path
     style="fill:#132c4b; stroke:none;"
     d="M252 152L248 154L248 156C251.41 155.737 252.901 155.321 254 152L252 152M304 152L309 165L292 162L292 164L299 166L285 167L285 171C298.509 174.585 298.918 183.243 306.004 193.586C312.053 202.415 317.372 211.617 323.078 220.87C326.56 226.516 333.537 226.921 335 234C340.398 236.958 344.095 242.991 345 249L349 250L342 230L348 230L348 234L350 234L350 228C342.935 228.474 341.195 226.67 339 220C346.258 218.928 353.568 215.645 359.995 212.16C363.293 210.371 367.337 207.874 363 205C359.778 210.87 351.2 214.109 345 216L337 199L333 208L335 206L336 206C336.901 207.978 337.963 209.853 338.256 212.041C340.553 229.208 321.627 219.68 325 211C323.875 200.147 314.571 189.988 319 179L317 174L304 152z"
     id="path376" />
  <path
     style="fill:#5486b6; stroke:none;"
     d="M183 153L181 157L183 153z"
     id="path378" />
  <path
     style="fill:#b0bcc9; stroke:none;"
     d="M328 153L330 156L328 153z"
     id="path380" />
  <path
     style="fill:#2e6eab; stroke:none;"
     d="M219 154L207 160L196 186L197 186C201.309 180.084 206.604 176.083 214 176L216 173L217 178L218 178L220 176L212 167L212 166L212 165L213 162L224 168L225 168L226 168C230.49 164.757 231.559 168.744 234 172C229.367 175.299 223.27 178.521 220.333 183.6C216.979 189.4 226.296 191.008 230 190L233 192L235 198L236 198L240 196C238.312 190.052 231.424 183.183 225 184C229.61 178.727 238.914 182.33 240 189L241 189L241 186L245 186L246 198L247 198C246.995 190.81 246.279 170.084 236 172C237.47 157.065 230.343 159.512 221 154L219 154z"
     id="path382" />
  <path
     style="fill:#939ba5; stroke:none;"
     d="M256.333 154.667L256.667 155.333L256.333 154.667z"
     id="path384" />
  <path
     style="fill:#2e6eab; stroke:none;"
     d="M184 155L176 160C173.665 169.045 165.699 176.191 168 186L161 180C155.149 181.592 151.709 183.609 151 190C155.677 186.636 158.747 185.184 163 190L167 189L164 195C168.239 193.927 172.203 194.476 174 190L168 191L169 186L178 186L178 183L168 183C169.397 178.087 172.116 176.016 177 178L178 178L191 156L184 155z"
     id="path386" />
  <path
     style="fill:#19497b; stroke:none;"
     d="M203 156L204 162L201 162C201.352 169.408 195.079 186.585 190 192L191 184L190 184L179 189L179 183L178 186L169 186L168 191L174 190L174 198L177 192L188 192L185 214L186 214L186 210L187 210L190 213L190 209L192 210L194 199L197 200C195.763 194.735 194.409 190.396 196.56 185C199.613 177.34 207.945 168.538 207 160L211 156L207 158C206.395 155.233 205.711 155.423 203 156z"
     id="path388" />
  <path
     style="fill:#132c4b; stroke:none;"
     d="M234 155L236 172C251.479 170.661 240.972 201.067 251 204C247.05 211.641 252.101 217.675 253.701 225.039C254.797 230.082 254.346 235.821 255 241C260.618 236.723 257.221 225.965 256.246 220C253.345 202.253 248.49 182.313 239.564 166.896C237.294 162.975 237.784 157.67 234 155z"
     id="path390" />
  <path
     style="fill:#b1aaa8; stroke:none;"
     d="M144.333 156.667L144.667 157.333L144.333 156.667z"
     id="path392" />
  <path
     style="fill:#3c3843; stroke:none;"
     d="M237 157L237 158C243.942 164.949 247.562 183.398 249 193L250 193L245 168L246 168L251 182L252 182L243 156L237 157z"
     id="path394" />
  <path
     style="fill:#939ba5; stroke:none;"
     d="M257 156L257 157L263 157L257 156M174 157L174 158L181 158L174 157z"
     id="path396" />
  <path
     style="fill:#7f797e; stroke:none;"
     d="M259 157L259 158L271 158L259 157z"
     id="path398" />
  <path
     style="fill:#51637c; stroke:none;"
     d="M330 157L332 162L333 162L330 157z"
     id="path400" />
  <path
     style="fill:#939ba5; stroke:none;"
     d="M143.333 158.667L143.667 159.333L143.333 158.667z"
     id="path402" />
  <path
     style="fill:#dbd6da; stroke:none;"
     d="M161 158L161 159L168 159L161 158z"
     id="path404" />
  <path
     style="fill:#939ba5; stroke:none;"
     d="M168 158L168 159L172 159L168 158z"
     id="path406" />
  <path
     style="fill:#121522; stroke:none;"
     d="M237 158C237.213 162.605 238.072 167.218 242 170C241.626 165.433 241.018 160.663 237 158z"
     id="path408" />
  <path
     style="fill:#3c3843; stroke:none;"
     d="M260 158L260 160L269 160L260 158z"
     id="path410" />
  <path
     style="fill:#51637c; stroke:none;"
     d="M267 158L267 159L281 160L267 158z"
     id="path412" />
  <path
     style="fill:#939ba5; stroke:none;"
     d="M273 158L273 159L280 159L273 158z"
     id="path414" />
  <path
     style="fill:#7f797e; stroke:none;"
     d="M305.333 158.667L305.667 159.333L305.333 158.667z"
     id="path416" />
  <path
     style="fill:#b1aaa8; stroke:none;"
     d="M106 159L106 160L113 161L113 160L106 159z"
     id="path418" />
  <path
     style="fill:#dbd6da; stroke:none;"
     d="M153 159L153 160L161 160L153 159z"
     id="path420" />
  <path
     style="fill:#9b8d7c; stroke:none;"
     d="M281 159L281 160L286 160L281 159M105 160L106 161L105 160z"
     id="path422" />
  <path
     style="fill:#121522; stroke:none;"
     d="M106 160L106 166L107 166L109 160L106 160z"
     id="path424" />
  <path
     style="fill:#939ba5; stroke:none;"
     d="M142 160C143.14 165.318 151.829 161.21 156 161L156 160L142 160z"
     id="path426" />
  <path
     style="fill:#19497b; stroke:none;"
     d="M189 160L185 168L186 168L189 160M273 160L273 161L276 164L264 163L270 173C274.586 171.55 278.345 170.2 281 175L276 177L278 181L259 184L259 189C250.055 189.032 250.373 192.043 251 200L252 200L252 194L267 200C267.975 193.041 276.806 189.651 273 182C280.692 182 289.411 180.258 295.917 185.565C299.742 188.685 298.053 194.553 303 196L298 203C309.867 205.009 322.935 212.969 320 227L335 232C332.79 226.164 326.19 225.264 323.078 219.946C317.61 210.602 311.674 201.702 306.004 192.78C299.505 182.554 298.566 173.299 285 171L285 167C290.194 166.904 294.954 170.229 299 166L292 164L294 161L273 160z"
     id="path428" />
  <path
     style="fill:#b0bcc9; stroke:none;"
     d="M292 160L292 161L297 161L292 160z"
     id="path430" />
  <path
     style="fill:#51637c; stroke:none;"
     d="M306 160L303 163L303 164L309 165L306 160z"
     id="path432" />
  <path
     style="fill:#7f797e; stroke:none;"
     d="M104.333 161.667L104.667 162.333L104.333 161.667z"
     id="path434" />
  <path
     style="fill:#19497b; stroke:none;"
     d="M162 164L163 168C156.005 168.083 153.908 172.342 150.514 178.09C145.93 185.852 148.389 193.555 142.085 201.076C135.855 208.51 117.714 216.088 116 226C121.739 225.685 123.811 223.764 124 218L151 203C150.5 192.457 149.95 184.103 161 180L163 182L168 186C166.351 176.521 173.74 169.754 176 161L162 164z"
     id="path436" />
  <path
     style="fill:#7f797e; stroke:none;"
     d="M294 161L294 162L300 162L294 161z"
     id="path438" />
  <path
     style="fill:#121522; stroke:none;"
     d="M140 165L141 168L144 166L144 173C134.627 176.113 134.117 190.239 143 194L147 176L163 168C160.537 157.978 147.332 163.578 140 165z"
     id="path440" />
  <path
     style="fill:#4d8ac2; stroke:none;"
     d="M213 162L212 165L212 166L212 167L220 176L218 178L217 178L216 173L214 176C200.408 176.047 192.495 187.386 197 200L194 199C189.349 210.021 188.227 228.351 191 240L187 238L187.487 265.985L180 277L169 277C163.06 268.22 156.99 268.065 162 256C149.305 256.453 158.702 242.067 164 239L162 244L166 243L167 253L168 253L171 223L172 223L174 232L180 232C184.407 219.759 187.892 205.079 188 192L177 192L175 204L171 198L168 200C163.314 200.061 157.994 202.401 155 206L158 209L171 207L169 234L163 232C164.842 223.709 159.996 216.761 150 217.654C144.967 218.103 140.852 221.885 136 219L132 220C127.294 214.842 125.742 223.383 127 227C120.138 226.101 114.677 230.598 109 234L109 235L121 233L106 250L110 247L128 240L134 248C130.292 256.333 124.438 261.274 128 271L123 274L125 269L116 263L118 267L113 268L115 272L112 271L107 287L121 281C126.304 275.082 128.683 277.756 134 282L135 279L129 271L144 261C144.088 256.154 148.301 253.625 152 251C150.811 258.473 154.088 266.754 152.491 274C151.589 278.092 147.556 284.467 151 288L151 289L150 293C147.054 292.254 145.689 291.803 145 295L144 295C144.031 291.529 144.95 288.783 141 288L138 282L133 284L129 308L137 305L130 315C136.06 312.178 145.92 303.453 148 297L151 298L160 285L163 285L164 288L170 288L165 297L166 302L162 302L165 307L153 299L154 304L152 307C163.521 315.777 149.703 325.528 149 336L153 336L152 339L172 327L169 332C174.169 337.637 169.35 347.893 165 353L167 357L161 352L157 352L158 355L152 351L154 365C147.85 369.241 146.891 378.272 145 385L141 382L146 388L142 393C133.567 376.557 120.041 405.617 126.549 409.762C130.672 412.389 136.291 403.394 138.59 400.92C145.681 393.289 153.68 386.557 161.12 379.296C163.965 376.518 166.952 371.396 170.923 370.207C174.939 369.004 173.788 375.885 173.887 378C174.262 385.943 177.023 392.119 170 398L170 411L169 411L168 405L165 407L165 408L168 411C158.389 409.335 141.534 405.139 135 415L230 413L230 410L249 406C249.535 409.651 253.895 409.765 257 409C260.569 413.383 267.687 413.974 273 413.999C284.999 414.057 297 414 309 414L309 413L297.183 403.775L295 391L296 391C298.585 398.405 310.364 411.903 318 414L317 411C327.846 407.464 316.701 396.372 315.328 390C314.14 384.487 316.603 378.24 318 373L314 375L313 372L294 388C295.686 380.451 299.15 370.88 291 366C293.747 360.754 294.682 354.703 293 349L289 350L297 341C290.458 342.948 282.508 351.181 279 357L278 357L277 357L274 355L270.464 338.035L271 319L272 319L276 323L276 319L277 319C277.711 327.495 283.033 329.866 288 336L294 335L291.144 317.961L292 303L289 304C298.576 293.055 312.512 311.042 317 321C313.393 322.341 296.781 336.64 303 338L304 342L302 346L299 345C300.29 349.058 302.806 351.502 307 350C305.442 359.22 317.508 361.288 315 371C321.622 369.29 326.891 374.222 330 380L338 381C337.503 372.505 333.372 364.122 340 357L340 356L339 354C335.477 355.046 334.166 356.304 334 360L329 360L335 352L322 364L328 362L326 370L321 364L316 360C318.756 359.443 319.972 358.134 319.678 354.995C319.232 350.227 315.189 345.973 315.488 341.093C315.934 333.792 320.478 330.361 318 322L327 327L324 321L334 331L335 331L337 330L334.402 321.196L339 311C347.117 313.029 351.317 315.865 354 324L345 334L345 336L349 336L340 347L344 346L348 350L345 346L345 343C350.089 340.607 357.237 334.439 359 329L353 332C355.626 329.624 363.426 324.007 367.092 327.407C369.182 329.346 368.804 334.411 370.121 336.999C371.739 340.178 375.551 343.311 375.611 347.09C375.686 351.794 371.525 356.138 371 361L372 361L375 358L372 364L389 352L390 352L391 345L388 347L373.252 329.7L369.191 322.209L386 301L388 304L389 304C391.26 299.35 394.221 298.916 399 298C404.531 308.251 411.308 311.319 403 324L408 328L408.867 307.09L407 285C403.632 286.703 398.369 294.48 395 291L391 294C390.458 289.311 390.446 286.394 394 283L394 282L378 288L381 296L377 296C370.425 293.237 360.885 283.804 355 286C360.045 277.937 347.849 252.831 338 256L341 252L326.568 242.995L314 224C329.452 230.068 312.734 211.078 311 208L297 205L313 224L306 224C302.746 215.649 291.404 217.415 296 208L291 209L293 203L282 200C279.766 196.351 276.156 195.277 272 195C267.588 204.732 270.785 209.607 271 220L269 220C268.53 214.621 267.047 199.214 262.431 196.028C259.818 194.224 255.082 194.734 252 194L261 257L262 257L262 254L281 254L281 263L282 263L284 254L278 252L281 243L286 245L284 241C292.264 246.19 293.247 250.113 285 256C286.641 262.322 288.139 270.531 280 273L281 267L280 267C272.492 276.455 257.967 277.535 254.333 263C253.733 260.6 251.885 250.119 256 253C257.907 247.717 257.976 242.541 251 245L254 242L252.741 223.17L251 204C245.539 200.671 245.253 191.897 245 186L241 189L240 189C239.473 182.377 228.624 177.396 225 184C231.38 184.102 237.393 190.462 240 196L236 198L235 198L233 192L230 190C226.986 190.535 218.194 189.507 220.462 184.395C222.848 179.016 229.934 175.927 234 172C232.375 168.538 229.773 163.684 226 168L225 168C221.364 164.17 218.349 162.173 213 162z"
     id="path442" />
  <path
     style="fill:#7f797e; stroke:none;"
     d="M300 162L300 163L303 163L300 162M339.333 162.667L339.667 163.333L339.333 162.667M101.667 163.333L102.333 163.667L101.667 163.333z"
     id="path444" />
  <path
     style="fill:#b1aaa8; stroke:none;"
     d="M334.667 163.333L335.333 163.667L334.667 163.333z"
     id="path446" />
  <path
     style="fill:#9b8d7c; stroke:none;"
     d="M340.333 164.667L340.667 165.333L340.333 164.667z"
     id="path448" />
  <path
     style="fill:#b1aaa8; stroke:none;"
     d="M98 165L96 169L105 165L98 165z"
     id="path450" />
  <path
     style="fill:#3c3843; stroke:none;"
     d="M335 165L321 172L321 173C327.007 174.376 332.831 169.831 338 167L335 165z"
     id="path452" />
  <path
     style="fill:#7d6d6a; stroke:none;"
     d="M106 166L111 169L106 166z"
     id="path454" />
  <path
     style="fill:#dbd6da; stroke:none;"
     d="M335 170L341 166L335 170z"
     id="path456" />
  <path
     style="fill:#b1aaa8; stroke:none;"
     d="M340 169L344 167L343 172L345 173L347 171L349 176C351.06 170.704 344.149 163.439 340 169z"
     id="path458" />
  <path
     style="fill:#3c3843; stroke:none;"
     d="M255 167L258 184L259 184C259 177.609 259.756 171.88 255 167M342 167C340.855 170.641 338.825 171.988 335 172L336 179L337 179C337.642 175.059 339.127 173.807 343 173L344 167L342 167z"
     id="path460" />
  <path
     style="fill:#dbd6da; stroke:none;"
     d="M98 168L93 183L94 183L100 168L98 168z"
     id="path462" />
  <path
     style="fill:#121522; stroke:none;"
     d="M100 168L96 180L105 170L101 180L110 176L111 170L100 168z"
     id="path464" />
  <path
     style="fill:#e2ccb7; stroke:none;"
     d="M112 170L114 171L115 171L113 168L112 170z"
     id="path466" />
  <path
     style="fill:#3c3843; stroke:none;"
     d="M116 168C117.531 172.703 121.34 174.263 126 175L126 171L116 168z"
     id="path468" />
  <path
     style="fill:#132c4b; stroke:none;"
     d="M143 168C140.44 169.138 137.402 171.898 136 169L135 169C130.207 178.536 134.003 185.302 136 195L132 195C131.375 198.749 128.495 203.624 126 203C125.044 206.233 124.713 210.924 122.833 213.712C116.984 222.384 106.586 226.149 104 238C109.585 234.12 112.658 227.213 117.549 222.644C126.594 214.194 141.884 206.077 147.102 194.561C149.327 189.651 149.77 181.445 151 176L147 176L143 194C134.992 189.083 135.204 177.757 144 173L143 168z"
     id="path470" />
  <path
     style="fill:#939ba5; stroke:none;"
     d="M95 169L92 180C95.5639 177.561 97.1543 172.852 95 169z"
     id="path472" />
  <path
     style="fill:#7d6d6a; stroke:none;"
     d="M96.3333 169.667L96.6667 170.333L96.3333 169.667z"
     id="path474" />
  <path
     style="fill:#ffffff; stroke:none;"
     d="M113 169L109 184L110 184L113 169z"
     id="path476" />
  <path
     style="fill:#7d6d6a; stroke:none;"
     d="M332 169L332 170L337 171L332 169z"
     id="path478" />
  <path
     style="fill:#121522; stroke:none;"
     d="M336 173L342 169L336 173z"
     id="path480" />
  <path
     style="fill:#7d6d6a; stroke:none;"
     d="M103.667 170.333L104.333 170.667L103.667 170.333z"
     id="path482" />
  <path
     style="fill:#b0bcc9; stroke:none;"
     d="M111.333 170.667L111.667 171.333L111.333 170.667z"
     id="path484" />
  <path
     style="fill:#b1aaa8; stroke:none;"
     d="M115 170L114 174L119 173L115 170M327 172L327 173L332 173L334 171L327 172z"
     id="path486" />
  <path
     style="fill:#dbd6da; stroke:none;"
     d="M102 171L103 174L104 174L105 171L102 171M332 171L338 187C337.297 181.556 337.088 173.97 332 171M346 171L350 182L351 182L346 171z"
     id="path488" />
  <path
     style="fill:#ffffff; stroke:none;"
     d="M102 172L100 178L101 178L102 172z"
     id="path490" />
  <path
     style="fill:#b0bcc9; stroke:none;"
     d="M110 172L110 175L111 175L110 172z"
     id="path492" />
  <path
     style="fill:#121522; stroke:none;"
     d="M317 172C316.391 175.934 316.509 177.838 320 180L322 176L320 172L317 172z"
     id="path494" />
  <path
     style="fill:#ffffff; stroke:none;"
     d="M323 177L331 172L323 177z"
     id="path496" />
  <path
     style="fill:#121522; stroke:none;"
     d="M343 172L344 178L347 178L343 172z"
     id="path498" />
  <path
     style="fill:#e2ccb7; stroke:none;"
     d="M118 173L123 177L118 173z"
     id="path500" />
  <path
     style="fill:#7d6d6a; stroke:none;"
     d="M320 173L323 177L324 174L320 173z"
     id="path502" />
  <path
     style="fill:#3c3843; stroke:none;"
     d="M327 175L327 176L332 173L327 175z"
     id="path504" />
  <path
     style="fill:#9b8d7c; stroke:none;"
     d="M332.333 173.667L332.667 174.333L332.333 173.667z"
     id="path506" />
  <path
     style="fill:#132c4b; stroke:none;"
     d="M337 179L338 179L341 173L337 179z"
     id="path508" />
  <path
     style="fill:#7f797e; stroke:none;"
     d="M341 173L341 175L343 175L343 173L341 173z"
     id="path510" />
  <path
     style="fill:#7d6d6a; stroke:none;"
     d="M102 174L102 177L103 177L102 174z"
     id="path512" />
  <path
     style="fill:#9b8d7c; stroke:none;"
     d="M112 174L112 177L113 177L112 174z"
     id="path514" />
  <path
     style="fill:#121522; stroke:none;"
     d="M113 174L111 185L124 177L113 174M126 179C136.812 184.469 123.015 209.626 114 212C119.2 200.863 124.992 191.644 125 179L124 179C120.581 190.644 108.234 198.209 104.797 209.075C103.701 212.542 106.251 213.989 109 215C106.928 221.392 104.891 223.919 98 224L85.341 245L65 286L75 288C75.1144 274.368 87.6821 263.231 94.9583 252.545C100.9 243.818 104.96 233.823 111.341 225.282C117.886 216.523 123.89 214.391 126 203C129.908 202.52 131.153 198.532 132 195L136 195L132 174C128.418 174.568 127.057 175.508 126 179z"
     id="path516" />
  <path
     style="fill:#19497b; stroke:none;"
     d="M343 174L338 175L337 182L338 182L338 180L339 180C340.378 187.252 347.421 180.186 342 179L343 174z"
     id="path518" />
  <path
     style="fill:#7f797e; stroke:none;"
     d="M99 175L99 178L100 178L101 175L99 175M123 175L124 179L125 179L123 175z"
     id="path520" />
  <path
     style="fill:#121522; stroke:none;"
     d="M306 175L308 194L317 189L317 188L313 186L315 176L308 175L306 175M325 179L328 178L327 181L335 185L333 175L325 179z"
     id="path522" />
  <path
     style="fill:#3c3843; stroke:none;"
     d="M347 175L347 180L348 180L347 175z"
     id="path524" />
  <path
     style="fill:#51637c; stroke:none;"
     d="M103 180L106 184L109 176L103 180z"
     id="path526" />
  <path
     style="fill:#939ba5; stroke:none;"
     d="M109 176L109 179L110 179L109 176z"
     id="path528" />
  <path
     style="fill:#739cc7; stroke:none;"
     d="M168 183L179 183L179 176L178 176L177 178C172.215 174.811 168.795 177.908 168 183z"
     id="path530" />
  <path
     style="fill:#3c3843; stroke:none;"
     d="M179 176L179 184L181 184L181 176L179 176z"
     id="path532" />
  <path
     style="fill:#5486b6; stroke:none;"
     d="M259 176L259 184L271 184L271 182L260 182L259 176z"
     id="path534" />
  <path
     style="fill:#739cc7; stroke:none;"
     d="M260 176L260 182L272 182L272 178L260 176z"
     id="path536" />
  <path
     style="fill:#585359; stroke:none;"
     d="M333.333 176.667L333.667 177.333L333.333 176.667z"
     id="path538" />
  <path
     style="fill:#939ba5; stroke:none;"
     d="M350 176L350 184L353 185L354 184L350 176z"
     id="path540" />
  <path
     style="fill:#3c3843; stroke:none;"
     d="M320 177L320 178L322 185L323 185L323 181L324 181L327 186L326 182L330 182L330 181L327 181L328 178L325 179L320 177z"
     id="path542" />
  <path
     style="fill:#2e6eab; stroke:none;"
     d="M342 177L345 179L341 184L341 189L344 186L351 187L351 186L347 185L349 178L348 178L347 180L342 177z"
     id="path544" />
  <path
     style="fill:#dbd6da; stroke:none;"
     d="M99 178L98 183L99 183L101 178L99 178z"
     id="path546" />
  <path
     style="fill:#585359; stroke:none;"
     d="M111 178L111 183L112 183L111 178z"
     id="path548" />
  <path
     style="fill:#132c4b; stroke:none;"
     d="M123 178L115 182L115 183L120 182L120 187L121 187L123 178z"
     id="path550" />
  <path
     style="fill:#7f797e; stroke:none;"
     d="M320.667 178.333L321.333 178.667L320.667 178.333M334.333 178.667L334.667 179.333L334.333 178.667z"
     id="path552" />
  <path
     style="fill:#dbd6da; stroke:none;"
     d="M320 179L318 188L319 188L319 185L322 186L322 179L320 179z"
     id="path554" />
  <path
     style="fill:#4a79a7; stroke:none;"
     d="M92 180L88 188L92 190L114 191L114 192L110 193L111 197L107 197L107 201L104 201L102 209L92 207L93 212L95 210L102 212L97 221L90 219L95 223L95 229L97 223C104.508 224.388 107.401 222.65 109 215C97.3418 208.394 119.378 193.954 120 185L119 185C116.657 187.099 115.558 186.689 113 185L106 189L106 180L94 187L95 182L92 180z"
     id="path556" />
  <path
     style="fill:#585359; stroke:none;"
     d="M95 180L94 187L98 180L95 180z"
     id="path558" />
  <path
     style="fill:#dbd6da; stroke:none;"
     d="M126 180L118 207L119 207L129 180L126 180z"
     id="path560" />
  <path
     style="fill:#b0bcc9; stroke:none;"
     d="M129 180L131 186L129 180z"
     id="path562" />
  <path
     style="fill:#7d6d6a; stroke:none;"
     d="M318.667 180.333L319.333 180.667L318.667 180.333z"
     id="path564" />
  <path
     style="fill:#3c3843; stroke:none;"
     d="M338 180L338 188C341.377 185.719 340.117 182.994 338 180z"
     id="path566" />
  <path
     style="fill:#b0bcc9; stroke:none;"
     d="M97 181L99 184L97 181z"
     id="path568" />
  <path
     style="fill:#939ba5; stroke:none;"
     d="M110 181L109 188L110 188L110 181z"
     id="path570" />
  <path
     style="fill:#2e6eab; stroke:none;"
     d="M273 182C275.145 188.852 269.127 194.996 265 200L269 220L271 220L268.522 203.09L272 195L282 200L293 203L291 209L296 208L293 210L306 224L313 224C311.825 215.966 302.043 210.89 297 205L311 208L317 213C313.466 204.481 304.19 206.14 298 201L297 201C291.805 203.194 287.171 194.603 283 192L283 191L287 192L285 186C293.056 188.757 298.714 191.46 299 201L303 196C298.846 193.459 300.022 188.786 296.683 185.638C290.404 179.719 280.663 181.979 273 182z"
     id="path572" />
  <path
     style="fill:#9b8d7c; stroke:none;"
     d="M317 181L317 186L318 186L317 181z"
     id="path574" />
  <path
     style="fill:#121522; stroke:none;"
     d="M323 181L324 190L325 190L328 190L323 181z"
     id="path576" />
  <path
     style="fill:#4d8ac2; stroke:none;"
     d="M349 181L347 185L351 186L351 187L344 186L341 189L343 186L334 190L336 197L340 197C340.064 199.993 339.946 201.346 343 202L342 206L343 206L344 201L341 201L341 196L337 196L341 190L342 190L343 190L357 196L354 184L349 181z"
     id="path578" />
  <path
     style="fill:#dbd6da; stroke:none;"
     d="M108 182L108 188L109 188L108 182z"
     id="path580" />
  <path
     style="fill:#2e6eab; stroke:none;"
     d="M110 184L110 188L113 185C116.795 188.051 119.039 186.493 120 182L110 184z"
     id="path582" />
  <path
     style="fill:#132c4b; stroke:none;"
     d="M326 182L328 190L325 188L327 201L328 201L334 196L330 184L334 185L326 182z"
     id="path584" />
  <path
     style="fill:#51637c; stroke:none;"
     d="M335 182L330 184C328.919 190.202 331.16 193.196 336 197L334 190L340 189L340 188L335 182z"
     id="path586" />
  <path
     style="fill:#7f797e; stroke:none;"
     d="M337.333 182.667L337.667 183.333L337.333 182.667z"
     id="path588" />
  <path
     style="fill:#132c4b; stroke:none;"
     d="M106 184L106 189L107 189L106 184z"
     id="path590" />
  <path
     style="fill:#939ba5; stroke:none;"
     d="M107 184L107 188L108 188L107 184M128 184L129 190L128 184z"
     id="path592" />
  <path
     style="fill:#2e6eab; stroke:none;"
     d="M354 184L365 210L369 207L371 202L377.542 215.809L371 225L375 224L378 234L381 233L381 238L383 240L398 240L385 258L396 271L390 267L392 280L391 277L395 277L392 281L392 282L394 283C389.571 285.559 390.154 289.499 391 294L395 291L396 294L407 285L408.945 309.015L408 328L386 301L392.62 327L391 345L404 334C405.527 342.227 410.626 362.335 402 367L397 357C393.716 358.02 392.661 359.408 393.059 363.005C394.774 378.497 391.153 385.384 385 399C398.459 403.008 383.108 413.379 376 414L376 415C386.18 414.915 397.967 411.32 406.675 406.005C418.276 398.926 424.447 391.298 439 394C439 361.424 438.539 326.835 429.556 295.285C425.257 280.19 416.719 266.116 413 251L410 251C409.573 245.314 405.606 237.877 400 236L386 213L383 213L372 198L360 193L360 192L363 192L354 184z"
     id="path594" />
  <path
     style="fill:#7f797e; stroke:none;"
     d="M319 185L321 188L319 185z"
     id="path596" />
  <path
     style="fill:#7d6d6a; stroke:none;"
     d="M322 185L322 188L323 188L322 185z"
     id="path598" />
  <path
     style="fill:#4a79a7; stroke:none;"
     d="M151 203C140.923 203.44 133.301 209.693 128 218L132 220L136 219C139.601 222.943 144.739 218.978 149 218.163C155.225 216.971 163.441 222.018 165 228L166 228C165.444 219.622 164.131 208.902 155 206L168 200L171 198L175 204L176 198L174 194L164 195L167 189L163 190C155.528 177.21 150.037 196.253 151 203z"
     id="path600" />
  <path
     style="fill:#5486b6; stroke:none;"
     d="M285 186L287 192L283 191L283 192C288.336 196.777 292.459 205.149 300 200C297.571 190.939 293.78 188.28 285 186z"
     id="path602" />
  <path
     style="fill:#ffffff; stroke:none;"
     d="M321 186C321.588 192.73 325.111 206.302 331 210L321 186z"
     id="path604" />
  <path
     style="fill:#3c3843; stroke:none;"
     d="M323 186L323 190L324 190L323 186z"
     id="path606" />
  <path
     style="fill:#2e6eab; stroke:none;"
     d="M75 197L59 218L56 218L56 222L52 222L53 226L50 230L47 230L43 243C34.3933 244.632 38.2393 256.097 32 260L34 262L27 273L24 291L20 291L18 305L19 309L16 319L13 319L7 394L29 394L31 401L44 410C44.6815 406.326 43.6002 404.196 40 403C39.9006 393.9 36.9419 382.977 43 375L42 379L53 384L57 357L50 358L51 362L47 361L45 369L42 369L33 383L32 383C30.9948 376.658 32.6978 372.565 38 369L38 372L40 372L42 336L45 333L50 338L55 336L53 330L52 330L52 334L51 334L52 328C51.4673 324.664 53.7213 322.465 57 322L61 302L62 302L62 306L65 308L69 306L68 311L69 311L73 310L84 282L87 283L103 254L88 267L89 260L85 271L88 269C85.3479 279.422 79.3017 292.848 69 297L68 295L67 287L65 287L64 288C68.9754 299.807 48.2705 314.733 44 326L41 324L40 324C40.5544 332.937 33.0279 342.87 26 348C26.0052 340.094 26.4538 326.446 29.4815 319.412C30.9007 316.115 34.0666 319.495 35 321C44.0802 317.35 39.788 292.98 46 285L51 291C50.3913 287.025 48.9103 285.079 45 284L48 279C41.5194 279.505 34.8536 291.696 34 298L29 301L36 277L39 279L40 279L41 279L44 277L47 243L49 245C54.349 244.397 54.962 246.158 54 251L57 250C57.6815 253.18 61.0837 253.825 61.6667 249.972C62.3821 245.243 60.4099 239.931 61.0833 235C61.5695 231.441 63.6803 228.661 64.0278 225C64.4166 220.903 64.0067 214.773 68 213L67 210L80 205L79 211C82.9857 211.889 84.8045 210.939 86 207L90 207L90 206L83 205L83 201C88.517 199.345 91.2749 193.456 92 188L75 197z"
     id="path608" />
  <path
     style="fill:#9b8d7c; stroke:none;"
     d="M124.333 188.667L124.667 189.333L124.333 188.667z"
     id="path610" />
  <path
     style="fill:#3c3843; stroke:none;"
     d="M127.333 188.667L127.667 189.333L127.333 188.667M318 188L326 207L327 207L321 188L318 188z"
     id="path612" />
  <path
     style="fill:#739cc7; stroke:none;"
     d="M86 203L90 201C91.6304 206.435 96.7343 208.182 102 209L104 201L107 201L107 197L111 197L110 193L114 192C101.667 187.667 89.0266 189.017 86 203z"
     id="path614" />
  <path
     style="fill:#585359; stroke:none;"
     d="M126 189L118 210C122.966 207.175 131.909 193.589 126 189z"
     id="path616" />
  <path
     style="fill:#5486b6; stroke:none;"
     d="M154 190L152 203C156.194 201.781 158.752 199.19 160 195L156 190L154 190z"
     id="path618" />
  <path
     style="fill:#739cc7; stroke:none;"
     d="M341 190L337 196L341 196L341 201L344 201L346 214C361.069 212.759 364.284 206.456 358 194C353.265 195.872 346.558 193.376 343 190L341 190M82 191C69.442 197.69 59.234 209.299 53 222L56 218L59 218L75 197C78.604 196.723 82.5811 195.254 82 191z"
     id="path620" />
  <path
     style="fill:#585359; stroke:none;"
     d="M324 191L324 194L325 194L324 191z"
     id="path622" />
  <path
     style="fill:#5486b6; stroke:none;"
     d="M360 192L360 193L372 198C373.583 202.872 378.426 206.939 383 209C379.507 200.868 369.265 191.511 360 192z"
     id="path624" />
  <path
     style="fill:#7f797e; stroke:none;"
     d="M320 194L323 200L320 194z"
     id="path626" />
  <path
     style="fill:#121522; stroke:none;"
     d="M334 210L334 212L333 213L324 208C326.844 215.812 330.88 218.396 338 222C338.409 215.847 331.11 204.434 336 202C335.079 190.178 322.248 203.584 334 210z"
     id="path628" />
  <path
     style="fill:#4a79a7; stroke:none;"
     d="M336 197L341 206L342 206L343 202L340 197L336 197z"
     id="path630" />
  <path
     style="fill:#3c3843; stroke:none;"
     d="M111 199L107 206L108 206L111 199z"
     id="path632" />
  <path
     style="fill:#7d6d6a; stroke:none;"
     d="M323 200C323.422 204.091 324.342 206.917 328 209L328 205L327 205L327 207L326 207L323 200z"
     id="path634" />
  <path
     style="fill:#19497b; stroke:none;"
     d="M83 201L83 205L93 207L90 201L88 203L87 203L83 201z"
     id="path636" />
  <path
     style="fill:#585359; stroke:none;"
     d="M328 201L328 204L329 204L328 201z"
     id="path638" />
  <path
     style="fill:#5486b6; stroke:none;"
     d="M369 202L369 207L367 210C362.874 210.274 343.531 216.33 350 222L342 229C346.654 228.384 356.778 223.103 360 227L361 227L369 223L375 236L376 236L377 233L380 236L380 237L380 238C376.774 240.834 378.663 245.43 380 249L384 247L381 253L382 253L383 251L381 261L385 259L389 268L392 267L396 271C394.539 266.314 389.696 259.66 385 258L398 240L381 238L381 233L378 234L375 224L371 225L377.828 215.188L371 202L369 202z"
     id="path640" />
  <path
     style="fill:#739cc7; stroke:none;"
     d="M272 203C271.295 209.672 269.636 223.133 276 227L274 222L277 219L280 221C281.931 217.349 288.916 211.551 289.168 207.848C289.47 203.422 275.053 203.063 272 203z"
     id="path642" />
  <path
     style="fill:#7f797e; stroke:none;"
     d="M329 204L329 207L330 207L329 204z"
     id="path644" />
  <path
     style="fill:#4d8ac2; stroke:none;"
     d="M67 210L68 213C63.3943 213.987 61 234.965 61 240L62 240L67 221L70 220L72 220L72 222L73 222L75 220L75 219L73 216L76 217L80 205L67 210z"
     id="path646" />
  <path
     style="fill:#b1aaa8; stroke:none;"
     d="M117 205L115 211C117.755 209.355 118.561 207.916 117 205z"
     id="path648" />
  <path
     style="fill:#51637c; stroke:none;"
     d="M343 205L345 216L352 214L352 213L346 214L345 205L343 205z"
     id="path650" />
  <path
     style="fill:#87abd0; stroke:none;"
     d="M161 211L167 218C173.093 216.942 171.615 211.891 171 207C166.095 206.093 162.243 205.302 161 211z"
     id="path652" />
  <path
     style="fill:#3c3843; stroke:none;"
     d="M334 206L339 212L334 206z"
     id="path654" />
  <path
     style="fill:#87abd0; stroke:none;"
     d="M86 207L83 214L88 212L85 216L97 221L102 212L93 212C92.2721 207.638 90.1759 207.137 86 207z"
     id="path656" />
  <path
     style="fill:#3c3843; stroke:none;"
     d="M117 210L117 211L121 210L117 210z"
     id="path658" />
  <path
     style="fill:#132c4b; stroke:none;"
     d="M190 209L190 213L187 210L186 210L183 234L188 236L190 209z"
     id="path660" />
  <path
     style="fill:#3c3843; stroke:none;"
     d="M326 209L326 210C329.131 211.782 331.672 213.379 334 210L333 210L332 212L326 209z"
     id="path662" />
  <path
     style="fill:#9b8d7c; stroke:none;"
     d="M330 210L333 212L332 209L330 210z"
     id="path664" />
  <path
     style="fill:#5486b6; stroke:none;"
     d="M383 209L383 213L386 213C386.603 216.874 388.21 219.695 392 221L383 209z"
     id="path666" />
  <path
     style="fill:#51637c; stroke:none;"
     d="M114 210L117 212L117 211L114 210z"
     id="path668" />
  <path
     style="fill:#4a79a7; stroke:none;"
     d="M79 211C80.9926 216.368 83.5251 217.909 89 219L85 216L88 212L83 214L79 211z"
     id="path670" />
  <path
     style="fill:#585359; stroke:none;"
     d="M323 214L324 214L326 212C323.86 210.882 323.473 211.749 323 214z"
     id="path672" />
  <path
     style="fill:#dbd6da; stroke:none;"
     d="M324 212L329 219L326 212L324 212z"
     id="path674" />
  <path
     style="fill:#739cc7; stroke:none;"
     d="M76 217L73 216L75 219L75 220L73 222L72 222L70 220L67 221C66.6341 227.779 62.5712 233.39 61.4429 240.015C60.9037 243.18 62.1986 247.8 60.6705 250.625C59.3824 253.006 57.9362 251.365 57 250L54 248L49 249L48 249L48 270L51 266L52 266L52 270C56.8964 266.773 60.2834 259.704 61 254L64 254L66 245L69 245C69.5553 238.889 73.4671 231.142 78 227L75 237L75 238L75 239L77 239L61 273L58 272L51 284L55 282C53.0029 293.867 65.2168 278.878 66 273L69 273L72 269L71 264C74.9903 263.145 75.92 257.745 76 254L79 254C79.7821 249.117 82.716 244.525 87 242L88 233L91 233L94 229L95 223L90 218C85.3307 218.19 76.3434 210.383 76 217z"
     id="path676" />
  <path
     style="fill:#5486b6; stroke:none;"
     d="M89 215L89 217L91 217L91 215L89 215z"
     id="path678" />
  <path
     style="fill:#2e6eab; stroke:none;"
     d="M166 228L163 228L163 232L169 234L170 218L167 215C160.697 217.099 165.38 223.233 166 228z"
     id="path680" />
  <path
     style="fill:#7f797e; stroke:none;"
     d="M327 215L328 216L327 215z"
     id="path682" />
  <path
     style="fill:#87abd0; stroke:none;"
     d="M54 218L52 222L54 218z"
     id="path684" />
  <path
     style="fill:#2e6eab; stroke:none;"
     d="M124 218C123.385 226.078 117.746 224.132 112.729 228.279C106.519 233.412 97.6852 244.044 96 252L97 252L103 249C98.6163 238.459 118.471 226.865 127 227L128 218L124 218z"
     id="path686" />
  <path
     style="fill:#b1aaa8; stroke:none;"
     d="M329 218L331 221L329 218z"
     id="path688" />
  <path
     style="fill:#2e6eab; stroke:none;"
     d="M339 220L341 228L350 222L348 218L339 220M80 219L80 221L82 221L82 219L80 219z"
     id="path690" />
  <path
     style="fill:#585359; stroke:none;"
     d="M330 219L329 222L337 223L330 219z"
     id="path692" />
  <path
     style="fill:#2e6eab; stroke:none;"
     d="M189 220L187.686 233.946L182 253L181 253L181 249L180 249C180.069 254.809 182.31 256.804 186 261L188 261L187 238L191 240L189 220z"
     id="path694" />
  <path
     style="fill:#51637c; stroke:none;"
     d="M183 221L182 232L183 232L183 221z"
     id="path696" />
  <path
     style="fill:#b0bcc9; stroke:none;"
     d="M334.667 221.333L335.333 221.667L334.667 221.333z"
     id="path698" />
  <path
     style="fill:#5486b6; stroke:none;"
     d="M392 221L400 236C405.056 238.791 409.152 245.309 410 251L413 251C411.565 240.026 400.727 227.148 392 221z"
     id="path700" />
  <path
     style="fill:#739cc7; stroke:none;"
     d="M51 222L41 239L45 239L47 230L50 230L53 226L51 222z"
     id="path702" />
  <path
     style="fill:#2e6eab; stroke:none;"
     d="M253 222L254 242L251 245C257.54 243.955 257.329 247.741 256 253L254 251L256 268L257 268C255.642 260.685 255.211 255.755 263 253L263 252L260 252L258 240L255 241L253 222z"
     id="path704" />
  <path
     style="fill:#51637c; stroke:none;"
     d="M257 222L258 232L259 232L257 222z"
     id="path706" />
  <path
     style="fill:#3c3843; stroke:none;"
     d="M97 223L91 236L100 224L97 223z"
     id="path708" />
  <path
     style="fill:#87abd0; stroke:none;"
     d="M171 223L168 253L167 253L166 243L162 244L164 239C157.374 242.18 149.974 254.638 162 256L162 265L163 265L163 256L180 256L182 227L181 227L180 232L174 232L171 223z"
     id="path710" />
  <path
     style="fill:#739cc7; stroke:none;"
     d="M352 228L352 234C355.699 236.206 356.258 239.003 355 243L359 243L357 248L360 247L361 248L360 252L362 256L365 257L364 261C368.221 263.631 370.587 270.133 370 275L372 279L377 286C381.927 284.815 385.164 283.288 386 278L390 280C391.999 270.997 388.396 267.153 385 259L381 261C383.278 256.606 382.704 254.492 381 250L384 250L384 247L380 249L380 238L380 237L380 236L377 233L376 236L375 236L369 223L352 228z"
     id="path712" />
  <path
     style="fill:#2e6eab; stroke:none;"
     d="M314 224C321.149 237.547 328.379 244.064 341 252L338 256C348.205 253.683 358.589 277.747 355 286L377 296L381 296L378 289C375.717 289.76 372.744 291.876 370.289 291.01C362.169 288.146 351.531 266.652 349 259L354 262C352.502 257.103 350.177 250.679 345 249L341 240L340 246L342 250L321 228L331 231L339 240L340 240C337.21 228.574 323.339 227.029 314 224z"
     id="path714" />
  <path
     style="fill:#121522; stroke:none;"
     d="M358 224L357 225L357 226L357 227L360 224L358 224z"
     id="path716" />
  <path
     style="fill:#19497b; stroke:none;"
     d="M84 231L84 230L85 226C81.1045 224.132 79.49 230.034 84 231z"
     id="path718" />
  <path
     style="fill:#4a79a7; stroke:none;"
     d="M346 227L346 228L350 228L351 240C353.895 238.561 356.435 234.932 352 234L352 228L360 228L360 227L357 225L346 227z"
     id="path720" />
  <path
     style="fill:#121522; stroke:none;"
     d="M83 226L82 230L85 226L83 226z"
     id="path722" />
  <path
     style="fill:#87abd0; stroke:none;"
     d="M133 229L136 233L135 237C143.81 235.961 144.944 245.667 152 248L148 227L144 230L143 230L143 226L133 229z"
     id="path724" />
  <path
     style="fill:#4d8ac2; stroke:none;"
     d="M76 227L69 245L66 245L64 254L61 254L52 270L52 266L51 266L48 270L48 249L49 249L50 251L56 248C54.5801 243.73 50.9125 244.124 47 243C44.5691 254.778 42.4756 264.938 44 277L41 279L40 279L39 279L36 277L29 301L34 298C35.39 292.027 41.8604 279.979 48 279L47 283L54 286L55 282L51 284L58 272L61 273C63.8623 265.134 67.9375 256.321 71.9622 249C73.5932 246.033 77.7907 242.022 75 239L75 238L75 237L78 227L76 227z"
     id="path726" />
  <path
     style="fill:#5486b6; stroke:none;"
     d="M321 228C324.03 235.327 335.187 245.77 342 250L340 246C341.609 238.446 334.6 236.696 331 231L321 228M91 229L91 233L88 233L87 242L88 242L94 229L91 229z"
     id="path728" />
  <path
     style="fill:#585359; stroke:none;"
     d="M102 229L102 232L104 229L102 229z"
     id="path730" />
  <path
     style="fill:#121522; stroke:none;"
     d="M342 230C343.465 234.696 343.593 240.113 345.674 244.536C349.349 252.347 355.893 258.687 359.811 266.184C365.186 276.472 362.924 287.209 377 289L377 288L364.887 267.089L348 230L342 230z"
     id="path732" />
  <path
     style="fill:#19497b; stroke:none;"
     d="M182 232L181 253L182 253C182.492 246.761 182.376 240.647 188 237L182 232M258 232C257.913 237.176 256.374 250.58 263 252L258 232z"
     id="path734" />
  <path
     style="fill:#739cc7; stroke:none;"
     d="M103 249C93.5086 251.597 88.9485 257.349 88 267L103 254L98.1559 265.151L87 283L84 282C82.5919 289.235 75.9041 294.039 74.3981 301.011C73.4052 305.608 77.6058 309.985 73 313L75 317L64 309L65 318C56.6174 320.917 59 335.956 59 343L56 345L55 345C46.9822 332.4 39.5868 354.84 50 360L59 350L57 345L59 347L60 347L97 304L92 330C88.4239 327.064 86.6221 325.385 82 327L85 321L78 328L81 329C77.6351 340.049 71.3758 347.739 75 360L72 360L72 361L75 366L59 351C64.4345 363.91 53.8016 379.153 58 393C63.4708 387.682 77.0035 374.715 76 367L80 368C84.5414 361.89 87.8917 356.621 96 357C90.3109 367.202 89.2691 367.381 94 378L96 376C103.688 382.532 108.97 371.673 115 368L116 365L116 364L116 363L114 363L114 362L114 361L116 359L126 365L126 368L123 370L126 369L124 371L124 372L124 373L126 375C120.528 381.308 131.195 395.159 118 399L119 402L122 402L130 375L134 379L127 365L132 360L126 359L132 332L129 330L133 330L131 326L144.799 339.989L139 350L150 346L146 350L146 351L150 351L145 383L154 365L152 351L158 355L160 352L160 351L151 344L154 339L153 336L149 336C150.145 327.205 164.574 313.342 152 307L154 304L155 298L148 297L130 315L137 305L129 308L133 284L138 282L141 288C144.79 288.476 143.575 291.842 144 295L145 295L145 292L150 293L151 289L151 288L153.18 273L152 251C147.695 253.072 143.803 255.935 144 261L129 271L134 282C129.394 276.794 125.377 273.734 121 281C114.547 279.658 112.273 284.248 107 287L112 271L115 272L113 268L118 267L116 263L125 269L123 274L128 271C125.327 260.735 131.538 257.04 134 248L128 240L110 247L106 250L121 233C114.416 233.871 96.5536 239.127 103 249z"
     id="path736" />
  <path
     style="fill:#4a79a7; stroke:none;"
     d="M181 234L181 240L182 240L181 234z"
     id="path738" />
  <path
     style="fill:#739cc7; stroke:none;"
     d="M211 237L210 241L207 240C205.232 244.281 202.181 245.611 204.472 250.917C205.548 253.408 210.944 260.701 213 257L214 257L214 260L215 260C215.263 253.881 217.353 244.502 212 240L213 237L211 237z"
     id="path740" />
  <path
     style="fill:#5486b6; stroke:none;"
     d="M353 237C353.755 254.259 367.777 271.221 374 287L378 287L372 279C372.577 276.289 372.768 275.605 370 275C371.441 270.888 368.611 261.983 364 261L365 257L362 256C362.854 253.303 362.851 252.614 360 252L361 248L360 247L357 248L359 243L355 243L357 238L353 237z"
     id="path742" />
  <path
     style="fill:#b0bcc9; stroke:none;"
     d="M407.333 238.667L407.667 239.333L407.333 238.667z"
     id="path744" />
  <path
     style="fill:#87abd0; stroke:none;"
     d="M40 239L39 242L40 239z"
     id="path746" />
  <path
     style="fill:#5486b6; stroke:none;"
     d="M41 239C33.3807 252.391 26.8808 266.719 24 282C27.1294 279.664 27.6807 276.735 27 273C31.3028 270.152 34.1903 264.963 32 260C39.5145 258.398 34.0587 244.245 43 243L43 239L41 239z"
     id="path748" />
  <path
     style="fill:#132c4b; stroke:none;"
     d="M100 241L97 246L97 247L102 241L100 241z"
     id="path750" />
  <path
     style="fill:#739cc7; stroke:none;"
     d="M284 241L286 245L281 243L278 252L284 254L283 258C292.618 253.272 294.842 245.622 284 241z"
     id="path752" />
  <path
     style="fill:#b0bcc9; stroke:none;"
     d="M38 242L37 245L38 242z"
     id="path754" />
  <path
     style="fill:#4a79a7; stroke:none;"
     d="M84 242L79 254L76 254L74 259L74 260C80.7829 258.837 84.7759 247.909 87 242L84 242z"
     id="path756" />
  <path
     style="fill:#739cc7; stroke:none;"
     d="M315 261L311 261C312.698 266.651 321.3 275.372 327 277C318.978 264.417 335.178 263.707 337 252C331.691 251.224 325.602 247.741 323 243C313.157 243.76 314.225 253.556 315 261z"
     id="path758" />
  <path
     style="fill:#5486b6; stroke:none;"
     d="M396 248L389.852 256.925L407 281L408 281L407.721 264.17L400 250L398 251L398 248L396 248z"
     id="path760" />
  <path
     style="fill:#b0bcc9; stroke:none;"
     d="M413 249L415 252L413 249z"
     id="path762" />
  <path
     style="fill:#4a79a7; stroke:none;"
     d="M103 250L103 253L106 253L106 250L103 250z"
     id="path764" />
  <path
     style="fill:#19497b; stroke:none;"
     d="M349 251L354 262L349 259C350.797 267.919 358.885 278.257 364.26 285.561C367.555 290.038 371.257 293.985 376 289C359.569 284.882 361.741 261.091 349 251z"
     id="path766" />
  <path
     style="fill:#4a79a7; stroke:none;"
     d="M382 251L385 255L382 251z"
     id="path768" />
  <path
     style="fill:#739cc7; stroke:none;"
     d="M413 251C413.972 257.871 419.369 273.799 425 278C423.771 270.094 419.887 255.695 413 251z"
     id="path770" />
  <path
     style="fill:#19497b; stroke:none;"
     d="M256 257L259 256L259 264L264 265L261 254L256 257z"
     id="path772" />
  <path
     style="fill:#dbd6da; stroke:none;"
     d="M262 254C262.066 273.349 280.998 273.236 281 254L262 254z"
     id="path774" />
  <path
     style="fill:#b0bcc9; stroke:none;"
     d="M32 255L32 258L33 258L32 255z"
     id="path776" />
  <path
     style="fill:#585359; stroke:none;"
     d="M359 255L361 258L359 255z"
     id="path778" />
  <path
     style="fill:#b0bcc9; stroke:none;"
     d="M163 256L163 257L182 257L163 256z"
     id="path780" />
  <path
     style="fill:#132c4b; stroke:none;"
     d="M257 256C254.288 265.18 257.964 272.702 268 273L268 272L262 263L259 264L259 256L257 256z"
     id="path782" />
  <path
     style="fill:#ffffff; stroke:none;"
     d="M163 257C163.015 276.37 179.71 275.013 182 257L163 257z"
     id="path784" />
  <path
     style="fill:#7d6d6a; stroke:none;"
     d="M182 257L182 265L183 265L182 257z"
     id="path786" />
  <path
     style="fill:#7f797e; stroke:none;"
     d="M261 257L261 262L262 262L261 257z"
     id="path788" />
  <path
     style="fill:#2e6eab; stroke:none;"
     d="M160 258C156.979 268.391 162.628 270.572 169 277L173 275C167.221 270.268 162.25 265.873 162 258L160 258z"
     id="path790" />
  <path
     style="fill:#132c4b; stroke:none;"
     d="M183 258L184 266L174 275C182.243 273.866 195.071 264.536 183 258z"
     id="path792" />
  <path
     style="fill:#2e6eab; stroke:none;"
     d="M283 258C280.475 266.815 270.748 272.97 262 273L262 274C269.893 275.465 275.412 274.064 280 267L281 267L280 273C287.03 271.828 288.007 263.683 286 258L283 258z"
     id="path794" />
  <path
     style="fill:#51637c; stroke:none;"
     d="M74 260L71 264L75 268L77 260L74 260z"
     id="path796" />
  <path
     style="fill:#b0bcc9; stroke:none;"
     d="M181 260L181 265L182 265L181 260z"
     id="path798" />
  <path
     style="fill:#739cc7; stroke:none;"
     d="M304 260L305 266C286.223 258.078 299.324 282.624 293 289L297 294L318 272L304 260z"
     id="path800" />
  <path
     style="fill:#19497b; stroke:none;"
     d="M85 264C80.7708 273.555 81.683 287.942 70 292L67 287L68 295L69 297C79.3931 294.382 86.4074 279.044 88 269L85 271L85 264z"
     id="path802" />
  <path
     style="fill:#121522; stroke:none;"
     d="M262 264C262.746 269.119 266.009 271.989 271 273L262 264z"
     id="path804" />
  <path
     style="fill:#3c3843; stroke:none;"
     d="M174 274L184 266C179.223 265.042 175.819 270.103 174 274z"
     id="path806" />
  <path
     style="fill:#739cc7; stroke:none;"
     d="M345 267C335.492 273.69 337.743 276.402 340 288L332 283C334.314 288.428 338.645 293.465 344 296C353.399 285.286 355.383 279.29 347 267L345 267z"
     id="path808" />
  <path
     style="fill:#3c3843; stroke:none;"
     d="M72 268L60 292C67.1651 288.322 70.8018 275.167 74 268L72 268z"
     id="path810" />
  <path
     style="fill:#2e6eab; stroke:none;"
     d="M385 268L385 270L387 270L387 268L385 268z"
     id="path812" />
  <path
     style="fill:#b0bcc9; stroke:none;"
     d="M422 268L422 271L423 271L422 268z"
     id="path814" />
  <path
     style="fill:#51637c; stroke:none;"
     d="M69 269L69 273L66 273C64.6763 278.834 61.0994 284.828 56 288L56 289C66.2014 288.215 66.7504 276.565 72 270L69 269z"
     id="path816" />
  <path
     style="fill:#739cc7; stroke:none;"
     d="M250 270C249.122 273.69 247.883 278.276 251 281L251 282L251 283L249 289C254.59 287.058 260.46 281.293 263 276L252 270L250 270z"
     id="path818" />
  <path
     style="fill:#585359; stroke:none;"
     d="M366 270L367 274L368 274L366 270z"
     id="path820" />
  <path
     style="fill:#132c4b; stroke:none;"
     d="M80 272L75 288L66 286L70 292C78.6757 290.211 81.7703 279.942 82 272L80 272z"
     id="path822" />
  <path
     style="fill:#2e6eab; stroke:none;"
     d="M126 272L126 274L128 274L128 272L126 272z"
     id="path824" />
  <path
     style="fill:#b0bcc9; stroke:none;"
     d="M170 273L170 274L174 274L170 273z"
     id="path826" />
  <path
     style="fill:#19497b; stroke:none;"
     d="M173 274C173.878 278.097 179.122 278.097 180 274L173 274z"
     id="path828" />
  <path
     style="fill:#939ba5; stroke:none;"
     d="M24 276L22 284L23 284L24 276z"
     id="path830" />
  <path
     style="fill:#b0bcc9; stroke:none;"
     d="M425 276L425 280L426 280L425 276z"
     id="path832" />
  <path
     style="fill:#3c3843; stroke:none;"
     d="M391 277L392 280L375 287L375 288L395 281L395 277L391 277z"
     id="path834" />
  <path
     style="fill:#739cc7; stroke:none;"
     d="M276 278L271 317C275.979 312.71 291.26 302.156 292.258 295.714C293.132 290.081 280.399 280.079 276 278z"
     id="path836" />
  <path
     style="fill:#5486b6; stroke:none;"
     d="M386 278L385 283L390 281L386 278z"
     id="path838" />
  <path
     style="fill:#739cc7; stroke:none;"
     d="M426 280L428 294L429 294L426 280z"
     id="path840" />
  <path
     style="fill:#19497b; stroke:none;"
     d="M45 282L48 284L45 282z"
     id="path842" />
  <path
     style="fill:#5486b6; stroke:none;"
     d="M23 283L20 291L24 291L23 283z"
     id="path844" />
  <path
     style="fill:#739cc7; stroke:none;"
     d="M210 283C207.665 286.173 200.406 290.513 200.917 294.83C201.418 299.048 210.776 305.156 213.392 299.686C215.107 296.1 212.143 291.063 213 287L212 283L210 283z"
     id="path846" />
  <path
     style="fill:#19497b; stroke:none;"
     d="M48 284C50.3027 287.725 57.3905 293.312 61 289L48 284z"
     id="path848" />
  <path
     style="fill:#4d8ac2; stroke:none;"
     d="M45 285C39.6013 294.029 44.1478 315.389 35 321C34.336 318.73 29.7817 315.007 28.6713 319.222C26.5467 327.288 26 339.274 26 348C33.5973 344.28 41.3194 332.423 40 324L41 324L44 326L50 315L46 317C46 312.57 44.1308 301.783 49 303L49 298L56 298L59 300L58 305L59 305C61.8329 299.926 66.9984 296.115 66 290C61.1985 291.373 60.1442 294.245 60 299L57 296L54 297L55 292L52 293L52 288L51 288L50 291L45 285z"
     id="path850" />
  <path
     style="fill:#87abd0; stroke:none;"
     d="M160 285C157.924 287.74 153.558 290.792 152.736 294.197C151.471 299.439 161.203 305.372 165 307L162 302L166 302L165 297C168.675 294.734 169.714 292.252 170 288L164 288L163 285L160 285z"
     id="path852" />
  <path
     style="fill:#4a79a7; stroke:none;"
     d="M52 288L52 293L55 292L54 297L57 296L60 299L62 293L62 292L52 288z"
     id="path854" />
  <path
     style="fill:#739cc7; stroke:none;"
     d="M367 321L372.221 301.015L361 288C356.042 288.294 345.518 291.241 345.617 297.923C345.707 303.932 361.919 318.561 367 321z"
     id="path856" />
  <path
     style="fill:#b0bcc9; stroke:none;"
     d="M19 291L19 294L20 294L19 291z"
     id="path858" />
  <path
     style="fill:#739cc7; stroke:none;"
     d="M320 308L318 308L319 313L315 312L319 318L320 318L341 299L336 293L337 296L333 297L333 294L329 295C326.238 291.668 317.913 289.339 316.322 295.133C315.023 299.864 318.045 304.013 320 308z"
     id="path860" />
  <path
     style="fill:#4a79a7; stroke:none;"
     d="M14 319L19 309L18 305L22 293C14.1561 296.122 14.9391 311.722 14 319M102 297L102 299L104 299L104 297L102 297z"
     id="path862" />
  <path
     style="fill:#739cc7; stroke:none;"
     d="M196 297C189.239 305.019 177.528 310.642 177 322L192 334L191 331C195.964 329.936 194 321.205 194 317L197 317L196 303L198 303L198 297L196 297M289 304L292 303L291.13 318.91L294 335L288 336L277 319L276 319L276 323L272 319L271 319L269.912 338.035L274 355L277 357L278 357L279 357L297 341L289 350L293 349L291 366C298.494 372.591 294.753 379.477 294 388C298.298 385.898 309.841 371.063 314 375L318 373C313.704 384.53 313.913 405.225 331 395L333 405L337 403C338.614 410.738 351.149 410.854 358 411C355.354 403.421 346.284 393.153 338 396C340.406 391.353 339.682 389.345 337 385L343 390L347 388L345 390C347.327 395.893 353.224 403.199 359 406L353 397L360 397C362.21 407.311 373.994 394.161 375.306 390.056C375.866 388.303 376.452 388.227 378 388L378 384L386 390L387 385L384 387L383 379L384 379C386.59 381.788 389.86 379.401 390.667 375.981C392.242 369.312 390.694 359.12 391 352L402 367C410.879 364.051 405.718 341.217 404 334C397.878 337.056 390.381 345.107 390 352L389 352L389 349L372 364L375 358L372 361L371 361C371.889 356.339 376.329 351.752 376.147 347.09C376 343.341 372.428 340.073 370.674 336.999C369.058 334.165 369.479 328.968 367.183 326.799C363.367 323.195 355.244 329.06 353 332L359 329L345 343L345 346L348 350L344 346L340 347L349 336L346 337L345 336L345 334L354 324C351.988 315.36 347.38 312.586 339 311C334.104 320.321 335.552 320.591 337 330L335 331L334 331L324 321L327 327L318 322L315.238 341.093L319.386 354.992L316 360L321 364L326 370L328 362L322 364L335 352L329 360L334 360C334.464 356.339 336.428 354.708 340 356L340 357C332.843 362.091 336.768 373.821 338 381L330 380C327.918 373.672 321.393 368.437 315 371C318.848 361.403 306.628 359.191 307 350C302.844 351.109 300.815 348.574 299 345L302 346L304 342L303 338C298.972 334.551 313.699 323.363 317 321C314.321 311.411 296.989 290.621 289 304M49 298L49 303C43.4596 303.762 45.7299 312.979 46 317C52.8493 314.073 57.8442 307.308 59 300L56 298L49 298M404 323C411.152 313.105 406.324 305.391 399 298C381.318 299.257 397.626 315.717 404 323z"
     id="path864" />
  <path
     style="fill:#b0bcc9; stroke:none;"
     d="M430 298L431 304L432 304L430 298z"
     id="path866" />
  <path
     style="fill:#4d8ac2; stroke:none;"
     d="M73 299L73 310L69 311L68 311L69 306L65 308C64.487 305.525 64.3962 305.425 62 306L62 302L61 302L57 322C53.9812 322.146 49.3129 324.787 52 328L51 334L52 334L52 330L53 330L55 336L50 338L45 333L42 336L40 372L38 369C32.2025 371.698 30.458 376.894 32 383L33 383L42 369L45 369L47 361L51 362C49.3143 359.065 45.9921 357.546 45.213 353.981C43.4754 346.031 47.5304 336.561 55 345L56 345L59 343C59 335.181 57.0947 322.57 65 318L64 309L75 317L73 313C78.338 311.856 73.8042 303.447 75 299L73 299z"
     id="path868" />
  <path
     style="fill:#b1aaa8; stroke:none;"
     d="M15 304L14 308L15 308L15 304z"
     id="path870" />
  <path
     style="fill:#4d8ac2; stroke:none;"
     d="M95 304L69 336L76 334L74 344L75 344L81 329L78 328L85 321L82 327L92 330L97 304L95 304z"
     id="path872" />
  <path
     style="fill:#739cc7; stroke:none;"
     d="M386 304L368.342 322.209L372.49 329.7L388 347C395.755 338.221 391.69 324.845 389.414 315C388.401 310.615 389.441 307.37 386 304z"
     id="path874" />
  <path
     style="fill:#939ba5; stroke:none;"
     d="M432 304L432 308L433 308L432 304z"
     id="path876" />
  <path
     style="fill:#51637c; stroke:none;"
     d="M14 308L11 330L12 330L16 308L14 308z"
     id="path878" />
  <path
     style="fill:#739cc7; stroke:none;"
     d="M233 308L224 318L228 317L227 321L229 324L232 320L233 320L234 322C236.056 318.407 237.928 314.81 234 312L235 308L233 308z"
     id="path880" />
  <path
     style="fill:#b0bcc9; stroke:none;"
     d="M13.3333 310.667L13.6667 311.333L13.3333 310.667z"
     id="path882" />
  <path
     style="fill:#dbd6da; stroke:none;"
     d="M12 313L12 317L13 317L12 313z"
     id="path884" />
  <path
     style="fill:#b0bcc9; stroke:none;"
     d="M434 313L434 318L435 318L434 313z"
     id="path886" />
  <path
     style="fill:#939ba5; stroke:none;"
     d="M11 317L11 323L12 323L11 317z"
     id="path888" />
  <path
     style="fill:#b0bcc9; stroke:none;"
     d="M435 318L435 327L436 327L435 318z"
     id="path890" />
  <path
     style="fill:#19497b; stroke:none;"
     d="M124 319L124 321L126 321L126 319L124 319z"
     id="path892" />
  <path
     style="fill:#739cc7; stroke:none;"
     d="M218 322L199 343C202.715 344.787 210.499 351.04 212 344L213 344L213 347L214 347L214 344L219 344L220 322L218 322z"
     id="path894" />
  <path
     style="fill:#5486b6; stroke:none;"
     d="M10 324L8 355L9 355L10 324z"
     id="path896" />
  <path
     style="fill:#4d8ac2; stroke:none;"
     d="M131 326L133 330L129 330L132 332L126 359C134.297 359.954 140.624 354.511 144 347L139 350C140.399 347.257 145.382 342.914 145.365 339.989C145.34 335.615 134.679 327.519 131 326z"
     id="path898" />
  <path
     style="fill:#87abd0; stroke:none;"
     d="M151 344L167 357L165 353C169.801 349.269 174.832 336.223 169 332L172 327C162.836 327.221 153.966 335.446 151 344z"
     id="path900" />
  <path
     style="fill:#939ba5; stroke:none;"
     d="M436 327L437 347L438 347L436 327M9 331L9 335L10 335L9 331z"
     id="path902" />
  <path
     style="fill:#4a79a7; stroke:none;"
     d="M57 345L59 350L51 358L57 357L53 384L48 384L48 385C59.2537 396.534 50.867 400.51 44 411L74 417C68.06 410.841 58.197 412.158 60 401L57 397C64.1476 400.498 65.9937 409.435 75 408L70.2793 393.999L75 375C67.5491 377.593 62.5 386.846 58 393C54.8254 379.791 65.1397 362.519 59 351L75 366L72 360L75 360L75 359L76 334L57 345z"
     id="path904" />
  <path
     style="fill:#87abd0; stroke:none;"
     d="M127 365C129.103 372.999 138.956 379.634 145 385L150 351L146 351L146 350L150 346C141.609 345.196 133.177 360.008 127 365M192 347C188.423 351.572 175.185 360.123 174.583 366C174.248 369.272 179.054 372.3 180 368L184 368L183 371L194 360L193 352L194 352L194 347L192 347M438 347L438 379L439 379L438 347z"
     id="path906" />
  <path
     style="fill:#5486b6; stroke:none;"
     d="M391 352C390.429 359.234 391.872 368.104 390.593 374.995C389.917 378.637 387.148 380.704 384 379L383 379L384 387L387 385L386 390L378 384L378 388C375.246 388.346 366.496 408.802 360 397L353 397L359 406C353.837 402.291 345.507 394.812 347 388L343 390L337 385L338 396C346.426 394.333 354.316 403.892 358 411C350.954 410.678 339.594 410.382 337 403L333 403L332 403L328 407L334 401L334 400L331 395L320 399C320.691 404.28 322.501 407.983 317 411C319.779 416.386 324.652 415.008 330 415L362 415L361 412C367.959 416.382 380.581 416.261 387.28 410.775C392.17 406.771 391.312 400.031 385 399C390.097 391.267 394.094 384.499 394.877 374.985C395.383 368.841 390.245 361.342 396 357L391 352M80 368L76 367L73 374C77.4997 381.775 70.3838 386.158 70.1335 393.999C69.9625 399.356 73.9919 402.96 75 408L70 409L75 417L75 418L130.985 415.028L150.17 408.755L168 411L165 408L165 407L168 405L169 411L170 411L170 398C178.165 393.474 174.209 385.362 173.98 378.039C173.911 375.837 175.358 371.343 173.347 369.737C170.791 367.695 168.287 371.331 167 373L171 374L164.389 390.944L156 395L151 389L142 396L146 404L132 407C129.105 410.02 124.84 410.611 124.877 404.988C124.935 395.927 134.303 382.868 142 393L146 388L142 381L137 376L134 376L134 379L130 375L127 376C128.994 386.74 126.666 392.664 122 402L119 402L111 396L115 400L115 401L108 407L108 408L111 410L92 411L92 408L88 408L91 402L85 405L89 400L85 402L82 400L81 404C72.0615 393.69 77.1596 384.441 78 372L100 391L99 394L104 395L102 392L102 391L126 366L126 365L116 359L114 361L114 362L114 363L116 363L116 364L116 365L114 365L115 368L102.996 377.295L94 378L89.8634 369L96 357C87.8875 356.068 83.5893 360.988 80 368z"
     id="path908" />
  <path
     style="fill:#939ba5; stroke:none;"
     d="M7 359L7 365L8 365L7 359z"
     id="path910" />
  <path
     style="fill:#2e6eab; stroke:none;"
     d="M124 366L124 368L126 368L126 366L124 366z"
     id="path912" />
  <path
     style="fill:#739cc7; stroke:none;"
     d="M219 368C214.359 374.563 192.165 388.792 205 395C214.808 386.171 219.224 382.04 221 368L219 368z"
     id="path914" />
  <path
     style="fill:#b0bcc9; stroke:none;"
     d="M6 369L6 400L7 400L6 369z"
     id="path916" />
  <path
     style="fill:#87abd0; stroke:none;"
     d="M102 391L102 392L104 395L99 394L100 391L78 372C76.064 382.767 71.126 396.174 81 404L82 400L85 402L89 400L85 405L91 402L88 408L92 408L92 411L111 410L108 408L108 407L115 401L115 400L111 396C112.652 396.866 114.205 397.729 116.024 398.217C130.827 402.188 122.34 380.024 126 375L124 373L124 372L124 371L126 369C116.293 372.321 108.842 383.718 102 391z"
     id="path918" />
  <path
     style="fill:#739cc7; stroke:none;"
     d="M156 395L164.271 391.461L171 374C163.565 372.787 144.702 389.233 156 395z"
     id="path920" />
  <path
     style="fill:#4d8ac2; stroke:none;"
     d="M41 375L40 403L42 403C42 395.633 40.8184 386.424 45 380L45 379L43 375L41 375z"
     id="path922" />
  <path
     style="fill:#dbd6da; stroke:none;"
     d="M439 379L439 391L440 391L439 379z"
     id="path924" />
  <path
     style="fill:#87abd0; stroke:none;"
     d="M43 380L45 409C58.8699 402.05 55.6125 386.295 43 380z"
     id="path926" />
  <path
     style="fill:#739cc7; stroke:none;"
     d="M403 381L397 386L397 390C389.71 392.005 390.643 397.173 393 403L399 404C402.872 396.315 406.274 389.928 405 381L403 381z"
     id="path928" />
  <path
     style="fill:#5486b6; stroke:none;"
     d="M197 391L176 413L196 412L196 411L192 411L192 410L215 411L197 391z"
     id="path930" />
  <path
     style="fill:#739cc7; stroke:none;"
     d="M295 391C296.743 402.483 301.06 413.662 315 414L295 391z"
     id="path932" />
  <path
     style="fill:#939ba5; stroke:none;"
     d="M439 391L439 399L440 399L439 391z"
     id="path934" />
  <path
     style="fill:#132c4b; stroke:none;"
     d="M7 396C22.8118 396 28.021 404.084 41.0895 411.373C50.426 416.581 59.5154 418 70 418L70 417C56.5483 414.501 40.8606 413.046 33 400C26.1817 399.17 12.9686 385.44 7 396z"
     id="path936" />
  <path
     style="fill:#3c3843; stroke:none;"
     d="M361 412L362 415L294 415L294 418L294 419L320 418.611L329 418L334 420L334 418C338.857 418.886 343.968 417.002 349 417C361.706 416.994 374.388 417.481 387 415.873C392.284 415.2 399.437 416.702 403 412L406 413C411.224 401.35 427.899 398.062 439 396C434.198 389.204 423.136 393.872 417.961 397.746C402.447 409.358 380.141 420.566 361 412z"
     id="path938" />
  <path
     style="fill:#4a79a7; stroke:none;"
     d="M6 394C6.09802 395.944 7.58353 406.559 10 403L11 403L12 408L12 398L24 401L35 412L41 414C39.3168 408.109 25.9898 397.76 19.8302 396.299C14.9504 395.142 10.6144 396.566 6 394z"
     id="path940" />
  <path
     style="fill:#19497b; stroke:none;"
     d="M24 395L24 396L31 400L29 394L24 395z"
     id="path942" />
  <path
     style="fill:#4a79a7; stroke:none;"
     d="M412 405L412 406L435 399L433 411C424.841 411.613 414.996 419.872 409 425L409 426L409 427L411 427L411 428L411 429L409 431L416 432L408.598 444.054L400 472L401 477L396 483L399 485L400 485C413.949 456.781 434.964 427.937 439 396L412 405z"
     id="path944" />
  <path
     style="fill:#87abd0; stroke:none;"
     d="M57 397L59 399L58 401L60 401C57.5969 411.485 68.4308 414.872 77 417L60 397L57 397z"
     id="path946" />
  <path
     style="fill:#2e6eab; stroke:none;"
     d="M336 397L335 400L336 397M12 398L21 418L23 416L24 422L20 422L20 423L24 428C21.9873 436.762 27.3541 443.567 30.8758 451.09C34.4339 458.69 38.9642 473.687 39 482C50.3562 491.973 73.6003 488.136 88 487L88 486L43 485L43 483L298 483L361 483L394.66 482.397L401 477L400 472C406.679 467.08 405.541 451.614 408.986 444.054C411.062 439.499 415.19 437.204 416 432L409 431L411 429L411 428L411 427L409 427L409 426L409 425L433 411L435 399C426.842 399.168 408.369 404.406 406 413L403 412L392 418C388.465 417.049 383.952 415.557 383 420L365 418C361.775 423.848 353.825 422.074 348 422L348 424L394 424L394 427C387.859 429.055 382.366 432.88 375.999 434.506C365.925 437.079 351.387 435.672 341.015 434.946C334.819 434.512 322.901 429.391 318 435L317 435L316 435L307 431.91L268 429.914L124 435C123.339 430.329 105.248 435.68 101 436.134C80.8622 438.286 54.0511 441.735 41 424L40 427L39 427L34 414L35 409L24 401L21 402L12 398z"
     id="path948" />
  <path
     style="fill:#87abd0; stroke:none;"
     d="M133 408L146 404L144 398C138.629 398.862 135.102 403.155 133 408z"
     id="path950" />
  <path
     style="fill:#b0bcc9; stroke:none;"
     d="M438 399L438 405L439 405L438 399z"
     id="path952" />
  <path
     style="fill:#19497b; stroke:none;"
     d="M410 404L415 401L410 404z"
     id="path954" />
  <path
     style="fill:#2e6eab; stroke:none;"
     d="M331 401L328 407L334 401L331 401z"
     id="path956" />
  <path
     style="fill:#5486b6; stroke:none;"
     d="M10 403L8 404C9.44138 410.693 13.5297 415.747 16.0247 422C20.8598 434.119 24.3887 446.748 28.9614 459.014C31.3557 465.436 34.1134 476.144 40 480C37.1199 470.638 34.8011 460.151 31.2809 451.09C28.1833 443.116 22.4938 437.17 24 428L20 423L20 422L24 422L23 416L21 418L13 406L10 403z"
     id="path958" />
  <path
     style="fill:#2e6eab; stroke:none;"
     d="M247 406C242.477 410.255 235.909 409.996 230 410L230 413L216 413L216 414L266 414L266 413L257 409C253.554 410.149 248.373 408.508 249 406L247 406z"
     id="path960" />
  <path
     style="fill:#b0bcc9; stroke:none;"
     d="M436.333 410.667L436.667 411.333L436.333 410.667z"
     id="path962" />
  <path
     style="fill:#4d8ac2; stroke:none;"
     d="M34 412L39 427L40 427L41 424C46.9525 435.628 57.9083 436.999 70 437L59 432L59 431C70.4202 425.671 83.3011 429.335 95.2855 425.713C100.155 424.241 105.149 424.594 107 419L109 423C116.013 424.302 138.518 427.514 143 421L144 421L148 424C142.767 432.237 132.175 430.697 124 434L124 435L193 430.044L303 430L303 429L299 420L313 421L312 424C316.394 425.043 321.885 425.851 325 422C339.057 427.949 358.016 425 373 425L373 424L348 424L348 422L364 422L363 418L342 420L334 418L334 420L329 418C323.53 420.89 309.626 418.377 303.09 418.212C281.682 417.673 256.859 422.022 236 417L235 420L233 418L228 420L223 416L214 419L213 419L212 419C210.444 417.187 209.556 417.187 208 419L207 419L199 419C199.018 416.347 197.094 417.092 196 419L195 419C191.569 415.074 182.238 416.801 178 419C178.023 415.592 174.249 418.261 172 419C172.018 416.347 170.094 417.092 169 419L161 420L155 418L144 420C142.444 418.187 141.556 418.187 140 420L139 420C136.935 416.131 129.96 416.518 129 421C120.955 415.939 109.417 417.913 100 418C96.2224 418.035 90.9025 417.788 90 422L89 422L89 419C78.7219 419 68.1171 419.677 58 417.483C51.6518 416.106 45.2937 410.907 39 414C38.3168 410.877 36.9128 411.5 34 412z"
     id="path964" />
  <path
     style="fill:#b0bcc9; stroke:none;"
     d="M435.333 412.667L435.667 413.333L435.333 412.667M12 414L12 417L13 417L12 414z"
     id="path966" />
  <path
     style="fill:#132c4b; stroke:none;"
     d="M126 416L126 417C162.197 417 200.014 412.468 236 416.715C244.59 417.728 260.061 413.743 267 419L296 418L294 415L308 415C295.117 409.594 272.038 414 258 414L172 414C157.739 414 139.673 411.959 126 416z"
     id="path968" />
  <path
     style="fill:#51637c; stroke:none;"
     d="M112 416L112 417L129 421L134 418L112 416z"
     id="path970" />
  <path
     style="fill:#4a79a7; stroke:none;"
     d="M339 417L339 418L342 420C347.362 419.257 360.378 417.35 364 421L365 418L367 420L368 420C373.187 418.052 377.869 417.84 383 420C385.274 416.505 388.219 417.311 392 418L394 416L377 416.961L339 417z"
     id="path972" />
  <path
     style="fill:#51637c; stroke:none;"
     d="M65 418L65 419C71.232 419 85.31 416.308 89 422L90 422L90 419L95 419L95 418L92 418L92 417L102 417L85 417.816L65 418z"
     id="path974" />
  <path
     style="fill:#19497b; stroke:none;"
     d="M92 417L92 418L115 418C108.373 414.03 99.3503 416.995 92 417z"
     id="path976" />
  <path
     style="fill:#51637c; stroke:none;"
     d="M171 416L171 417L172 419L178 419C183.132 417.146 190.392 415.51 195 419L196 419C197.617 416.305 199.659 416.365 199 419L207 419L208 419L212 419L213 419L214 419L222 417C208.873 411.492 185.311 416 171 416z"
     id="path978" />
  <path
     style="fill:#4a79a7; stroke:none;"
     d="M223 419L228 420L233 418L233 420L235 420L236 417C232.273 415.638 224.047 414.116 223 419z"
     id="path980" />
  <path
     style="fill:#51637c; stroke:none;"
     d="M136 417L136 418L139 420L140 420L144 420L155 418L161 420L169 419C164.22 413.529 143.211 417 136 417M238 417L238 418L252 419L238 417z"
     id="path982" />
  <path
     style="fill:#19497b; stroke:none;"
     d="M252 417L252 418L267 418L252 417z"
     id="path984" />
  <path
     style="fill:#b0bcc9; stroke:none;"
     d="M432.333 418.667L432.667 419.333L432.333 418.667z"
     id="path986" />
  <path
     style="fill:#739cc7; stroke:none;"
     d="M107 419C104.234 424.133 99.4598 424.951 94 425L94 426L120 427L119 431L92.9105 435.741L70 436L70 437C88.7593 437 106.501 433.712 125 432.909C132.514 432.583 144.61 431.719 148 424L144 421L143 421C135.777 427.171 117.888 424.123 109 423L109 419L107 419z"
     id="path988" />
  <path
     style="fill:#dbd6da; stroke:none;"
     d="M15 420L16 427L17 427L15 420z"
     id="path990" />
  <path
     style="fill:#4a79a7; stroke:none;"
     d="M93 420L93 422L96 422L96 420L93 420z"
     id="path992" />
  <path
     style="fill:#739cc7; stroke:none;"
     d="M299 420L301 422C298.657 433.123 310.14 430.559 316 435L317 435L318 435C324.984 429.709 335.21 434.949 343.001 434.999C362.095 435.123 376.628 435.429 394 427L394 424C371.277 419.842 347.928 429.093 325 422C321.047 425.236 316.817 424.881 312 424L313 421L299 420z"
     id="path994" />
  <path
     style="fill:#939ba5; stroke:none;"
     d="M431.333 420.667L431.667 421.333L431.333 420.667z"
     id="path996" />
  <path
     style="fill:#87abd0; stroke:none;"
     d="M59 431L59 432C68.2164 436.996 84.5158 438.01 94.7145 435.545C102.143 433.749 111.543 429.702 119 431L120 427C107.275 424.638 95.5797 427.676 83 427.985C74.8441 428.186 66.2281 426.572 59 431z"
     id="path998" />
  <path
     style="fill:#939ba5; stroke:none;"
     d="M428 427L427 432L428 432L428 427z"
     id="path1000" />
  <path
     style="fill:#87abd0; stroke:none;"
     d="M18 429L20 432L18 429z"
     id="path1002" />
  <path
     style="fill:#b0bcc9; stroke:none;"
     d="M426 432L426 435L427 435L426 432z"
     id="path1004" />
  <path
     style="fill:#4d8ac2; stroke:none;"
     d="M49 438L44 439L49.9691 471L52.6034 479.91L72 482L72 481L57.9375 478.682L53 464L52 448L55 443L51 443L53 442L53 441L51 438L49 438z"
     id="path1006" />
  <path
     style="fill:#739cc7; stroke:none;"
     d="M385 438L385 440L369 440.25L329 441C325.146 436.614 308.672 438.508 307 444L308 444L311 442L312 446L314 444L315 444L320 444L319 447C322.506 450.636 324.136 454.982 324 460L325 460L326 456L327 456L327 465L328 465L328 461C339.048 471.175 349.212 473.852 363 477.9C368.665 479.564 378.848 482.299 384.566 479.397C388.108 477.599 386.995 471.229 387 468C387.017 457.874 390.987 447.917 387 438L385 438z"
     id="path1008" />
  <path
     style="fill:#4d8ac2; stroke:none;"
     d="M138 442L137 442C134.31 438.993 129.025 439.762 126 442L116 440L109 464L106 464L101 475L74 480L74 481L133 477.91L152 474L155 474L168 472C168.374 466.554 170.554 464.374 176 464L179 445L175 447L173 445L178 442C173.157 436.475 154.672 440.295 147.715 440.116C144.24 440.026 140.415 439.237 138 442z"
     id="path1010" />
  <path
     style="fill:#739cc7; stroke:none;"
     d="M51 443L55 443L53 445L52 448L53 464L57 478L63 476L65 441L60 442L60 440L51 443z"
     id="path1012" />
  <path
     style="fill:#87abd0; stroke:none;"
     d="M83 440L71 443L68 441C58.8278 450.202 61.4107 463.424 63 476L57 478L57 480C72.2194 484.499 86.2265 475.307 101 475L106 464L109 464L117 442L110 442C102.85 440.458 92.8395 440.34 86 443L83 440z"
     id="path1014" />
  <path
     style="fill:#b0bcc9; stroke:none;"
     d="M422.333 441.667L422.667 442.333L422.333 441.667M24 446L24 449L25 449L24 446M419.333 448.667L419.667 449.333L419.333 448.667M27.3333 454.667L27.6667 455.333L27.3333 454.667M416.333 454.667L416.667 455.333L416.333 454.667M415.333 456.667L415.667 457.333L415.333 456.667M414.333 458.667L414.667 459.333L414.333 458.667M29.3333 459.667L29.6667 460.333L29.3333 459.667M413.333 460.667L413.667 461.333L413.333 460.667M412.333 462.667L412.667 463.333L412.333 462.667M411.333 464.667L411.667 465.333L411.333 464.667M410.333 466.667L410.667 467.333L410.333 466.667z"
     id="path1016" />
  <path
     style="fill:#b1aaa8; stroke:none;"
     d="M409.333 468.667L409.667 469.333L409.333 468.667z"
     id="path1018" />
  <path
     style="fill:#b0bcc9; stroke:none;"
     d="M36.3333 476.667L36.6667 477.333L36.3333 476.667M405.333 476.667L405.667 477.333L405.333 476.667M400 484L403 481L400 484z"
     id="path1020" />
  <path
     style="fill:#19497b; stroke:none;"
     d="M43 483L43 485L399 485L399 483L43 483z"
     id="path1022" />
  <path
     style="fill:#4a79a7; stroke:none;"
     d="M71 484L71 485L387 487L387 485L71 484z"
     id="path1024" />
  <path
     style="fill:#b0bcc9; stroke:none;"
     d="M42 485C42.7292 488.403 44.8058 487.987 48 488L48 487L42 485z"
     id="path1026" />
  <path
     style="fill:#4d8ac2; stroke:none;"
     d="M58 485L58 486L91 486L58 485z"
     id="path1028" />
  <path
     style="fill:#2e6eab; stroke:none;"
     d="M288 485L288 486L368 486L343 485L288 485z"
     id="path1030" />
  <path
     style="fill:#51637c; stroke:none;"
     d="M335 488L335 489C350.704 489 366.354 488 382 488C387.243 488 395.645 489.749 399 485L335 488z"
     id="path1032" />
  <path
     style="fill:#b0bcc9; stroke:none;"
     d="M399 485L397 487L397 488C399.251 487.527 400.118 487.14 399 485z"
     id="path1034" />
  <path
     style="fill:#19497b; stroke:none;"
     d="M88 486L88 487L335 489C329.784 486.811 322.619 488 317 488C303.822 488 290.119 489.079 277 487.83C214.782 481.909 150.532 486 88 486z"
     id="path1036" />
  <path
     style="fill:#739cc7; stroke:none;"
     d="M48 487L48 488L59 488L48 487M83 487L83 488L109 488L83 487z"
     id="path1038" />
  <path
     style="fill:#4a79a7; stroke:none;"
     d="M109 487L109 488L127 488L109 487z"
     id="path1040" />
  <path
     style="fill:#132c4b; stroke:none;"
     d="M171 487L171 488L191 488L171 487z"
     id="path1042" />
  <path
     style="fill:#4a79a7; stroke:none;"
     d="M203 487L203 488L227 488L203 487z"
     id="path1044" />
  <path
     style="fill:#b0bcc9; stroke:none;"
     d="M56 488L56 489L83 489L56 488z"
     id="path1046" />
  <path
     style="fill:#dbd6da; stroke:none;"
     d="M83 488L83 489L91 489L83 488z"
     id="path1048" />
  <path
     style="fill:#b0bcc9; stroke:none;"
     d="M115 488L115 489L128 489L115 488z"
     id="path1050" />
  <path
     style="fill:#939ba5; stroke:none;"
     d="M128 488L128 489L142 489L128 488z"
     id="path1052" />
  <path
     style="fill:#51637c; stroke:none;"
     d="M142 488L142 489L190 489C177.586 483.791 155.526 488 142 488z"
     id="path1054" />
  <path
     style="fill:#b0bcc9; stroke:none;"
     d="M190 488L190 489L221 489L190 488z"
     id="path1056" />
  <path
     style="fill:#939ba5; stroke:none;"
     d="M221 488L221 489L243 489L221 488z"
     id="path1058" />
  <path
     style="fill:#7f797e; stroke:none;"
     d="M243 488L243 489L261 489L243 488z"
     id="path1060" />
  <path
     style="fill:#939ba5; stroke:none;"
     d="M369 488L369 489L395 489L369 488z"
     id="path1062" />
  <path
     style="fill:#87abd0; stroke:none;"
     d="M278 489L278 490L296 490L278 489z"
     id="path1064" />
  <path
     style="fill:#739cc7; stroke:none;"
     d="M325 489L325 490L342 490L325 489z"
     id="path1066" />
  <path
     style="fill:#dbd6da; stroke:none;"
     d="M342 489L342 490L374 490L342 489M299 490L299 491L342 491C330.774 486.29 311.219 490 299 490z"
     id="path1068" />
</svg>
