<?xml version="1.0" encoding="UTF-8" standalone="no"?>
<svg
   xmlns:dc="http://purl.org/dc/elements/1.1/"
   xmlns:cc="http://creativecommons.org/ns#"
   xmlns:rdf="http://www.w3.org/1999/02/22-rdf-syntax-ns#"
   xmlns:svg="http://www.w3.org/2000/svg"
   xmlns="http://www.w3.org/2000/svg"
   xmlns:sodipodi="http://sodipodi.sourceforge.net/DTD/sodipodi-0.dtd"
   xmlns:inkscape="http://www.inkscape.org/namespaces/inkscape"
   width="462"
   height="490"
   id="svg2"
   version="1.1"
   inkscape:version="0.48.4 r9939"
   sodipodi:docname="Fwd-2016-Newest-Popular-handbag-designs-from-Ceso-11-2016022459 (1).svg">
  <metadata
     id="metadata1068">
    <rdf:RDF>
      <cc:Work
         rdf:about="">
        <dc:format>image/svg+xml</dc:format>
        <dc:type
           rdf:resource="http://purl.org/dc/dcmitype/StillImage" />
        <dc:title></dc:title>
      </cc:Work>
    </rdf:RDF>
  </metadata>
  <defs
     id="defs1066" />
  <sodipodi:namedview
     pagecolor="#ffffff"
     bordercolor="#666666"
     borderopacity="1"
     objecttolerance="10"
     gridtolerance="10"
     guidetolerance="10"
     inkscape:pageopacity="0"
     inkscape:pageshadow="2"
     inkscape:window-width="640"
     inkscape:window-height="480"
     id="namedview1064"
     showgrid="false"
     inkscape:zoom="0.48163265"
     inkscape:cx="231"
     inkscape:cy="78.898305"
     inkscape:window-x="166"
     inkscape:window-y="65"
     inkscape:window-maximized="0"
     inkscape:current-layer="svg2" />
  <path
     style="fill:#d0bfb8; stroke:none;"
     d="M221 8L221 9L261 16L261 19L272 23L264 14L255 13C252.948 3.37653 227.93 7.27206 221 8z"
     id="path6" />
  <path
     style="fill:#d5c8ba; stroke:none;"
     d="M204 13L207 16L221 10C215.931 6.70639 209.219 11.299 204 13z"
     id="path8" />
  <path
     style="fill:#d1a490; stroke:none;"
     d="M207 16L196 17L196 20C187.343 21.3148 176.371 32.1567 173 40L175 41L176 41C190.492 25.1848 212.583 10.1566 235 11.0401C244.136 11.4002 251.876 16.8993 261 17C246.953 8.6626 220.007 3.00778 207 16z"
     id="path10" />
  <path
     style="fill:#af7961; stroke:none;"
     d="M227 11L227 12L246 14C240.862 9.95691 233.226 11 227 11z"
     id="path12" />
  <path
     style="fill:#925334; stroke:none;"
     d="M195 29C187.522 29.2681 181.074 40.1388 176.834 45.669C163.159 63.5065 157.783 83.9692 156.981 106C156.785 111.393 154.424 115.606 156 121L153.424 135L155 182L154 182C150.577 169.201 139.31 148.595 149 136L148 112L147 112L146 174L155 184L155 188C159.385 189.332 159.884 191.716 159 196L163 196L157.134 157L160.352 110L162 84L179 53L180 53L182 55L179 52C184.08 43.8777 194.586 29.612 205 29C208.937 21.1014 216.973 20.0499 225 18.9645C244.318 16.3522 263.668 24.8273 275.96 39.5146C297.882 65.7079 305.631 94.9316 309.174 128C311.1 145.982 313.451 163.938 306 181L309 182L308 186L304 183L303 183L283 185L283 186C287.302 186 295.826 184.694 295 188L299 186L304 188L305 193L308 194L312 191L314 193L327 192L326 195L327 195L328 192L331 194C334.734 182.97 330.365 177.303 328.339 166.985C325.389 151.962 324.599 136.175 322.421 121C321.546 114.908 322.224 101.691 317 98L319.153 123L322 130L325 156L324 156L324 152L323 152L323 164L318 160L315 161L311 106C308.593 106 307.736 96.9283 307.167 94C305.223 84.0062 302.248 74.4783 298.167 65C296.658 61.497 296.132 57.4722 292 57C294.225 49.2465 287.4 42.6122 281 39L282 37C263.919 16.9461 234.876 4.23965 209.715 18.4923C204.293 21.5633 197.992 23.0637 195 29z"
     id="path14" />
  <path
     style="fill:#a16c54; stroke:none;"
     d="M163 60L164 57C152.397 62.95 150.496 87.4812 150 99L148 98L149 106L150.06 119.91L149 136L147 141L151 141C151 154.147 149.394 169.638 154 182L155 182L153.576 135L156 121C154.852 115.944 156.799 112.017 156.981 107C157.793 84.7137 163.403 64.6914 176.834 46.4645C180.916 40.9244 187.724 29.795 195 29L215 16C208.269 14.4105 201.193 19.7215 195.95 23.3734C181.327 33.5583 175.198 48.1711 163 60z"
     id="path16" />
  <path
     style="fill:#d1a490; stroke:none;"
     d="M263 15L281 31L280 34L286 35C284.642 26.3821 271.026 17.4063 263 15z"
     id="path18" />
  <path
     style="fill:#cb9474; stroke:none;"
     d="M256 17L256 18C263.604 21.8349 272.421 32.3021 281 32C274.468 25.1054 265.885 17.6567 256 17z"
     id="path20" />
  <path
     style="fill:#786157; stroke:none;"
     d="M215 22L215 23L234 20.0895L268 33C255.923 18.3301 231.742 14.577 215 22z"
     id="path28" />
  <path
     style="fill:#5c3929; stroke:none;"
     d="M209 24L214 23L214 24C203.178 27.9393 180.407 41.6154 182 55L180 53L179 53C172.244 62.4572 167.975 73.5231 166 85L165 85L165 80L164 80L162 84C165.255 84 162.662 89.4522 162.167 92C160.475 100.701 161.331 109.44 159.667 118C156.362 134.998 156.629 150.927 159 168C159.796 173.731 160.551 182.068 166.167 185.5C170.178 187.951 181.208 186 186 186L186 185L171 184L171 183L265 183L308 183L306 181L306 180L306 179C314.439 173.112 311.003 152.049 311 143C310.99 116.727 305.14 88.5598 293.54 65C288.686 55.1402 280.234 41.8442 270 37C278.373 51.5014 289.244 63.0017 295.41 79C304.252 101.942 308.033 128.513 306.961 153C306.533 162.758 304.006 172.247 304 182L165 181C164.991 167.253 161.607 153.923 162.015 140C162.959 107.83 175.626 68.4436 198.025 44.9861C206.04 36.5926 215.274 27.983 227 25.3642C243.143 21.759 251.581 30.8513 266 33L266 32C249.146 20.2433 234.279 19.7229 215 23L215 22L217 20L209 24z"
     id="path34" />
  <path
     style="fill:#786157; stroke:none;"
     d="M205 28L214 24C210.233 22.9557 206.962 24.7574 205 28z"
     id="path40" />
  <path
     style="fill:#a27b6b; stroke:none;"
     d="M232 24L232 25L243 25L232 24z"
     id="path46" />
  <path
     style="fill:#bdb8b4; stroke:none;"
     d="M225 25L225 26L231 26L225 25z"
     id="path48" />
  <path
     style="fill:#d8d1cf; stroke:none;"
     d="M231 25L231 26L245 26L231 25z"
     id="path50" />
  <path
     style="fill:#786157; stroke:none;"
     d="M245 25L245 26L249 26L245 25z"
     id="path52" />
  <path
     style="fill:#be9d8e; stroke:none;"
     d="M248 26L248 27L251 27L248 26z"
     id="path56" />
  <path
     style="fill:#5c3929; stroke:none;"
     d="M261 26L270 33L261 26z"
     id="path58" />
  <path
     style="fill:#a27b6b; stroke:none;"
     d="M220.667 27.3333L221.333 27.6667L220.667 27.3333M251 27L251 28L254 28L251 27z"
     id="path60" />
  <path
     style="fill:#786157; stroke:none;"
     d="M179 52L204 28C194.177 30.9725 182.923 42.7345 179 52z"
     id="path62" />
  <path
     style="fill:#a27b6b; stroke:none;"
     d="M217 28L217 30L219 28L217 28z"
     id="path64" />
  <path
     style="fill:#a19692; stroke:none;"
     d="M254 28L254 29L257 29L254 28z"
     id="path66" />
  <path
     style="fill:#bdb8b4; stroke:none;"
     d="M214.667 30.3333L215.333 30.6667L214.667 30.3333z"
     id="path68" />
  <path
     style="fill:#be9d8e; stroke:none;"
     d="M258 30L258 31L261 31L258 30M209 33L209 35L211 33L209 33z"
     id="path70" />
  <path
     style="fill:#754731; stroke:none;"
     d="M264 33L264 34L271 39L270 37L271 37L279 44C276.344 37.3145 271.198 33.1745 264 33z"
     id="path72" />
  <path
     style="fill:#b4846f; stroke:none;"
     d="M286 33L280 34L280 37C286.982 38.9983 289.7 46.0592 292.816 51.9992C297.766 61.4381 303.252 70.2968 308 80C312.35 74.5365 308.493 70.6218 306.387 65C301.704 52.5046 295.064 44.2574 288 33L286 33z"
     id="path74" />
  <path
     style="fill:#d5c8ba; stroke:none;"
     d="M206.667 36.3333L207.333 36.6667L206.667 36.3333z"
     id="path84" />
  <path
     style="fill:#af7961; stroke:none;"
     d="M281 38L291 47C288.848 42.9432 285.898 37.9076 281 38z"
     id="path88" />
  <path
     style="fill:#a19692; stroke:none;"
     d="M203.667 38.3333L204.333 38.6667L203.667 38.3333z"
     id="path96" />
  <path
     style="fill:#b4846f; stroke:none;"
     d="M176 41C168.102 39.7621 162.622 52.8861 160 59L164 57L163 60L179 39L176 41z"
     id="path98" />
  <path
     style="fill:#d5c8ba; stroke:none;"
     d="M271.333 39.6667L271.667 40.3333L271.333 39.6667z"
     id="path100" />
  <path
     style="fill:#d0bfb8; stroke:none;"
     d="M295.333 42.6667L295.667 43.3333L295.333 42.6667z"
     id="path102" />
  <path
     style="fill:#a19692; stroke:none;"
     d="M274 43L275 44L274 43z"
     id="path104" />
  <path
     style="fill:#be9d8e; stroke:none;"
     d="M191 52L192 53L191 52z"
     id="path112" />
  <path
     style="fill:#a16c54; stroke:none;"
     d="M292 57C296.703 59.717 298.288 66.049 299.997 70.9992C304.036 82.7 308.964 94.4113 309 107L314 104L311 89L309 90C307.933 76.4743 301.352 65.4789 295 54L292 57z"
     id="path114" />
  <path
     style="fill:#d5c8ba; stroke:none;"
     d="M159 59L159 62L160 62L159 59M68 60L68 61L72 61L68 60z"
     id="path120" />
  <path
     style="fill:#a16c54; stroke:none;"
     d="M305 60L309 80L312 79L317.675 114L321 162L320 162L318 145L314 144C316.239 134.622 319.022 114.507 310 108L315 161L318 160L323 164L323 152L324 152L324 156L325 156L322 130L319 124L317 98L319 98C316.105 85.3333 313.8 70.1079 305 60z"
     id="path122" />
  <path
     style="fill:#d1a490; stroke:none;"
     d="M306 60L306 63L307 63L306 60z"
     id="path124" />
  <path
     style="fill:#d0bfb8; stroke:none;"
     d="M287.333 61.6667L287.667 62.3333L287.333 61.6667z"
     id="path126" />
  <path
     style="fill:#bdb8b4; stroke:none;"
     d="M184.333 62.6667L184.667 63.3333L184.333 62.6667z"
     id="path128" />
  <path
     style="fill:#d0bfb8; stroke:none;"
     d="M291 69L292 73L293 73L291 69z"
     id="path134" />
  <path
     style="fill:#382015; stroke:none;"
     d="M170 70L168 77L169 77L170 70z"
     id="path136" />
  <path
     style="fill:#d0bfb8; stroke:none;"
     d="M154 71L154 75L155 75L154 71z"
     id="path138" />
  <path
     style="fill:#bdb8b4; stroke:none;"
     d="M178 74L178 77L179 77L178 74M294.333 76.6667L294.667 77.3333L294.333 76.6667z"
     id="path140" />
  <path
     style="fill:#d0bfb8; stroke:none;"
     d="M152 77L152 80L153 80L152 77z"
     id="path142" />
  <path
     style="fill:#211a13; stroke:none;"
     d="M167 77L165 85L166 85L167 77z"
     id="path144" />
  <path
     style="fill:#786157; stroke:none;"
     d="M295 78L295 81L296 81L295 78z"
     id="path146" />
  <path
     style="fill:#af7961; stroke:none;"
     d="M311 79L308 80L309 90L311 89L314 104C310.152 106.716 312.536 110.888 313.039 114.965C314.366 125.714 316.105 132.667 314 144L318 145L320 162L321 162L314.614 100L311 79z"
     id="path152" />
  <path
     style="fill:#a27b6b; stroke:none;"
     d="M151 80L151 85L152 85L151 80z"
     id="path170" />
  <path
     style="fill:#bdb8b4; stroke:none;"
     d="M296.333 82.6667L296.667 83.3333L296.333 82.6667z"
     id="path190" />
  <path
     style="fill:#d0bfb8; stroke:none;"
     d="M150 85L150 88L151 88L150 85z"
     id="path198" />
  <path
     style="fill:#754731; stroke:none;"
     d="M151 85L149 99L150 99L151 85z"
     id="path200" />
  <path
     style="fill:#a19692; stroke:none;"
     d="M173 85L173 88L174 88L173 85z"
     id="path202" />
  <path
     style="fill:#786157; stroke:none;"
     d="M298.333 86.6667L298.667 87.3333L298.333 86.6667z"
     id="path210" />
  <path
     style="fill:#a19692; stroke:none;"
     d="M149 88L149 93L150 93L149 88z"
     id="path222" />
  <path
     style="fill:#a27b6b; stroke:none;"
     d="M172.333 88.6667L172.667 89.3333L172.333 88.6667z"
     id="path224" />
  <path
     style="fill:#be9d8e; stroke:none;"
     d="M298.333 88.6667L298.667 89.3333L298.333 88.6667M317 88L317 93L318 93L317 88z"
     id="path226" />
  <path
     style="fill:#d0bfb8; stroke:none;"
     d="M171.333 92.6667L171.667 93.3333L171.333 92.6667z"
     id="path240" />
  <path
     style="fill:#be9d8e; stroke:none;"
     d="M299 92L299 95L300 95L299 92z"
     id="path242" />
  <path
     style="fill:#be9d8e; stroke:none;"
     d="M148 93L148 98L149 98L148 93z"
     id="path248" />
  <path
     style="fill:#d0bfb8; stroke:none;"
     d="M318.333 94.6667L318.667 95.3333L318.333 94.6667z"
     id="path254" />
  <path
     style="fill:#a27b6b; stroke:none;"
     d="M169 98L169 101L170 101L169 98z"
     id="path264" />
  <path
     style="fill:#d1a490; stroke:none;"
     d="M319.333 98.6667L319.667 99.3333L319.333 98.6667z"
     id="path266" />
  <path
     style="fill:#a27b6b; stroke:none;"
     d="M301.333 100.667L301.667 101.333L301.333 100.667z"
     id="path268" />
  <path
     style="fill:#be9d8e; stroke:none;"
     d="M168 102L167 110L168 110L168 102z"
     id="path270" />
  <path
     style="fill:#d0bfb8; stroke:none;"
     d="M301 102L301 105L302 105L301 102z"
     id="path272" />
  <path
     style="fill:#be9d8e; stroke:none;"
     d="M146 104L146 109L147 109L146 104z"
     id="path274" />
  <path
     style="fill:#786157; stroke:none;"
     d="M302.333 104.667L302.667 105.333L302.333 104.667z"
     id="path276" />
  <path
     style="fill:#d8d1cf; stroke:none;"
     d="M320 104L320 108L321 108L320 104z"
     id="path278" />
  <path
     style="fill:#754731; stroke:none;"
     d="M147 106C143.619 124.146 143 142.595 143 161C143 166.653 145.241 177.602 140 181L142 183L139 194L142 196L143 196L144 196L144 194L145 194L146 194C146.787 196.047 147.213 196.047 148 194L149 194L159 196C160.247 191.62 159.84 188.808 155 188L155 184L146 174C144.169 151.581 143.264 128.172 149 106L147 106z"
     id="path280" />
  <path
     style="fill:#be9d8e; stroke:none;"
     d="M303 108L303 112L304 112L303 108z"
     id="path282" />
  <path
     style="fill:#d5c8ba; stroke:none;"
     d="M321 108L321 115L322 115L321 108z"
     id="path284" />
  <path
     style="fill:#d8d1cf; stroke:none;"
     d="M167 110L166 118L167 118L167 110z"
     id="path286" />
  <path
     style="fill:#d5c8ba; stroke:none;"
     d="M145 112L145 116L146 116L145 112z"
     id="path288" />
  <path
     style="fill:#a27b6b; stroke:none;"
     d="M166.333 112.667L166.667 113.333L166.333 112.667z"
     id="path290" />
  <path
     style="fill:#d5c8ba; stroke:none;"
     d="M303 112L303 117L304 117L303 112z"
     id="path292" />
  <path
     style="fill:#be9d8e; stroke:none;"
     d="M165.333 118.667L165.667 119.333L165.333 118.667z"
     id="path294" />
  <path
     style="fill:#bdb8b4; stroke:none;"
     d="M304 118L304 125L305 125L304 118z"
     id="path296" />
  <path
     style="fill:#a27b6b; stroke:none;"
     d="M322 118L322 122L323 122L322 118z"
     id="path298" />
  <path
     style="fill:#be9d8e; stroke:none;"
     d="M323 119L323 131L324 131L323 119M144 120L144 125L145 125L144 120z"
     id="path300" />
  <path
     style="fill:#786157; stroke:none;"
     d="M305 122L305 125L306 125L305 122z"
     id="path302" />
  <path
     style="fill:#be9d8e; stroke:none;"
     d="M164 124L164 130L165 130L164 124z"
     id="path304" />
  <path
     style="fill:#d5c8ba; stroke:none;"
     d="M305 125L305 129L306 129L305 125z"
     id="path306" />
  <path
     style="fill:#bdb8b4; stroke:none;"
     d="M143 126L143 138L144 138L143 126z"
     id="path308" />
  <path
     style="fill:#786157; stroke:none;"
     d="M306 127L306 133L307 133L306 127z"
     id="path310" />
  <path
     style="fill:#d5c8ba; stroke:none;"
     d="M163 132L163 136L164 136L163 132z"
     id="path312" />
  <path
     style="fill:#a19692; stroke:none;"
     d="M306 133L306 145L307 145L306 133z"
     id="path314" />
  <path
     style="fill:#b4846f; stroke:none;"
     d="M324 133L324 136L325 136L324 133z"
     id="path316" />
  <path
     style="fill:#a16c54; stroke:none;"
     d="M162 134L162 139L163 139L162 134z"
     id="path318" />
  <path
     style="fill:#fad2b1; stroke:none;"
     d="M325 134L325 142L326 142L325 134z"
     id="path320" />
  <path
     style="fill:#be9d8e; stroke:none;"
     d="M162 139L162 159L163 159L162 139M147 141L148 147L150 147L151 141L147 141z"
     id="path322" />
  <path
     style="fill:#af7961; stroke:none;"
     d="M146 142C146 150.093 144.222 167.015 152 172L151 145L150 145L148 147L146 142z"
     id="path324" />
  <path
     style="fill:#786157; stroke:none;"
     d="M306 145L306 158L307 158L306 145z"
     id="path326" />
  <path
     style="fill:#a27b6b; stroke:none;"
     d="M142 146L142 166L143 166L142 146z"
     id="path328" />
  <path
     style="fill:#d0bfb8; stroke:none;"
     d="M326 147L326 152L327 152L326 147M327 153L327 160L328 160L327 153z"
     id="path330" />
  <path
     style="fill:#d8d1cf; stroke:none;"
     d="M305 158L305 164L306 164L305 158z"
     id="path332" />
  <path
     style="fill:#d0bfb8; stroke:none;"
     d="M163 159L163 168L164 168L163 159z"
     id="path334" />
  <path
     style="fill:#be9d8e; stroke:none;"
     d="M328 160L328 169L329 169L328 160z"
     id="path336" />
  <path
     style="fill:#a19692; stroke:none;"
     d="M305 164L305 169L306 169L305 164z"
     id="path338" />
  <path
     style="fill:#d0bfb8; stroke:none;"
     d="M142 166L142 180L122 180L122 181L143 181L142 166z"
     id="path340" />
  <path
     style="fill:#a19692; stroke:none;"
     d="M164 168L164 172L165 172L164 168z"
     id="path342" />
  <path
     style="fill:#bdb8b4; stroke:none;"
     d="M304 170L304 173L305 173L304 170z"
     id="path344" />
  <path
     style="fill:#b4846f; stroke:none;"
     d="M329.333 170.667L329.667 171.333L329.333 170.667z"
     id="path346" />
  <path
     style="fill:#a19692; stroke:none;"
     d="M165 177L167 181L165 177z"
     id="path348" />
  <path
     style="fill:#b4846f; stroke:none;"
     d="M333 178L331 194L328 192L327 195L326 195L327 192L312 191L306 192L306 200L307 201L331 201L336 180L333 178z"
     id="path350" />
  <path
     style="fill:#bdb8b4; stroke:none;"
     d="M75 180L75 181L79 181L75 180z"
     id="path352" />
  <path
     style="fill:#d0bfb8; stroke:none;"
     d="M84 180L84 181L95 181L84 180z"
     id="path354" />
  <path
     style="fill:#d8d1cf; stroke:none;"
     d="M167 180L167 181L226 181L207 180L167 180M229 180L229 181L256 181L229 180z"
     id="path356" />
  <path
     style="fill:#a19692; stroke:none;"
     d="M256 180L256 181L304 181C291.586 175.791 269.526 180 256 180M336 180L336 181L385 181C372.348 175.691 349.788 180 336 180z"
     id="path358" />
  <path
     style="fill:#d5c8ba; stroke:none;"
     d="M73 181L73 190L74 190L73 181z"
     id="path360" />
  <path
     style="fill:#754731; stroke:none;"
     d="M74 181L74 188L75 188L75 185L79 186L79 183L84 184L87 182L74 181z"
     id="path362" />
  <path
     style="fill:#786157; stroke:none;"
     d="M84 182L84 183L89 183L90 183L91 183C95.4602 188.119 109.266 186.075 115 184C116.474 186.713 119.061 185.952 121 184L125 184L136 186L136 185L132 185L132 184L139 184L139 182C121.935 180.653 100.809 178.88 84 182z"
     id="path364" />
  <path
     style="fill:#a19692; stroke:none;"
     d="M99 181L99 182L117 182L99 181z"
     id="path366" />
  <path
     style="fill:#5c3929; stroke:none;"
     d="M134 181L134 182L139 182L139 184L132 184L132 185C136.276 185.439 139.163 185.808 140 181L134 181z"
     id="path368" />
  <path
     style="fill:#382015; stroke:none;"
     d="M280 181L280 182L304 182L280 181M335 181L330 203L336 208L334 202L337 201L337 199C329.519 191.201 340.554 187.619 347 188L336 186L336 183C351.056 183 370.571 186.265 385 182C372.11 176.591 349.049 181 335 181z"
     id="path370" />
  <path
     style="fill:#a16c54; stroke:none;"
     d="M385 181C379.556 189.494 365.417 180.333 360 188L376 186C378.589 187.81 380.772 188.55 383 186C387.275 188.681 385.094 190.886 384 195C369.361 195 348.569 198.75 335 193C334.29 196.058 334.331 197.268 337 199L337 201L334 202L335 215L336 215L336 213L337 213L334 235L335 239L336 239C339.661 232.429 343.972 229.037 344 221L356 219L356 221L360 216C368.093 216.167 382.238 220.629 386 212L392 213L392 212L389 212L386 204L393 184L385 181z"
     id="path372" />
  <path
     style="fill:#b4846f; stroke:none;"
     d="M163 182L164 192L166 192L166 188L167 188L180 190.656L215 194L235 197L236 197L255 197L304 194L304 188C293.936 186.925 275.481 191.12 267 186L266 186L263 186L262 186L261 186L261 188L260 188L259 188L259 186L258 186L257 186L253 186L250 188L249 185L233 186.214L199 186L183 190L184 188L183 188C176.369 188.669 168.496 185.401 163 182M308 182L306 186L308 182z"
     id="path374" />
  <path
     style="fill:#4b5251; stroke:none;"
     d="M384 182L350 183L336 185C347.148 182.002 361.466 183.68 373 184C375.163 184.06 385.57 185.804 384 182z"
     id="path376" />
  <path
     style="fill:#68341a; stroke:none;"
     d="M76 183L76 185L78 185L78 183L76 183z"
     id="path378" />
  <path
     style="fill:#af7961; stroke:none;"
     d="M79 183L79 186L75 185L74 208L81 188C82.7757 193.049 88.0055 191.765 92.5363 191.748C103.119 191.707 113.474 192.33 124 191L124 190L88 188C84.0777 189.613 81.9986 186.793 82 183L79 183z"
     id="path380" />
  <path
     style="fill:#d1a490; stroke:none;"
     d="M81 184C81.8906 187.161 84.8893 191.013 88 188C95.4122 190.247 102.492 188.599 110 188.931C120.956 189.417 129.547 191.635 140 187L140 186L125 184L121 184C114.035 187.079 97.5431 187.188 91 183L90 183L89 183L89 185L81 184z"
     id="path382" />
  <path
     style="fill:#af7961; stroke:none;"
     d="M140 183L138 186L141 187L142 183L140 183z"
     id="path384" />
  <path
     style="fill:#786157; stroke:none;"
     d="M171 183L171 184C186.597 184 202.589 189.038 218.246 186.657C227.713 185.217 241.563 180.48 250 188L253 186L257 188L257 187L255 185C258.987 185.003 262.668 184.402 265 188L266 188L267 186L267 188L268 186L275 188C283.198 183.602 293.958 185 303 185L269 183.91L171 183z"
     id="path386" />
  <path
     style="fill:#4b5251; stroke:none;"
     d="M265 183L265 184L296 184L265 183z"
     id="path388" />
  <path
     style="fill:#2e3955; stroke:none;"
     d="M298 183L298 184L303 184L298 183z"
     id="path390" />
  <path
     style="fill:#d8d1cf; stroke:none;"
     d="M386 183L386 184L390 184L386 183z"
     id="path392" />
  <path
     style="fill:#68341a; stroke:none;"
     d="M113 184L113 186L115 186L115 184L113 184z"
     id="path394" />
  <path
     style="fill:#754731; stroke:none;"
     d="M222 184L222 186L243 187C239.047 181.808 227.937 184 222 184z"
     id="path396" />
  <path
     style="fill:#786157; stroke:none;"
     d="M336 185L336 186L378 185C368.765 181.125 345.581 182.168 336 185z"
     id="path398" />
  <path
     style="fill:#382015; stroke:none;"
     d="M209.667 185.333L210.333 185.667L209.667 185.333z"
     id="path400" />
  <path
     style="fill:#5c3929; stroke:none;"
     d="M245 185L245 187L248 187L248 185L245 185z"
     id="path402" />
  <path
     style="fill:#754731; stroke:none;"
     d="M255 187L259 188L260 188L261 188L261 186L262 186L263 186L265 188C264.113 183.861 256.939 183.634 255 187z"
     id="path404" />
  <path
     style="fill:#a27b6b; stroke:none;"
     d="M393 185L391 193L391 194L391 195L391 206L396 206L396 205L393 185z"
     id="path406" />
  <path
     style="fill:#d1a490; stroke:none;"
     d="M175 186L175 188L184 188L183 190L184 190L198 189C194.049 183.702 181.07 186 175 186z"
     id="path408" />
  <path
     style="fill:#382015; stroke:none;"
     d="M268 186L268 188L270 188L270 186L268 186M272 186L272 188L274 188L274 186L272 186z"
     id="path410" />
  <path
     style="fill:#68341a; stroke:none;"
     d="M276 188L296 187C291.604 185.155 279.286 184.24 276 188z"
     id="path412" />
  <path
     style="fill:#5c3929; stroke:none;"
     d="M297 186L297 188L299 188L299 186L297 186z"
     id="path414" />
  <path
     style="fill:#68341a; stroke:none;"
     d="M349 188L360 188C357.462 185.096 351.538 185.096 349 188z"
     id="path416" />
  <path
     style="fill:#382015; stroke:none;"
     d="M367 186L367 188L369 188L369 186L367 186M376.333 186.667L376.667 187.333L376.333 186.667z"
     id="path418" />
  <path
     style="fill:#754731; stroke:none;"
     d="M383 186L383 188L385 188L385 186L383 186z"
     id="path420" />
  <path
     style="fill:#b4846f; stroke:none;"
     d="M127 192C130.861 191.647 134.638 190.454 137 194L140 187L127 192z"
     id="path422" />
  <path
     style="fill:#d1a490; stroke:none;"
     d="M335 192L374 192C379.214 192 385.888 193.404 387 187C374.878 189.25 361.376 187.082 349 187.234C343.882 187.297 337.173 186.595 335 192z"
     id="path424" />
  <path
     style="fill:#925334; stroke:none;"
     d="M79 210L84 210L84 214L109 216L107 220L105 218L104 218L99 220L99 222L109 222L112 229L111 223L112 223L128 233L129 230L130 230L131 236L132 236L132 219L133 219L134 221C135.12 215.259 132.061 208.47 138 205L137 191C123.246 191.336 109.74 191.502 96 191.319C90.6569 191.247 84.0795 193.253 81 188C74.556 191.631 78.2656 203.834 79 210z"
     id="path426" />
  <path
     style="fill:#a16c54; stroke:none;"
     d="M166 188C167.545 201.942 173.739 216.734 175.79 231C177.586 243.492 173.631 258.896 186 266L189 265L187 268L188 274C192.593 280.071 186.655 287.901 181 291L185.316 331.791L193 352L194 352L194 344L195 344L195 348L200 348L198 352L208 350L208 351L205 351L212 356C207.329 365.194 222.409 360.101 225 369L231 369L231 370L219 369L230 374C235.034 368.017 240.83 377.511 249 376L252 379L252 372L254 372L258 386L261 388L283 389L283 386C285.993 385.936 287.346 386.054 288 383L289 383L292 386L299 379L298 376L312 379L313 379L313 374L308 370L320 370L320 365C313.934 366.539 308.847 370.118 305 363L311 366L312 356L317 359L315 363L322 359L315 355L318 349L310 343L314 340L320 341L317 339C320.184 335.981 322.697 336.888 324 341L332 341L336 344L330 348C329.95 352.208 329.734 354.71 326 357L326 359L333 360L333 365C339.745 365.057 348.664 371.353 350 362L352 364L362 365C361.184 362.471 358.256 360.483 362 360L362 359L360 357L366 358L360 355L360 349L383 348L383 352L388 350L387 344L391 350L397 349C397 344.898 398.853 337.04 394 336L394 335C398.19 331.338 396.613 317.37 396.166 312C394.503 292.027 397.521 271.945 395 252L394 252L394 283C388.035 283.306 387.243 302.197 377 297L368 297L364 304L364 300L351 299L336 308L335 308L332 304L333 309L330 311L329 311L330 303L329 303C324.086 312.481 312.338 315.223 306.009 304.981C301.612 297.865 301.001 284.246 301 276L307 276C305.825 279.526 306.556 281.511 309 282L308 285L309 292L311 292L311 297C314.779 296.548 319.889 300.184 321 295L329 297L329 278C333.463 275.424 334.413 269.804 335 265L332 266L329 263C331.878 258.95 332.051 253.762 331 249L334 250L329 243L330 246L328 243L323 245L323 243L317 245L316 245L315 245L315 243L312 245L302 244L307 247L307 248L299 249C299 252.511 298.013 256.146 302 257L302 263L300 262L300 263L301 273L300 273L296.319 246.001L302 233C294.323 228.29 300.351 211.983 299 204L302 197L304 194L254 197L236 197L235 197C231.16 192.604 219.519 194.009 214 194C199.733 193.977 179.334 193.207 166 188z"
     id="path428" />
  <path
     style="fill:#fad2b1; stroke:none;"
     d="M138 189L138 192L139 192L138 189z"
     id="path430" />
  <path
     style="fill:#eca967; stroke:none;"
     d="M391.333 189.667L391.667 190.333L391.333 189.667z"
     id="path432" />
  <path
     style="fill:#fad2b1; stroke:none;"
     d="M74 190L74 207L75 207L74 190z"
     id="path434" />
  <path
     style="fill:#925334; stroke:none;"
     d="M390 191L386 204L389 212C391.678 211.805 395.618 209.991 391 209L393 207L393 197L393 196L393 195L391 195L391 194L391 193L393 191L390 191z"
     id="path436" />
  <path
     style="fill:#d0bfb8; stroke:none;"
     d="M163 192L162 199L163 199L165 192L163 192z"
     id="path438" />
  <path
     style="fill:#754731; stroke:none;"
     d="M165 192L166 204L166 228L167 228L168 220L175 241L176 241C176 229.879 172.477 220.001 171.592 209.015C171.1 202.907 171.104 195.113 165 192z"
     id="path440" />
  <path
     style="fill:#5c3929; stroke:none;"
     d="M304 192L304 200L307 199L304 192z"
     id="path442" />
  <path
     style="fill:#b4846f; stroke:none;"
     d="M335 192C338.977 196.061 344.649 195 350 195L384 195L384 192L335 192z"
     id="path444" />
  <path
     style="fill:#d0bfb8; stroke:none;"
     d="M394 192L394 205L395 205L394 192z"
     id="path446" />
  <path
     style="fill:#be9d8e; stroke:none;"
     d="M164 193L164 197L165 197L164 193z"
     id="path448" />
  <path
     style="fill:#cb9474; stroke:none;"
     d="M137 194L138 203L161 203L162 196C157.016 196.214 152.807 197.872 149 194L147 196L146 196L146 194L145 194L144 194L144 196L143 196L137 194z"
     id="path450" />
  <path
     style="fill:#925334; stroke:none;"
     d="M304 194L302 197L299 204L298 232L301 231C300.383 224.058 298.831 210.062 304 205L304 194z"
     id="path452" />
  <path
     style="fill:#a16c54; stroke:none;"
     d="M150 196L150 197L158 196L150 196z"
     id="path454" />
  <path
     style="fill:#382015; stroke:none;"
     d="M165 196L162 203L166 204L165 196z"
     id="path456" />
  <path
     style="fill:#be9d8e; stroke:none;"
     d="M391 197L391 199L393 199L393 197L391 197z"
     id="path458" />
  <path
     style="fill:#a16c54; stroke:none;"
     d="M309 200L309 202L330 202C325.249 197.176 315.393 200 309 200z"
     id="path460" />
  <path
     style="fill:#ffffff; stroke:none;"
     d="M303 204L307 200L303 204z"
     id="path462" />
  <path
     style="fill:#5c3929; stroke:none;"
     d="M308 200C302.895 204.945 295.442 218.452 304 224L305 206L306 206L306 229L307 229L307 224C315.852 224 325.38 221.358 329 231L307 230L306 230L304 233L298 250L302 250L307 248L307 247L302 244L312 245L315 245L316 245L317 245L317 243L323 243L323 245L330 246L329 243L332 246L338 241L333 239L334 235C338.258 231.263 336.679 218.502 337 213L336 213L333 237L329 237L329 236L329 233L332 232L331 210L330 210L329 220L328 220L328 213C321.394 213 312.261 215.08 309 208C316.536 208 327.303 210.787 330 202L308 200z"
     id="path464" />
  <path
     style="fill:#a16c54; stroke:none;"
     d="M138 205L164 205C160.447 199.916 141.28 199.941 138 205z"
     id="path466" />
  <path
     style="fill:#754731; stroke:none;"
     d="M136 206L136 207L160 208C158.045 198.832 141.495 203.544 136 206z"
     id="path468" />
  <path
     style="fill:#786157; stroke:none;"
     d="M330 203L330 208L331 208L332 203L330 203z"
     id="path470" />
  <path
     style="fill:#cb9474; stroke:none;"
     d="M76 204C76.1044 208.442 76.3889 212.419 81 214L78 204L76 204z"
     id="path472" />
  <path
     style="fill:#382015; stroke:none;"
     d="M329 204C325.192 210.208 315.46 208 309 208C311.11 215.467 321.809 213 328 213L328 220L329 220L330 210L332 211L332 207L330 208L329 204z"
     id="path474" />
  <path
     style="fill:#fad2b1; stroke:none;"
     d="M331 204L333 207L331 204z"
     id="path476" />
  <path
     style="fill:#382015; stroke:none;"
     d="M135 207L138 206L135 207z"
     id="path478" />
  <path
     style="fill:#211a13; stroke:none;"
     d="M160 205L160 210L145 210C146.005 214.496 147.116 216.639 152 216L148 225L144 225L144 226L150 227C150.715 222.381 152.924 220.14 157 218C157.195 227.174 160.684 245.884 168 252L168 226L167 226L162 234C164.32 226.681 166.047 215.445 164 208L163 208L163 215L161 215L162 205L160 205z"
     id="path480" />
  <path
     style="fill:#d5c8ba; stroke:none;"
     d="M162 205L165 208L162 205z"
     id="path482" />
  <path
     style="fill:#a27b6b; stroke:none;"
     d="M305 206L302 226L305 226L305 206z"
     id="path484" />
  <path
     style="fill:#bdb8b4; stroke:none;"
     d="M333 206L333 213L334 213L333 206z"
     id="path486" />
  <path
     style="fill:#cb9474; stroke:none;"
     d="M393 206L391 209C393.251 208.527 394.118 208.14 393 206z"
     id="path488" />
  <path
     style="fill:#5c3929; stroke:none;"
     d="M394 209L398 206L394 209z"
     id="path490" />
  <path
     style="fill:#a19692; stroke:none;"
     d="M134 207L134 227L135 227C136.415 222.211 138.04 210.531 134 207z"
     id="path492" />
  <path
     style="fill:#ffffff; stroke:none;"
     d="M136 207L136 211L137 211L136 207z"
     id="path494" />
  <path
     style="fill:#a27b6b; stroke:none;"
     d="M137 207L137 212L138 212L137 207z"
     id="path496" />
  <path
     style="fill:#382015; stroke:none;"
     d="M138 208L138 228L139 228L139 210L141 210L141 226L148 225L152 216C147.496 215.925 146.33 214.13 145 210L160 210C156.509 205.419 143.428 207.225 138 208z"
     id="path498" />
  <path
     style="fill:#5c3929; stroke:none;"
     d="M162 207L161 215L163 215L162 207z"
     id="path500" />
  <path
     style="fill:#a27b6b; stroke:none;"
     d="M395 208L395 209L400 209L395 208z"
     id="path502" />
  <path
     style="fill:#bdb8b4; stroke:none;"
     d="M399 207L399 208L402 208L399 207z"
     id="path504" />
  <path
     style="fill:#a27b6b; stroke:none;"
     d="M69 208L69 209L74 209L69 208z"
     id="path506" />
  <path
     style="fill:#754731; stroke:none;"
     d="M74 208L73 235C78.9952 229.956 76.552 215.039 76 208L74 208z"
     id="path508" />
  <path
     style="fill:#211a13; stroke:none;"
     d="M134 208L134 216L135 216L134 208z"
     id="path510" />
  <path
     style="fill:#a27b6b; stroke:none;"
     d="M164 208L166 222L167 222C167 217.255 168.4 210.853 164 208M332 208L333 230L334 230L335 208L334 208L334 213L333 213L332 208z"
     id="path512" />
  <path
     style="fill:#382015; stroke:none;"
     d="M398 209L398 210L402 208L398 209z"
     id="path514" />
  <path
     style="fill:#a19692; stroke:none;"
     d="M402 208L402 209L408 211L408 210L402 208z"
     id="path516" />
  <path
     style="fill:#bdb8b4; stroke:none;"
     d="M65.6667 209.333L66.3333 209.667L65.6667 209.333z"
     id="path518" />
  <path
     style="fill:#786157; stroke:none;"
     d="M67 209L67 210L73 213L74 209L67 209z"
     id="path520" />
  <path
     style="fill:#211a13; stroke:none;"
     d="M394.667 209.333L395.333 209.667L394.667 209.333z"
     id="path522" />
  <path
     style="fill:#925334; stroke:none;"
     d="M396 209C390.494 220.441 399.495 239.711 401.41 252C405.689 279.466 404 308.362 404 336L403 336L403 328L402 328L407 376L409 376L405 324L406 324L409 353L410 353L410 344L412 347L413 347L415 344C414.189 338.595 420.056 323.844 424 320L423 315L426 317C422.039 300.198 431.374 279.554 433.87 262C434.854 255.074 436.213 243.07 441 238L440 235L444 234L447 238L444 229L441 230C440.395 227.232 439.711 227.423 437 228L428 227.154L415 221L405 216L401 217L396 214L396 221L395 221L398 209L396 209z"
     id="path524" />
  <path
     style="fill:#786157; stroke:none;"
     d="M400 210L402 213L403 213L405 210L400 210z"
     id="path526" />
  <path
     style="fill:#5c3929; stroke:none;"
     d="M50 215L50 216L62 216L70 213C65.5334 206.679 55.7662 213.426 50 215z"
     id="path528" />
  <path
     style="fill:#a27b6b; stroke:none;"
     d="M76 210L77 238L76 239L73 238L72 252L73 252L74 240L76 240C76.2554 247.099 76.7942 254.967 75.696 261.996C74.3849 270.388 70.4095 279.895 73.7639 288.536C76.2944 295.055 81.7459 297.263 86.6343 301.485C91.7076 305.866 94.9756 309.916 102 310L102 312L97 312L103 320L99 321L99 325L99 326L99 327L108 333L104 332C106.574 336.892 113.052 335.623 118 336L118 337L112 337L112 338L131.884 340.31L146 340L146 336L147 336L147 340L148 340L152 328C148.597 328.729 149.013 330.806 149 334C144.295 331.111 142.325 330.113 137 332L138 329L136 325L134 325L134 329L131 323L115 317L116 312L104 311L104 310L112 310L112 308L104 308L103 299L97 297L101 298L101 296L104 297C103.133 292.955 91.5009 295.012 96 289L96 283L101 283L98 280L107 272L108 275L109 272L112 272L120 277C124.391 279.296 126.835 284.265 128 289L131 291L132 291L132 288L133 288L133 290L134 290L129.214 249L132.142 239L130 230L129 230L128 233L112 223L111 223L112 229L109 222L99 222L99 220L104 218L105 218L107 220L109 216L84 214L84 210L79 210L79 211L81 214L76 210z"
     id="path530" />
  <path
     style="fill:#68341a; stroke:none;"
     d="M139 210L139 228L149 227L149 226L141 226L141 210L139 210z"
     id="path532" />
  <path
     style="fill:#af7961; stroke:none;"
     d="M394 210L386 212C381.059 219.817 368.399 216.069 360 216L356 221L356 219L344 221L336.731 238.129L339.566 248L329 311L330 311L333 309L332 304L335 308L336 308L351 299L364 300L364 304L368 297L377 297C382.994 305.2 391.83 283.157 394 283L393.876 238L394 210M396 214L402 217L404 214C401.108 210.762 398.338 209.856 396 214z"
     id="path534" />
  <path
     style="fill:#a27b6b; stroke:none;"
     d="M408 210L412 213L408 210M59.6667 211.333L60.3333 211.667L59.6667 211.333z"
     id="path536" />
  <path
     style="fill:#a16c54; stroke:none;"
     d="M70 211L67 215L67 216L73 218L68 221L68 222L74 224L74 211L73 211L72 213L70 211z"
     id="path538" />
  <path
     style="fill:#bdb8b4; stroke:none;"
     d="M136 211L136 226L137 226L136 211z"
     id="path540" />
  <path
     style="fill:#5c3929; stroke:none;"
     d="M403 211L403 213L410 216L414 215L415 218L418 215L403 211z"
     id="path542" />
  <path
     style="fill:#d0bfb8; stroke:none;"
     d="M55 212L55 213L58 213L55 212z"
     id="path544" />
  <path
     style="fill:#925334; stroke:none;"
     d="M62 216L54 218C52.0292 217.578 43.3941 218.552 47 221L39 223L38 226C34.5043 225.641 31.8176 226.361 31 230L27 230L27 234C16.1693 225.394 -2.3174 250.863 13 257L19 246L14 243L22 245C22.6544 248.054 24.0066 247.936 27 248L26 252L29 258C35.4463 260.567 35.7495 263.764 35 270L38 270L37 281L37 290L40 294L45 295L46 312L50 312L50 317L54 317L54 320L48 320L48 322C53.7271 322.425 56.5752 325.273 57 331L58 331L58 326L59 326L53 467L54 467L59.9105 397L64 320L65 320L62 400C84.8015 406.209 112.326 404 136 404L136 399L137 399L137 401L138 401C138.505 398.261 138.24 388.368 142 391L143 383L142 383L142 388L140 388L147 352L150 352L146 405L141.019 413L129 439C135.487 437.969 136.181 432.37 138.414 427.001C142.733 416.613 145.386 408.974 148 398L149 398C148.999 408.604 146.987 418.984 143.866 429.09C142.628 433.095 139.843 437.222 144 440L142 443C154.12 438.722 151.627 415.862 153 405L154 405L153 418L154 418L155 415L156 424C162.26 419.298 160 406.962 160 400L161 400L161 402L162 402L158 341C164.914 339.846 163.053 331.579 163.255 326C163.874 308.872 167.998 291.962 168 275L167 275C164.884 282.528 164.937 294.761 159 300C159.445 305.922 158.082 322.154 152 324L148 340L147 340L147 336L146 336L146 340L144 338L112 338L112 337L118 337L118 336C112.959 335.366 107.379 336.199 104 332L108 333L99 327L99 326L99 325L101 325L99 321L103 320L97 312L102 312L102 310C95.5947 309.79 91.9475 305.538 87.3295 301.485C82.2335 297.012 76.3342 294.594 73.7639 287.7C68.5796 273.795 77.5813 254.954 76 240L74 240L71 261L70 261C70.0599 253.761 70.3206 241.717 75 236L74 239L77 238L77 225L76 225L73 235C74.8883 227.069 72.9592 225.296 68 220L73 218L67 216L68 212L62 216M137 212L137 232L150 232L150 230L139 231L137 212z"
     id="path546" />
  <path
     style="fill:#68341a; stroke:none;"
     d="M395 212L395 221L396 221L395 212z"
     id="path548" />
  <path
     style="fill:#d8d1cf; stroke:none;"
     d="M412 212L412 213L416 213L412 212z"
     id="path550" />
  <path
     style="fill:#a19692; stroke:none;"
     d="M54 213L55 214L54 213z"
     id="path552" />
  <path
     style="fill:#b4846f; stroke:none;"
     d="M67 213L70 215L67 213z"
     id="path554" />
  <path
     style="fill:#d1a490; stroke:none;"
     d="M403 216L406 213L403 216z"
     id="path556" />
  <path
     style="fill:#b4846f; stroke:none;"
     d="M415 221C418.465 226.078 429.251 230.411 433 224L430 222L426 223L422 218L418 217L415 218L414 215L410 216C405.827 210.761 404.79 221.476 415 221z"
     id="path558" />
  <path
     style="fill:#786157; stroke:none;"
     d="M412 213L412 214L418 215L412 213z"
     id="path560" />
  <path
     style="fill:#4b5251; stroke:none;"
     d="M164 214L164 222L165 222L164 214z"
     id="path562" />
  <path
     style="fill:#d5c8ba; stroke:none;"
     d="M165 214L164 231L165 231L165 214z"
     id="path564" />
  <path
     style="fill:#786157; stroke:none;"
     d="M418 215L417 216L418 219L422 218L426 223L430 222L437 228L443 227C436.245 220.869 426.71 217.283 418 215z"
     id="path566" />
  <path
     style="fill:#a27b6b; stroke:none;"
     d="M419 215L419 216L423 216L419 215z"
     id="path568" />
  <path
     style="fill:#382015; stroke:none;"
     d="M43 221L54 218C49.9125 214.956 45.5197 216.896 43 221z"
     id="path570" />
  <path
     style="fill:#a27b6b; stroke:none;"
     d="M155 218L155 224L157 224L157 218L155 218z"
     id="path572" />
  <path
     style="fill:#bdb8b4; stroke:none;"
     d="M427.667 218.333L428.333 218.667L427.667 218.333z"
     id="path574" />
  <path
     style="fill:#5c3929; stroke:none;"
     d="M132 219L130 244L134 246L136 244C138.605 246.261 145.157 247.514 147 244L148 244L149 244L149 246C153.313 246.121 160.43 247.347 162.008 252.108C163.246 255.847 160.889 260.188 164 263L163 261L164 261L178 264L173.39 233L168 220L177 254L168 249L166 252L156 224L155 224L155 236L152 232L151 232L151 236L147 237C145.444 235.187 144.556 235.187 143 237L142 237C140.873 234.994 140.127 234.994 139 237L138 237L139 232L136 233L132 219z"
     id="path576" />
  <path
     style="fill:#754731; stroke:none;"
     d="M150 232C144.795 232.001 139.761 231.2 138 237L139 237L142 237L143 237L147 237L151 236L151 232L152 232L155 236L155 219C149.514 221.765 149.534 226.404 150 232M24 231L27 234L27 230L31 230C31 226.512 34.9874 225.762 38 226L39 223L47 222C39.1044 217.896 29.966 226.282 24 231z"
     id="path578" />
  <path
     style="fill:#d1a490; stroke:none;"
     d="M68.6667 220.333L69.3333 220.667L68.6667 220.333z"
     id="path580" />
  <path
     style="fill:#cb9474; stroke:none;"
     d="M43 222L43 224L45 224L45 222L43 222M63 222L63 223L67 223L63 222z"
     id="path582" />
  <path
     style="fill:#a27b6b; stroke:none;"
     d="M164 222L164 227L165 227L164 222z"
     id="path584" />
  <path
     style="fill:#68341a; stroke:none;"
     d="M394 222L402.17 354L402.299 390.09L401.397 403.258L392 405.424L362 407L362 408L407 406L396 232L397 232L400.09 280L404 322L405 322C405 298.053 404.795 271.67 400.92 248C399.514 239.416 399.527 229.139 394 222z"
     id="path586" />
  <path
     style="fill:#eca967; stroke:none;"
     d="M399.667 222.333L400.333 222.667L399.667 222.333z"
     id="path588" />
  <path
     style="fill:#fad2b1; stroke:none;"
     d="M405.667 222.333L406.333 222.667L405.667 222.333z"
     id="path590" />
  <path
     style="fill:#bdb8b4; stroke:none;"
     d="M34.6667 223.333L35.3333 223.667L34.6667 223.333z"
     id="path592" />
  <path
     style="fill:#4b5251; stroke:none;"
     d="M156 224L159 233L160 233L156 224z"
     id="path594" />
  <path
     style="fill:#a16c54; stroke:none;"
     d="M168 224C167.857 230.095 160.351 246.22 172 246L173 251L174 251C173.715 244.362 173.627 227.971 168 224z"
     id="path596" />
  <path
     style="fill:#382015; stroke:none;"
     d="M301 224L302 233L296.243 245.004L300 273L301 273L298.473 245.039L306 233L301 227L304 229L301 224z"
     id="path598" />
  <path
     style="fill:#af7961; stroke:none;"
     d="M307 227L308 227L327 225C323.266 222.848 308.042 222.139 307 227z"
     id="path600" />
  <path
     style="fill:#d1a490; stroke:none;"
     d="M414 224L417 226L414 224z"
     id="path602" />
  <path
     style="fill:#d8d1cf; stroke:none;"
     d="M303 225L305 230L306 230L303 225z"
     id="path604" />
  <path
     style="fill:#d1a490; stroke:none;"
     d="M307 228L308 229L328 229L328 225C321.988 225 310.839 222.678 307 228z"
     id="path606" />
  <path
     style="fill:#211a13; stroke:none;"
     d="M135 226L137 231L138 231L135 226z"
     id="path608" />
  <path
     style="fill:#cb9474; stroke:none;"
     d="M416 227L416 228L420 227L416 227z"
     id="path610" />
  <path
     style="fill:#d8d1cf; stroke:none;"
     d="M134 227L137 232L134 227z"
     id="path612" />
  <path
     style="fill:#be9d8e; stroke:none;"
     d="M139 231L150 230C147.214 225.702 140.675 225.954 139 231M301 227L306 232L301 227z"
     id="path614" />
  <path
     style="fill:#754731; stroke:none;"
     d="M441 230L444 229L447 238L444 234L440 235L441 238C436.618 241.16 435.187 252.615 434.285 258C432.503 268.646 431.117 279.624 428.84 290C426.565 300.362 422.203 306.462 426 317L423 315L424 320C419.634 322.817 413.742 338.965 415 344L413 347L412 347L410 344L410 353L409 353L406 324L405 324L408.909 368L408.09 390L412 469L411 469L408 421L405 423L409 420L407 408L395 412L394 412L393 412L393 410L389 412L390 409L362 408L362 407L392 405.576L401.397 403.821L402.553 391.039L403 360L402 360C401.348 376.232 402.356 394.953 380.039 393.781C376.492 393.595 373.301 391.149 370 390L359 395L355 390L352 394L358 397L358 398C348.508 394.435 341.117 393.164 331 396L331 397L352 404L331 401L332 404L294 407L211 403L211 401L220 401L220 400L208 400C207.946 395.461 207.702 392.428 203 391C202.633 385.707 200.063 369.382 196 367L191 341L190 341L192 355L188 353L199.561 404L210 445L212 438L213 438L217 452L211 455L206 445L208 455L192 460L191 457L189 435L192 446L195 445L198 448L201 444C196.243 428.786 195 409.159 195 393L194 393L194 396L193 396L184 347L189 349L183 314L182 314L182 320L181 320C180.494 317.471 180.506 317.471 180 320L179 320L179 312L175 312L175 307L174 307L176 334L179 334L179 341L181 340L179 360L178 360L177 354L176 354L176 363L174 363L174 355L173 355L173.995 374L171 418L176 420L174 405C182.581 413.168 176.225 434.74 179 446L174 446C173.994 454.469 172.999 456.534 165 459L172.431 445.871L171 427L169 428L171 424L171 423L171 422L170 417L167 418L167 414L166 414L169 443L168 443L164 419L163 419L165 431L165 432C162.888 434.975 164.366 436.978 166 440L161 446L139 444L141 442L142 430L144 420L143 420L138 439L135 443L128 440C130.341 436.334 137.91 419.293 132 418L132 417L135 417L135 412L134 412L134 415L133 415L133 409L109 407L109 406L135 407L135 404L97 405L97 408L91 407L92 409L91 409L89 406L66 405L68 413L81 413L81 414L59 414L55 467L53 467L59 326L58 326L58 331L57 331C56.7987 324.8 54.1999 322.201 48 322L48 320L54 320L54 317L50 317L50 312L46 312L45 295L40 294L37 290C37.7193 287.044 40.1721 282.664 37 281L38 270L35 270C36.3697 263.751 36.1315 259.789 29 258L26 252L27 248L22 245L14 243L19 246L10 256L18.1505 287.004L29.3796 346L35.7531 364L41.6343 395L45 406C43.678 412.161 47.3139 416.081 47.8951 422C49.1707 434.992 47.6946 447.115 50.4892 460C51.5179 464.743 51.6195 471.104 56.3295 473.972C61.2214 476.951 71.4197 475 77 475C93.3172 475 109.627 476 126 476C185.721 476 245.362 478.476 305 477.015C329.999 476.402 354.991 476.96 380 477C387.862 477.013 401.408 481.857 407 474C417.575 476.38 415.715 460.554 416.576 454C418.336 440.593 416.016 426.045 419.934 413.015C421.751 406.973 422.599 400.152 424.75 394.286C427.572 386.59 432.9 380.712 432 372L433 372L435 374C443.49 347.414 446.266 317.566 450.222 290C452.311 275.446 457.275 260.85 457 246C456.872 239.107 454.721 234.646 449.222 230.611C446.423 228.558 442.119 224.778 441 230M44 228L48 231L48 230L44 228z"
     id="path616" />
  <path
     style="fill:#af7961; stroke:none;"
     d="M306 229L307 233C314.762 229.378 320.785 230.306 329 231C324.182 226.081 312.317 227.167 306 229z"
     id="path618" />
  <path
     style="fill:#d0bfb8; stroke:none;"
     d="M24 229L24 231L26 229L24 229z"
     id="path620" />
  <path
     style="fill:#786157; stroke:none;"
     d="M163 229L162 234L163 229z"
     id="path622" />
  <path
     style="fill:#d5c8ba; stroke:none;"
     d="M331 229L331 231L333 229L331 229z"
     id="path624" />
  <path
     style="fill:#382015; stroke:none;"
     d="M332 230L329 233L329 236L329 237L333 237L334 230L332 230z"
     id="path626" />
  <path
     style="fill:#a16c54; stroke:none;"
     d="M66 232L65 243L59 243L61 239L54 237L50 239L50 240C55.976 241.906 53.4279 247.055 53 252C59.0154 254.968 58.996 259.916 59 266L58 266L58 264L57 264C57.2213 269.155 55.5717 279.703 62 280L61 288L63 288L71 237L67 242L66 242L66 232z"
     id="path628" />
  <path
     style="fill:#be9d8e; stroke:none;"
     d="M136.667 232.333L137.333 232.667L136.667 232.333z"
     id="path630" />
  <path
     style="fill:#a16c54; stroke:none;"
     d="M396 232L403 336L404 336C404 310.971 401.535 285.851 399.17 261C398.376 252.659 400.808 239.037 396 232z"
     id="path632" />
  <path
     style="fill:#a19692; stroke:none;"
     d="M454 235L455 236L454 235z"
     id="path634" />
  <path
     style="fill:#cb9474; stroke:none;"
     d="M73 236L73 238L75 238L75 236L73 236z"
     id="path636" />
  <path
     style="fill:#382015; stroke:none;"
     d="M333 238L336 240L333 238z"
     id="path638" />
  <path
     style="fill:#a27b6b; stroke:none;"
     d="M456 238L456 242L457 242L456 238z"
     id="path640" />
  <path
     style="fill:#d8d1cf; stroke:none;"
     d="M457 241L457 245L458 245L457 241z"
     id="path642" />
  <path
     style="fill:#786157; stroke:none;"
     d="M166 242C166.608 248.643 170.548 252.47 177 254L175 249L173 251L172 246L166 242z"
     id="path644" />
  <path
     style="fill:#382015; stroke:none;"
     d="M337 242L336 246L335 253C338.814 253 335.859 259.297 335.333 262C333.416 271.863 331 281.937 331 292L332 292C334.897 277.956 342.268 255.889 339 242L337 242z"
     id="path646" />
  <path
     style="fill:#bdb8b4; stroke:none;"
     d="M7 244L7 250L8 250L7 244z"
     id="path648" />
  <path
     style="fill:#754731; stroke:none;"
     d="M129 244L132 279L133 279L135 262L134 266L136 266L135 273L135 277L136 283L136 284L139 303L141 307L156 304L144 303L143 292L142 292L142 296L141 296L140 277L136 253L133 254L135 256L135 257L133 258L133 259L135 259L135 261L131 246L132 246L134 249L133 252L134 244L129 244z"
     id="path650" />
  <path
     style="fill:#a16c54; stroke:none;"
     d="M136 244L134 254C140.788 254 134.464 274.745 140 277L141 296L142 296L142 292L143 292L144 303L158 305L162 286L161 286L157 297C157.052 278.016 168.684 255.833 149 244L148 244L147 244L147 246L136 244z"
     id="path652" />
  <path
     style="fill:#d1a490; stroke:none;"
     d="M334.667 244.333L335.333 244.667L334.667 244.333z"
     id="path654" />
  <path
     style="fill:#754731; stroke:none;"
     d="M334 245L334 250L331 249L329 263L334 264L333 254L338 250L334 245z"
     id="path656" />
  <path
     style="fill:#be9d8e; stroke:none;"
     d="M457 245L457 250L458 250L457 245z"
     id="path658" />
  <path
     style="fill:#cb9474; stroke:none;"
     d="M131 246C131.099 250.79 130.708 258.218 135 261L135 257L135 256L134 249L131 246z"
     id="path660" />
  <path
     style="fill:#fad2b1; stroke:none;"
     d="M299.667 246.333L300.333 246.667L299.667 246.333z"
     id="path662" />
  <path
     style="fill:#754731; stroke:none;"
     d="M155 247C160.212 255.815 160.007 260.992 160 271L161 271L161 264L163 264L163 271L164 271C164.985 266.263 167.334 264.748 172 264L172 263L163 261L164 263C159.592 256.204 165.776 249.614 155 247z"
     id="path664" />
  <path
     style="fill:#be9d8e; stroke:none;"
     d="M336 249L335 251L337 251L336 249z"
     id="path666" />
  <path
     style="fill:#b4846f; stroke:none;"
     d="M71 250L70 261L71 261L71 250z"
     id="path668" />
  <path
     style="fill:#a19692; stroke:none;"
     d="M8 251L8 254L9 254L8 251z"
     id="path670" />
  <path
     style="fill:#a27b6b; stroke:none;"
     d="M456 251L456 256L457 256L456 251z"
     id="path672" />
  <path
     style="fill:#382015; stroke:none;"
     d="M300.667 252.333L301.333 252.667L300.667 252.333z"
     id="path674" />
  <path
     style="fill:#b4846f; stroke:none;"
     d="M336 252L333 254L333 265C336.512 262.329 337.573 256.03 336 252z"
     id="path676" />
  <path
     style="fill:#bdb8b4; stroke:none;"
     d="M9 256L9 261L10 261L9 256z"
     id="path678" />
  <path
     style="fill:#d8d1cf; stroke:none;"
     d="M456 256L456 261L457 261L456 256z"
     id="path680" />
  <path
     style="fill:#cb9474; stroke:none;"
     d="M300 257L301 263L302 263L302 257L300 257z"
     id="path682" />
  <path
     style="fill:#925334; stroke:none;"
     d="M397 259L397 268L398 268L397 259z"
     id="path684" />
  <path
     style="fill:#68341a; stroke:none;"
     d="M178 261L174 264C175.608 268.125 177.019 271.263 174 275L174 276L178 278C171.958 276.984 172.018 280.96 172 286L173 286L173 280L174 280L174 283L179 283L181 307L182 307L181 291C186.588 289.148 193.746 279.021 188 274C189.336 271.068 190.814 268.821 187 268L189 265L186 266L178 261z"
     id="path686" />
  <path
     style="fill:#d5c8ba; stroke:none;"
     d="M455 261L455 268L456 268L455 261z"
     id="path688" />
  <path
     style="fill:#b4846f; stroke:none;"
     d="M133 262L137 303L140 302L136 284L136 283C138.005 280.921 136.796 278.963 135 277L135 273L136 266L134 266L135 262L133 262z"
     id="path690" />
  <path
     style="fill:#925334; stroke:none;"
     d="M176 275L173 263C160.623 266.532 164.974 274.037 176 275z"
     id="path692" />
  <path
     style="fill:#68341a; stroke:none;"
     d="M161 264L160 281L163 280L164 278L165 278L165 273L164 273L162 275L163 264L161 264z"
     id="path694" />
  <path
     style="fill:#d0bfb8; stroke:none;"
     d="M10 265L10 268L11 268L10 265z"
     id="path696" />
  <path
     style="fill:#d5c8ba; stroke:none;"
     d="M332.667 265.333L333.333 265.667L332.667 265.333z"
     id="path698" />
  <path
     style="fill:#786157; stroke:none;"
     d="M454 265L454 268L455 268L454 265z"
     id="path700" />
  <path
     style="fill:#fad2b1; stroke:none;"
     d="M302 268L302 270L304 270L302 268M331.667 269.333L332.333 269.667L331.667 269.333z"
     id="path702" />
  <path
     style="fill:#754731; stroke:none;"
     d="M330 272L333 270L330 272z"
     id="path704" />
  <path
     style="fill:#211a13; stroke:none;"
     d="M162 271L165 273L162 290L163 290L167 275C172.898 283.013 170.661 297.409 171.019 306.985C171.355 316.005 174 324.631 174 334L176 334C176 319.393 172.679 305.473 172.039 291C171.79 285.363 170.562 277.759 178 278L162 271z"
     id="path706" />
  <path
     style="fill:#b4846f; stroke:none;"
     d="M106 272L98 280L101 283L96 283L96 289C91.0664 293.894 102.255 294.468 104 297L101 296L101 298L97 297L103 299L104 308L112 308L112 310L104 310L104 311L116 312L115 317L131 323L134 329L134 325L136 325L138 329L137 332L149 334L149 328L152 328L152 324C158.79 322.867 157 315.461 157 310C137.097 315.266 138.297 302.533 133 288L132 288L132 291L131 291L128 289C127.313 284.142 124.88 278.536 120 277C119.096 271.505 116.064 273.711 112 272L109 272L108 275L106 272z"
     id="path708" />
  <path
     style="fill:#382015; stroke:none;"
     d="M133 273L133 282L134 282L133 273z"
     id="path710" />
  <path
     style="fill:#754731; stroke:none;"
     d="M159 273C159 278.164 154.146 294.746 160 296L160 285L163 286L159 273z"
     id="path712" />
  <path
     style="fill:#b4846f; stroke:none;"
     d="M162 273L162 275L164 275L164 273L162 273z"
     id="path714" />
  <path
     style="fill:#754731; stroke:none;"
     d="M304 273L304 275L306 275L306 273L304 273z"
     id="path716" />
  <path
     style="fill:#786157; stroke:none;"
     d="M13 274L13 278L14 278L13 274z"
     id="path718" />
  <path
     style="fill:#be9d8e; stroke:none;"
     d="M331 275L329 284L333 275L331 275z"
     id="path720" />
  <path
     style="fill:#a19692; stroke:none;"
     d="M453 275L453 278L454 278L453 275z"
     id="path722" />
  <path
     style="fill:#786157; stroke:none;"
     d="M163 276L161 283C163.661 281.122 164.177 279.037 163 276z"
     id="path724" />
  <path
     style="fill:#5c3929; stroke:none;"
     d="M301 276C301 284.821 301.387 299.942 307 307C307.455 300.14 305.107 281.414 301 276z"
     id="path726" />
  <path
     style="fill:#eca967; stroke:none;"
     d="M303.667 276.333L304.333 276.667L303.667 276.333z"
     id="path728" />
  <path
     style="fill:#925334; stroke:none;"
     d="M306 276L303 277L304 294L308 294L306 296L308 304L325 305L329 297L321 295L311 297L311 292L309 292L308 285L309 282L306 276z"
     id="path730" />
  <path
     style="fill:#4b5251; stroke:none;"
     d="M168 277L163 314L164 314L170 277L168 277z"
     id="path732" />
  <path
     style="fill:#786157; stroke:none;"
     d="M14.3333 278.667L14.6667 279.333L14.3333 278.667z"
     id="path734" />
  <path
     style="fill:#5c3929; stroke:none;"
     d="M134 278C133.125 285.406 132.597 306.12 141 309L134 278z"
     id="path736" />
  <path
     style="fill:#68341a; stroke:none;"
     d="M329.667 278.333L330.333 278.667L329.667 278.333z"
     id="path738" />
  <path
     style="fill:#925334; stroke:none;"
     d="M173 280L175 312L179 312L179 320L180 320C180.653 318.04 181 317.446 181 320L182 320L179 283L173 280M396 280L396.13 320L394 335L394 336C398.224 338.739 397 344.43 397 349L391 350L387 344L388 350L383 352L383 348L360 349L360 355L366 358L360 357L362 359L362 360L359 361L362 365L352 364L352 362L350 362C347.32 370.316 340.083 365.02 333 365L333 360L326 359L326 357C330.284 355.278 329.985 352.226 330 348L336 344L332 341L324 341C323.267 335.143 315.527 335.332 320 341L314 340L310 343C311.718 346.94 313.717 348.512 318 349L315 355L322 359L315 363L317 359L312 356L311 366L305 363C307.624 370.906 314.515 367.254 320 365L320 370L308 370L313 374L313 379L312 379C308.833 375.084 302.636 376.001 298 376L299 379C294.892 380.025 292.69 381.742 292 386L289 383L288 383L288 386L283 386L283 389L261 388L258 386L254 372L252 372L252 379L249 376C241.552 376.92 233.89 366.943 230 374L219 369L231 370L231 369L225 369C223.331 358.693 208.639 365.746 212 356C210.23 355.068 203.076 351.657 208 351L208 350L198 352L200 348L195 348L195 344L194 344L196 367L203 391C207.076 393.056 207.856 395.564 208 400L220 400L220 401L211 401L211 403C220.524 403 229.492 405.259 239 405.91C260.216 407.363 281.716 407 303 407C308.946 407 331.143 409.314 331 401L352 404C349.589 399.827 335.885 397.236 331 397L331 396C341.535 393.856 348.036 395.666 358 398L358 397L352 394L355 390L359 395L370 390C378.076 394.019 394.93 396.699 399.971 385.772C402.63 380.01 401.78 373.11 401.853 367C402.041 351.137 399.406 335.733 399.015 320C398.731 308.584 400.371 290.416 396 280z"
     id="path740" />
  <path
     style="fill:#be9d8e; stroke:none;"
     d="M452 280L452 283L453 283L452 280z"
     id="path742" />
  <path
     style="fill:#a27b6b; stroke:none;"
     d="M15 281L15 284L16 284L15 281z"
     id="path744" />
  <path
     style="fill:#382015; stroke:none;"
     d="M16 281L18 291L19 291L16 281M304.667 281.333L305.333 281.667L304.667 281.333z"
     id="path746" />
  <path
     style="fill:#5c3929; stroke:none;"
     d="M329 281L329 283L331 281L329 281z"
     id="path748" />
  <path
     style="fill:#cb9474; stroke:none;"
     d="M304.667 283.333L305.333 283.667L304.667 283.333z"
     id="path750" />
  <path
     style="fill:#a27b6b; stroke:none;"
     d="M451 283L451 286L452 286L451 283z"
     id="path752" />
  <path
     style="fill:#bdb8b4; stroke:none;"
     d="M15 284L15 287L16 287L15 284z"
     id="path754" />
  <path
     style="fill:#eca967; stroke:none;"
     d="M160.667 285.333L161.333 285.667L160.667 285.333z"
     id="path756" />
  <path
     style="fill:#382015; stroke:none;"
     d="M328.667 285.333L329.333 285.667L328.667 285.333z"
     id="path758" />
  <path
     style="fill:#5c3929; stroke:none;"
     d="M169 286C166.923 293.943 156.946 324.061 169 325L169 362L168 362L168 355L167 355L166 370L167 370L171 366L171 370L172 370C171.674 362.415 173.543 355.937 173.672 348.91C173.775 343.323 169.714 338.467 176 335L176 334L173.829 319.001L171 286L169 286z"
     id="path760" />
  <path
     style="fill:#2e3955; stroke:none;"
     d="M172 286L172 296L173 296L172 286z"
     id="path762" />
  <path
     style="fill:#a19692; stroke:none;"
     d="M16.3333 287.667L16.6667 288.333L16.3333 287.667z"
     id="path764" />
  <path
     style="fill:#d1a490; stroke:none;"
     d="M328 287L327 292C329.36 290.486 330.261 289.047 328 287z"
     id="path766" />
  <path
     style="fill:#be9d8e; stroke:none;"
     d="M450 288L450 296L451 296L450 288z"
     id="path768" />
  <path
     style="fill:#a19692; stroke:none;"
     d="M17.3333 290.667L17.6667 291.333L17.3333 290.667z"
     id="path770" />
  <path
     style="fill:#5c3929; stroke:none;"
     d="M161 290L160 300L161 300L163 290L161 290z"
     id="path772" />
  <path
     style="fill:#eca967; stroke:none;"
     d="M305 290L305 292L307 292L307 290L305 290z"
     id="path774" />
  <path
     style="fill:#68341a; stroke:none;"
     d="M326 292L326 294L328 294L328 292L326 292z"
     id="path776" />
  <path
     style="fill:#382015; stroke:none;"
     d="M330 292C328.116 298.701 324.025 314.554 314 307L307 306C314.227 319.426 335.696 305.605 330 292z"
     id="path778" />
  <path
     style="fill:#786157; stroke:none;"
     d="M18 293L18 297L19 297L18 293z"
     id="path780" />
  <path
     style="fill:#a27b6b; stroke:none;"
     d="M305 293L306 302L307 302L306 296L308 294L305 293z"
     id="path782" />
  <path
     style="fill:#fad2b1; stroke:none;"
     d="M157.667 296.333L158.333 296.667L157.667 296.333z"
     id="path784" />
  <path
     style="fill:#a27b6b; stroke:none;"
     d="M449.333 296.667L449.667 297.333L449.333 296.667z"
     id="path786" />
  <path
     style="fill:#be9d8e; stroke:none;"
     d="M19 298L19 301L20 301L19 298z"
     id="path788" />
  <path
     style="fill:#cb9474; stroke:none;"
     d="M326 298L324 301L325 305L308 304L309 301C306.603 303.227 307.915 306.084 310.969 307.316C318.922 310.525 327.533 306.52 328 298L326 298z"
     id="path790" />
  <path
     style="fill:#68341a; stroke:none;"
     d="M324.667 300.333L325.333 300.667L324.667 300.333z"
     id="path792" />
  <path
     style="fill:#d5c8ba; stroke:none;"
     d="M20 301L21 311L22 311L20 301z"
     id="path794" />
  <path
     style="fill:#382015; stroke:none;"
     d="M156.333 301.667L156.667 302.333L156.333 301.667z"
     id="path796" />
  <path
     style="fill:#be9d8e; stroke:none;"
     d="M448 301L448 304L449 304L448 301z"
     id="path798" />
  <path
     style="fill:#211a13; stroke:none;"
     d="M159 302C153.936 309.598 148.489 310.072 140 309L140 310C145.991 311.771 161.673 312.221 159 302z"
     id="path800" />
  <path
     style="fill:#d1a490; stroke:none;"
     d="M138 303L139 307L140 307L140 303L138 303z"
     id="path802" />
  <path
     style="fill:#a27b6b; stroke:none;"
     d="M140 303L140 307L141 307L140 303z"
     id="path804" />
  <path
     style="fill:#d1a490; stroke:none;"
     d="M151 308L157 305L151 308z"
     id="path806" />
  <path
     style="fill:#382015; stroke:none;"
     d="M315.667 305.333L316.333 305.667L315.667 305.333z"
     id="path808" />
  <path
     style="fill:#d5c8ba; stroke:none;"
     d="M142 306L140 307L140 308L142 306z"
     id="path810" />
  <path
     style="fill:#af7961; stroke:none;"
     d="M141 308L141 309L154 309L154 308L151 306L141 308z"
     id="path812" />
  <path
     style="fill:#754731; stroke:none;"
     d="M400 306L400 314L401 314L400 306z"
     id="path814" />
  <path
     style="fill:#5c3929; stroke:none;"
     d="M314 308L314 309L324 308L314 308M143 309L143 310L151 310L143 309z"
     id="path816" />
  <path
     style="fill:#be9d8e; stroke:none;"
     d="M447 309L447 312L448 312L447 309z"
     id="path818" />
  <path
     style="fill:#5c3929; stroke:none;"
     d="M313 311L313 312L324 311L313 311M144 311L144 312L153 312L144 311z"
     id="path820" />
  <path
     style="fill:#a19692; stroke:none;"
     d="M446 312L446 317L447 317L446 312z"
     id="path822" />
  <path
     style="fill:#be9d8e; stroke:none;"
     d="M23 314L23 320L24 320L23 314z"
     id="path824" />
  <path
     style="fill:#d0bfb8; stroke:none;"
     d="M445 319L445 326L446 326L445 319z"
     id="path826" />
  <path
     style="fill:#68341a; stroke:none;"
     d="M64 320C57.9394 345.456 61 374.137 61 400L62 400C62 382.65 61.8779 365.288 63.0895 348C63.7035 339.239 67.5744 328.518 64 320z"
     id="path828" />
  <path
     style="fill:#af7961; stroke:none;"
     d="M163 325C163 330.876 164.848 338.921 158 341L161 375L162 375L165 371C165 381.084 162.567 394.788 167 404L168 404L167 353L166 325L163 325z"
     id="path830" />
  <path
     style="fill:#925334; stroke:none;"
     d="M166 325L167 350L168 350L169 325L166 325z"
     id="path832" />
  <path
     style="fill:#d0bfb8; stroke:none;"
     d="M444 326L444 330L445 330L444 326M26 327L26 334L27 334L26 327z"
     id="path834" />
  <path
     style="fill:#a16c54; stroke:none;"
     d="M176 334L176 352C169.457 353.092 171 359.674 171 365L172 365L173 355L174 355L174 363L176 363L176 354L177 354L178 360L179 360L181 340L179 341L179 334L176 334z"
     id="path836" />
  <path
     style="fill:#754731; stroke:none;"
     d="M174 352L176 352L176 335C168.893 337.359 173.523 346.534 174 352z"
     id="path838" />
  <path
     style="fill:#b4846f; stroke:none;"
     d="M187 335L191 355L192 355L189 335L187 335z"
     id="path840" />
  <path
     style="fill:#d8d1cf; stroke:none;"
     d="M27 336L27 340L28 340L27 336z"
     id="path842" />
  <path
     style="fill:#211a13; stroke:none;"
     d="M169 336L170 346L171 346L169 336z"
     id="path844" />
  <path
     style="fill:#a19692; stroke:none;"
     d="M442 338L442 341L443 341L442 338z"
     id="path846" />
  <path
     style="fill:#754731; stroke:none;"
     d="M168 345L168 362L169 362C170.242 356.784 171.385 349.468 168 345z"
     id="path848" />
  <path
     style="fill:#786157; stroke:none;"
     d="M184 347L194.181 392L196.722 418L204 439L203 442L208 445C205.495 423.24 199.779 400.961 193.495 380C191.649 373.845 186.127 358.341 190 353L184 347z"
     id="path850" />
  <path
     style="fill:#d8d1cf; stroke:none;"
     d="M440 348L440 354L441 354L440 348z"
     id="path852" />
  <path
     style="fill:#be9d8e; stroke:none;"
     d="M30 349L30 352L31 352L30 349z"
     id="path854" />
  <path
     style="fill:#786157; stroke:none;"
     d="M31 351L47 447L48 447L47.787 420L45 406C34.4914 392.325 43.9738 362.989 31 351M147 352L140 388L142 388L149 352L147 352z"
     id="path856" />
  <path
     style="fill:#754731; stroke:none;"
     d="M149 352C146.866 367.833 140.345 389.246 145 405L146 405L147.209 373L149 352z"
     id="path858" />
  <path
     style="fill:#a19692; stroke:none;"
     d="M439 354L439 357L440 357L439 354z"
     id="path860" />
  <path
     style="fill:#5c3929; stroke:none;"
     d="M164 357L163 369L164 369L164 357z"
     id="path862" />
  <path
     style="fill:#a19692; stroke:none;"
     d="M33 363L33 366L34 366L33 363z"
     id="path864" />
  <path
     style="fill:#68341a; stroke:none;"
     d="M187 363L193 396L194 396C193.971 387.541 191.745 369.937 187 363z"
     id="path866" />
  <path
     style="fill:#382015; stroke:none;"
     d="M172 365L171 416L172 416C172 405.989 170.642 394.882 172.259 385C173.291 378.695 176.28 370.649 172 365z"
     id="path868" />
  <path
     style="fill:#786157; stroke:none;"
     d="M168 366C164.372 377.628 165.792 392.105 168 404L165 403L167 418L170 417L171 422L171 423L171 424L169 428L171 427L172.431 444.946L165 459C173.579 456.921 173.999 454.724 174 446L179 446L174.763 432L175.169 422.09L169.883 408L171 366L168 366z"
     id="path870" />
  <path
     style="fill:#be9d8e; stroke:none;"
     d="M34 368L34 374L35 374L34 368z"
     id="path872" />
  <path
     style="fill:#382015; stroke:none;"
     d="M405 368C405 379.532 404.045 394.149 408 405L409 405C409 394.392 410.589 377.27 405 368z"
     id="path874" />
  <path
     style="fill:#a4400b; stroke:none;"
     d="M147 370L147 379L148 379L147 370z"
     id="path876" />
  <path
     style="fill:#382015; stroke:none;"
     d="M163 371L162 398L161 442L166 440L165 432L165 431L163 419L164 419L168 443L169 443L166 401L163 371z"
     id="path878" />
  <path
     style="fill:#4b5251; stroke:none;"
     d="M164 371L164 401L165 401L164 371z"
     id="path880" />
  <path
     style="fill:#786157; stroke:none;"
     d="M432 372C432.397 380.307 427.523 386.042 424.75 393.428C422.509 399.397 421.327 406.811 419.669 413.015C415.411 428.949 416 449.502 416 466L417 466C418.821 442.922 424.15 420.507 429.503 398C431.335 390.296 437.022 379.351 432 372z"
     id="path882" />
  <path
     style="fill:#d0bfb8; stroke:none;"
     d="M435 372L434 382L435 382L435 372z"
     id="path884" />
  <path
     style="fill:#211a13; stroke:none;"
     d="M144 374L143 393L144 393L146 374L144 374z"
     id="path886" />
  <path
     style="fill:#bdb8b4; stroke:none;"
     d="M35.3333 376.667L35.6667 377.333L35.3333 376.667z"
     id="path888" />
  <path
     style="fill:#a16c54; stroke:none;"
     d="M161 379L161 395L162 395L161 379z"
     id="path890" />
  <path
     style="fill:#382015; stroke:none;"
     d="M60 387L59 407L60 407L60 387z"
     id="path892" />
  <path
     style="fill:#5c3929; stroke:none;"
     d="M174 387L175 404L176 404L174 387z"
     id="path894" />
  <path
     style="fill:#382015; stroke:none;"
     d="M182 387L183 404L184 404L182 387z"
     id="path896" />
  <path
     style="fill:#786157; stroke:none;"
     d="M140 389L136 409L133 408L133 415L134 415L134 412L135 412L132 417L132 418L135 418L133 428L134 428C138.816 418.161 142.591 399.785 140 389z"
     id="path898" />
  <path
     style="fill:#5c3929; stroke:none;"
     d="M142 389L140 406L141 406L142 394L145 395L143 393L142 389z"
     id="path900" />
  <path
     style="fill:#bdb8b4; stroke:none;"
     d="M431 391L431 394L432 394L431 391z"
     id="path902" />
  <path
     style="fill:#211a13; stroke:none;"
     d="M142 394L135 427C143.04 421.514 144 402.896 144 394L142 394z"
     id="path904" />
  <path
     style="fill:#d0bfb8; stroke:none;"
     d="M429 397L429 402L430 402L429 397z"
     id="path906" />
  <path
     style="fill:#a19692; stroke:none;"
     d="M40 398L40 405L41 405L40 398z"
     id="path908" />
  <path
     style="fill:#382015; stroke:none;"
     d="M148 398L142 430L143 430C147.211 422.257 151.555 406.473 148 398z"
     id="path910" />
  <path
     style="fill:#5c3929; stroke:none;"
     d="M136 399L135 407L109 406L109 407L136 409L136 399M61 400L58 406L58 415L81 414L81 413L68 413L66 405L97 408C100.757 402.205 115.634 405 122 405L122 403L61 400z"
     id="path912" />
  <path
     style="fill:#a16c54; stroke:none;"
     d="M160 400C160 407.879 161.58 417.669 156 424L156 416L155 416L156 440L160 439L160 445L153 444L161 446C161 434.162 166.817 409.978 160 400z"
     id="path914" />
  <path
     style="fill:#5c3929; stroke:none;"
     d="M407 403C404.075 407.512 394.175 406.996 389 408L389 412L393 412L394 412L395 412L398 412L399 412L400 412L407 408L409 420L405 423L408 421L409 429L410 429C411.516 420.836 412.217 410.009 407 403z"
     id="path916" />
  <path
     style="fill:#bdb8b4; stroke:none;"
     d="M428.333 403.667L428.667 404.333L428.333 403.667z"
     id="path918" />
  <path
     style="fill:#a16c54; stroke:none;"
     d="M153 405C150.806 416.819 154.219 436.75 142 443L144 440L140 439L139 444L150 445C151.421 433.815 157.484 415.69 153 405z"
     id="path920" />
  <path
     style="fill:#382015; stroke:none;"
     d="M174 405L176 438L177 438L176 405L174 405z"
     id="path922" />
  <path
     style="fill:#a27b6b; stroke:none;"
     d="M89 406L92 409L89 406M93 406L93 408L95 408L95 406L93 406z"
     id="path924" />
  <path
     style="fill:#382015; stroke:none;"
     d="M100 406L100 408L102 408L102 406L100 406z"
     id="path926" />
  <path
     style="fill:#bdb8b4; stroke:none;"
     d="M427.333 406.667L427.667 407.333L427.333 406.667z"
     id="path928" />
  <path
     style="fill:#4b5251; stroke:none;"
     d="M207 410L216 411L232 409L232 407C226.755 407 208.218 404.317 207 410z"
     id="path930" />
  <path
     style="fill:#d0bfb8; stroke:none;"
     d="M41 409L41 414L42 414L41 409z"
     id="path932" />
  <path
     style="fill:#382015; stroke:none;"
     d="M209 409L209 411L211 411L211 409L209 409z"
     id="path934" />
  <path
     style="fill:#a27b6b; stroke:none;"
     d="M212 409L212 411L214 411L214 409L212 409z"
     id="path936" />
  <path
     style="fill:#211a13; stroke:none;"
     d="M214 409L216 411L216 409L214 409z"
     id="path938" />
  <path
     style="fill:#382015; stroke:none;"
     d="M224 409L227 411L224 409z"
     id="path940" />
  <path
     style="fill:#4b5251; stroke:none;"
     d="M272 409L272 410L369 410L339 409L272 409z"
     id="path942" />
  <path
     style="fill:#b4846f; stroke:none;"
     d="M217.667 410.333L218.333 410.667L217.667 410.333z"
     id="path944" />
  <path
     style="fill:#a16c54; stroke:none;"
     d="M237 410L235 414L264 413L268 413C271.641 415.828 279.734 416.738 283 413L284 413L285 413L289 415C285.741 410.719 278.887 412 274 412C262.167 412 248.517 412.709 237 410z"
     id="path946" />
  <path
     style="fill:#b4846f; stroke:none;"
     d="M400 410L400 412L402 412L402 410L400 410z"
     id="path948" />
  <path
     style="fill:#a19692; stroke:none;"
     d="M426 410L426 414L427 414L426 410z"
     id="path950" />
  <path
     style="fill:#d1a490; stroke:none;"
     d="M232 411L232 412L235 412L232 411z"
     id="path952" />
  <path
     style="fill:#a16c54; stroke:none;"
     d="M291 413L302 415L333 413L333 412L315 414L317 411L313 413L312 413C310.873 410.994 310.127 410.994 309 413L308 413L291 413z"
     id="path954" />
  <path
     style="fill:#925334; stroke:none;"
     d="M323 415L323 416C341.434 416.051 371.582 421.397 388 412L388 411L377 413L378 411L337.996 412.093L323 415z"
     id="path956" />
  <path
     style="fill:#cb9474; stroke:none;"
     d="M254 413L254 414L257 414L254 413z"
     id="path958" />
  <path
     style="fill:#d5c8ba; stroke:none;"
     d="M42 414L42 421L43 421L42 414z"
     id="path960" />
  <path
     style="fill:#382015; stroke:none;"
     d="M58 415L54 467L55 467L58.0856 431L58 415z"
     id="path962" />
  <path
     style="fill:#b4846f; stroke:none;"
     d="M87 415L87 417L90 417L90 415L87 415M92 415L92 417L95 417L95 415L92 415z"
     id="path964" />
  <path
     style="fill:#382015; stroke:none;"
     d="M154 415L150 445C156.689 442.78 156.482 420.914 154 415z"
     id="path966" />
  <path
     style="fill:#b4846f; stroke:none;"
     d="M97.6667 416.333L98.3333 416.667L97.6667 416.333z"
     id="path968" />
  <path
     style="fill:#a16c54; stroke:none;"
     d="M143 416C139.442 423.38 137.085 437.582 128 439L128 440L135 443L138 439L143 416z"
     id="path970" />
  <path
     style="fill:#2e3955; stroke:none;"
     d="M144 416L144 420L145 420L144 416z"
     id="path972" />
  <path
     style="fill:#cb9474; stroke:none;"
     d="M127 417L127 418L130 418L127 417z"
     id="path974" />
  <path
     style="fill:#382015; stroke:none;"
     d="M359 417L357 418L357 419L359 417z"
     id="path976" />
  <path
     style="fill:#925334; stroke:none;"
     d="M221 419L221 420L256 423L260 421L260 420L221 419z"
     id="path978" />
  <path
     style="fill:#a16c54; stroke:none;"
     d="M378 419C380.232 421.554 383.768 421.554 386 419L378 419z"
     id="path980" />
  <path
     style="fill:#af7961; stroke:none;"
     d="M388 421L391 419L388 421z"
     id="path982" />
  <path
     style="fill:#bdb8b4; stroke:none;"
     d="M424 419L424 422L425 422L424 419z"
     id="path984" />
  <path
     style="fill:#925334; stroke:none;"
     d="M179 420L180 437L178 437L181 457L178 456L182 458L184 453C190.428 446.885 186.713 427.595 184 420L183 420L179 420z"
     id="path986" />
  <path
     style="fill:#cb9474; stroke:none;"
     d="M263.667 420.333L264.333 420.667L263.667 420.333z"
     id="path988" />
  <path
     style="fill:#d1a490; stroke:none;"
     d="M273.667 420.333L274.333 420.667L273.667 420.333z"
     id="path990" />
  <path
     style="fill:#b4846f; stroke:none;"
     d="M284.667 420.333L285.333 420.667L284.667 420.333z"
     id="path992" />
  <path
     style="fill:#cb9474; stroke:none;"
     d="M289.667 420.333L290.333 420.667L289.667 420.333M294 420L294 421L297 421L294 420M299 422L302 421L299 422z"
     id="path994" />
  <path
     style="fill:#d1a490; stroke:none;"
     d="M321.667 420.333L322.333 420.667L321.667 420.333z"
     id="path996" />
  <path
     style="fill:#d0bfb8; stroke:none;"
     d="M326.667 420.333L327.333 420.667L326.667 420.333z"
     id="path998" />
  <path
     style="fill:#d1a490; stroke:none;"
     d="M331.667 420.333L332.333 420.667L331.667 420.333M336 420L336 421L339 421L336 420z"
     id="path1000" />
  <path
     style="fill:#d0bfb8; stroke:none;"
     d="M342.667 420.333L343.333 420.667L342.667 420.333z"
     id="path1002" />
  <path
     style="fill:#d1a490; stroke:none;"
     d="M347 420L347 421L350 421L347 420z"
     id="path1004" />
  <path
     style="fill:#cb9474; stroke:none;"
     d="M352 420L352 421L355 421L352 420M357 420L357 421L360 421L357 420M363 420L363 421L366 421L363 420z"
     id="path1006" />
  <path
     style="fill:#be9d8e; stroke:none;"
     d="M368 420L368 421L371 421L368 420z"
     id="path1008" />
  <path
     style="fill:#d1a490; stroke:none;"
     d="M373.667 420.333L374.333 420.667L373.667 420.333z"
     id="path1010" />
  <path
     style="fill:#d0bfb8; stroke:none;"
     d="M43 424L43 428L44 428L43 424z"
     id="path1012" />
  <path
     style="fill:#d8d1cf; stroke:none;"
     d="M423 424L423 429L424 429L423 424z"
     id="path1014" />
  <path
     style="fill:#382015; stroke:none;"
     d="M410 426L411 469L412 469C412 456.22 415.309 437.827 410 426z"
     id="path1016" />
  <path
     style="fill:#bdb8b4; stroke:none;"
     d="M422 429L422 432L423 432L422 429z"
     id="path1018" />
  <path
     style="fill:#a16c54; stroke:none;"
     d="M198 432L201 444L198 448L195 448L195 445L192 446C191.997 441.863 192.654 437.582 189 435L191 457L191 458L192 460L208 455L206 453C206.917 448.729 206.713 444.734 203 442L204 439C200.641 439 202 433.797 202 431L198 432z"
     id="path1020" />
  <path
     style="fill:#754731; stroke:none;"
     d="M154 432L154 442L155 442L154 432z"
     id="path1022" />
  <path
     style="fill:#a19692; stroke:none;"
     d="M45 433L45 437L46 437L45 433z"
     id="path1024" />
  <path
     style="fill:#b4846f; stroke:none;"
     d="M155 435L154 445L160 445L160 439L156 440L155 435z"
     id="path1026" />
  <path
     style="fill:#a19692; stroke:none;"
     d="M420 435L420 444L421 444L420 435z"
     id="path1028" />
  <path
     style="fill:#a16c54; stroke:none;"
     d="M212 438L210 445L208 440L207 440L211 455L217 452L212 438z"
     id="path1030" />
  <path
     style="fill:#be9d8e; stroke:none;"
     d="M419 445L418 456L419 456L419 445z"
     id="path1032" />
  <path
     style="fill:#b4846f; stroke:none;"
     d="M183 451L182 458L178 458L178 459L189 458L187 451L184 453L183 451z"
     id="path1034" />
  <path
     style="fill:#d8d1cf; stroke:none;"
     d="M48 452L49 460L50 460L48 452z"
     id="path1036" />
  <path
     style="fill:#786157; stroke:none;"
     d="M152 452L149 455L152 452z"
     id="path1038" />
  <path
     style="fill:#d8d1cf; stroke:none;"
     d="M418 456L417 466L418 466L418 456z"
     id="path1040" />
  <path
     style="fill:#a19692; stroke:none;"
     d="M50 459L50 462L51 462L50 459z"
     id="path1042" />
  <path
     style="fill:#d0bfb8; stroke:none;"
     d="M51 466L51 471L35 475L35 476L61 478L61 479C54.0627 479.383 51.2152 483.232 51 490L416 490L414 480L430 479L430 478L414 471L408 481C348.613 481 289.389 480 230 480C167.956 480 105.775 480.875 44 476L44 474L53 473L51 466z"
     id="path1044" />
  <path
     style="fill:#a19692; stroke:none;"
     d="M415 467L415 471L416 471L415 467z"
     id="path1046" />
  <path
     style="fill:#d8d1cf; stroke:none;"
     d="M28 475L28 477L44 478L44 477L35 476L35 475C39.694 473.554 49.5126 473.085 51 468L28 475z"
     id="path1048" />
  <path
     style="fill:#786157; stroke:none;"
     d="M53 471L52 476C73.468 481.125 97.1011 477.59 119 479.09C187.424 483.775 257.372 480 326 480L389 480C396.189 480 406.951 482.303 411 475L407 474C400.778 479.481 389.86 479 382 479L326 479C260.68 479 195.232 478.025 130 478C114.004 477.994 98.0456 477 82 477C71.8939 477 61.1753 477.398 53 471z"
     id="path1050" />
  <path
     style="fill:#d8d1cf; stroke:none;"
     d="M415 471L415 472L430 478L430 479L418 479L418 480L437 480C433.1 474.285 421.627 471.578 415 471z"
     id="path1052" />
  <path
     style="fill:#a19692; stroke:none;"
     d="M44 474L44 476L54 477L54 476L52 473L44 474z"
     id="path1054" />
  <path
     style="fill:#4b5251; stroke:none;"
     d="M59 475L59 476L91 477L91 475L59 475z"
     id="path1056" />
  <path
     style="fill:#382015; stroke:none;"
     d="M91 476L91 477L392 479C384.752 474.658 372.239 477 364 477C341.089 477 317.91 476.342 295 477.91C277.007 479.143 258.921 477.087 241 477.001C190.973 476.76 141.059 476 91 476z"
     id="path1058" />
  <path
     style="fill:#4b5251; stroke:none;"
     d="M139 478L139 479L179 479C168.488 474.589 150.434 478 139 478z"
     id="path1060" />
  <path
     style="fill:#a19692; stroke:none;"
     d="M320 480L320 481L408 481L381 480L320 480z"
     id="path1062" />
</svg>
